<?xml version="1.0" encoding="utf-8"?>
<!-- Generator: Adobe Illustrator 16.0.0, SVG Export Plug-In . SVG Version: 6.00 Build 0)  -->
<!DOCTYPE svg PUBLIC "-//W3C//DTD SVG 1.1//EN" "http://www.w3.org/Graphics/SVG/1.1/DTD/svg11.dtd">
<svg version="1.1"
	 id="Capa_1" inkscape:version="0.92.1 r15371" sodipodi:docname="icon_new_sale.svg" xmlns:inkscape="http://www.inkscape.org/namespaces/inkscape" xmlns:sodipodi="http://sodipodi.sourceforge.net/DTD/sodipodi-0.dtd" xmlns:svg="http://www.w3.org/2000/svg" xmlns:rdf="http://www.w3.org/1999/02/22-rdf-syntax-ns#" xmlns:cc="http://creativecommons.org/ns#" xmlns:dc="http://purl.org/dc/elements/1.1/"
	 xmlns="http://www.w3.org/2000/svg" xmlns:xlink="http://www.w3.org/1999/xlink" x="0px" y="0px" width="426.667px"
	 height="426.667px" viewBox="0 0 426.667 426.667" enable-background="new 0 0 426.667 426.667" xml:space="preserve">
<sodipodi:namedview  inkscape:window-width="1855" inkscape:window-maximized="1" inkscape:current-layer="Capa_1" inkscape:window-height="1056" inkscape:window-x="65" inkscape:window-y="24" inkscape:cx="121.69628" inkscape:cy="206.54733" showgrid="false" inkscape:zoom="1.0907007" guidetolerance="10" gridtolerance="10" objecttolerance="10" bordercolor="#666666" pagecolor="#ffffff" borderopacity="1" id="namedview37" inkscape:pageopacity="0" inkscape:pageshadow="2">
	</sodipodi:namedview>
<g id="g7" transform="translate(0,-212)">
</g>
<g id="g9" transform="translate(0,-212)">
</g>
<g id="g11" transform="translate(0,-212)">
</g>
<g id="g13" transform="translate(0,-212)">
</g>
<g id="g15" transform="translate(0,-212)">
</g>
<g id="g17" transform="translate(0,-212)">
</g>
<g id="g19" transform="translate(0,-212)">
</g>
<g id="g21" transform="translate(0,-212)">
</g>
<g id="g23" transform="translate(0,-212)">
</g>
<g id="g25" transform="translate(0,-212)">
</g>
<g id="g27" transform="translate(0,-212)">
</g>
<g id="g29" transform="translate(0,-212)">
</g>
<g id="g31" transform="translate(0,-212)">
</g>
<g id="g33" transform="translate(0,-212)">
</g>
<g>
	<path fill="#006680" d="M131.835,306.664c-16.188-4.814-9.691,10.648-14.989,18.168c-40.575-2.479-83.926,5.209-110.203-40.547
		c-8.009-13.955-7.893-27.727-3.775-39.961c14.033-41.674,44.308-66.842,86.694-78.359c39.769-10.802,80.31-14.903,121.048-11.523
		c23.915,1.987,35.33-8.826,42.364-28.659c8-22.553,16.016-45.071,28.027-65.938c8.346-14.5,18.701-22.309,37.322-21.174
		c29.482,1.798,59.18-0.011,88.785,0.104c5.834,0.023,12.73-2.842,19.559,6.528C371.109,78.713,379.8,152.95,330,194.397
		c9.756,1.909,17.135,6.414,13.688,16.274c-2.98,8.556-11.438,6.604-18.273,6.616c-39.481,0.08-78.975-0.447-118.447,0.271
		c-15.722,0.29-26.722-10.202-40.888-12.948c4.149-11.587,15.795-12.942,23.84-22.282c-45.462-6.919-88.003-3.852-127.843,16.088
		c-18.182,9.108-31.412,45.807-26.82,64.781c4.256,17.588,29.358,31.596,58.035,34.887c12.81,1.473,28.759-7.473,38.141,9.063
		L131.835,306.664z M189.565,199.783c29.882,0,56.536-0.449,83.181,0.104c38.428,0.797,64.518-18.107,79.365-51.719
		c14.656-33.173,24.629-68.489,51.443-99.298c-34.32,0-64.352-0.093-94.371,0.113c-3.742,0.023-7.479-0.637-10.876,3.65
		c-24.103,30.419-27.69,70.68-49.472,102.126c7.856,25.284-11.926,27.077-27.019,28.49
		C209.469,184.416,200.583,188.651,189.565,199.783z"/>
	<path fill="#006680" d="M11.189,343.955c-0.002-1.912-0.008-3.836-0.01-5.746"/>
	<path fill="#006680" d="M284.934,238.214c-5.173,9.361-12.919,9.23-20.71,9.23c-40.174-0.018-80.351,0.143-120.53-0.063
		c-7.917-0.043-18.838,2.775-19.47-10.012c-0.664-13.365,10.651-10.834,18.408-10.892c40.173-0.338,80.353,0,120.522-0.313
		C272.578,226.105,279.485,229.232,284.934,238.214z"/>
	<path fill="#006680" d="M183.077,266.548c14.019,0,28.038-0.141,42.055,0.063c6.229,0.099,11.231,3.039,11.367,9.772
		c0.14,6.783-4.912,10.072-11.035,10.134c-29.424,0.29-58.859,0.321-88.292,0.121c-6.075-0.041-11.292-3.142-11.276-9.95
		c0.011-8.156,6.284-10.313,13.031-10.43c14.711-0.25,29.438-0.073,44.151-0.073C183.077,266.307,183.077,266.421,183.077,266.548z"
		/>
	<path fill="#006680" d="M131.425,307.145c23.233-7.606,46.956-2.497,70.454-2.381c5.506,0.024,10.99,3.521,10.247,10.8
		c-0.603,5.88-4.998,8.408-10.258,8.469c-18.861,0.223-37.781,0.915-56.571-0.296c-8.661-0.557-14.316-7.18-13.448-17.101
		C131.835,306.664,131.425,307.145,131.425,307.145z"/>
</g>
</svg>
