<svg viewBox="-97 1 511 511.999" xmlns="http://www.w3.org/2000/svg"><path d="m308.40625 179.691406v-14.992187c0-2.398438-1.941406-4.339844-4.339844-4.339844h-116.753906c-2.398438 0-4.34375 1.941406-4.34375 4.339844v14.992187c0 40.753906 4.609375 81.378906 13.738281 121.101563l1.203125 5.234375c9.125 39.71875 16.152344 80.34375 16.152344 121.101562v39.125c0 4.113282-2.082031 7.945313-5.535156 10.183594l-12.726563 8.246094c-2.238281 1.453125-3.589843 3.941406-3.589843 6.609375v5.332031c0 4.351562 3.527343 7.875 7.875 7.875h91.207031c4.347656 0 7.875-3.523438 7.875-7.875v-5.332031c0-2.667969-1.351563-5.15625-3.59375-6.609375l-12.726563-8.246094c-3.042968-1.972656-5.53125-6.554688-5.53125-10.183594v-39.125c0-40.757812 7.023438-81.382812 16.152344-121.101562l1.203125-5.234375c9.128906-39.722657 13.734375-80.347657 13.734375-121.101563zm0 0" fill="#dfede7"/><path d="m293.46875 306.027344 1.203125-5.238282c9.128906-39.71875 13.734375-80.34375 13.734375-121.097656v-14.992187c0-2.398438-1.945312-4.339844-4.339844-4.339844h-53.703125v19.824219c0 40.429687-4.570312 80.726562-13.625 120.128906l-1.3125 5.714844c-9.128906 39.722656-16.15625 80.347656-16.15625 121.101562v41.488282c0 2.328124 1.601563 5.269531 3.554688 6.535156l16.6875 10.816406c1.003906.652344 1.613281 1.769531 1.613281 2.964844v12.035156c0 1.953125-1.582031 3.535156-3.535156 3.535156h53.703125c4.347656 0 7.875-3.527344 7.875-7.878906v-5.328125c0-2.671875-1.351563-5.160156-3.59375-6.609375l-12.726563-8.25c-3.042968-1.972656-5.53125-6.554688-5.53125-10.179688v-39.128906c0-40.757812 7.023438-81.382812 16.152344-121.101562zm0 0" fill="#d7e0dc"/><path d="m299.167969 496.625v-5.332031c0-2.667969-1.351563-5.15625-3.59375-6.609375l-12.726563-8.246094c-3.042968-1.972656-5.53125-6.554688-5.53125-10.183594v-39.125c0-40.757812 7.023438-81.382812 16.152344-121.101562l1.203125-5.234375c7.636719-33.226563 12.09375-67.082031 13.355469-101.121094h-124.675782c1.261719 34.039063 5.71875 67.894531 13.355469 101.121094l1.203125 5.234375c9.125 39.71875 16.152344 80.34375 16.152344 121.101562v39.125c0 4.113282-2.082031 7.945313-5.535156 10.183594l-12.726563 8.246094c-2.238281 1.453125-3.589843 3.941406-3.589843 6.609375v5.332031c0 4.347656 3.527343 7.875 7.875 7.875h91.207031c4.347656 0 7.875-3.527344 7.875-7.875zm0 0" fill="#fccf3f"/><path d="m298.824219 489.039062c-.113281-.378906-.253907-.742187-.421875-1.097656-.339844-.722656-.777344-1.398437-1.320313-1.988281-.222656-.238281-.457031-.464844-.710937-.675781-.25-.214844-.515625-.410156-.796875-.59375l-12.726563-8.246094c-1.617187-1.050781-3.074218-2.839844-4.089844-4.828125-.125-.246094-.242187-.492187-.351562-.738281-.152344-.347656-.296875-.695313-.421875-1.042969-.425781-1.210937-.671875-2.4375-.671875-3.570313v-39.128906c0-12.734375.6875-25.457031 1.910156-38.144531.488282-5.078125 1.0625-10.144531 1.710938-15.207031.652344-5.0625 1.378906-10.117188 2.171875-15.160156.734375-4.667969 1.53125-9.328126 2.371093-13.976563.152344-.851563.308594-1.699219.464844-2.550781 2.230469-12.085938 4.78125-24.117188 7.527344-36.0625l1.203125-5.234375c.527344-2.296875 1.035156-4.601563 1.535156-6.902344.164063-.773437.324219-1.546875.488281-2.324219.320313-1.523437.640626-3.046875.949219-4.574218.191407-.945313.378907-1.886719.5625-2.832032.269531-1.359375.53125-2.71875.789063-4.082031.191406-1.015625.382812-2.035156.570312-3.054687.234375-1.285157.460938-2.570313.6875-3.859376.1875-1.066406.378906-2.132812.558594-3.203124.203125-1.214844.398438-2.433594.597656-3.648438.398438-2.457031.78125-4.910156 1.144532-7.371094.109374-.738281.222656-1.476562.328124-2.21875.21875-1.5.421876-3.003906.625-4.507812.101563-.75.203126-1.503906.300782-2.253906.203125-1.554688.398437-3.105469.589844-4.660157.078124-.664062.160156-1.332031.238281-1.996093.195312-1.648438.386719-3.300782.566406-4.953126.050781-.460937.097656-.921874.148437-1.382812 1.089844-10.234375 1.886719-20.5 2.390626-30.785156.003906-.078125.007812-.15625.011718-.234375.101563-2.089844.191406-4.183594.269532-6.277344h-58.027344c-1.234375 33.875-5.660156 67.574219-13.257813 100.640625l-1.316406 5.714844c-9.125 39.722656-16.152344 80.347656-16.152344 121.101562v41.484375c0 2.332031 1.597657 5.273438 3.554688 6.539063l16.6875 10.816406c1.003906.648438 1.609375 1.765625 1.609375 2.964844v12.035156c0 1.949219-1.582032 3.53125-3.53125 3.53125h53.703125.003906c.539063 0 1.070313-.054688 1.582031-.160156.019532-.003906.039063-.011719.054688-.015625.238281-.046875.472656-.105469.699218-.179688.019532-.003906.035157-.011719.050782-.015625 1.949218-.625 3.570312-1.980468 4.53125-3.75.007812-.011718.011718-.027344.019531-.039062.351563-.660156.617187-1.375.769531-2.128906.027344-.117188.039063-.238282.054688-.359376.066406-.402343.105468-.808593.105468-1.230468v-5.328125c0-.335938-.019531-.664063-.0625-.992188-.050781-.429687-.152343-.851562-.277343-1.261719zm0 0" fill="#efa335"/><path d="m298.210938 487.53125c-.617188-1.136719-1.515626-2.121094-2.636719-2.847656l-12.726563-8.246094c-1.695312-1.101562-3.222656-3.015625-4.238281-5.121094h-65.675781c-.949219 2.054688-2.445313 3.851563-4.402344 5.121094l-12.726562 8.246094c-2.242188 1.453125-3.59375 3.941406-3.59375 6.609375v5.332031c0 .367188.035156.730469.085937 1.085938.054687.398437.132813.792968.246094 1.171874.597656 2 1.96875 3.667969 3.769531 4.652344.007812.003906.015625.011719.019531.015625.136719.070313.277344.132813.417969.199219.089844.042969.179688.089844.273438.132812.105468.042969.214843.078126.320312.117188.132812.050781.265625.101562.402344.144531.128906.042969.261718.070313.394531.101563.121094.03125.238281.070312.359375.09375.152344.03125.308594.046875.464844.070312.105468.015625.210937.039063.320312.050782.144532.015624.296875.015624.445313.023437.121093.003906.238281.015625.359375.015625h91.207031c.121094 0 .238281-.011719.355469-.015625.152344-.007813.300781-.007813.449218-.023437.109376-.011719.214844-.035157.320313-.050782.152344-.019531.308594-.039062.460937-.070312.101563-.019532.199219-.050782.296876-.078125.152343-.035157.308593-.070313.457031-.117188.070312-.019531.136719-.050781.207031-.074219.175781-.058593.347656-.117187.515625-.1875.039063-.015624.070313-.035156.105469-.054687 2.09375-.921875 3.710937-2.726563 4.371094-4.945313.113281-.378906.195312-.773437.25-1.171874.050781-.355469.085937-.71875.085937-1.085938v-5.332031c0-.667969-.085937-1.324219-.246094-1.953125-.167969-.632813-.40625-1.238282-.714843-1.808594zm0 0" fill="#dfede7"/><path d="m298.964844 489.566406c-.042969-.175781-.089844-.351562-.140625-.527344-.113281-.378906-.253907-.742187-.421875-1.097656-.160156-.339844-.347656-.667968-.550782-.984375-.019531-.027343-.035156-.054687-.050781-.082031-.214843-.324219-.453125-.632812-.71875-.921875-.210937-.226563-.4375-.441406-.675781-.648437-.261719-.222657-.539062-.429688-.832031-.621094l-12.726563-8.246094c-.207031-.136719-.410156-.28125-.609375-.441406-.085937-.0625-.164062-.136719-.246093-.207032-.117188-.097656-.234376-.1875-.34375-.292968-.109376-.097656-.210938-.203125-.316407-.308594-.082031-.082031-.167969-.160156-.25-.246094-.117187-.125-.230469-.257812-.347656-.390625-.0625-.070312-.125-.140625-.1875-.214843-.125-.148438-.242187-.304688-.363281-.460938-.046875-.0625-.09375-.121094-.140625-.183594-.125-.167968-.246094-.34375-.367188-.523437-.035156-.050781-.070312-.105469-.105469-.15625-.121093-.1875-.238281-.378907-.351562-.574219-.027344-.046875-.058594-.09375-.085938-.140625-.113281-.195313-.21875-.394531-.324218-.597656-.015625-.03125-.035156-.058594-.050782-.089844-.007812-.019531-.015624-.039063-.027343-.058594-.039063-.078125-.082031-.15625-.121094-.234375h-58.75c.636719 1.5625 1.726563 3.035156 2.964844 3.835938l16.6875 10.816406c1.003906.648438 1.609375 1.765625 1.609375 2.964844v12.03125c0 1.953125-1.582032 3.535156-3.53125 3.535156h53.699218.007813c.269531 0 .539063-.015625.800781-.039062.109375-.011719.210938-.035157.316406-.050782.0625-.007812.121094-.019531.179688-.027344.097656-.015624.191406-.023437.285156-.042968.019532-.003906.039063-.011719.054688-.015625.238281-.050781.472656-.109375.699218-.179688.011719-.003906.019532-.007812.03125-.011719.007813 0 .015626-.003906.023438-.007812.277344-.089844.546875-.195312.8125-.316406.234375-.105469.460938-.21875.683594-.34375.050781-.03125.097656-.0625.144531-.09375.1875-.109375.367187-.226563.542969-.351563.054687-.039062.105468-.082031.164062-.121093.164063-.125.324219-.253907.476563-.390626.050781-.046874.101562-.09375.152343-.140624.152344-.140626.296876-.292969.4375-.445313.042969-.046875.085938-.09375.128907-.140625.144531-.167969.285156-.34375.417969-.523438.027343-.039062.054687-.074218.082031-.113281.15625-.214843.300781-.441406.429687-.675781 0-.003906.003906-.007812.003906-.007812.0625-.109376.113282-.230469.167969-.34375.101563-.203126.199219-.414063.28125-.625.050781-.128907.09375-.257813.136719-.386719.054688-.152344.09375-.3125.136719-.46875.074219-.289063.144531-.582031.1875-.882813.003906-.039062.007812-.082031.011719-.121094.046874-.332031.078124-.667968.078124-1.011718v-5.328125c0-.335938-.019531-.664063-.0625-.992188-.027343-.246093-.082031-.492187-.136718-.734375zm0 0" fill="#d7e0dc"/><path d="m302.816406 165.355469c3.628906 0 6.683594-2.882813 6.695313-6.511719 0-.023438 0-.046875 0-.070312 0-7.800782-5.109375-14.59375-12.121094-16.457032.050781-.546875.074219-1.101562.074219-1.652344 0-9.355468-7.171875-16.964843-15.992188-16.964843-3.859375 0-7.507812 1.445312-10.40625 4.09375-2.59375-1.800781-5.578125-2.746094-8.714844-2.746094-.597656 0-1.191406.035156-1.785156.105469.207032-1.089844.3125-2.203125.3125-3.328125 0-9.351563-7.175781-16.960938-15.992187-16.960938-6.765625 0-12.808594 4.621094-15.058594 11.253907-1.871094-.789063-3.878906-1.203126-5.902344-1.203126-8.46875 0-15.421875 7.019532-15.960937 15.863282-5.144532 1.507812-9.261719 5.671875-10.925782 11.058594-8.441406.453124-15.175781 7.878906-15.175781 16.9375v.070312c.015625 3.628906 3.066407 6.515625 6.695313 6.515625h114.257812zm0 0" fill="#ffe7cf"/><path d="m297.390625 142.316406c.050781-.546875.078125-1.101562.078125-1.652344 0-9.355468-7.175781-16.964843-15.996094-16.964843-3.859375 0-7.507812 1.445312-10.40625 4.09375-2.59375-1.800781-5.578125-2.746094-8.714844-2.746094-.59375 0-1.191406.035156-1.78125.105469.207032-1.089844.308594-2.203125.308594-3.328125 0-9.351563-7.171875-16.960938-15.992187-16.960938-6.761719 0-12.804688 4.621094-15.054688 11.253907-1.871093-.789063-3.878906-1.203126-5.90625-1.203126-6.757812 0-12.539062 4.476563-14.875 10.773438 0 0 8.453125-3.425781 14.761719-1.988281 8.597656 1.964843 15.992188 7.609375 15.992188 16.964843 0 .550782-.023438 1.101563-.074219 1.652344 11.6875 5.527344 10.019531 23.039063 10.019531 23.039063h53.070312c3.625 0 6.679688-2.886719 6.691407-6.511719 0-.023438 0-.046875 0-.070312 0-7.800782-5.105469-14.59375-12.121094-16.457032zm0 0" fill="#f2d7c0"/><path d="m126.023438 190.5c-12.75-16.183594-19.882813-36.078125-20.328126-56.679688l-2.617187-121.449218h-51.789063l-2.617187 121.453125c-.445313 20.597656-7.578125 40.492187-20.324219 56.679687-13.179687 16.734375-20.347656 37.417969-20.347656 58.722656v236.71875c0 10.25 8.304688 18.554688 18.554688 18.554688h101.257812c10.25 0 18.554688-8.304688 18.554688-18.554688v-236.71875c0-21.304687-7.164063-41.988281-20.34375-58.726562zm0 0" fill="#f29c55"/><path d="m48.671875 133.824219c-.445313 20.597656-7.578125 40.492187-20.324219 56.679687-13.179687 16.734375-20.347656 37.417969-20.347656 58.722656v236.71875c0 10.25 8.304688 18.554688 18.554688 18.554688h101.257812c10.25 0 18.554688-8.304688 18.554688-18.554688v-236.71875c0-21.304687-7.164063-41.988281-20.34375-58.722656-12.75-16.1875-19.882813-36.082031-20.328126-56.679687l-.855468-39.660157h-55.3125zm0 0" fill="#d38231"/><path d="m126.023438 190.5c-12.75-16.183594-19.882813-36.078125-20.328126-56.679688l-.855468-39.65625h-55.3125l-.855469 39.65625c-.035156 1.46875-.105469 2.929688-.207031 4.390626 1.292968 19.023437 8.28125 37.257812 20.117187 52.289062 13.179688 16.738281 20.347657 37.421875 20.347657 58.726562v236.71875c0 10.246094-8.304688 18.554688-18.554688 18.554688h57.4375c10.246094 0 18.554688-8.308594 18.554688-18.554688v-236.71875c0-21.304687-7.164063-41.988281-20.34375-58.726562zm0 0" fill="#c6742a"/><path d="m107.140625 47.59375h-59.914063c-3.390624 0-6.140624-2.75-6.140624-6.140625v-27.8125c0-3.390625 2.75-6.140625 6.140624-6.140625h59.914063c3.390625 0 6.140625 2.75 6.140625 6.140625v27.808594c0 3.394531-2.75 6.144531-6.140625 6.144531zm0 0" fill="#912c2c"/><path d="m8 274.109375h138.367188v136.257813h-138.367188zm0 0" fill="#fc4e51"/><path d="m88.929688 274.109375h57.4375v136.257813h-57.4375zm0 0" fill="#ea3942"/><path d="m117.761719 341.863281c0 22.410157-18.167969 40.578125-40.578125 40.578125s-40.578125-18.167968-40.578125-40.578125c0-22.410156 18.167969-40.578125 40.578125-40.578125s40.578125 18.167969 40.578125 40.578125zm0 0" fill="#a0e557"/><path d="m29.105469 341.863281c0 26.507813 21.570312 48.078125 48.078125 48.078125 26.511718 0 48.078125-21.570312 48.078125-48.078125 0-26.511719-21.566407-48.078125-48.078125-48.078125-26.507813 0-48.078125 21.566406-48.078125 48.078125zm48.078125-33.078125c18.242187 0 33.078125 14.835938 33.078125 33.078125 0 18.238281-14.839844 33.078125-33.078125 33.078125-18.238282 0-33.078125-14.839844-33.078125-33.078125 0-18.242187 14.839843-33.078125 33.078125-33.078125zm0 0"/><path d="m113.195312 133.660156-1.710937-79.289062c5.394531-1.820313 9.296875-6.917969 9.296875-12.917969v-27.8125c0-7.523437-6.121094-13.640625-13.640625-13.640625h-59.914063c-7.519531 0-13.640624 6.117188-13.640624 13.640625v27.808594c0 6.003906 3.902343 11.101562 9.296874 12.917969l-1.710937 79.292968c-.40625 18.851563-7.050781 37.390625-18.71875 52.199219-14.15625 17.980469-21.953125 40.484375-21.953125 63.367187v236.71875c0 14.367188 11.6875 26.054688 26.054688 26.054688h101.257812c14.367188 0 26.054688-11.6875 26.054688-26.054688v-236.71875c0-22.882812-7.796876-45.386718-21.953126-63.367187-11.667968-14.808594-18.3125-33.347656-18.71875-52.199219zm-64.609374-118.660156h57.195312v25.09375h-57.195312zm48.59375 71.664062h-39.992188l.683594-31.574218h38.628906zm41.691406 399.28125c0 6.09375-4.960938 11.054688-11.058594 11.054688h-101.257812c-6.097657 0-11.054688-4.960938-11.054688-11.054688v-68.082031h123.371094zm0-219.335937h-72.957032c-4.144531 0-7.5 3.355469-7.5 7.496094s3.355469 7.5 7.5 7.5h72.957032v121.261719h-123.371094v-121.261719h15.519531c4.140625 0 7.496094-3.359375 7.496094-7.5s-3.355469-7.496094-7.496094-7.496094h-15.519531v-17.382813c0-19.53125 6.652344-38.742187 18.738281-54.085937 13.667969-17.355469 21.453125-39.074219 21.929688-61.15625l.699219-32.320313h40.636718l.695313 32.320313c.476562 22.082031 8.265625 43.800781 21.929687 61.15625 12.085938 15.347656 18.742188 34.554687 18.742188 54.085937zm0 0"/><path d="m317.011719 158.773438c0-9.125-4.835938-17.289063-12.269531-21.492188-1.585938-11.894531-11.414063-21.082031-23.269532-21.082031-3.867187 0-7.640625.992187-11 2.851562-.765625-.296875-1.546875-.546875-2.339844-.757812-1.644531-11.820313-11.441406-20.933594-23.246093-20.933594-7.648438 0-14.683594 3.890625-19.03125 10.136719-.640625-.054688-1.28125-.082032-1.929688-.082032-10.769531 0-19.972656 7.628907-22.683593 18.082032-3.996094 2.195312-7.289063 5.542968-9.5 9.652344-10.058594 2.808593-17.378907 12.371093-17.378907 23.722656.007813 1.855468.402344 3.683594 1.128907 5.382812-.003907.148438-.023438.292969-.023438.445313v14.988281c0 41.261719 4.6875 82.574219 13.929688 122.78125l1.199218 5.234375c11.042969 48.042969 15.964844 84.871094 15.964844 119.421875v39.128906c0 .597656-.113281 1.175782-.328125 1.714844-.035156.070312-.082031.132812-.113281.207031-.378906.820313-.957032 1.5-1.671875 1.964844l-12.726563 8.246094c-4.390625 2.847656-7.011718 7.671875-7.011718 12.902343v5.332032c0 .414062.023437.84375.0625 1.277344.019531.222656.042968.4375.070312.65625.007812.0625.011719.121093.019531.183593.019531.125.046875.242188.066407.367188.042968.261719.082031.527343.136718.785156.082032.386719.179688.765625.289063 1.132813.003906.015624.011719.027343.015625.042968.101562.339844.226562.667969.351562 1 .054688.132813.097656.273438.152344.40625.140625.347656.304688.683594.472656 1.015625.054688.105469.101563.214844.15625.320313.183594.347656.386719.683594.597656 1.011718.054688.085938.101563.175782.15625.257813.210938.320313.441407.621094.671876.925781.074218.089844.136718.1875.210937.277344.210937.261719.4375.507812.667969.753906.113281.125.21875.25.332031.367188.191406.191406.394531.371094.59375.550781.171875.160156.339844.324219.515625.472656.152344.128907.316406.242188.472656.363281.242188.1875.480469.375.730469.546876.128906.085937.261719.160156.390625.242187.257812.164063.507812.335937.773438.480469.011718.007812.023437.015625.035156.023437.03125.015625.0625.035157.09375.050781.230468.125.46875.238282.769531.382813.191406.09375.386719.183594.566406.261719.21875.089844.441407.175781.679688.261718.25.09375.5.183594.753906.265626.25.074218.507813.140624.734375.195312.25.070312.5.132812.726562.179688.011719 0 .023438.003906.039063.003906.257813.054687.523437.097656.84375.140625.214844.035156.425781.066406.644531.089843.019532 0 .042969 0 .0625.003907.253906.023437.515625.039062.800782.050781.226562.015625.453124.023438.683593.023438.011719 0 .023438.003906.035157.003906h91.203124c.011719 0 .023438-.003906.035157-.003906.230469 0 .457031-.007813.710937-.023438.25-.011719.5-.027344.753906-.050781.03125-.003907.0625-.003907.097657-.007813.222656-.023437.445312-.054687.640625-.089844.292968-.039062.582031-.082031.835937-.136718h.003907c.035156-.007813.070312-.019532.105468-.027344.195313-.039062.386719-.085938.5625-.132812.277344-.066407.550782-.136719.835938-.226563.167968-.050781.335937-.109375.507812-.175781.304688-.105469.609375-.214844.875-.332032.132813-.054687.261719-.109374.386719-.171874.117187-.054688.226563-.121094.34375-.179688.304687-.148438.605469-.300781.898437-.464844.199219-.113281.390626-.234375.585938-.355468.234375-.148438.464844-.300782.691406-.460938.21875-.15625.433594-.316406.640625-.480469.1875-.144531.367188-.296875.542969-.449219.222656-.191406.4375-.386718.648438-.589843.152343-.148438.296874-.304688.445312-.457031.207031-.21875.414062-.441407.609375-.671876.140625-.164062.265625-.335937.398437-.507812.179688-.234375.363282-.464844.53125-.710938.148438-.21875.28125-.445312.417969-.671874.128907-.207032.265625-.414063.382813-.628907.507812-.921875.917968-1.898437 1.226562-2.917969.003906-.015624.011719-.03125.015625-.046874.109375-.367188.207031-.75.289063-1.144532.054687-.25.09375-.503906.136718-.757812.019532-.132813.050782-.261719.066407-.398438.011719-.066406.015625-.125.023437-.191406.023438-.210938.050782-.421875.066406-.636719.039063-.4375.066407-.863281.066407-1.277343v-5.328126c0-5.230468-2.621094-10.050781-7.003907-12.894531-.003906-.003906-.007812-.007812-.011718-.007812l-4.703125-3.050781-8.019531-5.199219c-.019532-.011719-.039063-.035157-.058594-.046875-.242188-.179688-.652344-.601563-1.066406-1.246094-.011719-.023438-.023438-.042969-.039063-.066406-.121094-.199219-.242187-.417969-.359375-.652344-.347656-.6875-.589844-1.394531-.589844-1.875v-39.128906c0-34.546875 4.921875-71.375 15.964844-119.421875l1.203125-5.234375c9.238281-40.210938 13.925781-81.523438 13.925781-122.78125v-14.988282c0-.152343-.019531-.296874-.023437-.445312.714843-1.683594 1.113281-3.496094 1.125-5.339844 0-.046875 0-.097656 0-.136718zm-119.570313-9.453126c3.136719-.167968 5.832032-2.269531 6.761719-5.269531.925781-3 3.125-5.273437 5.875-6.078125 3.03125-.890625 5.179687-3.585937 5.371094-6.742187.300781-4.945313 4.023437-8.816407 8.476562-8.816407 1.023438 0 2.027344.207032 2.988281.609376 1.917969.8125 4.089844.785156 5.988282-.066407 1.898437-.855469 3.359375-2.460937 4.027344-4.433593 1.234374-3.628907 4.503906-6.164063 7.957031-6.164063 4.683593 0 8.492187 4.246094 8.492187 9.464844 0 .65625-.0625 1.304687-.179687 1.929687-.445313 2.351563.253906 4.769532 1.886719 6.515625 1.632812 1.75 4 2.613281 6.371093 2.328125 1.890625-.222656 3.738281.246094 5.332031 1.355469 2.878907 2 6.753907 1.738281 9.339844-.625 1.523438-1.394531 3.371094-2.128906 5.34375-2.128906 4.683594 0 8.496094 4.246093 8.496094 9.460937 0 .324219-.015625.648438-.046875.96875-.335937 3.644532 2.007813 7 5.546875 7.9375 1.867188.496094 3.480469 1.691406 4.640625 3.289063h-108.882813c1.472657-2.042969 3.6875-3.398438 6.214844-3.535157zm90.742188 339.511719 3.3125 2.144531c.054687.035157.09375.082032.125.136719 0 0 .046875.179688.046875.179688v5.28125l-.011719.109375c-.003906.019531-.007812.042968-.011719.0625-.015625.035156-.035156.074218-.0625.109375-.003906 0-.003906.003906-.003906.007812-.035156.039063-.078125.070313-.128906.097657l-.308594.039062h-90.898437l-.171876-.011719-.183593-.054687c-.011719-.003906-.019531-.011719-.03125-.019532-.058594-.050781-.109375-.125-.132813-.242187l-.011718-5.378906c0-.128907.0625-.246094.171874-.316407l12.726563-8.25c.394531-.257812.777344-.53125 1.152344-.8125.066406-.050781.128906-.101562.195312-.152343.324219-.25.640625-.511719.949219-.785157.035156-.03125.070312-.0625.105469-.09375.726562-.644531 1.398437-1.335937 2.011719-2.070312h57.492187c.035156.042969.074219.082031.109375.125.246094.300781.5.597656.761719.882812.097656.105469.195312.207032.292969.3125.21875.226563.4375.445313.664062.660157.113281.109375.230469.214843.347656.320312.226563.207031.460938.402344.695313.59375.109375.089844.21875.183594.332031.269531.316406.246094.640625.472657.96875.691407.027344.019531.054688.042969.085938.058593zm12.722656-309.140625c0 4.160156-.058594 8.320313-.15625 12.480469h-65.445312c-4.144532 0-7.5 3.359375-7.5 7.5s3.355468 7.5 7.5 7.5h64.878906c-1.601563 30.9375-5.886719 61.757813-12.820313 91.941406l-1.203125 5.234375c-11.304687 49.191406-16.34375 87.058594-16.34375 122.78125v36.6875h-48.253906v-36.6875c0-35.726562-5.042969-73.59375-16.34375-122.78125l-1.203125-5.234375c-6.9375-30.179687-11.222656-61-12.824219-91.941406h9.21875c4.140625 0 7.5-3.359375 7.5-7.5s-3.359375-7.5-7.5-7.5h-9.78125c-.097656-4.160156-.160156-8.320313-.160156-12.480469v-11.832031h110.4375zm0 0"/></svg>