<?xml version="1.0" encoding="UTF-8" standalone="no"?>
<!-- Generator: Adobe Illustrator 18.0.0, SVG Export Plug-In . SVG Version: 6.00 Build 0)  -->

<svg
   xmlns:dc="http://purl.org/dc/elements/1.1/"
   xmlns:cc="http://creativecommons.org/ns#"
   xmlns:rdf="http://www.w3.org/1999/02/22-rdf-syntax-ns#"
   xmlns:svg="http://www.w3.org/2000/svg"
   xmlns="http://www.w3.org/2000/svg"
   xmlns:sodipodi="http://sodipodi.sourceforge.net/DTD/sodipodi-0.dtd"
   xmlns:inkscape="http://www.inkscape.org/namespaces/inkscape"
   version="1.1"
   id="Capa_1"
   x="0px"
   y="0px"
   viewBox="0 0 400.00001 400.00001"
   xml:space="preserve"
   inkscape:version="0.92.1 r15371"
   sodipodi:docname="icon_cancel.svg"
   width="426.66666"
   height="426.66666"><metadata
     id="metadata42"><rdf:RDF><cc:Work
         rdf:about=""><dc:format>image/svg+xml</dc:format><dc:type
           rdf:resource="http://purl.org/dc/dcmitype/StillImage" /><dc:title /></cc:Work></rdf:RDF></metadata><defs
     id="defs40" /><sodipodi:namedview
     pagecolor="#ffffff"
     bordercolor="#666666"
     borderopacity="1"
     objecttolerance="10"
     gridtolerance="10"
     guidetolerance="10"
     inkscape:pageopacity="0"
     inkscape:pageshadow="2"
     inkscape:window-width="926"
     inkscape:window-height="1027"
     id="namedview38"
     showgrid="false"
     inkscape:zoom="0.47861931"
     inkscape:cx="248.63183"
     inkscape:cy="330.11524"
     inkscape:window-x="992"
     inkscape:window-y="24"
     inkscape:window-maximized="0"
     inkscape:current-layer="Capa_1"
     fit-margin-top="0"
     fit-margin-left="0"
     fit-margin-right="0"
     fit-margin-bottom="0" /><g
     id="XMLID_213_"
     style="fill:#006680;fill-opacity:1"
     transform="matrix(0.81121916,0,0,0.8112241,0,-0.00162245)"><path
       id="XMLID_220_"
       d="m 420.004,247.608 c 9.48,-13.409 6.288,-31.95 -7.123,-41.415 -13.387,-9.474 -31.943,-6.267 -41.412,7.127 l -32.09,45.433 v -28.289 -32.547 -88.979 c 0,-13.126 -10.65,-23.766 -23.773,-23.766 -13.133,0 -23.773,10.64 -23.773,23.766 v 88.979 H 279.96 V 85.171 c 0,-13.128 -10.651,-23.775 -23.777,-23.775 -13.122,0 -23.773,10.647 -23.773,23.775 v 75.406 l 145.968,145.981 z"
       style="fill:#006680;fill-opacity:1"
       inkscape:connector-curvature="0" /><path
       id="XMLID_219_"
       d="m 131.374,203.184 v 27.28 130.76 c 0,25.783 20.896,46.681 46.674,46.681 h 114.657 c 12.049,0 22.927,-4.678 31.198,-12.184 z"
       style="fill:#006680;fill-opacity:1"
       inkscape:connector-curvature="0" /><path
       id="XMLID_218_"
       d="m 220.518,148.691 v -39.753 c 0,-13.126 -10.642,-23.775 -23.773,-23.775 -10.783,0 -19.77,7.225 -22.701,17.061 z"
       style="fill:#006680;fill-opacity:1"
       inkscape:connector-curvature="0" /><path
       id="XMLID_214_"
       d="M 246.537,0.002 C 110.591,0.002 0,110.599 0,246.542 c 0,135.945 110.591,246.542 246.537,246.542 135.957,0 246.548,-110.597 246.548,-246.542 0,-135.943 -110.591,-246.54 -246.548,-246.54 z m 195.756,246.54 c 0,44.831 -15.311,86.056 -40.755,119.089 L 127.459,91.535 c 33.033,-25.435 74.26,-40.746 119.078,-40.746 107.951,0 195.756,87.818 195.756,195.753 z m -391.5,0 c 0,-44.83 15.311,-86.053 40.754,-119.096 l 274.08,274.094 c -33.033,25.444 -74.26,40.754 -119.09,40.754 C 138.598,442.293 50.793,354.479 50.793,246.542 Z"
       style="fill:#006680;fill-opacity:1"
       inkscape:connector-curvature="0" /></g><g
     id="g8"
     transform="translate(0,-93.084)" /><g
     id="g10"
     transform="translate(0,-93.084)" /><g
     id="g12"
     transform="translate(0,-93.084)" /><g
     id="g14"
     transform="translate(0,-93.084)" /><g
     id="g16"
     transform="translate(0,-93.084)" /><g
     id="g18"
     transform="translate(0,-93.084)" /><g
     id="g20"
     transform="translate(0,-93.084)" /><g
     id="g22"
     transform="translate(0,-93.084)" /><g
     id="g24"
     transform="translate(0,-93.084)" /><g
     id="g26"
     transform="translate(0,-93.084)" /><g
     id="g28"
     transform="translate(0,-93.084)" /><g
     id="g30"
     transform="translate(0,-93.084)" /><g
     id="g32"
     transform="translate(0,-93.084)" /><g
     id="g34"
     transform="translate(0,-93.084)" /><g
     id="g36"
     transform="translate(0,-93.084)" /></svg>