<?xml version="1.0" encoding="utf-8"?>
<!-- Generator: Adobe Illustrator 22.0.1, SVG Export Plug-In . SVG Version: 6.00 Build 0)  -->
<svg version="1.1" id="svg" xmlns="http://www.w3.org/2000/svg" xmlns:xlink="http://www.w3.org/1999/xlink" x="0px" y="0px"
	 viewBox="0 0 400 400" style="enable-background:new 0 0 400 400;" xml:space="preserve">
<style type="text/css">
	.st0{fill:#606060;}
</style>
<path class="st0" d="M181.5,163.3c-1.4,20.8-2.7,41.3-4.1,62.1c-4.8,0.9-9.6,1.5-14.2,2.6c-23.6,6-41.9,19.1-54.1,40.3
	c-3.8,6.5-3.3,10.4,1.3,16.5c0.6,0.8,1,2.2,0.9,3.1c-1,6.3,0.1,12.2,2.3,18c0.3,0.8,0.5,1.7,0.4,2.6c-0.3,3.7-0.9,7.5-1,11.2
	c-0.1,4.3-0.3,7.9-3.6,11.7c-2.6,3-2.6,8.3-3.8,13.1c-13.4,0-27.7,0-42.6,0c-4-60.3-8.1-120.6-12.1-181.3
	C94.5,163.3,137.7,163.3,181.5,163.3z"/>
<path class="st0" d="M282.8,344.7c0-2.2,0.3-4.1-0.1-5.9c-0.4-2.4-0.6-5.6-2.2-6.9c-4.9-4-3.9-9.2-4.1-14.2c-0.1-3-0.7-5.9-0.9-8.9
	c-0.1-1.1,0.2-2.2,0.4-3.3c0.7-5.6,1.4-11.3,2.2-16.9c0.2-1.4,0.4-3.1,1.3-4.1c3.7-4.8,4.9-9.9,1.5-14.9
	c-5.2-7.5-11.1-14.4-16.8-21.6c-0.8-1-1.9-1.8-3.3-3.1c1.8-0.1,3-0.2,4.3-0.2c18.2,0,36.4-0.2,54.6,0.1c10.3,0.1,19.6-2.4,28.2-7.9
	c5.1-3.3,10.4-6.3,16.2-9.8c-4.2,39.7-8.3,78.6-12.5,117.7C328.6,344.7,305.8,344.7,282.8,344.7z"/>
<path class="st0" d="M119.8,275.6c5-9.5,11.8-17,20.2-23c12.9-9.3,27.4-14,43.2-14.1c13.6-0.1,27.2-1.2,40.6,2.3
	c18.5,4.7,33.3,14.8,43.7,31c0.7,1.2,1.3,2.4,2.2,3.9C219.5,275.6,169.9,275.6,119.8,275.6z"/>
<path class="st0" d="M38.7,150c2.1-4.2,4.4-7.9,6-11.9c1.6-4,2.5-8.2,3.8-12.6c45,0,90.2,0,134.9,0c3.3,8.3,6.5,16.4,9.7,24.5
	C142.1,150,90.5,150,38.7,150z"/>
<path class="st0" d="M119.7,339.1c49.9,0,99.8,0,149.7,0c1.3,9.6-7.4,21.1-18.2,23.7c-2.3,0.6-4.6,0.9-7,0.9
	c-33.1,0.1-66.2,0.1-99.3,0C130.8,363.7,119.6,352.8,119.7,339.1z"/>
<path class="st0" d="M263.5,314.1c0,3.9,0,7.6,0,11.7c-45.7,0-91.4,0-137.4,0c0-3.7,0-7.5,0-11.7
	C171.6,314.1,217.3,314.1,263.5,314.1z"/>
<path class="st0" d="M125.2,112.3c-6,0-11.9,0-18,0c0-24.8,0-49.6,0-74.6c5.8,0,11.8,0,18,0C125.2,62.4,125.2,87.1,125.2,112.3z"/>
<path class="st0" d="M294.9,231.6c-6.3,0-12.1,0-18.2,0c0-22.9,0-45.5,0-68.4c6.1,0,12,0,18.2,0
	C294.9,186.1,294.9,208.7,294.9,231.6z"/>
<path class="st0" d="M326.9,231.2c0-23,0-45.3,0-67.9c6,0,12,0,18.2,0c0.1,1,0.2,2.2,0.2,3.3c0,17.8,0,35.6,0.1,53.3
	c0,2.4-0.6,3.8-2.7,5C337.8,227.8,333,230.7,326.9,231.2z"/>
<path class="st0" d="M244.5,230.3c-6.7,0-12-3.1-17.1-6.4c-0.7-0.4-1.1-1.7-1.1-2.6c-0.1-17.1,0-34.2,0-51.6c6.1,0,12,0,18.3,0
	C244.5,189.6,244.5,209.8,244.5,230.3z"/>
<path class="st0" d="M301.8,231.6c0-16.6,0-33,0-49.6c6,0,11.9,0,18,0c0,16.4,0,32.9,0,49.6C314,231.6,308.1,231.6,301.8,231.6z"/>
<path class="st0" d="M251.7,188.3c6,0,11.8,0,18,0c0,14.3,0,28.6,0,43.2c-5.8,0-11.8,0-18,0C251.7,217.2,251.7,203,251.7,188.3z"/>
<path class="st0" d="M208.4,300.8c-9.4,0-18,0-27.5,0c4.2-5,6.2-11.5,13.1-11.9C201.8,288.3,203.9,295.4,208.4,300.8z"/>
<path class="st0" d="M242.5,289c-9.5,15.9-17.3,15.9-26.3,0C224.9,289,233.5,289,242.5,289z"/>
<path class="st0" d="M173.3,289c-9.6,16-17,16-26.3,0C155.8,289,164.4,289,173.3,289z"/>
<path class="st0" d="M139.4,300.9c-4.8,0-8.5,0.1-12.2-0.1c-0.9-0.1-2.3-1.3-2.4-2.2c-0.6-3.1-0.7-6.4-1-9.9
	C132.5,288.5,134.8,295.3,139.4,300.9z"/>
<path class="st0" d="M250,300.9c4.6-5.5,6.8-12.2,15-12.3c0.2,0.9,0.4,1.6,0.5,2.4c0.5,9.1-0.3,9.9-9.1,9.9
	C254.5,300.9,252.7,300.9,250,300.9z"/>
</svg>
