<?xml version="1.0" encoding="UTF-8" standalone="no"?>
<!-- Generator: Adobe Illustrator 19.0.0, SVG Export Plug-In . SVG Version: 6.00 Build 0)  -->

<svg
   xmlns:dc="http://purl.org/dc/elements/1.1/"
   xmlns:cc="http://creativecommons.org/ns#"
   xmlns:rdf="http://www.w3.org/1999/02/22-rdf-syntax-ns#"
   xmlns:svg="http://www.w3.org/2000/svg"
   xmlns="http://www.w3.org/2000/svg"
   xmlns:sodipodi="http://sodipodi.sourceforge.net/DTD/sodipodi-0.dtd"
   xmlns:inkscape="http://www.inkscape.org/namespaces/inkscape"
   version="1.1"
   id="Layer_1"
   x="0px"
   y="0px"
   viewBox="0 0 400 400"
   xml:space="preserve"
   inkscape:version="0.92.1 r15371"
   sodipodi:docname="icon_delete_line.svg"
   width="426.66666"
   height="426.66666"><metadata
     id="metadata45"><rdf:RDF><cc:Work
         rdf:about=""><dc:format>image/svg+xml</dc:format><dc:type
           rdf:resource="http://purl.org/dc/dcmitype/StillImage" /><dc:title /></cc:Work></rdf:RDF></metadata><defs
     id="defs43" /><sodipodi:namedview
     pagecolor="#ffffff"
     bordercolor="#666666"
     borderopacity="1"
     objecttolerance="10"
     gridtolerance="10"
     guidetolerance="10"
     inkscape:pageopacity="0"
     inkscape:pageshadow="2"
     inkscape:window-width="1855"
     inkscape:window-height="1056"
     id="namedview41"
     showgrid="false"
     inkscape:zoom="0.53273138"
     inkscape:cx="-602.55001"
     inkscape:cy="221.82599"
     inkscape:window-x="65"
     inkscape:window-y="24"
     inkscape:window-maximized="1"
     inkscape:current-layer="Layer_1" /><g
     id="g3"
     transform="matrix(0.89555025,0,0,0.89555025,6.2415513,3.2712383)"
     style="fill:#006680;fill-opacity:1"><path
       d="M 321.785,38 H 238.401 V 0 H 125.169 V 38 H 41.785 v 60 h 280 z M 155.169,30 h 53.232 v 8 h -53.232 z"
       id="path5"
       inkscape:connector-curvature="0"
       style="fill:#006680;fill-opacity:1" /><path
       d="M 295.142,214.31 300.802,128 H 62.769 l 19.016,290 h 114.172 c -14.861,-21.067 -23.602,-46.746 -23.602,-74.43 0,-69.14 54.494,-125.791 122.787,-129.26 z"
       id="path7"
       inkscape:connector-curvature="0"
       style="fill:#006680;fill-opacity:1" /><path
       d="m 301.785,244.141 c -54.826,0 -99.43,44.604 -99.43,99.429 0,54.825 44.604,99.43 99.43,99.43 54.826,0 99.43,-44.604 99.43,-99.43 0,-54.826 -44.604,-99.429 -99.43,-99.429 z m 54.176,132.392 -21.213,21.213 -32.963,-32.963 -32.963,32.963 -21.213,-21.213 32.963,-32.963 -32.963,-32.963 21.213,-21.213 32.963,32.963 32.963,-32.963 21.213,21.213 -32.963,32.963 z"
       id="path9"
       inkscape:connector-curvature="0"
       style="fill:#006680;fill-opacity:1" /></g><g
     id="g11"
     transform="translate(0,-43)" /><g
     id="g13"
     transform="translate(0,-43)" /><g
     id="g15"
     transform="translate(0,-43)" /><g
     id="g17"
     transform="translate(0,-43)" /><g
     id="g19"
     transform="translate(0,-43)" /><g
     id="g21"
     transform="translate(0,-43)" /><g
     id="g23"
     transform="translate(0,-43)" /><g
     id="g25"
     transform="translate(0,-43)" /><g
     id="g27"
     transform="translate(0,-43)" /><g
     id="g29"
     transform="translate(0,-43)" /><g
     id="g31"
     transform="translate(0,-43)" /><g
     id="g33"
     transform="translate(0,-43)" /><g
     id="g35"
     transform="translate(0,-43)" /><g
     id="g37"
     transform="translate(0,-43)" /><g
     id="g39"
     transform="translate(0,-43)" /></svg>