<?xml version="1.0" encoding="utf-8"?>
<!-- Generator: Adobe Illustrator 22.0.1, SVG Export Plug-In . SVG Version: 6.00 Build 0)  -->
<svg version="1.1" id="Capa_1" xmlns="http://www.w3.org/2000/svg" xmlns:xlink="http://www.w3.org/1999/xlink" x="0px" y="0px"
	 viewBox="0 0 511 512" style="enable-background:new 0 0 511 512;" xml:space="preserve">
<style type="text/css">
	.st0{fill:#DCEEF8;}
	.st1{fill:#063147;}
	.st2{fill:#D9202E;}
	.st3{fill:#F2BC66;}
	.st4{fill:#D1D82F;}
	.st5{fill:#16647A;}
	.st6{fill:#42A650;}
</style>
<g>
	<path class="st0" d="M492.3,430.8c-155.4,0-310.7,0-466.1,0c0-116.5,0-233.1,0-349.6c155.4,0,310.7,0,466.1,0
		C492.3,197.7,492.3,314.3,492.3,430.8z M311.1,113.9c0-0.3-0.1-0.4-0.4-0.4c0,0-0.1,0-0.1,0c-0.4-0.7-0.7-1.4-1.7-1.4l0,0
		c0.2-0.5-0.1-0.5-0.4-0.4l0,0c0-0.9-0.7-0.9-1.3-1c-0.6-0.6-1.2-1.1-1.8-1.7c-0.5-1.4-2.3-1.5-2.9-3c0.8-1.1,2.7-2.3-0.1-3.6
		c-0.7,0.8-1.8,2.5-2.2,2.4c-1.9-0.8-2.3,1-2.9,1.7c-3.1,4.2-7,7.9-8.1,13.3c-1.5,1.2-2.1,3.1-3.4,4.4c-1.6-1.1-3.5-0.8-5.2-1.3
		c-1.5-0.4-2.5,0-3.4,1.4c-3.9,6-8,11.9-12.9,17.1c-2.4,2.6-5.4,4.6-8,6.9c-0.8-1.1-1.7-2.1-2.7-3c3.4-2.7,6.9-5.4,9.9-8.6
		c3.8-4,6.8-8.6,10-13.1c0.8-1.2,0.8-2.1-0.9-2.4c-3.9-0.8-7.8-1.8-11.8-2.5c-3.5-0.6-6.9-1.6-10.5-1.8c-0.6-0.5-0.8-1.4-1.6-1.7
		c-0.1-0.9-0.7-1.4-1.4-1.8c0-0.3-0.2-0.5-0.5-0.5c0-0.4,0-0.8,0-1.1c0.1-0.3,0.2-0.5,0.3-0.8c0.9-0.8,0.2-1-0.4-1.6
		c-1.3-1.1-2.9-1.4-4.3-2.2c-0.2,0-0.4,0-0.6,0c-0.3,0-0.6-0.5-1-0.1l-0.1-0.1c-0.5-0.9-0.9-0.3-1.3,0.1l0,0c-0.4,0-0.9-0.1-1.3-0.1
		c-1.7,0-3.3-1.6-4.9,0.1c-0.7-0.5-1.1-0.2-1.5,0.4l0,0c-1-0.2-1.6,0.3-2.2,0.9l-0.1,0c-0.3,0-0.5,0-0.4,0.4l0,0
		c-0.4-0.1-0.7,0-0.9,0.4l0,0c-0.2,0-0.3,0-0.4,0.1c-0.5,0.1-0.9,0.2-1.4,0.3c-1.2-1.1-1.7,0.6-2.6,0.7c-0.5-1.3-0.5-2.6-0.9-3.9
		c-0.5-1.3,0.5-2.5,1.1-3.7c0.2-0.3-0.3-0.4-0.6-0.5c-1.2-1.7-2.1-0.7-3,0.4c-0.3,0-0.5,0.2-0.5,0.5c-0.9,0.2-0.3,1.9-1.8,1.7
		c-0.7-1.1,0.3-2.2,0-3.6c-2.5,2.3-2.1,5.3-2.2,8.3c-1-0.8-0.6-1.8-1.2-2.5c-0.1,0.8-0.2,1.4-0.3,2.1c-13.3-2.6-26.7-5.2-40.3-7.8
		c0.1,1.2,0,1.8,0.1,2.5c1.1,5,1.9,10.1,2.9,15.1c2.5,13.4,5.3,26.8,7.9,40.3c1,5.2,1.9,10.4,2.8,15.6c0.3,2,1.1,3,3.4,2.4
		c1.4-0.4,3-0.4,4.5-0.5c7.5-0.7,15.1-1.4,22.6-2.1c1-0.1,2-0.1,2.9,0.3c-2.5,3.5-5.1,7-7.6,10.5c-2.9,4-2.8,4-0.9,8.1
		c-4.5,3.1-7.9,7.2-11.1,12.2c2.3-0.4,4-0.7,5.9-1.1c0.5,5.9,3.4,10.7,6.6,15.4c0.2,0.2,0.5,0.5,0.7,0.7l0,0
		c-1.1,0.1-2.3,0.2-3.4,0.2c-36.2,0-72.4,0-108.5,0c-1,0-2.1,0-3.2,0c0,60.1,0,120,0,179.9c101.7,0,203.3,0,305,0
		c0-60,0-119.9,0-179.9c-1,0-1.9,0-2.8,0c-36.9,0-73.7,0-110.6,0c-0.9,0-1.8,0.4-2.6-0.5c-0.1-3.7-1.6-7.2-2.3-10.9
		c2.5-0.6,4.9-1.1,7.4-1.7c-0.4-1.3-1.2-2.3-2.3-2.8c-9.7-4.1-19.9-4.1-30.1-2.7c0.1-2.2,0.9-3,3.7-3.3c5.4-0.7,10.7-0.2,16,0.7
		c3.8,0.6,7.5,1.4,11.4,2.2c-1.3-2.7-16.8-8.7-26.8-10.4c7-1.5,13.1,1.9,19.5,2.2c0,0.4,0.2,0.5,0.6,0.5c0,0.3,0.2,0.4,0.5,0.4
		c0.1,0.2,0.2,0.4,0.2,0.6c0.1-0.1,0.3-0.1,0.3-0.2c0.1-0.3,0-0.6-0.4-0.6c-0.1-0.2-0.3-0.3-0.4-0.5c-0.2-0.2-0.3-0.3-0.5-0.5
		c-1.4-2.1-3.7-3.3-5.4-5c1.2,0.1,2.2,0.5,3.2,0.9c5.5,2.4,10.9,4.8,16.4,7.1c0.8,0.3,1.6,1.1,2.4,0.1c1.7-2.3,3.8-2.9,6.5-2.2
		c1.1,0.3,2.1-0.1,1.6-1.6c0-0.3-0.2-0.5-0.5-0.4c-0.1,0-0.1-0.1-0.2-0.1c0-1.4-1.3-1.7-2.1-2.4c-0.6-0.5-1.5-1.1-1.1-1.8
		c1.2-2.2,0.8-4.7,1.8-7c1.6,0.5,3.2,1,4.8,1.5c1.4-2.2,2.2-4.6,2.9-7.2c0.7,0,1.3,0.1,1.9,0.1c0.7,0,2.2,0.8,2-0.2
		c-0.3-1.4,1.6-2.6,0-3.8c-5-1.6-10-3.2-15-4.8c1.8-0.1,2.5-1.1,2.9-2.8c0.6-2.5,1.6-4.9,2.5-7.3c3.2-7.9,6.4-15.7,9.6-23.5
		c0.8-1.8,0.3-2.6-1.6-3c-3.4-0.6-6.8-1.5-10.2-2.1c-3-0.5-3.5-0.1-4.6,2.8c-2.7,7.1-5.4,14.1-8,21.3c-1.3,3.8-3.3,7.3-3.8,11.3
		c-1.7,0-3.4-0.6-5-0.9c0.8-0.3,1.7-0.4,2-1.5c3.7-11,7.9-21.8,12.1-32.5c0.5-1.3,0-1.9-1.1-2.1c-3.7-0.7-7.4-1.4-11.2-2
		c0-0.2,0-0.5,0-0.7c0.4-0.3,0.9-0.7,0.9-1.3c0.4,0,0.5-0.3,0.5-0.6c0.5-0.3,0.8-0.8,0.9-1.4c0.6-0.5,1.1-1,1.2-1.8
		c0.4-0.2,0.6-0.5,0.6-0.9c0.7-0.2,1.3,0.1,2,0.3c4.1,1,7.9,2.7,11.9,4c6.5,2.6,12.9,5.3,18.8,9.5c-2-0.5-2.4,0.8-2.9,2.1
		c-4,10.1-7.9,20.1-11.9,30.2c-0.3,0.7-0.9,1.5-0.2,2.4c5.6-0.5,11.2-1,16.9-1.5c1.2-0.1,1.7-0.8,2-1.8c0.6-2,1.1-3.9,1.6-5.9
		c1.9-7,3.8-14,5.8-21c0.4-1.5,0-2.1-1.5-2.3c-2-0.3-4-0.7-6-1c-0.4-0.1-0.9,0.2-1.1-0.5c-0.2-1.5-1.5-2.2-2.3-3.3
		c-4.2-5.3-8.8-10.3-13.9-14.8C311.6,114.1,311.5,114,311.1,113.9L311.1,113.9z M297,208.1c0.1,0.2,0.2,0.3,0.4,0.5
		c-0.1,0-0.2,0.1-0.3,0.1C297.1,208.5,297.1,208.3,297,208.1c-0.1-1.9-0.5-3.8-2-5.2C296.1,204.5,295.2,206.8,297,208.1z
		 M442.6,131.2c0-4.9-2.7-8.7-7-10.1c-2.4-0.8-3.8-2.2-4.5-4.6c-1.8-6.5-6-9.1-12.6-8.1c-2.2,0.3-4-0.1-5.6-1.7
		c-5.1-5-9.7-5.2-15.3-0.7c-1.7,1.4-3.5,1.8-5.7,1.1c-6.2-1.8-11,0.7-13.2,6.7c-0.8,2.3-2.2,3.6-4.6,4.3c-6.3,1.6-9.2,6-8.1,12.4
		c0.4,2.5-0.2,4.4-2,6.1c-4.3,4.1-4.7,9.7-0.9,14.2c1.8,2.1,2.3,4.2,1.6,6.9c-1.6,5.8,0.9,10.6,6.6,12.6c2.5,0.9,3.9,2.4,4.5,4.9
		c1.4,5.7,5.9,8.8,11.7,7.9c3-0.5,5.2,0.3,7.3,2.4c3.7,3.8,9.4,4,13.4,0.6c2.3-2,4.6-2.5,7.5-1.7c5.5,1.5,10.3-1.1,12.2-6.4
		c1-2.7,2.6-4.2,5.4-4.9c5.6-1.5,8.7-6.5,7.6-11.6c-0.6-2.9,0.2-5.1,2.3-7.1c3.8-3.7,4.2-9.3,0.8-13.4c-2-2.5-2.9-4.9-1.7-7.9
		C442.5,132.4,442.5,131.5,442.6,131.2z M418.1,189.7c-2.4,0.7-4.1-1.5-6.3,0.2c-6.8,5.3-14.4,4.9-20.8-1c-0.5-0.5-0.8-1-1.7-0.9
		c-1.9,0.2-3.7,0.4-5.7,0.5c-1.7,7.8-3.4,15.5-5.1,23.3c-0.8,3.5,0.4,4.7,3.9,4c4.1-0.9,8.3-1.7,12.4-2.7c1.4-0.3,2.4-0.1,3.5,0.8
		c2.9,2.5,6,4.9,9,7.3c2.5,2,4.3,1.3,4.9-1.9c0.2-1.2,0.4-2.4,0.7-3.6C414.5,207.2,416.2,198.8,418.1,189.7z M439.3,176.2
		c-1.3,0.6-2.4,1.3-3.7,1.5c-1.8,0.4-2.8,1.4-3.4,3.1c-1.4,3.6-3.9,6.1-7.4,7.6c-1.2,0.5-1.7,1.2-2,2.4c-0.9,4.8-1.9,9.7-2.9,14.5
		c-0.2,1.1-0.1,2,0.6,3c2,2.7,3.9,5.4,5.9,8.1c1.8,2.4,3.6,2.2,5-0.4c1.7-3.2,3.4-6.5,4.8-9.8c0.8-1.8,1.9-2.8,3.9-3.2
		c4-0.7,8-1.7,12-2.5c3-0.7,3.6-2.2,1.9-4.7c-1.1-1.5-2.2-3.1-3.4-4.6C446.9,186.2,443.1,181.2,439.3,176.2z M287.4,210.9
		c2.1-0.2,4.2-0.4,6.3-0.6C291.4,209.3,289.4,210.2,287.4,210.9z M291.3,199.6L291.3,199.6l-0.1,0.2L291.3,199.6z"/>
	<path class="st1" d="M288.5,220.9c0.7,0.9,1.7,0.5,2.6,0.5c36.9,0,73.7,0,110.6,0c0.9,0,1.8,0,2.8,0c0,60.1,0,120,0,179.9
		c-101.7,0-203.3,0-305,0c0-60,0-119.8,0-179.9c1.2,0,2.2,0,3.2,0c36.2,0,72.4,0,108.5,0c1.1,0,2.3-0.1,3.4-0.2
		c0.9-0.6,1.4,0.3,1.9,0.7c2.8,2.9,5.9,5.4,9.7,7c1.1,0.5,2.6,1.8,3.5-0.4c0.2,0.1,0.3,0.3,0.5,0.4c-0.1-0.3-0.1-0.5-0.2-0.7
		c1.1-0.2,1.1-1,1.1-1.9c0-1.6,0-3.2,0-4.9l-0.1,0c0-0.7,0.2-1.3,0.8-1.6c0.1,1,0.4,1.6,1.6,1.6c12,0,24.1,0,36.1,0
		c0.4,0,1.2,0.3,1.1-0.7c1.1,0,1.5,0.8,2.1,1.5c3.1,3.3,6.4,6.4,11.1,7.4c2.1,0.5,3.2-0.5,3.7-2.3c0.4-1.4,0.7-2.8-0.1-4.2
		c0.5-0.1,0.1-0.3,0-0.4C287.8,222.1,288.2,221.5,288.5,220.9z M258.1,316c3.9,0,7.6,0,11.3,0c0-28,0-55.8,0-83.7
		c-5.4,0-10.6,0-15.9,0c-3.7,20.1-7.3,40-11,59.9c-0.1,0-0.3,0-0.4,0c-3.9-20-7.8-39.9-11.6-59.9c-5.4,0-10.6,0-15.8,0
		c0,28,0,55.8,0,83.7c3.8,0,7.5,0,11.2,0c0.1-19.5,0-38.9-0.2-58.3c3.8,19.3,7.6,38.7,11.4,57.9c3.6,0,6.9,0,10.3,0
		c3.7-19.5,7.3-38.8,11-58.1C258.1,277,258,296.5,258.1,316z M308.5,232.2c0,28.1,0,56,0,83.8c7.3,0,14.4,0.3,21.5-0.1
		c6.5-0.4,10.9-4,13-10.3c1.2-3.7,1.8-7.5,1.8-11.4c0-14,0-28.1,0-42.1c0-2.6-0.4-5.2-1-7.7c-1.7-6.6-5.5-11.1-12.6-11.9
		C323.8,231.7,316.2,232.4,308.5,232.2z M165.8,274c0,0,0.1,0,0.1,0c0,7.8-0.2,15.6,0.1,23.4c0.2,5.7,1.5,11.3,5.8,15.3
		c5.4,5.1,12.1,5.1,18.8,3.6c4.3-1,7.4-3.7,9.3-7.7c2-4.2,2.8-8.6,2.9-13.2c0.1-14.6,0-29.1,0-43.7c0-3.4-0.7-6.8-1.8-10
		c-1.6-4.5-4.4-8-9.1-9.4c-4.7-1.4-9.4-1.5-14.1-0.1c-3.1,0.9-5.6,2.6-7.5,5.2c-3.2,4.2-4.2,9.2-4.3,14.3
		C165.7,259.1,165.8,266.5,165.8,274z M364.1,232.3c-4,28-7.9,55.8-11.9,83.8c4.2,0,8.1,0,12.3,0c0.6-4.9,1.2-9.8,1.8-14.8
		c4.5,0,9,0,13.5,0c0.7,5,1.4,9.9,2,14.7c4.1,0,7.9,0,11.9,0c-4.2-28-8.5-55.8-12.7-83.7C375.3,232.3,369.8,232.3,364.1,232.3z
		 M143.8,281.5c0,4.5,0,8.7,0,13c0,2.8-0.1,5.6-1,8.3c-0.7,2.2-2.2,3.4-4.6,3.3c-2.3,0-3.6-1.2-4.4-3.3c-0.8-2.4-1-4.9-1.1-7.4
		c-0.1-14.2,0-28.4,0-42.5c0-2.2,0.2-4.4,0.9-6.5c0.9-2.8,2.5-4.1,5.1-4c2.5,0.1,3.8,1.4,4.4,4.4c1,5.3,0.5,10.6,0.7,15.9
		c0,0.8-0.3,1.7,0.3,2.4c4,0,8,0,12.2,0c-0.2-6.7,0.5-13.3-0.8-19.8c-1.5-7.6-5.9-12.4-12.8-13.6c-3-0.5-6-0.5-9,0.1
		c-4.9,1-8.3,3.7-10.6,8.1c-2.7,5.3-3.1,11-3.1,16.8c0,12,0,24,0,35.9c0,2.4,0.1,4.8,0.5,7.3c0.7,4.7,2.1,9.2,5.6,12.7
		c4.8,4.7,10.8,5.2,17,4.1c5.5-0.9,9.3-4.2,11.3-9.4c3.2-8.4,1.9-17.2,2.2-25.8C152.1,281.5,148.1,281.5,143.8,281.5z M246.2,385.2
		c2.2-11.4,4.3-22.8,6.5-34.1c0,11.5,0,23,0.1,34.5c2.4,0,4.7,0,6.8,0c0-17.3,0-34.4,0-51.5c-3.3,0-6.3,0-9.7,0
		c-2.2,12.2-4.5,24.3-6.7,36.5c-0.7-1.7-1-3.4-1.4-5.1c-1.9-9.8-3.8-19.6-5.8-29.4c-0.1-0.7,0.1-1.9-1.1-2c-3-0.1-6,0-8.9,0
		c0,17.4,0,34.5,0,51.6c2.4,0,4.5,0,6.7,0c0-11.5,0-22.9,0-34.2c2.2,9.6,4,19.3,6,28.9c1.1,5.5,1.1,5.5,6.7,5.1
		C245.7,385.4,245.9,385.3,246.2,385.2z M282.7,316c4.4,0,8.5,0,12.6,0c0-28,0-55.8,0-83.7c-4.3,0-8.4,0-12.6,0
		C282.7,260.3,282.7,288.1,282.7,316z M167.2,385.7c3.6,0,7.2,0,10.7,0c6.8,0,10.5-2.9,11.2-9.7c1-10.7,0.7-21.4,0.2-32
		c-0.3-5.8-3-8.8-7.4-9.6c-4.8-0.9-9.6-0.3-14.6-0.4C167.2,351.3,167.2,368.4,167.2,385.7z M218.9,359.7c0-0.6,0-1.2,0-1.8
		c-0.2-5.4,0.5-10.8-0.6-16.1c-1.1-5.4-4.4-8.2-9.7-8.4c-6.3-0.2-10.3,2.4-11.7,7.8c-0.6,2.3-0.8,4.6-0.8,7c0,7.7,0,15.5,0,23.2
		c0,2.1,0.2,4.1,0.6,6.1c1.4,6.2,5,8.9,11.6,8.9c5.6-0.1,8.9-3,10.1-9.1C219.4,371.4,218.6,365.6,218.9,359.7z M389,358.5
		c-0.3-4.7,0.6-10.6-0.6-16.4c-0.7-3.5-2.2-6.5-5.8-7.9c-7.6-3-14.8,1-16.2,9c-0.2,1.1-0.3,2.3-0.3,3.4c0,8.8,0,17.6,0,26.4
		c0,2.4,0.5,4.7,1.3,6.9c1.7,4.3,5,6.3,10.5,6.4c4.8,0,7.9-2,9.6-6.2c1.1-2.6,1.4-5.4,1.4-8.2C389.1,367.8,389,363.7,389,358.5z
		 M132.7,334.1c-2.5,17.2-4.9,34.3-7.3,51.5c2.7,0,5.1,0,7.6,0c0.4-3.1,0.8-6,1.2-9c2.9,0,5.5,0,8.2,0c0.4,3.1,0.9,6,1.3,9
		c2.5,0,4.8,0,7.3,0c-2.6-17.2-5.2-34.4-7.8-51.5C139.7,334.1,136.3,334.1,132.7,334.1z M305.4,354.2c0-3.5,0.1-6.8,0-10
		c0-1.2-0.4-2.4-0.7-3.6c-1.3-4.5-4.5-7-9.3-7.2c-5.5-0.3-8.8,1.7-10.7,6.3c-1,2.4-1.4,5-1.4,7.6c0,8.3,0,16.7,0,25
		c0,2.7,0.4,5.3,1.5,7.8c1.7,4,4.8,6,9,6.2c4.2,0.2,8-0.7,10-4.8c2.8-5.4,1.9-11.3,1.9-17.1c-2.7,0-5.1,0-7.7,0c0,0.9,0,1.6,0,2.3
		c-0.1,3.4,0.3,6.8-0.5,10.2c-0.4,1.4-1.1,2.5-2.8,2.5c-1.6,0-2.6-0.9-2.9-2.4c-0.3-1.5-0.6-3.1-0.6-4.7c-0.1-8.4-0.1-16.8,0-25.2
		c0-1.5,0.3-3,0.6-4.5c0.4-1.4,1.3-2.4,3-2.3c1.6,0,2.5,1,2.7,2.5c0.2,1.3,0.4,2.7,0.4,4.1c0.1,2.4,0,4.8,0,7.3
		C300.5,354.2,302.9,354.2,305.4,354.2z M336.1,378.9c0-15.1,0-29.9,0-44.8c-2.7,0-5.2,0-7.7,0c0,17.2,0,34.3,0,51.5
		c5.9,0,11.7,0,17.6,0c0-2.3,0-4.4,0-6.7C342.7,378.9,339.6,378.9,336.1,378.9z M351,334.1c0,17.3,0,34.4,0,51.5c2.6,0,5.1,0,7.7,0
		c0-17.2,0-34.3,0-51.5C356.1,334.1,353.7,334.1,351,334.1z M268.1,334.1c0,17.4,0,34.4,0,51.5c2.6,0,5.1,0,7.6,0
		c0-17.2,0-34.3,0-51.5C273.1,334.1,270.6,334.1,268.1,334.1z M320.1,385.7c0-17.3,0-34.4,0-51.6c-2.6,0-5.1,0-7.6,0
		c0,17.3,0,34.4,0,51.6C315.1,385.7,317.5,385.7,320.1,385.7z"/>
	<path class="st2" d="M287.5,223.1c0.8,1.4,0.4,2.9,0.1,4.2c-0.5,1.8-1.6,2.8-3.7,2.3c-4.7-1-8-4.1-11.1-7.4
		c-0.6-0.7-1.1-1.5-2.1-1.5c-0.9-1.4-1.7-2.8-2.6-4.2c-0.3-0.4-0.6-1.3-1-1.1c-1.9,0.7-3.6-0.5-5.3-0.4c-4.3,0.2-8.6,0.7-12.9,1.2
		c-6.5,0.6-13,1.6-18.3-3.6c-0.1-0.1-0.3,0-0.6,0c0.8,2.5,1.6,4.9,1.9,7.4c-0.7,0.3-0.8,0.9-0.8,1.6c0,0,0,0,0,0
		c-0.1,0-0.1-0.1-0.2-0.1c-0.2-0.1-0.5-0.2-0.7-0.3l-0.1,0c-0.8-1.7-3-1.7-4.3-3.3c1.6,0,2.9,0,4.7,0c-4.7-2-4.7-2-5.1-3.9
		c-1.3,4.5-2.6,4.8-6,1.4c-1.1-1.1-2.2-2.4-3.2-3.6c1.4,3.8,5.3,6.5,4.3,11.3c0.9-0.7,0.5-1.8,1.6-2.3c1.1,2.2,2.1,4.4,3.4,7.1
		c0.1-2.2-1-3.6-0.9-5.2c0-0.1,0.1-0.1,0.2-0.2c2,1.7,3,4.2,4.9,6l0,0c0,0.1,0,0.2,0,0.3c-0.9,2.2-2.3,0.9-3.5,0.4
		c-3.8-1.6-6.9-4.1-9.7-7c-0.5-0.5-0.9-1.3-1.9-0.7c0,0,0,0,0,0c0.2-0.7-0.1-0.9-0.7-0.7c-3.2-4.7-6.1-9.5-6.6-15.4
		c-1.9,0.4-3.6,0.7-5.9,1.1c3.2-5,6.6-9.1,11.1-12.2c-2-4.1-2-4.1,0.9-8.1c2.5-3.5,5-7,7.6-10.5c2.1-3.3,5.4-5.8,6.7-9.7
		c-0.8,0.2-1.5,0.5-2.2,0.6c-1.5,0.4-2.1-0.1-1.6-1.7c0.1-1.5-0.1-2.9-0.4-4.3c0-1.5-0.4-2.8-1-4.1c-0.3-0.6-0.7-1.1-1.3-0.3
		c-2.4,0.7-1.7,2.5-1.4,4.2c0,0.7,0.4,1.3,0.9,1.8c0.1,0.4,0.3,0.8-0.2,1c-2.1-2.5-2.6-5.2-0.9-8.1c1-1,2.1-1.9,1.8-3.6
		c0.3-0.7,0.8-0.8,1.4-0.6c0.1,1,0.4,2.1,1.3,2.3c3.1,0.9,5.2,3,7.2,5.3c-0.5,0.4-0.9,0.9-1.7,0.9c-0.8,0-1.5,0.2-1.6,1.2
		c-0.1,0.9,0.5,1.3,1.3,1.8c0.2-1.6,1-1.7,2.4-1.4c1.7,0.3,3.3,1.2,5.2,0.2c1.5-0.8,3.1,0.5,3.3,2.1c0.3,2.6-3,5.4-5.3,4.1
		c-1.4-0.8-1.9-0.3-2.5,0.7c-0.5,0-0.9,0.4-1.1,0.7c-3.9,5.7-7.3,11.7-10.7,17.7c-0.4,0.7-0.3,1.3,0.3,1.8
		c3.9,3.8,7.6,7.8,11.8,11.2c0.2,0.1,0.3,0.3,0.5,0.4c0.2,0.1,0.3,0.3,0.5,0.4c0.1,0.5,0.5,0.7,0.9,0.9c0.2,0.3,0.4,0.9,1,0.4
		c-0.2,0.6,0.1,0.5,0.5,0.4c-0.2,0.9,0.5,1,1.1,1.1c-0.4-0.4-0.8-0.7-1.1-1.1c-0.2-0.1-0.3-0.3-0.5-0.4c-0.2-0.3-0.4-0.9-0.9-0.4
		c0.4-0.7-0.3-0.9-0.6-1.2c-0.2-0.2-0.3-0.3-0.5-0.5c-0.1-0.2-0.3-0.3-0.4-0.5c-3.4-3.6-6.8-7.2-10.2-10.7c-1-1-1-1.7,0-2.6l0.1,0.1
		l0.2,0c0.1,0.7,0.6,1,1,1.4c4.2,4,8.3,8.1,12.6,12.1c3.5,3.2,7.3,5.7,12.5,5.5c2.3-0.1,3.6-0.9,4.5-2.9c1.7-4,1.7-8.2,1.9-12.4
		c-1.9-0.8-3.7,0.5-5.4-0.2c-0.6-2-1.2-4-1.9-5.9c-0.3-0.8-0.3-1.8-1.2-2.1c-0.9-0.3-1.6-0.6-1.3-1.7c0.3-1.2,0.5-2.6,2.2-2.8
		c0.1,0.1,0.1,0.1,0.2,0.2c3.2,1.9,6.6,1.4,10,0.6c1.1,0.5,2.1,1.1,3,2c0.6,0.7,1.5,1.1,2.5,0.6c0.9-0.5,1.1-1.4,0.7-2.4
		c5.2,0.8,10.3,1.8,15.4,3.1c0,0.2-0.1,0.4-0.1,0.5c-4.9-0.9-9.9-1.7-14.8-2.6c-0.2,0.8-0.3,1.3-0.4,1.8c6,2.4,11.6,5.2,17.7,7
		c6,1.8,11.4,5,17.1,7.6c1-0.8,1.8-1.8,2.5-2.9c0.4-0.8,0.7-1.5,1.1-2.3c0.4-0.1,0.4-0.4,0.4-0.7c0-0.2,0.1-0.4,0.1-0.6
		c0.5-0.1,0.8-0.1,1.2,0.3c1.4,1.6,3.2,2.7,5,3.7c0.1,0,0.1,0.1,0.2,0.1c0,0.3,0.2,0.4,0.5,0.4c0.5,1.5-0.5,1.9-1.6,1.6
		c-2.7-0.7-4.8-0.1-6.5,2.2c-0.8,1-1.6,0.3-2.4-0.1c-5.5-2.4-10.9-4.8-16.4-7.1c-1-0.4-2-0.8-3.2-0.9c1.8,1.7,4.1,2.9,5.4,5
		c-0.1,0.1-0.2,0.1-0.3,0.2c-6.4-0.3-12.4-3.7-19.5-2.2c10.1,1.8,25.6,7.7,26.8,10.4c-3.9-0.8-7.7-1.5-11.4-2.2
		c-5.3-0.9-10.6-1.5-16-0.7c-2.8,0.4-3.6,1.1-3.7,3.3c10.2-1.4,20.3-1.3,30.1,2.7c1.1,0.5,1.9,1.4,2.3,2.8c-2.5,0.6-4.9,1.1-7.4,1.7
		c0.7,3.7,2.3,7.2,2.3,10.9c-0.3,0.6-0.7,1.1-1,1.7c0,0,0,0.1,0,0.1c-0.6-1.1-2-1.4-2.6-2.3c0-0.7,0.9-0.1,0.9-0.7
		c-0.4-0.3-0.8-0.5-1.2-0.8c0.8-0.3,1.5-0.5,2.2-0.8c-1.9,0.2-2.9-0.8-3.6-2.3c-0.1,0.9-0.1,1.7-0.1,2.5c-0.2,2.5-1.2,3.1-3.4,1.9
		c-1.1-0.6-2.1-1.2-3.1-1.9c-0.1-0.1-0.3-0.3-0.4-0.4l-0.2-0.1c0,0,0.1,0.1,0.1,0.1c0.1,0.2,0.3,0.3,0.4,0.5
		c0.9,2.6,4.3,3.3,4.7,6.6c0.3-0.8,0.5-1.2,0.7-1.8c0.7,1.4,1.4,2.7,2.1,4c0.6-1-0.4-1.7,0-2.6c1-0.1,1.4,1.3,2.5,1.2
		c-0.5-1.4-2.1-1.8-2.2-3.4c1.2-0.3,2.1,0.5,3.2,0.5C287.4,223,287.4,223.1,287.5,223.1z M234.1,162.7c-1.2-0.9-2.5-1-3.9-0.8
		C231.4,162.7,232.5,163.8,234.1,162.7c0.8,0.8-0.8,2.3,0.9,2.7l0,0c0.7,1.5,1.7,0.6,2.5,0.1c1.1-0.6,1.4-1.5,1-2.7
		c-0.4-1.1-1.2-1.1-2.2-1C235.5,161.9,235.1,163.1,234.1,162.7z M269.9,185.1c-4.3-1.7-16.4-2.9-19.6-1.7c1.8,1,3.6,1.7,4.4,3.6
		c0,0.1,0.4,0.1,0.6,0.1c2.8-0.1,5.6,0.4,8.3,1C266.6,188.8,268.8,188.3,269.9,185.1z"/>
	<path class="st3" d="M219.2,154.7c-1.7,2.9-1.2,5.6,0.9,8.1c0,0.3,0,0.5,0,0.8c0,0-0.1,0.1-0.1,0.1l0.1-0.1c1.1,0.5,2.1,1.6,3.6,1
		c-0.5,1.6,0.1,2,1.6,1.7c0.7-0.2,1.4-0.4,2.2-0.6c-1.3,4-4.6,6.5-6.7,9.7c-0.9-0.3-1.9-0.4-2.9-0.3c-7.5,0.7-15,1.4-22.6,2.1
		c-1.5,0.1-3,0.1-4.5,0.5c-2.2,0.6-3-0.5-3.4-2.4c-0.9-5.2-1.8-10.4-2.8-15.6c-2.6-13.4-5.4-26.8-7.9-40.3c-1-5-1.8-10.1-2.9-15.1
		c-0.1-0.6-0.1-1.3-0.1-2.5c13.6,2.6,26.9,5.2,40.3,7.8c-0.5,3.2,2.9,4.6,3.5,7.4c0.1,0.7,1.2,0.8,2,0.6c0.9-0.2,1.8-0.3,2.5-0.4
		c0.8-0.4-0.4-1.5,0.8-1.6c0.2,0,0.5,0,0.6,0.1c1.5,1.4,1.5,1.5,2.9,1.3c0.1-0.5-0.5-0.6-0.6-0.9c0.8-0.4,1.3,0.5,1.9,0.3
		c0.2,0.6,0.6,1,1.3,0.9c0,0.4,0.2,0.5,0.5,0.5c0.4,0.8,0.9,1.3,1.8,1.4c0.1,0.6,0.3,1.1,0.1,1.7c-1.3,3.5-2.5,7-3.8,10.4
		c-0.6,1.5-1.2,3.1-3,3.6c-5.6,1.3-11.1,0-16.6-1c-1.3-0.2-2-1.2-2.4-2.5c-1.1-3.2-2.1-6.5-3.2-9.7c-0.6-1.7-1.1-3.4-2.2-4.9
		c-0.8,0.4-1.2,0.9-1.5,1.5c-3.5,7.7-7.4,15.2-11,22.9c-1.2,2.7-0.6,4,1.4,5.5c7.4,5.4,14.6,10.9,22,16.3c1.1,0.8,2,2.1,3.7,2
		c-0.3-4.6-2.5-8.7-3.1-13.9C214.4,153.1,217.2,152.8,219.2,154.7z M222.7,131.7c-0.9,1.1-0.9,1.1,0.4,1.7c-0.3-0.5-0.3-1-0.2-1.5
		c0.2-0.2,0.3-0.3,0.5-0.5c1.3-1.1,2.4-2.3,2.7-4.1c0.1-0.1,0.1-0.3,0.2-0.4c-0.1,0.1-0.2,0.2-0.3,0.3c-1.4,1-3.1,1.8-2.8,4
		C223,131.4,222.9,131.5,222.7,131.7z M216.2,123.5c-0.1-1-0.8-1.7-1.4-2.9c-0.2,1.5,0.2,2.4,1.1,3c0.6,0.8,1.6,1,2,2.2
		c0.4-0.9,0-1.7,0.9-2.1C217.8,123.3,217,123.1,216.2,123.5z M226.4,124.2c-2.3,1.2-4.6,2.3-7.3,2.9
		C220.5,128.9,225.6,126.9,226.4,124.2z M223.8,117.6c-0.8,0.7-0.8,1.4-0.3,2.4c0.9-0.1,1.7-0.1,2.7-0.8
		C225.1,119.1,225,117.7,223.8,117.6z"/>
	<path class="st3" d="M309.2,192.7c-1.8-1-3.6-2.1-5-3.7c-0.4-0.4-0.7-0.5-1.2-0.3c-0.9-0.1-1.6,0-1.8,1.1c-0.1,0.9-1.3,1.9,0.3,2.6
		c-0.6,1.1-1.5,2.1-2.5,2.9c-5.7-2.6-11.1-5.8-17.1-7.6c-6.1-1.8-11.7-4.6-17.7-7c0.1-0.5,0.2-1.1,0.4-1.8c5,0.9,9.9,1.8,14.8,2.6
		c0-0.2,0.1-0.4,0.1-0.5c-5.1-1.3-10.2-2.3-15.4-3.1c-1.2-0.3-2.2-0.8-2.5-2.1c0.4-4.6-0.6-9-1.4-13.5c-0.3-2-1.4-3.8-1.3-5.9
		c0.3,0.4,0.2,1.1,1.2,1.6c-0.8-2.9-1.7-5.3-3-7.6c-0.3-0.7-0.6-1.3-0.8-2c2.7-2.3,5.6-4.3,8-6.9c4.9-5.3,9-11.1,12.9-17.1
		c0.9-1.4,1.8-1.8,3.4-1.4c1.7,0.5,3.6,0.2,5.2,1.3c0,0.1-0.1,0.3-0.1,0.4c-11.7,18.9-14.3,24.2-21.9,44.5c-0.1,0.2-0.3,0.3-0.5,0.6
		c-0.3-1.4-0.4-2.8-0.8-4.1c-0.3-1.2-0.4-2.6-1.4-3.6c1.1,4.7,0.9,9.5,2.2,13.7c4.1-2.5,8.4-0.3,12.3-1c0-0.2,0-0.4,0-0.6
		c-3.5-0.3-7-0.6-10.6-0.8c0.1-1,0.1-1.9,1.3-1.9c2,0.1,3.9-0.1,5.9,0.2c2.9,0.4,5.9,0.3,8.8-0.1c0-0.2,0-0.4,0-0.6
		c-4.5-0.2-9-0.4-13.6-0.6c0-1.3,0-2.5,0-3.9c5.6,0.2,11,1,16.5,1.2c-5.9-1.4-11.9-2.1-18-2.5c-0.1-2.8,0-2.8,2.6-2.5
		c2.5,0.3,5.1,0.5,7.7,0.6c7.3,0.2,14.5,1.5,21.6,3.3c5.9,1.5,11.7,3.3,17.5,4.9c1.3,0.4,2.6,1.2,4.1,0.4c1.6,1.2-0.3,2.5,0,3.8
		c0.2,1-1.3,0.2-2,0.2c-0.6,0-1.2-0.1-1.9-0.1c-0.6,2.6-1.5,5-2.9,7.2c-1.6-0.5-3.2-1-4.8-1.5c-1.1,2.3-0.6,4.8-1.8,7
		c-0.4,0.7,0.6,1.3,1.1,1.8C307.9,191,309.1,191.3,309.2,192.7z M311.3,175.9c-2.9-2-17.9-4.5-20.3-3.4
		C297.8,173.3,304.6,174.2,311.3,175.9z M304,172.2c0-0.2,0.1-0.4,0.1-0.6c-4.4-1.5-9-2.4-13.6-3.2c-0.1,0.2-0.1,0.5-0.2,0.7
		C294.9,170.2,299.5,171.2,304,172.2z M294.1,177.5c2.8,1.1,5.5,2,8.5,2C299.9,178.3,297.1,177.6,294.1,177.5z M291.9,189.6
		c1.8,1.1,3.4,1.4,5.1,1.6C295.4,190.6,294.1,189.4,291.9,189.6z M291.7,184.9c0.1-0.2,0.1-0.4,0.2-0.6c-1.4-0.3-2.5-1.5-4.2-0.6
		C289,184.1,290.4,184.5,291.7,184.9z"/>
	<path class="st3" d="M311.6,114.4c5,4.6,9.6,9.5,13.9,14.8c0.8,1,2.1,1.8,2.3,3.3c0.1,0.7,0.7,0.4,1.1,0.5c2,0.4,4,0.7,6,1
		c1.4,0.2,1.9,0.8,1.5,2.3c-2,7-3.9,14-5.8,21c-0.5,2-1.1,3.9-1.6,5.9c-0.3,1-0.8,1.7-2,1.8c-5.6,0.5-11.3,1-16.9,1.5
		c-0.7-0.9-0.1-1.7,0.2-2.4c3.9-10.1,7.9-20.1,11.9-30.2c0.5-1.2,0.8-2.6,2.9-2.1c-5.9-4.2-12.3-6.9-18.8-9.5
		c0.1-0.2,0.3-0.4,0.4-0.5c1.6-0.4,3.4,0.3,5.3-0.7c-2.4-2.5-4.7-4.8-7-7.1c0.1-0.1,0.2-0.3,0.4-0.4c0.8,0.2,1.7,0.5,2.6,0.7
		c0.3-0.6-0.4-1.9,1-1.7c0.6,0.3,1,1.4,2,0.9c0,0,0.1,0,0.1,0c0,0.1-0.1,0.2-0.1,0.3c0.2,0,0.3,0,0.5,0.1c0,0,0,0,0,0
		C311,114.4,311.3,114.4,311.6,114.4z"/>
	<path class="st3" d="M288,124.9c3.7,0.7,7.4,1.3,11.2,2c1.1,0.2,1.6,0.8,1.1,2.1c-4.2,10.8-8.4,21.6-12.1,32.5
		c-0.4,1.1-1.2,1.2-2,1.5c-5.8-0.5-11.6-1-17.6-1.5c3.1-8.5,7.4-15.8,10.1-23.9c0,0.4-0.2,0.9,0.3,1.3c0.9-0.9,1.5-1.9,1.8-3.1
		c0.7-0.6,1.2-1.3,1.3-2.2c1.3-1.4,2.3-2.9,2.9-4.7C286.4,128,286.7,126.1,288,124.9z"/>
	<path class="st3" d="M291.1,164c0.6-4,2.5-7.6,3.8-11.3c2.5-7.1,5.3-14.2,8-21.3c1.1-3,1.6-3.4,4.6-2.8c3.4,0.6,6.8,1.4,10.2,2.1
		c1.9,0.4,2.4,1.2,1.6,3c-3.3,7.8-6.5,15.7-9.6,23.5c-1,2.4-1.9,4.8-2.5,7.3c-0.4,1.7-1.1,2.7-2.9,2.8
		C299.9,166.1,295.5,165,291.1,164z"/>
	<path class="st3" d="M250.1,117c3.6,0.2,7,1.2,10.5,1.8c3.9,0.7,7.8,1.7,11.8,2.5c1.7,0.3,1.7,1.2,0.9,2.4
		c-3.2,4.5-6.2,9.1-10,13.1c-3,3.2-6.5,5.9-9.9,8.6c-0.7,0.1-0.4,0.9-0.9,1.1c-0.3-0.5-0.6-1.1-1-1.5c-3.8-2.9-6.9-6.6-10.5-9.8
		c-0.1-0.6-0.1-1.3-0.2-1.9c0.1-0.1,0.1-0.1,0.2-0.2c1-0.4-0.3-1,0-1.3c1-0.2,1.8-0.4,2.6-0.6c-0.4-1.9-2.5-2.2-3.1-3.7
		c0-0.2,0-0.4,0-0.6c0.9-0.1,1.8-0.1,2.7-0.3c1.9-0.4,4.2,0.2,5.5-1.9C251,122.3,250.9,119.7,250.1,117z"/>
	<path class="st2" d="M291.1,164c4.4,1.1,8.8,2.1,13.2,3.2c5,1.6,10,3.2,15,4.8c-1.5,0.8-2.8-0.1-4.1-0.4
		c-5.8-1.7-11.7-3.5-17.5-4.9c-7-1.8-14.2-3.1-21.6-3.3c-2.6-0.1-5.1-0.3-7.7-0.6c-2.6-0.3-2.7-0.3-2.6,2.5c6,0.4,12,1.1,18,2.5
		c-5.5-0.2-11-1-16.5-1.2c0,1.4,0,2.6,0,3.9c4.6,0.2,9.1,0.4,13.6,0.6c0,0.2,0,0.4,0,0.6c-2.9,0.4-5.8,0.6-8.8,0.1
		c-2-0.3-3.9-0.1-5.9-0.2c-1.2-0.1-1.2,0.8-1.3,1.9c3.6,0.3,7.1,0.6,10.6,0.8c0,0.2,0,0.4,0,0.6c-3.9,0.7-8.2-1.5-12.3,1
		c-1.2-4.2-1.1-9.1-2.2-13.7c1,1,1.1,2.4,1.4,3.6c0.3,1.3,0.5,2.6,0.8,4.1c0.2-0.2,0.4-0.4,0.5-0.6c7.6-20.3,10.3-25.6,21.9-44.5
		c0.1-0.1,0.1-0.3,0.1-0.4c1.3-1.3,1.9-3.2,3.4-4.4c0.2,0.1,0.4,0.3,0.5,0.4c-0.1,0.3-0.1,0.6-0.2,0.9c-0.1,0.1-0.2,0.2-0.3,0.3
		c-0.6,0.2-0.7,0.5-0.7,1.1c-0.1,0.1-0.2,0.2-0.3,0.3c-0.1,0-0.2,0.1-0.2,0.2c-0.1,0.1-0.2,0.2-0.2,0.3c-0.1,0.2-0.1,0.4-0.2,0.5
		c-0.1,0.1-0.2,0.2-0.4,0.4c0,0-0.1,0.1-0.1,0.1c-0.1,0.1-0.2,0.2-0.3,0.3c0,0-0.1,0.1-0.1,0.1c-0.1,0.1-0.2,0.3-0.3,0.4
		c-0.1,0.2-0.1,0.3-0.2,0.5c-0.1,0.2-0.2,0.3-0.3,0.5c-0.1,0.1-0.2,0.2-0.1,0.4c-0.1,0.1-0.2,0.3-0.3,0.4c-0.1,0-0.2,0.1-0.2,0.2
		c-0.1,0.1-0.2,0.2-0.3,0.4c-0.1,0.1-0.2,0.2-0.1,0.3c-0.1,0.2-0.2,0.4-0.3,0.6c-0.3,0.2-0.6,0.5-0.6,0.9c-0.1,0.1-0.2,0.3-0.3,0.4
		c-0.1,0.2-0.1,0.3-0.2,0.5c-0.1,0.1-0.2,0.3-0.3,0.4c-0.1,0-0.1,0.1-0.1,0.2c-0.1,0.2-0.2,0.3-0.3,0.5c-0.1,0-0.1,0.1-0.1,0.2
		c-0.1,0.2-0.2,0.4-0.4,0.5c0,0-0.1,0.1-0.1,0.1c-0.1,0.2-0.2,0.4-0.4,0.6c-0.2,0.5-0.5,0.9-0.7,1.4c0,0-0.1,0.1-0.1,0.1l0.1-0.1
		c0.2-0.2,0.4-0.5,0.6-0.7c0.1,0.1,0.2,0.2,0.4,0.4c-0.1,0.9-0.6,1.6-1.3,2.2c-0.2-0.1-0.3-0.2-0.5-0.3c0-0.1,0-0.1,0-0.2
		c-0.4,0-0.4,0.4-0.5,0.7c-0.1,0.2-0.2,0.3-0.3,0.5c-0.1,0.1-0.1,0.2-0.1,0.3c-0.1,0.2-0.3,0.4-0.4,0.6c0,0,0,0.1,0,0.1
		c-0.1,0.1-0.2,0.2-0.4,0.2c-2.8,8-7.1,15.4-10.1,23.9c6.1,0.5,11.9,1,17.6,1.5C287.8,163.4,289.4,164,291.1,164z M265.6,166.1
		c-0.8,2.6-1.5,4.7-2.2,6.9C264.4,170.9,265.6,168.9,265.6,166.1z"/>
	<path class="st1" d="M252.5,146.5c0.5-0.2,0.2-1.1,0.9-1.1c1.1,0.8,2,1.8,2.7,3c0.3,0.7,0.6,1.3,0.8,2c-0.1,0.2-0.2,0.4-0.3,0.5
		c-0.8-0.4-0.6-1.6-1.5-2c-1.8,0.8-0.9,2.4-0.9,3.6c0,0.9,0.6,1.8-0.5,2.3c-0.7-1.1-0.7-2.4-1.1-3.5c-0.1-0.3-0.1-0.3-0.1,0
		c0,0.1,0,0.1,0,0.2c-0.1-0.2-0.2-0.5-0.3-0.7c-0.3-0.9-0.6-1.8-1.6-2.2c0.6,0,0.9-0.4,0.8-1c-0.4,0.1-0.8,0-1-0.4
		C251.1,147.1,251.9,147,252.5,146.5z"/>
	<path class="st2" d="M297,208.1c-1.8-1.3-0.9-3.6-2-5.2C296.5,204.3,296.9,206.2,297,208.1L297,208.1z"/>
	<path class="st3" d="M287.4,210.9c2-0.7,4.1-1.6,6.3-0.6C291.5,210.5,289.4,210.7,287.4,210.9z"/>
	<path class="st2" d="M297,208.2c0,0.2,0,0.4,0,0.6c0.1,0,0.2-0.1,0.3-0.1C297.3,208.4,297.1,208.3,297,208.2
		C297,208.1,297,208.2,297,208.2z"/>
	<path class="st3" d="M309.9,193.2c-0.3,0-0.5-0.1-0.5-0.4C309.7,192.8,309.8,192.9,309.9,193.2z"/>
	<path class="st2" d="M286.1,195c0.4,0.1,0.5,0.3,0.4,0.6c0,0.1-0.2,0.1-0.3,0.2c-0.1-0.2-0.2-0.4-0.2-0.6
		C286,195.1,286.1,195,286.1,195z"/>
	<polygon class="st2" points="291.3,199.6 291.3,199.8 291.3,199.6 	"/>
	<path class="st2" d="M285.7,194.5c0.1,0.2,0.3,0.3,0.4,0.5c-0.1,0.1-0.1,0.1-0.1,0.2c-0.3,0-0.5-0.1-0.5-0.4
		C285.6,194.7,285.6,194.6,285.7,194.5z"/>
	<path class="st1" d="M213.9,220.5c0.6-0.1,0.9,0,0.7,0.7C214.4,221,214.1,220.7,213.9,220.5z"/>
	<path class="st2" d="M285.5,194.8c-0.3,0-0.5-0.2-0.6-0.5c0.1,0,0.2-0.1,0.3-0.2c0.2,0.2,0.3,0.3,0.5,0.5
		C285.6,194.6,285.6,194.7,285.5,194.8z"/>
	<path class="st0" d="M258.1,316c-0.1-19.6,0-39,0.1-58.5c-3.6,19.3-7.3,38.6-11,58.1c-3.4,0-6.7,0-10.3,0
		c-3.8-19.3-7.6-38.6-11.4-57.9c0.2,19.4,0.3,38.7,0.2,58.3c-3.7,0-7.4,0-11.2,0c0-27.8,0-55.7,0-83.7c5.2,0,10.4,0,15.8,0
		c3.9,20,7.8,39.9,11.6,59.9c0.1,0,0.3,0,0.4,0c3.7-19.9,7.3-39.8,11-59.9c5.3,0,10.6,0,15.9,0c0,27.9,0,55.7,0,83.7
		C265.7,316,262,316,258.1,316z"/>
	<path class="st0" d="M308.5,232.2c7.6,0.2,15.2-0.5,22.8,0.4c7.1,0.8,10.9,5.3,12.6,11.9c0.6,2.5,1,5.1,1,7.7c0,14,0,28.1,0,42.1
		c0,3.9-0.6,7.7-1.8,11.4c-2.1,6.3-6.5,10-13,10.3c-7.1,0.4-14.2,0.1-21.5,0.1C308.5,288.2,308.5,260.3,308.5,232.2z M321.3,306.2
		c1.5,0,2.9,0.1,4.3,0c3.7-0.2,5.3-1.6,6.1-5.2c0.4-1.6,0.4-3.3,0.4-5c0-14.3,0-28.7-0.1-43c0-1.2-0.1-2.4-0.2-3.6
		c-1-6.4-4-8.5-10.5-7.1C321.3,263.5,321.3,284.7,321.3,306.2z"/>
	<path class="st0" d="M165.8,274c0-7.4-0.1-14.9,0-22.3c0.1-5.1,1.1-10.1,4.3-14.3c1.9-2.6,4.5-4.3,7.5-5.2
		c4.7-1.4,9.4-1.3,14.1,0.1c4.8,1.4,7.5,4.9,9.1,9.4c1.2,3.2,1.8,6.6,1.8,10c0,14.6,0.1,29.1,0,43.7c0,4.6-0.8,9-2.9,13.2
		c-1.9,4-5,6.7-9.3,7.7c-6.7,1.5-13.4,1.5-18.8-3.6c-4.4-4.1-5.6-9.7-5.8-15.3c-0.3-7.8-0.1-15.6-0.1-23.4
		C165.9,274,165.9,274,165.8,274z M190,275.6c0-8.6,0-15.3,0-22c0-2.3-0.1-4.5-0.6-6.8c-0.6-2.9-2-4.2-4.4-4.4
		c-2.8-0.2-4.4,1-5.4,3.8c-0.6,1.8-0.8,3.7-0.8,5.6c0,14.9,0,29.9,0,44.8c0,2.1,0.3,4.2,0.9,6.3c0.7,2.2,2.4,3.2,4.7,3.2
		c3.2-0.1,4.7-1.7,5.2-5.7C190.5,291.5,189.7,282.6,190,275.6z"/>
	<path class="st0" d="M364.1,232.3c5.7,0,11.2,0,17,0c4.2,27.9,8.5,55.7,12.7,83.7c-4,0-7.8,0-11.9,0c-0.7-4.8-1.3-9.7-2-14.7
		c-4.5,0-9,0-13.5,0c-0.6,5-1.2,9.8-1.8,14.8c-4.2,0-8.2,0-12.3,0C356.1,288.1,360.1,260.3,364.1,232.3z M378.4,290.8
		c-1.9-13.9-3.7-27.7-5.5-41.5c-0.1,0-0.2,0-0.3,0c-1.7,13.8-3.4,27.6-5.1,41.5C371.3,290.8,374.8,290.8,378.4,290.8z"/>
	<path class="st0" d="M143.8,281.5c4.3,0,8.3,0,12.6,0c-0.3,8.7,1,17.4-2.2,25.8c-2,5.2-5.8,8.5-11.3,9.4c-6.2,1-12.2,0.6-17-4.1
		c-3.5-3.5-4.9-7.9-5.6-12.7c-0.4-2.4-0.5-4.8-0.5-7.3c0-12,0-24,0-35.9c0-5.8,0.4-11.5,3.1-16.8c2.2-4.4,5.7-7.2,10.6-8.1
		c3-0.6,6-0.7,9-0.1c6.9,1.2,11.3,5.9,12.8,13.6c1.3,6.5,0.7,13.1,0.8,19.8c-4.2,0-8.1,0-12.2,0c-0.5-0.7-0.2-1.6-0.3-2.4
		c-0.1-5.3,0.4-10.6-0.7-15.9c-0.6-3-1.9-4.2-4.4-4.4c-2.6-0.1-4.2,1.1-5.1,4c-0.6,2.1-0.9,4.3-0.9,6.5c0,14.2,0,28.4,0,42.5
		c0,2.5,0.2,5,1.1,7.4c0.7,2.1,2.1,3.3,4.4,3.3c2.3,0,3.8-1.1,4.6-3.3c0.9-2.7,1-5.5,1-8.3C143.8,290.2,143.8,286,143.8,281.5z"/>
	<path class="st0" d="M246.2,385.2c-0.4,0.1-0.5,0.2-0.7,0.2c-5.6,0.4-5.6,0.4-6.7-5.1c-1.9-9.6-3.8-19.3-6-28.9
		c0,11.3,0,22.7,0,34.2c-2.2,0-4.4,0-6.7,0c0-17.1,0-34.1,0-51.6c2.9,0,5.9-0.1,8.9,0c1.2,0,0.9,1.2,1.1,2
		c1.9,9.8,3.8,19.6,5.8,29.4c0.3,1.7,0.7,3.4,1.4,5.1c2.2-12.2,4.5-24.3,6.7-36.5c3.3,0,6.4,0,9.7,0c0,17.2,0,34.3,0,51.5
		c-2.1,0-4.4,0-6.8,0c-0.1-11.5-0.1-23-0.1-34.5C250.6,362.4,248.4,373.8,246.2,385.2z"/>
	<path class="st0" d="M282.7,316c0-27.9,0-55.7,0-83.7c4.2,0,8.3,0,12.6,0c0,27.8,0,55.7,0,83.7C291.2,316,287,316,282.7,316z"/>
	<path class="st0" d="M167.2,385.7c0-17.3,0-34.4,0-51.7c5,0.1,9.8-0.5,14.6,0.4c4.4,0.8,7.2,3.8,7.4,9.6c0.5,10.7,0.9,21.4-0.2,32
		c-0.7,6.7-4.3,9.6-11.2,9.7C174.4,385.7,170.9,385.7,167.2,385.7z M175.1,379.3c4.7,0.7,6.4-0.2,6.5-4.8c0.2-9.8,0.4-19.6-0.2-29.3
		c-0.3-4.5-1.7-5.4-6.3-4.8C175.1,353.3,175.1,366.2,175.1,379.3z"/>
	<path class="st0" d="M218.9,359.7c-0.3,5.8,0.6,11.7-0.6,17.5c-1.2,6.1-4.6,9-10.1,9.1c-6.6,0.1-10.1-2.6-11.6-8.9
		c-0.5-2-0.6-4-0.6-6.1c0-7.7,0-15.5,0-23.2c0-2.4,0.2-4.7,0.8-7c1.5-5.4,5.4-8,11.7-7.8c5.3,0.2,8.6,3,9.7,8.4
		c1.1,5.3,0.4,10.7,0.6,16.1C218.9,358.5,218.9,359.1,218.9,359.7z M211,359.6c0-1.7,0-3.3,0-5c-0.1-3.9,0.3-7.7-0.4-11.6
		c-0.3-1.5-1-2.7-2.8-2.8c-1.8-0.1-2.8,0.9-3.3,2.5c-0.4,1.5-0.5,3-0.5,4.5c0,8.1,0,16.2,0,24.3c0,2,0,4,0.6,5.8
		c0.7,1.9,2.7,2.6,4.4,1.6c1.2-0.7,1.5-1.9,1.6-3.1C211.3,370.5,210.8,365,211,359.6z"/>
	<path class="st0" d="M389,358.5c0,5.2,0,9.3,0,13.4c0,2.8-0.3,5.6-1.4,8.2c-1.7,4.2-4.8,6.2-9.6,6.2c-5.5,0-8.8-2.1-10.5-6.4
		c-0.9-2.2-1.3-4.5-1.3-6.9c0-8.8,0-17.6,0-26.4c0-1.1,0.2-2.3,0.3-3.4c1.4-8,8.5-12.1,16.2-9c3.6,1.4,5.1,4.4,5.8,7.9
		C389.6,347.9,388.8,353.7,389,358.5z M381.2,359.5c-0.2-5.4,0.3-10.7-0.4-16.1c-0.2-1.7-0.9-3.1-2.9-3.2c-2.1-0.1-3,1.2-3.4,3
		c-0.3,1.2-0.4,2.6-0.4,3.8c0,8.3,0,16.6,0,25c0,1.8,0.1,3.6,0.7,5.4c0.7,2,3.2,2.7,4.8,1.3c0.9-0.8,1.1-1.9,1.2-3.1
		C381.5,370.3,381,364.9,381.2,359.5z"/>
	<path class="st0" d="M132.7,334.1c3.6,0,7,0,10.5,0c2.6,17.2,5.2,34.3,7.8,51.5c-2.5,0-4.8,0-7.3,0c-0.4-3-0.9-6-1.3-9
		c-2.7,0-5.4,0-8.2,0c-0.4,3-0.8,5.9-1.2,9c-2.5,0-4.9,0-7.6,0C127.8,368.4,130.2,351.3,132.7,334.1z M138.2,345.4
		c-0.1,0-0.3,0-0.4-0.1c-1,8.2-2,16.3-3,24.6c2.3,0,4.3,0,6.6,0C140.4,361.7,139.3,353.5,138.2,345.4z"/>
	<path class="st0" d="M305.4,354.2c-2.5,0-4.9,0-7.5,0c0-2.5,0-4.9,0-7.3c0-1.4-0.2-2.7-0.4-4.1c-0.3-1.5-1.1-2.5-2.7-2.5
		c-1.6,0-2.6,0.9-3,2.3c-0.4,1.5-0.6,3-0.6,4.5c-0.1,8.4-0.1,16.8,0,25.2c0,1.6,0.3,3.2,0.6,4.7c0.3,1.5,1.3,2.4,2.9,2.4
		c1.7,0,2.4-1.1,2.8-2.5c0.8-3.4,0.4-6.8,0.5-10.2c0-0.7,0-1.5,0-2.3c2.6,0,5,0,7.7,0c0,5.8,0.9,11.6-1.9,17.1
		c-2.1,4.1-5.9,5-10,4.8c-4.2-0.2-7.3-2.2-9-6.2c-1-2.5-1.5-5.1-1.5-7.8c0-8.3,0-16.7,0-25c0-2.6,0.4-5.1,1.4-7.6
		c1.9-4.6,5.2-6.5,10.7-6.3c4.8,0.2,8,2.7,9.3,7.2c0.3,1.2,0.7,2.4,0.7,3.6C305.5,347.4,305.4,350.7,305.4,354.2z"/>
	<path class="st0" d="M336.1,378.9c3.5,0,6.6,0,9.8,0c0,2.3,0,4.4,0,6.7c-5.8,0-11.6,0-17.6,0c0-17.2,0-34.3,0-51.5c2.5,0,5,0,7.7,0
		C336.1,349,336.1,363.8,336.1,378.9z"/>
	<path class="st0" d="M351,334.1c2.6,0,5.1,0,7.7,0c0,17.2,0,34.3,0,51.5c-2.6,0-5.1,0-7.7,0C351,368.5,351,351.4,351,334.1z"/>
	<path class="st0" d="M268.1,334.1c2.5,0,5,0,7.6,0c0,17.2,0,34.3,0,51.5c-2.5,0-5,0-7.6,0C268.1,368.5,268.1,351.4,268.1,334.1z"/>
	<path class="st0" d="M320.1,385.7c-2.6,0-5,0-7.6,0c0-17.2,0-34.3,0-51.6c2.5,0,5,0,7.6,0C320.1,351.3,320.1,368.3,320.1,385.7z"/>
	<path class="st0" d="M231.8,219.9c-0.2-2.5-1.1-5-1.9-7.4c0.3,0,0.5,0,0.6,0c5.3,5.3,11.9,4.3,18.3,3.6c4.3-0.4,8.6-0.9,12.9-1.2
		c1.8-0.1,3.5,1.1,5.3,0.4c0.4-0.1,0.7,0.7,1,1.1c0.9,1.4,1.7,2.8,2.6,4.2c0.1,0.9-0.6,0.7-1.1,0.7c-12,0-24.1,0-36.1,0
		C232.2,221.5,231.9,220.9,231.8,219.9z"/>
	<path class="st2" d="M231.1,221.5c0,1.6,0,3.2,0,4.9c0,0.8,0.1,1.7-1.1,1.9c-0.1-0.1-0.2-0.1-0.3,0c0,0,0,0,0,0
		c-0.3-3.3-3-5.3-4.6-8.1c1.9-0.1,3.4,1.1,5,0.8c0,0,0.1,0,0.1,0c0,0.5,0.4,0.4,0.7,0.3C230.9,221.4,230.9,221.4,231.1,221.5
		C231,221.4,231.1,221.5,231.1,221.5z"/>
	<path class="st3" d="M229.6,228.2c0.1-0.1,0.2-0.1,0.3,0c0.1,0.2,0.1,0.4,0.2,0.7c-0.2-0.2-0.4-0.3-0.5-0.4
		C229.6,228.4,229.6,228.3,229.6,228.2z"/>
	<path class="st3" d="M287.5,222.7C287.5,222.7,287.5,222.7,287.5,222.7c0.2,0.1,0.5,0.2,0,0.4c-0.1-0.1-0.1-0.1-0.1-0.2
		L287.5,222.7z"/>
	<polygon class="st3" points="231.1,221.5 231,221.4 231,221.5 	"/>
	<path class="st0" d="M374.8,151.3c1,4.6,3.1,9,3.7,13.8c-1,0.3-1.9,0.5-2.9,0.8c-2.9-7.6-4.5-15.5-7.2-23.2
		c1.6-0.5,2.9-0.9,4.6-1.4c2.6,4.9,5.1,9.7,7.7,14.5c0.1,0,0.3-0.1,0.4-0.1c-0.6-5.4-1.2-10.7-1.8-16.1c1.4-0.8,2.8-1.1,4.5-1.5
		c2.3,7.7,4.6,15.3,6.9,22.9c-0.9,1-2,0.8-3.1,1.5c-1.5-4.7-2.9-9.3-4.3-13.8c-0.1,0-0.1,0-0.2,0c0.4,4,0.7,8,1.3,11.9
		c0.3,2.2-0.4,3.1-2.7,3.2C379.5,159.8,377.2,155.6,374.8,151.3c0-0.1-0.1-0.1-0.2-0.2c0,0,0.1-0.1,0.1-0.1
		C374.8,151.1,374.8,151.2,374.8,151.3z"/>
	<path class="st0" d="M406.3,144c-1.2-3.8-2.3-7.6-3.5-11.5c1.1-0.6,2.1-1,3.4-0.9c2.3,7.5,4.6,15.1,6.9,22.7
		c-1.7,1.4-2.8,1.1-3.9-0.6c-2.2-3.3-4.6-6.4-7.2-9.4c1.2,4.1,2.5,8.2,3.7,12.3c-1,0.8-2,1-3.4,1.1c-2.3-7.6-4.6-15.3-6.9-22.8
		c1.7-1.2,2.9-1.3,4.1,0.5c1.6,2.5,3.5,4.8,5.2,7.1C405.2,143.1,405.4,143.9,406.3,144c0,0.1,0,0.2,0,0.3c0.1,0,0.1,0,0.2,0
		C406.4,144.2,406.3,144.1,406.3,144z"/>
	<path class="st0" d="M411.7,129.8c1.7,5.7,3.3,11.2,5.1,16.7c0.4,1.3,0.4,3.6,2.6,2.9c2-0.7,0.7-2.5,0.3-3.7
		c-1.4-4.8-2.9-9.6-4.3-14.4c-0.2-0.8-0.7-1.5-0.5-2.5c0.9-0.7,2.1-0.7,3.4-1.2c1.3,4.2,2.6,8.3,3.8,12.4c0.7,2.4,1.5,4.7,1.9,7.2
		c0.5,3.1-0.8,4.9-3.8,5.7c-2.9,0.8-5.1,0-6.2-3c-1.7-4.6-3-9.4-4.5-14.1c-0.5-1.6-0.9-3.2-1.4-4.9
		C409.1,130.2,410.3,130,411.7,129.8z"/>
	<path class="st0" d="M431.5,131.9c-1.1,0.4-2,0.9-3.1,0.8c-0.8-0.9-0.8-2.1-1.3-3.1c-0.4-0.6-0.8-1.2-1.6-1c-0.9,0.3-1.1,1-1,1.8
		c0.2,1.4,0.9,2.4,2.1,3.1c1.6,1,3.3,1.9,4.8,3c2.9,2.1,4,5.2,3.9,8.7c-0.1,2.4-1.7,3.4-3.8,4c-2,0.5-3.9,0.4-5.2-1.6
		c-1.1-1.8-1.8-3.6-2.2-5.7c0.8-0.8,1.9-0.7,2.8-1.1c1.1,1,1.2,2.4,1.7,3.6c0.4,0.9,0.8,2,2.1,1.5c1.2-0.5,0.9-1.6,0.6-2.6
		c-0.5-1.9-1.5-3.2-3.2-4.2c-1.4-0.8-2.8-1.6-4.1-2.5c-2.6-1.7-3.4-4.4-3.4-7.3c0-2.4,1.7-3.4,3.7-4c2-0.6,3.8-0.4,5,1.5
		C430.6,128.4,431.2,130,431.5,131.9z"/>
	<path class="st0" d="M385.9,137.4c2.8-0.8,5.3-1.6,7.7-2.3c0.7,1,0.9,1.9,0.9,2.8c-1,1-2.5,0.8-3.9,1.8c0.6,2,1.2,4.1,1.9,6.3
		c1.4-0.4,2.7-0.7,3.9-1c0.6,0.9,0.8,1.8,0.9,2.9c-1.2,0.5-2.4,0.9-3.8,1.4c0.7,2.3,1.4,4.5,2,6.8c1.6,0.3,2.8-0.9,4.3-0.7
		c0.6,0.7,0.8,1.7,1,2.9c-2.3,0.7-4.6,1.4-6.8,2.1c-0.7,0.2-1.2,0.1-1.4-0.7C390.4,152.4,388.2,145,385.9,137.4z"/>
	<path class="st0" d="M232.3,199.2c-4.3-3.4-8-7.4-11.8-11.2c-0.6-0.6-0.7-1.1-0.3-1.8c3.4-6,6.8-12,10.7-17.7
		c0.2-0.3,0.6-0.7,1.1-0.7c0.3,2.2-2.5,3.4-2,5.8c1.6,0.3,3.3,0.1,4.9-0.1c6.8-0.6,13.7-1.1,20.5-1.7c0.3,1.7-0.7,3.1-1.3,4.5
		c0.7,0.7,1.7,0.4,2.5,0.5c0.4,0.2,0.9,0.5,1.3,0.7c-3.4,0.8-6.8,1.3-10-0.6c0.5-0.1,0.9-0.2,1.7-0.3c-0.8-0.2-1.4-0.5-1.8,0.1
		c-1.7,0.2-1.9,1.5-2.2,2.8c-0.2,1.1,0.4,1.4,1.3,1.7c0.9,0.3,0.9,1.3,1.2,2.1c0.7,1.9,1.3,3.9,1.9,5.9c1.7,0.8,3.5-0.6,5.4,0.2
		c-0.3,4.2-0.2,8.4-1.9,12.4c-0.9,2-2.2,2.8-4.5,2.9c-5.2,0.2-9-2.3-12.5-5.5c-4.3-3.9-8.4-8-12.6-12.1c-0.4-0.4-1-0.8-1-1.4
		c0.4-0.4,0.7-0.9,0.6-1.6c0.4-0.2,0.4-0.5,0.5-0.9c0.3-0.1,0.4-0.2,0.1-0.4c-0.1,0.1-0.2,0.2-0.2,0.4c-0.4,0.2-0.5,0.5-0.5,0.9
		c-0.5,0.4-0.8,0.9-0.8,1.6c-1,0.8-1,1.6,0,2.6c3.5,3.5,6.8,7.1,10.2,10.7C232.5,199,232.4,199.1,232.3,199.2z M224.7,181.8
		c0.3-0.2,0.6-0.4,0.1-0.7C224.7,181.4,224.6,181.6,224.7,181.8c-0.3,0-0.5,0.1-0.2,0.4C224.5,182.1,224.6,182,224.7,181.8z"/>
	<path class="st3" d="M222.4,150.5c-0.7-0.2-1.2-0.1-1.4,0.6c-4.5,0.2-8.2-2.4-12.7-3.4c0.6,4.3,2.4,8,2.6,12.7
		c-7.3-5.7-14.1-10.9-21-16.2c3.4-7.3,6.1-14.8,10.2-21.7c1.5,3.6,2.7,7.1,3.6,10.6c0.6,2.3,1.8,3.6,4.2,4.1
		c6.7,1.3,13.5,1.7,20.3,0.9c2-0.2,3.8-1.2,5.8-1c0,1.5,0.6,2.8,1.4,4c0.4,0.7,0.6,1.3,0.4,2.1c-0.5,2.9-0.9,5.8-1.4,8.7
		C230.3,152.7,226.3,152,222.4,150.5z"/>
	<path class="st3" d="M255.4,171.8c-6.8,0.6-13.7,1.1-20.5,1.7c-1.6,0.1-3.3,0.4-4.9,0.1c-0.6-2.4,2.3-3.5,2-5.8
		c0.6-0.9,1.1-1.5,2.5-0.7c2.3,1.2,5.6-1.6,5.3-4.1c-0.2-1.6-1.8-2.9-3.3-2.1c-1.9,1-3.5,0.2-5.2-0.2c-1.4-0.3-2.2-0.1-2.4,1.4
		c-0.8-0.5-1.4-0.8-1.3-1.8c0.1-1,0.9-1.2,1.6-1.2c0.8,0,1.2-0.5,1.7-0.9c0.9-0.3,0.2-1.3,0.8-1.7c0.6-0.4,1.3,0.3,1.9-0.2
		c1-0.2,0.9-1.1,1-1.8c0.8-3.5,1.5-7,1.8-10.5c0.2-1.7,0.8-2.8,2.8-1.9c0,0.9,0,1.8,0,2.5c2.6,1.4,5.3,2.3,8,3.4
		c-1.4,1.3-3.2,1.9-5.1,2.4c-3.3,0.9-4,1.9-4.2,5.2c5-0.8,9.7-2.2,14.1-4.8c0.1,0.2,0.2,0.5,0.3,0.7
		C254,158.2,255.5,164.9,255.4,171.8z"/>
	<path class="st0" d="M234,137.2c-2-0.2-3.8,0.7-5.8,1c-6.8,0.7-13.6,0.4-20.3-0.9c-2.4-0.5-3.6-1.7-4.2-4.1
		c-0.9-3.6-2.1-7-3.6-10.6c-4.1,6.9-6.8,14.4-10.2,21.7c6.9,5.3,13.7,10.6,21,16.2c-0.2-4.7-2-8.4-2.6-12.7c4.4,1,8.2,3.6,12.7,3.4
		c0.3,1.7-0.8,2.6-1.8,3.6c-2-1.9-4.8-1.7-7.5-3.5c0.6,5.2,2.9,9.3,3.1,13.9c-1.8,0.2-2.7-1.2-3.7-2c-7.4-5.4-14.7-10.9-22-16.3
		c-2.1-1.5-2.7-2.8-1.4-5.5c3.5-7.7,7.4-15.2,11-22.9c0.3-0.6,0.7-1.2,1.5-1.5c1.1,1.5,1.6,3.2,2.2,4.9c1.1,3.2,2.2,6.4,3.2,9.7
		c0.4,1.2,1.1,2.2,2.4,2.5c5.5,1,11,2.3,16.6,1c1.4,1.8,2.6-1.3,4.2,0.3c-0.2-2.4-0.1-4.3,0.8-6.1c1.1,1.4,0.2,3,0.2,4.5
		c2.1-0.3,2.8,1.7,4.1,2.5C233.5,136.6,234.1,136.9,234,137.2z"/>
	<path class="st3" d="M269.9,185.1c-1.1,3.2-3.3,3.7-6.3,3c-2.7-0.6-5.5-1.2-8.3-1c-0.2,0-0.6,0-0.6-0.1c-0.8-1.8-2.6-2.5-4.4-3.6
		C253.6,182.2,265.6,183.4,269.9,185.1z"/>
	<path class="st3" d="M230.1,220.9c-1.7,0.3-3.1-0.9-5-0.8c1.6,2.8,4.3,4.8,4.6,8.1c-1.9-1.8-2.9-4.3-4.9-6
		c-0.1-0.2-0.1-0.5-0.4-0.2c-0.2,0.2,0,0.4,0.2,0.4c-0.2,1.6,0.9,3,0.9,5.2c-1.3-2.7-2.3-4.9-3.4-7.1c-1.1,0.4-0.7,1.6-1.6,2.3
		c1-4.9-2.9-7.5-4.3-11.3c1.1,1.2,2.1,2.4,3.2,3.6c3.4,3.4,4.7,3.1,6-1.4c0.4,1.9,0.4,1.9,5.1,3.9c-1.7,0-3,0-4.7,0
		C227.1,219.3,229.3,219.2,230.1,220.9z M223.9,221.3l0.1-0.2l-0.1,0L223.9,221.3z"/>
	<path class="st1" d="M257.9,177.5c-0.4-0.2-0.9-0.5-1.3-0.7c-0.6-0.5-1.6-0.7-1.4-1.7c0.2-0.9,0.8-1.2,1.5-1.2
		c-1.1,0.2-1.1-0.6-1.2-1.5c-0.2-1.3,0.5-2.5,0.2-4c-0.6-3-0.8-6.1-1.1-9.1c1,0.2,1.3,0.9,1.4,1.8c0.3,1.6,0.7,3.3,0.8,4.9
		c0.3,3.9,0.7,7.6,4.6,9.7c0.4,1.3,1.4,1.8,2.5,2.1c0.4,1,0.2,1.9-0.7,2.4c-0.9,0.5-1.8,0-2.5-0.6C260,178.6,259,178,257.9,177.5z"
		/>
	<path class="st3" d="M287.4,222.9c-1.1,0.1-2-0.8-3.2-0.5c0.1,1.5,1.7,2,2.2,3.4c-1.1,0.1-1.4-1.4-2.5-1.2c-0.4,0.8,0.6,1.6,0,2.6
		c-0.7-1.3-1.3-2.6-2.1-4c-0.2,0.6-0.4,1-0.7,1.8c-0.4-3.3-3.8-4-4.7-6.6l0.1-0.1c1,0.6,2,1.3,3.1,1.9c2.2,1.2,3.2,0.6,3.4-1.9
		c0.1-0.8,0-1.6,0.1-2.5c0.7,1.6,1.7,2.6,3.6,2.3c-0.7,0.3-1.4,0.5-2.2,0.8c0.4,0.3,0.8,0.6,1.2,0.8c-0.1,0.6-0.9,0.1-0.9,0.7
		c0.6,1,2,1.2,2.6,2.3C287.5,222.7,287.4,222.9,287.4,222.9z M283.6,222.2l0.1-0.1l-0.2,0L283.6,222.2z M283.7,224
		c0,0-0.1-0.1-0.1-0.1c0,0-0.1,0.1-0.1,0.1c0,0,0.1,0.1,0.1,0.1C283.6,224,283.7,224,283.7,224z"/>
	<path class="st0" d="M233.7,156.3c-0.6,0.5-1.3-0.2-1.9,0.2c-0.7,0.4,0,1.4-0.8,1.7c-2-2.3-4.1-4.5-7.2-5.3
		c-0.9-0.3-1.2-1.4-1.3-2.3c3.9,1.5,7.9,2.3,12.1,1.7C234.2,153.5,234,154.9,233.7,156.3z"/>
	<path class="st3" d="M234.1,162.7c1,0.4,1.4-0.8,2.2-0.8c1-0.1,1.8-0.1,2.2,1c0.4,1.2,0.1,2.1-1,2.7c-0.8,0.4-1.7,1.4-2.5-0.1
		c1.8,0.2,0.9-1.1,0.9-1.8c0.3-0.3,0.6-0.6,0.9-0.9c0.2-0.1,0.4-0.2,0.2-0.4c-0.2-0.2-0.3,0-0.4,0.2c-0.7,0-0.9,0.3-1,0.9
		c-0.9,0.4-0.8,1.1-0.8,1.9C233.4,165,234.9,163.5,234.1,162.7L234.1,162.7z"/>
	<path class="st4" d="M223.6,164.6c-1.4,0.6-2.4-0.5-3.6-1l0,0c0-0.3,0-0.5,0-0.8c0.6-0.2,0.3-0.6,0.2-1c0.2-0.3,0.5-0.7,0.7-1
		c0.1-0.1,0.1-0.3,0.2-0.4c0.7-0.1,1.3-0.1,2-0.2C223.6,161.7,223.8,163.1,223.6,164.6z"/>
	<path class="st3" d="M223.2,160.3c-0.7,0.1-1.3,0.1-2,0.2c-0.1-1.5-0.2-3-0.3-4.6c0.6-0.8,1-0.2,1.3,0.3
		C222.8,157.4,223.3,158.8,223.2,160.3z"/>
	<path class="st0" d="M220.9,155.9c0.1,1.5,0.2,3,0.3,4.6c-0.1,0.1-0.1,0.3-0.2,0.4c-0.5-0.3-1.1-0.5-1.6-0.8
		C219.2,158.4,218.5,156.6,220.9,155.9z"/>
	<path class="st3" d="M234.1,162.8c-1.6,1-2.7-0.1-3.9-0.9C231.6,161.7,233,161.8,234.1,162.8C234.1,162.7,234.1,162.8,234.1,162.8z
		"/>
	<path class="st0" d="M301.4,192.3c-1.6-0.7-0.4-1.7-0.3-2.6c0.1-1.1,0.9-1.2,1.8-1.1c0,0.2-0.1,0.4-0.1,0.6
		c-0.2,0.2-0.5,0.4-0.4,0.7C302.1,190.8,301.8,191.6,301.4,192.3z"/>
	<path class="st3" d="M219.4,160c0.5,0.3,1.1,0.5,1.6,0.8c-0.2,0.3-0.5,0.7-0.7,1C219.8,161.4,219.5,160.8,219.4,160z"/>
	<path class="st3" d="M222.4,185.6c0-0.7,0.3-1.2,0.8-1.6l0.1,0.1c0,0.6-0.2,1.1-0.6,1.6c0,0-0.2,0-0.2,0L222.4,185.6z"/>
	<path class="st0" d="M235.6,201.8c0.4,0.4,0.8,0.7,1.1,1.1C236.1,202.7,235.4,202.7,235.6,201.8
		C235.6,201.7,235.6,201.8,235.6,201.8z"/>
	<path class="st3" d="M302.5,190.1c-0.1-0.4,0.1-0.6,0.4-0.7C302.9,189.6,302.9,190,302.5,190.1z"/>
	<path class="st0" d="M233.5,199.8c0.3,0.3,1.1,0.5,0.6,1.2c0,0,0,0,0,0c-0.5-0.1-0.8-0.4-0.9-0.9
		C233.3,200,233.4,199.9,233.5,199.8z"/>
	<path class="st0" d="M235.1,201.3c-0.6,0.4-0.7-0.1-1-0.4c0,0,0,0,0,0C234.7,200.5,234.8,201.1,235.1,201.3
		C235.1,201.4,235.1,201.3,235.1,201.3z"/>
	<path class="st3" d="M230.8,221.3c-0.3,0.1-0.7,0.2-0.7-0.3C230.3,221.1,230.6,221.2,230.8,221.3z"/>
	<polygon class="st3" points="276,217.8 275.9,217.7 276.1,217.8 	"/>
	<path class="st3" d="M276.4,218.3c-0.1-0.2-0.3-0.3-0.4-0.5c0,0,0.1,0,0.1,0c0.1,0.1,0.3,0.3,0.4,0.4
		C276.5,218.2,276.4,218.3,276.4,218.3z"/>
	<path class="st0" d="M235.6,201.7c-0.4,0.1-0.7,0.2-0.5-0.4c0,0,0,0,0,0C235.3,201.5,235.4,201.7,235.6,201.7
		C235.6,201.8,235.6,201.7,235.6,201.7z"/>
	<path class="st0" d="M232.8,199.6c-0.2-0.1-0.3-0.3-0.5-0.4c0.1-0.1,0.2-0.2,0.3-0.3c0.2,0.2,0.3,0.3,0.4,0.5
		C232.9,199.4,232.9,199.5,232.8,199.6z"/>
	<path class="st0" d="M233.2,200c-0.2-0.1-0.3-0.3-0.5-0.4c0.1-0.1,0.2-0.2,0.3-0.3c0.2,0.2,0.3,0.3,0.5,0.5
		C233.4,199.9,233.3,200,233.2,200z"/>
	<path class="st2" d="M229.6,129.2c-0.9,1.8-1,3.7-0.8,6.1c-1.6-1.6-2.8,1.5-4.2-0.3c1.8-0.5,2.4-2.1,3-3.6c1.4-3.4,2.5-7,3.8-10.4
		c0.2-0.6,0-1.2-0.1-1.7c0-0.1,0.1-0.2,0.1-0.3c0,0,0.1,0,0.1,0l0.1,0c0.4,0.5,1.3,0.6,0.9,1.5C231.1,123.1,230.1,126.1,229.6,129.2
		z"/>
	<path class="st2" d="M222.9,131.9c-0.1,0.5-0.1,1,0.2,1.5c-1.2-0.6-1.2-0.6-0.4-1.7C222.8,131.7,222.9,131.8,222.9,131.9z"/>
	<polygon class="st4" points="220.1,163.6 220,163.7 220.1,163.6 	"/>
	<path class="st5" d="M261.5,175.6c-3.9-2.1-4.3-5.8-4.6-9.7c-0.1-1.6-0.5-3.3-0.8-4.9c-0.1-0.9-0.4-1.6-1.4-1.8
		c0-0.2,0-0.3,0.1-0.4c1.1-0.6,0.4-1-0.2-1.3c-0.3-0.1-0.3-0.3-0.2-0.5c0.9-0.6,0.4-1-0.2-1.3c-0.1-0.3-0.3-0.5-0.4-0.8
		c1.1-0.6,0.5-1.5,0.5-2.4c0-1.3-0.9-2.8,0.9-3.6c0.9,0.4,0.7,1.6,1.5,2c0.6,1.2,1.7,2.3,1.6,3.8c0,0.1-0.1,0.1-0.1,0.2
		c0-0.1,0.1-0.1,0.1-0.2c0.2,0.5,0.4,1.1,0.5,1.6c-0.2,2.1,0.9,3.9,1.3,5.9C260.9,166.6,261.9,171,261.5,175.6z"/>
	<path class="st2" d="M311.3,175.9c-6.7-1.6-13.4-2.6-20.3-3.4C293.3,171.4,308.4,173.8,311.3,175.9z"/>
	<path class="st2" d="M304,172.2c-4.5-1-9.1-2.1-13.6-3.1c0.1-0.2,0.1-0.5,0.2-0.7c4.6,0.7,9.1,1.7,13.6,3.2
		C304.1,171.8,304.1,172,304,172.2z"/>
	<path class="st2" d="M294.1,177.5c3,0,5.8,0.8,8.5,2C299.7,179.5,296.9,178.6,294.1,177.5z"/>
	<path class="st2" d="M258.3,154.6c0-1.5-1-2.6-1.6-3.8c0.1-0.2,0.2-0.4,0.3-0.5c1.3,2.3,2.3,4.7,3,7.6c-1-0.5-0.8-1.2-1.2-1.6
		C258.7,155.7,258.5,155.1,258.3,154.6C258.3,154.6,258.3,154.6,258.3,154.6z"/>
	<path class="st2" d="M291.9,189.6c2.2-0.2,3.6,1,5.1,1.6C295.3,191,293.7,190.7,291.9,189.6z"/>
	<path class="st2" d="M291.7,184.9c-1.4-0.4-2.7-0.8-4.1-1.2c1.7-0.8,2.8,0.4,4.2,0.6C291.8,184.6,291.8,184.7,291.7,184.9z"/>
	<path class="st2" d="M284.9,129.1c-0.6,1.8-1.6,3.3-2.9,4.7c-0.1-0.1-0.2-0.2-0.4-0.4c0-0.2,0.1-0.5,0.1-0.7
		c0.1-0.2,0.2-0.4,0.4-0.6c0.1,0,0.1,0,0.1-0.1c0.1-0.2,0.2-0.4,0.4-0.5c0.1,0,0.1-0.1,0.1-0.2c0.1-0.2,0.2-0.3,0.3-0.5
		c0.1,0,0.1-0.1,0.1-0.2c0.1-0.1,0.2-0.3,0.3-0.4c0.1-0.2,0.1-0.3,0.2-0.5c0.1-0.1,0.2-0.3,0.3-0.4c0.2-0.1,0.3-0.3,0.5-0.4
		C284.6,128.9,284.7,129,284.9,129.1z"/>
	<path class="st2" d="M280.8,135.9c-0.3,1.2-1,2.2-1.8,3.1c-0.6-0.4-0.3-0.9-0.3-1.3c0.1-0.1,0.3-0.1,0.4-0.2c0,0,0-0.1,0-0.1
		c0.1-0.2,0.3-0.4,0.4-0.6c0.1-0.1,0.1-0.2,0.1-0.3c0.1-0.2,0.2-0.3,0.3-0.5c0.2-0.2,0.3-0.3,0.5-0.5
		C280.5,135.7,280.6,135.8,280.8,135.9z"/>
	<path class="st2" d="M233.7,156.3c0.3-1.4,0.5-2.8,0.8-4.1c0.4-2.9,0.9-5.8,1.4-8.7c0.1-0.8,0-1.4-0.4-2.1c-0.8-1.2-1.4-2.5-1.4-4
		c0.1-0.4-0.5-0.7-0.1-1.1c0.5-0.4,0.4-1.3,0.2-1.4c-1.7-1-1-2.5-0.9-3.8c0-0.1,0.1-0.2,0.2-0.2c0.5,0.7,0.9,1.3,1.7,2.4
		c-0.3-1.9,1-2.5,1.6-3.5c-0.6-0.9-0.5-2.2-1.9-2.4c-0.1-0.1-0.2-0.2-0.2-0.2c-0.2-0.5,0-0.9,0.4-1.2c1.2,1.2,2.2,1.4,2.9-0.5
		c0.9,0.7,1.8,1.4,2.7,2.1c0.6,1.6,2.7,1.8,3.1,3.7c-0.8,0.2-1.6,0.4-2.6,0.6c-0.3,0.3,1.1,0.9,0,1.3c-0.1-0.1-0.3-0.3-0.3-0.3
		c-0.3,0.2-0.1,0.4,0.1,0.5c0.1,0.6,0.1,1.3,0.2,1.9c-0.3-0.3-0.5-0.6-0.8-0.8c-0.3-0.9-0.5-1.8-1.4-2.4c-1.6,0-2.2,1-2.2,2.5
		c0,1.4,0,2.7-0.2,4.1c-0.2,1.4,0.3,2,1.6,2c0.6,0,1.2,0.1,1.8,0.2c0.4,0.2,0.8,0.1,1.1-0.1c0.1,0,0.2-0.1,0.3-0.1
		c0,0.1,0.1,0.2,0.1,0.2c-0.9,2.1,0.5,2.7,2,3.5c2.3,1.2,4.6,2.1,7,3c0.2,0.5,0.6,0.5,1,0.4c0,0.6-0.2,1-0.8,1
		c-1.1-0.2-2.2-0.4-3.2-0.6c-2.7-1.1-5.4-1.9-8-3.4c0-0.7,0-1.6,0-2.5c-2-0.9-2.6,0.2-2.8,1.9c-0.3,3.5-1,7-1.8,10.5
		C234.6,155.2,234.7,156.1,233.7,156.3z"/>
	<path class="st6" d="M250.4,147.2c-2.4-0.9-4.8-1.8-7-3c-1.5-0.8-2.9-1.4-2-3.5c0-0.1,0-0.1-0.1-0.2c-0.1,0-0.2,0.1-0.3,0.1
		c-0.1-2.1-0.1-4.3-0.7-6.3c0.3,0.3,0.5,0.6,0.8,0.9c3.5,3.2,6.6,6.9,10.5,9.8c0.4,0.3,0.7,1,1,1.5
		C251.9,147,251.1,147.1,250.4,147.2z"/>
	<path class="st3" d="M265.6,166.1c0,2.8-1.2,4.8-2.2,6.9C264.1,170.8,264.8,168.6,265.6,166.1z"/>
	<path class="st3" d="M281.8,132.6c0,0.2-0.1,0.5-0.1,0.7c-0.2,0.2-0.4,0.5-0.6,0.7c0,0,0,0,0,0
		C281.3,133.6,281.5,133.1,281.8,132.6z"/>
	<path class="st3" d="M280.3,135.6c-0.2,0.2-0.3,0.3-0.5,0.5c0.1-0.3,0-0.6,0.5-0.7C280.3,135.5,280.3,135.6,280.3,135.6z"/>
	<path class="st3" d="M279.5,136.6c0,0.1,0,0.2-0.1,0.3C279.4,136.7,279.4,136.6,279.5,136.6z"/>
	<polygon class="st3" points="281.1,134 281,134.1 281,134 	"/>
	<path class="st3" d="M279,137.4C279,137.4,279,137.5,279,137.4C279,137.5,279,137.4,279,137.4z"/>
	<path class="st0" d="M247.4,148c1.1,0.2,2.2,0.4,3.2,0.6c1,0.4,1.3,1.3,1.6,2.2c-4.3,2.6-9.1,4-14.1,4.8c0.2-3.3,0.9-4.2,4.2-5.2
		C244.1,149.9,245.9,149.4,247.4,148z"/>
	<path class="st2" d="M254.8,158.8c-0.1,0.1-0.1,0.3-0.1,0.4c0.3,3,0.5,6.1,1.1,9.1c0.3,1.4-0.4,2.6-0.2,4c0.1,0.9,0,1.8,1.2,1.5
		c-0.7,0-1.4,0.3-1.5,1.2c-0.2,1.1,0.8,1.3,1.4,1.7c-0.9-0.1-1.8,0.2-2.5-0.5c0.6-1.5,1.6-2.8,1.3-4.5c0.2-6.9-1.3-13.6-2.9-20.3
		c0-0.1,0-0.1,0-0.2c0-0.3,0-0.3,0.1,0c0.5,1.2,0.4,2.5,1.1,3.5c0.1,0.3,0.3,0.5,0.4,0.8c-0.5,0.6-0.4,1,0.2,1.3
		c-0.1,0.2-0.1,0.4,0.2,0.5C254.1,158,254.1,158.4,254.8,158.8z"/>
	<path class="st1" d="M321.3,306.2c0-21.5,0-42.7,0-63.9c6.5-1.4,9.6,0.7,10.5,7.1c0.2,1.2,0.2,2.4,0.2,3.6c0,14.3,0,28.7,0.1,43
		c0,1.7-0.1,3.3-0.4,5c-0.8,3.6-2.5,5-6.1,5.2C324.2,306.3,322.8,306.2,321.3,306.2z"/>
	<path class="st1" d="M190,275.6c-0.3,7,0.5,15.9-0.5,24.8c-0.5,4-2,5.7-5.2,5.7c-2.3,0-3.9-1-4.7-3.2c-0.7-2-0.9-4.1-0.9-6.3
		c0-14.9,0-29.9,0-44.8c0-1.9,0.2-3.8,0.8-5.6c1-2.8,2.6-4,5.4-3.8c2.4,0.2,3.8,1.5,4.4,4.4c0.5,2.2,0.6,4.5,0.6,6.8
		C190,260.3,190,267,190,275.6z"/>
	<path class="st1" d="M378.4,290.8c-3.7,0-7.1,0-10.9,0c1.7-13.9,3.4-27.7,5.1-41.5c0.1,0,0.2,0,0.3,0
		C374.7,263.1,376.6,276.9,378.4,290.8z"/>
	<path class="st1" d="M175.1,379.3c0-13.1,0-26,0-39c4.6-0.6,6,0.3,6.3,4.8c0.6,9.8,0.4,19.6,0.2,29.3
		C181.5,379.1,179.9,380,175.1,379.3z"/>
	<path class="st1" d="M211,359.6c-0.2,5.4,0.3,10.9-0.3,16.3c-0.2,1.2-0.4,2.4-1.6,3.1c-1.8,1-3.7,0.3-4.4-1.6
		c-0.7-1.9-0.6-3.9-0.6-5.8c0-8.1,0-16.2,0-24.3c0-1.5,0.1-3,0.5-4.5c0.5-1.6,1.5-2.6,3.3-2.5c1.8,0.1,2.5,1.2,2.8,2.8
		c0.7,3.8,0.3,7.7,0.4,11.6C211,356.3,211,357.9,211,359.6z"/>
	<path class="st1" d="M381.2,359.5c-0.2,5.4,0.3,10.7-0.4,16.1c-0.1,1.1-0.3,2.3-1.2,3.1c-1.6,1.4-4.1,0.7-4.8-1.3
		c-0.6-1.7-0.7-3.6-0.7-5.4c0-8.3,0-16.6,0-25c0-1.3,0.1-2.6,0.4-3.8c0.4-1.8,1.3-3.1,3.4-3c2,0.1,2.7,1.4,2.9,3.2
		C381.5,348.8,381,354.2,381.2,359.5z"/>
	<path class="st1" d="M138.2,345.4c1.1,8.1,2.2,16.3,3.3,24.6c-2.3,0-4.4,0-6.6,0c1-8.3,2-16.5,3-24.6
		C138,345.4,138.1,345.4,138.2,345.4z"/>
	<path class="st2" d="M374.8,151.3c0-0.1,0-0.2,0-0.3c0,0-0.1,0.1-0.1,0.1C374.7,151.2,374.8,151.3,374.8,151.3
		C374.8,151.4,374.8,151.3,374.8,151.3z"/>
	<path class="st2" d="M406.3,144c0.1,0.1,0.2,0.2,0.2,0.3c-0.1,0-0.1,0-0.2,0C406.3,144.2,406.3,144.1,406.3,144
		C406.3,144,406.3,144,406.3,144z"/>
	<path class="st2" d="M247.7,176.7c0.5-0.6,1-0.3,1.8-0.1c-0.7,0.1-1.2,0.2-1.7,0.3C247.9,176.8,247.8,176.8,247.7,176.7z"/>
	<path class="st3" d="M224.6,181.8c0.1-0.2,0.1-0.4,0.2-0.6C225.2,181.5,224.9,181.7,224.6,181.8L224.6,181.8z"/>
	<path class="st3" d="M223.2,184c0-0.4,0.1-0.7,0.5-0.9l0.1,0.1c0,0.4-0.1,0.7-0.5,0.9C223.3,184.1,223.2,184,223.2,184z"/>
	<path class="st3" d="M223.7,183.1c0.1-0.1,0.2-0.2,0.2-0.4C224.2,183,224,183.2,223.7,183.1C223.8,183.2,223.7,183.1,223.7,183.1z"
		/>
	<path class="st3" d="M224.7,181.8c-0.1,0.1-0.1,0.2-0.2,0.4C224.2,182,224.3,181.8,224.7,181.8
		C224.6,181.8,224.7,181.8,224.7,181.8z"/>
	<path class="st3" d="M232.7,120.4c0.2,0,0.3,0.1,0.5,0.1c0.1,0.3,0,0.8,0.6,0.7c0,0,0,0,0,0c-0.3,1.3,0.6,2.2,0.8,3.5
		c0.7-0.3,1.4-0.5,2-0.8c0,0,0,0,0,0c0,0.9,0.3,1.5,1.3,1.4c0,0,0.1,0,0.1,0c-0.7,1.9-1.7,1.7-2.9,0.5c-0.5,0.3-0.6,0.7-0.4,1.2
		c-0.3,0.1-0.5,0.3-0.2,0.6c0.1-0.1,0.3-0.3,0.4-0.4c1.4,0.1,1.3,1.4,1.9,2.4c-0.6,1-1.9,1.6-1.6,3.5c-0.8-1.1-1.3-1.7-1.7-2.4
		c-0.1-0.1-0.3-0.2-0.4-0.3c-0.3,0.3-0.1,0.5,0.2,0.6c-0.1,1.3-0.8,2.8,0.9,3.8c0.2,0.1,0.3,1-0.2,1.4c-1.3-0.9-2-2.8-4.1-2.5
		c0-1.5,0.9-3-0.2-4.5C230.1,126.1,231.1,123.1,232.7,120.4z M234,128.2c0,0-0.1-0.1-0.1-0.1c-0.2,0.1-0.2,0.2,0,0.3
		c0,0,0.1,0,0.1-0.1C234,128.3,234,128.3,234,128.2z"/>
	<polygon class="st2" points="223.9,221.3 223.9,221.2 224,221.2 	"/>
	<path class="st2" d="M224.5,222.4c-0.2-0.1-0.4-0.3-0.2-0.4c0.2-0.2,0.3,0.1,0.4,0.2C224.6,222.3,224.6,222.4,224.5,222.4z"/>
	<polygon class="st2" points="283.6,222.2 283.6,222.1 283.7,222.1 	"/>
	<path class="st2" d="M283.7,224c0,0-0.1,0.1-0.1,0.1c0,0-0.1-0.1-0.1-0.1c0,0,0.1-0.1,0.1-0.1C283.6,223.9,283.7,223.9,283.7,224z"
		/>
	<path class="st2" d="M236.1,163.6c-0.1,0.7,0.9,2-0.9,1.8c0,0,0,0,0,0c0-0.7-0.1-1.5,0.8-1.9C235.9,163.5,236,163.6,236.1,163.6z"
		/>
	<path class="st2" d="M235.9,163.5c0.1-0.6,0.3-1,1-0.9c0.1,0,0.1,0.1,0.2,0.2c-0.3,0.3-0.6,0.6-0.9,0.9
		C236,163.6,235.9,163.5,235.9,163.5z"/>
	<path class="st2" d="M236.8,162.6c0.1-0.2,0.2-0.4,0.4-0.2c0.2,0.2,0,0.3-0.2,0.4C236.9,162.7,236.9,162.7,236.8,162.6z"/>
	<path class="st1" d="M254.8,158.8c-0.6-0.3-0.6-0.8-0.2-1.3C255.2,157.8,255.9,158.1,254.8,158.8z"/>
	<path class="st1" d="M254.4,157c-0.7-0.3-0.7-0.8-0.2-1.3C254.8,156,255.3,156.4,254.4,157z"/>
	<path class="st3" d="M258.3,154.6C258.3,154.6,258.3,154.6,258.3,154.6c-0.1,0.1-0.1,0.1-0.1,0.2
		C258.2,154.7,258.3,154.6,258.3,154.6z"/>
	<path class="st6" d="M239.8,140.8c-0.6-0.1-1.2-0.2-1.8-0.2c-1.4-0.1-1.8-0.6-1.6-2c0.2-1.3,0.2-2.7,0.2-4.1c0-1.5,0.6-2.5,2.2-2.5
		c0,2.1,0.9,4.1,0.6,6.2C239.3,139.1,239.4,140,239.8,140.8z"/>
	<path class="st3" d="M239.8,140.8c-0.5-0.8-0.5-1.7-0.4-2.6c0.4-2.1-0.6-4.2-0.6-6.2c0.9,0.6,1.1,1.5,1.4,2.4
		c0.6,2,0.6,4.2,0.7,6.3C240.6,140.9,240.2,141,239.8,140.8z"/>
	<path class="st3" d="M240.9,133.3c-0.2-0.1-0.4-0.3-0.1-0.5c0,0,0.2,0.2,0.3,0.3C241,133.1,240.9,133.2,240.9,133.3z"/>
	<rect x="73.5" y="92.6" class="st0" width="394.7" height="128.8"/>
	<rect x="201.8" y="221.4" class="st1" width="101.3" height="10.3"/>
</g>
</svg>
