<svg id="svg" version="1.1" xmlns="http://www.w3.org/2000/svg" xmlns:xlink="http://www.w3.org/1999/xlink" width="400" height="400" viewBox="0, 0, 400,400"><g id="svgg"><path id="path0" d="M179.403 0.275 C 177.425 0.362,175.634 0.606,175.423 0.817 C 175.212 1.028,173.827 1.200,172.344 1.200 C 170.861 1.200,169.536 1.380,169.400 1.600 C 169.264 1.820,168.274 2.000,167.200 2.000 C 166.126 2.000,165.136 2.180,165.000 2.400 C 164.864 2.620,164.032 2.800,163.150 2.800 C 162.269 2.800,161.228 2.971,160.837 3.180 C 160.447 3.389,159.379 3.604,158.464 3.658 C 157.549 3.712,156.800 3.901,156.800 4.078 C 156.800 4.255,156.181 4.400,155.424 4.400 C 154.667 4.400,153.936 4.580,153.800 4.800 C 153.664 5.020,152.743 5.200,151.753 5.200 C 150.655 5.200,150.049 5.356,150.200 5.600 C 150.347 5.838,149.871 6.000,149.024 6.000 C 148.241 6.000,147.600 6.180,147.600 6.400 C 147.600 6.620,146.880 6.800,146.000 6.800 C 145.120 6.800,144.400 6.980,144.400 7.200 C 144.400 7.420,143.781 7.600,143.024 7.600 C 142.267 7.600,141.536 7.780,141.400 8.000 C 141.264 8.220,140.724 8.400,140.200 8.400 C 139.676 8.400,139.136 8.580,139.000 8.800 C 138.864 9.020,138.313 9.200,137.776 9.200 C 137.239 9.200,136.800 9.380,136.800 9.600 C 136.800 9.820,136.446 10.000,136.014 10.000 C 135.129 10.000,131.764 11.022,130.705 11.613 C 130.323 11.826,129.833 12.000,129.615 12.000 C 129.398 12.000,128.041 12.540,126.600 13.200 C 125.159 13.860,123.624 14.400,123.190 14.400 C 122.755 14.400,122.400 14.580,122.400 14.800 C 122.400 15.020,122.051 15.200,121.624 15.200 C 121.197 15.200,120.736 15.380,120.600 15.600 C 120.464 15.820,120.003 16.000,119.576 16.000 C 119.149 16.000,118.800 16.180,118.800 16.400 C 118.800 16.620,118.451 16.800,118.024 16.800 C 117.597 16.800,117.136 16.980,117.000 17.200 C 116.864 17.420,116.403 17.600,115.976 17.600 C 115.549 17.600,115.200 17.780,115.200 18.000 C 115.200 18.220,114.947 18.400,114.638 18.400 C 113.972 18.400,110.659 20.068,110.467 20.500 C 110.393 20.665,110.078 20.800,109.767 20.800 C 109.455 20.800,109.200 20.980,109.200 21.200 C 109.200 21.420,108.840 21.600,108.400 21.600 C 107.960 21.600,107.600 21.780,107.600 22.000 C 107.600 22.220,107.240 22.400,106.800 22.400 C 106.360 22.400,106.000 22.591,106.000 22.824 C 106.000 23.057,105.835 23.145,105.632 23.020 C 105.430 22.895,104.993 23.064,104.661 23.396 C 104.329 23.728,103.774 24.000,103.429 24.000 C 103.083 24.000,102.800 24.146,102.800 24.325 C 102.800 24.504,102.178 24.895,101.418 25.193 C 100.658 25.491,100.129 25.885,100.242 26.068 C 100.355 26.250,100.077 26.400,99.624 26.400 C 99.171 26.400,98.800 26.536,98.800 26.702 C 98.800 26.869,98.215 27.258,97.500 27.568 C 96.785 27.877,95.390 28.685,94.400 29.362 C 93.410 30.040,91.790 31.026,90.800 31.553 C 89.810 32.081,88.910 32.623,88.800 32.756 C 88.690 32.890,87.700 33.623,86.600 34.384 C 85.500 35.145,84.540 35.910,84.467 36.084 C 84.393 36.258,84.093 36.400,83.800 36.400 C 83.507 36.400,83.207 36.566,83.133 36.770 C 83.060 36.973,82.732 37.198,82.404 37.270 C 82.076 37.341,81.329 37.895,80.743 38.500 C 80.158 39.105,79.546 39.600,79.383 39.600 C 79.220 39.600,78.571 40.140,77.940 40.800 C 77.309 41.460,76.615 42.000,76.397 42.000 C 76.180 42.000,75.334 42.630,74.518 43.400 C 73.701 44.170,72.905 44.800,72.748 44.800 C 72.590 44.800,71.523 45.655,70.375 46.700 C 66.917 49.849,66.222 50.399,65.700 50.400 C 65.425 50.400,65.200 50.561,65.200 50.758 C 65.200 51.322,62.934 53.600,62.373 53.600 C 62.094 53.600,61.965 53.698,62.084 53.818 C 62.373 54.106,54.287 62.286,53.900 62.098 C 53.735 62.018,53.600 62.161,53.600 62.416 C 53.600 62.945,51.298 65.200,50.758 65.200 C 50.561 65.200,50.400 65.425,50.400 65.700 C 50.399 66.222,49.849 66.917,46.700 70.375 C 45.655 71.523,44.800 72.590,44.800 72.748 C 44.800 72.905,44.170 73.701,43.400 74.518 C 42.630 75.334,42.000 76.180,42.000 76.397 C 42.000 76.615,41.460 77.309,40.800 77.940 C 40.140 78.571,39.600 79.220,39.600 79.383 C 39.600 79.546,39.105 80.158,38.500 80.743 C 37.895 81.329,37.342 82.076,37.270 82.404 C 37.199 82.732,36.974 83.060,36.770 83.133 C 36.567 83.207,36.400 83.507,36.400 83.800 C 36.400 84.093,36.258 84.393,36.084 84.467 C 35.910 84.540,35.145 85.500,34.384 86.600 C 33.623 87.700,32.890 88.690,32.756 88.800 C 32.623 88.910,32.081 89.810,31.553 90.800 C 31.026 91.790,30.040 93.410,29.362 94.400 C 28.685 95.390,27.877 96.785,27.568 97.500 C 27.258 98.215,26.869 98.800,26.702 98.800 C 26.536 98.800,26.400 99.171,26.400 99.624 C 26.400 100.077,26.250 100.355,26.068 100.242 C 25.885 100.129,25.491 100.658,25.193 101.418 C 24.895 102.178,24.504 102.800,24.325 102.800 C 24.146 102.800,24.000 103.083,24.000 103.429 C 24.000 103.774,23.728 104.329,23.396 104.661 C 23.064 104.993,22.895 105.430,23.020 105.632 C 23.145 105.835,23.057 106.000,22.824 106.000 C 22.591 106.000,22.400 106.360,22.400 106.800 C 22.400 107.240,22.220 107.600,22.000 107.600 C 21.780 107.600,21.600 107.960,21.600 108.400 C 21.600 108.840,21.420 109.200,21.200 109.200 C 20.980 109.200,20.800 109.455,20.800 109.767 C 20.800 110.078,20.665 110.393,20.500 110.467 C 20.068 110.659,18.400 113.972,18.400 114.638 C 18.400 114.947,18.220 115.200,18.000 115.200 C 17.780 115.200,17.600 115.549,17.600 115.976 C 17.600 116.403,17.420 116.864,17.200 117.000 C 16.980 117.136,16.800 117.597,16.800 118.024 C 16.800 118.451,16.620 118.800,16.400 118.800 C 16.180 118.800,16.000 119.149,16.000 119.576 C 16.000 120.003,15.820 120.464,15.600 120.600 C 15.380 120.736,15.200 121.197,15.200 121.624 C 15.200 122.051,15.020 122.400,14.800 122.400 C 14.580 122.400,14.400 122.755,14.400 123.190 C 14.400 123.624,13.860 125.159,13.200 126.600 C 12.540 128.041,12.000 129.398,12.000 129.615 C 12.000 129.833,11.826 130.323,11.613 130.705 C 11.022 131.764,10.000 135.129,10.000 136.014 C 10.000 136.446,9.820 136.800,9.600 136.800 C 9.380 136.800,9.200 137.239,9.200 137.776 C 9.200 138.313,9.020 138.864,8.800 139.000 C 8.580 139.136,8.400 139.676,8.400 140.200 C 8.400 140.724,8.220 141.264,8.000 141.400 C 7.780 141.536,7.600 142.267,7.600 143.024 C 7.600 143.781,7.420 144.400,7.200 144.400 C 6.980 144.400,6.800 145.120,6.800 146.000 C 6.800 146.880,6.620 147.600,6.400 147.600 C 6.180 147.600,6.000 148.241,6.000 149.024 C 6.000 149.871,5.838 150.347,5.600 150.200 C 5.356 150.049,5.200 150.655,5.200 151.753 C 5.200 152.743,5.020 153.664,4.800 153.800 C 4.580 153.936,4.400 154.667,4.400 155.424 C 4.400 156.181,4.255 156.800,4.078 156.800 C 3.901 156.800,3.712 157.549,3.658 158.464 C 3.604 159.379,3.389 160.447,3.180 160.837 C 2.971 161.228,2.800 162.269,2.800 163.150 C 2.800 164.032,2.620 164.864,2.400 165.000 C 2.180 165.136,2.000 166.126,2.000 167.200 C 2.000 168.274,1.820 169.264,1.600 169.400 C 1.380 169.536,1.200 170.861,1.200 172.344 C 1.200 173.967,1.001 175.239,0.700 175.540 C -0.012 176.252,-0.028 223.025,0.683 224.439 C 0.949 224.968,1.267 226.570,1.390 228.000 C 1.967 234.704,2.092 235.590,2.434 235.379 C 2.637 235.254,2.800 236.055,2.800 237.176 C 2.800 238.289,2.980 239.200,3.200 239.200 C 3.420 239.200,3.600 240.100,3.600 241.200 C 3.600 242.300,3.780 243.200,4.000 243.200 C 4.220 243.200,4.400 243.920,4.400 244.800 C 4.400 245.680,4.580 246.400,4.800 246.400 C 5.020 246.400,5.200 247.109,5.200 247.976 C 5.200 248.843,5.380 249.664,5.600 249.800 C 5.820 249.936,6.000 250.566,6.000 251.200 C 6.000 251.834,6.180 252.464,6.400 252.600 C 6.620 252.736,6.800 253.467,6.800 254.224 C 6.800 254.981,6.980 255.600,7.200 255.600 C 7.420 255.600,7.600 256.140,7.600 256.800 C 7.600 257.460,7.750 258.000,7.933 258.000 C 8.117 258.000,8.267 258.266,8.267 258.592 C 8.267 259.199,9.041 261.973,9.610 263.400 C 9.785 263.840,10.223 265.190,10.582 266.400 C 11.386 269.103,12.619 272.411,13.714 274.800 C 14.167 275.790,14.669 276.960,14.829 277.400 C 14.989 277.840,15.498 279.053,15.960 280.096 C 16.422 281.138,16.800 282.263,16.800 282.596 C 16.800 282.928,16.980 283.200,17.200 283.200 C 17.420 283.200,17.600 283.560,17.600 284.000 C 17.600 284.440,17.735 284.801,17.900 284.803 C 18.259 284.807,19.200 286.744,19.200 287.480 C 19.200 287.766,19.380 288.000,19.600 288.000 C 19.820 288.000,20.000 288.360,20.000 288.800 C 20.000 289.240,20.180 289.600,20.400 289.600 C 20.620 289.600,20.800 289.960,20.800 290.400 C 20.800 290.840,20.936 291.200,21.102 291.200 C 21.269 291.200,21.644 291.785,21.936 292.500 C 22.866 294.776,23.326 295.600,23.668 295.600 C 23.850 295.600,24.000 295.960,24.000 296.400 C 24.000 296.840,24.180 297.200,24.400 297.200 C 24.620 297.200,24.800 297.470,24.800 297.800 C 24.800 298.130,24.980 298.400,25.200 298.400 C 25.420 298.400,25.600 298.861,25.600 299.424 C 25.600 300.004,25.773 300.340,26.000 300.200 C 26.220 300.064,26.400 300.233,26.400 300.576 C 26.400 300.919,26.544 301.200,26.720 301.200 C 26.895 301.200,27.268 301.833,27.548 302.606 C 27.827 303.380,28.629 304.782,29.328 305.722 C 30.917 307.857,32.136 310.000,31.761 310.000 C 31.605 310.000,31.865 310.336,32.339 310.747 C 32.812 311.158,33.201 311.653,33.202 311.847 C 33.203 312.041,33.743 312.775,34.402 313.478 C 35.061 314.181,35.600 314.997,35.600 315.290 C 35.600 315.583,35.960 316.083,36.400 316.400 C 36.840 316.717,37.200 317.207,37.200 317.488 C 37.200 317.770,37.380 318.000,37.600 318.000 C 37.820 318.000,38.000 318.230,38.000 318.512 C 38.000 318.793,38.360 319.283,38.800 319.600 C 39.240 319.917,39.600 320.373,39.600 320.613 C 39.600 320.854,40.140 321.568,40.800 322.200 C 41.460 322.832,42.000 323.504,42.000 323.693 C 42.000 323.882,42.405 324.453,42.900 324.963 C 43.395 325.473,44.070 326.294,44.400 326.789 C 44.730 327.283,45.783 328.523,46.740 329.544 C 47.697 330.565,49.047 332.111,49.740 332.980 C 51.521 335.214,55.262 339.285,56.141 339.946 C 56.549 340.252,58.799 342.415,61.141 344.752 C 65.134 348.735,69.594 352.819,71.607 354.336 C 72.092 354.701,73.091 355.563,73.827 356.250 C 74.564 356.938,75.264 357.403,75.383 357.284 C 75.502 357.164,75.600 357.277,75.600 357.533 C 75.600 357.790,75.843 358.000,76.141 358.000 C 76.438 358.000,77.246 358.540,77.937 359.200 C 78.628 359.860,79.293 360.400,79.415 360.400 C 79.537 360.400,80.086 360.850,80.636 361.400 C 81.186 361.950,81.800 362.400,82.000 362.400 C 82.200 362.400,82.814 362.850,83.364 363.400 C 83.914 363.950,84.602 364.400,84.894 364.400 C 85.185 364.400,85.683 364.760,86.000 365.200 C 86.317 365.640,86.807 366.000,87.088 366.000 C 87.370 366.000,87.600 366.180,87.600 366.400 C 87.600 366.620,87.870 366.800,88.200 366.800 C 88.530 366.800,88.800 366.980,88.800 367.200 C 88.800 367.420,89.036 367.600,89.325 367.600 C 89.613 367.600,90.207 367.915,90.645 368.300 C 91.083 368.685,91.792 369.197,92.220 369.438 C 94.389 370.655,95.017 371.049,95.660 371.600 C 96.046 371.930,98.125 373.100,100.280 374.200 C 102.436 375.300,104.549 376.515,104.975 376.900 C 105.402 377.285,106.066 377.600,106.452 377.600 C 106.837 377.600,107.264 377.780,107.400 378.000 C 107.536 378.220,107.997 378.400,108.424 378.400 C 108.851 378.400,109.200 378.552,109.200 378.737 C 109.200 379.068,111.322 380.208,113.900 381.263 C 114.615 381.556,115.200 381.931,115.200 382.098 C 115.200 382.264,115.560 382.400,116.000 382.400 C 116.440 382.400,116.800 382.580,116.800 382.800 C 116.800 383.020,117.072 383.200,117.405 383.200 C 117.961 383.200,119.522 383.922,120.000 384.400 C 120.110 384.510,120.650 384.662,121.200 384.738 C 121.750 384.814,122.260 385.039,122.333 385.238 C 122.407 385.437,122.801 385.600,123.210 385.600 C 123.618 385.600,124.064 385.780,124.200 386.000 C 124.336 386.220,124.887 386.400,125.424 386.400 C 125.961 386.400,126.400 386.580,126.400 386.800 C 126.400 387.020,126.672 387.200,127.004 387.200 C 127.337 387.200,128.372 387.540,129.304 387.955 C 131.005 388.712,136.514 390.517,141.000 391.787 C 142.320 392.161,143.713 392.632,144.095 392.833 C 144.477 393.035,145.332 393.200,145.995 393.200 C 146.658 393.200,147.200 393.380,147.200 393.600 C 147.200 393.820,147.819 394.000,148.576 394.000 C 149.333 394.000,150.064 394.180,150.200 394.400 C 150.336 394.620,151.167 394.800,152.047 394.800 C 153.012 394.800,153.549 394.959,153.400 395.200 C 153.249 395.444,153.863 395.600,154.976 395.600 C 155.979 395.600,156.800 395.780,156.800 396.000 C 156.800 396.220,157.599 396.400,158.576 396.400 C 159.553 396.400,160.464 396.580,160.600 396.800 C 160.736 397.020,161.726 397.200,162.800 397.200 C 163.874 397.200,164.864 397.380,165.000 397.600 C 165.136 397.820,166.227 398.000,167.424 398.000 C 168.621 398.000,169.600 398.180,169.600 398.400 C 169.600 398.631,170.856 398.800,172.567 398.800 C 174.584 398.800,175.587 398.960,175.700 399.300 C 175.891 399.874,220.478 400.054,221.049 399.484 C 221.223 399.310,206.712 384.513,188.802 366.602 C 166.993 344.791,156.430 333.965,156.819 333.818 C 157.139 333.698,167.030 333.553,178.800 333.496 L 200.200 333.393 177.924 333.296 C 163.971 333.236,155.557 333.054,155.406 332.809 C 155.196 332.469,153.677 322.385,151.790 308.800 C 151.470 306.490,151.016 303.340,150.782 301.800 C 150.548 300.260,150.193 297.740,149.993 296.200 C 149.793 294.660,149.455 292.230,149.242 290.800 C 148.738 287.419,148.031 282.467,147.585 279.200 C 147.391 277.770,147.036 275.340,146.797 273.800 C 146.558 272.260,146.198 269.740,145.995 268.200 C 145.656 265.617,145.426 264.008,144.362 256.800 C 144.151 255.370,143.805 252.940,143.594 251.400 C 143.382 249.860,143.113 247.970,142.997 247.200 C 142.612 244.659,142.035 240.648,141.589 237.400 C 141.160 234.276,140.871 232.307,140.005 226.600 C 138.888 219.241,137.601 209.474,137.357 206.504 C 136.386 194.698,143.966 182.850,154.716 179.370 C 155.752 179.034,156.960 178.590,157.400 178.382 C 159.554 177.366,234.040 177.286,240.200 178.294 C 247.350 179.463,252.739 182.765,257.346 188.800 C 258.920 190.862,259.370 191.668,260.919 195.200 C 262.252 198.240,262.604 207.144,261.638 213.400 C 261.150 216.560,260.891 218.334,260.002 224.600 C 259.753 226.360,259.392 228.790,259.200 230.000 C 259.008 231.210,258.666 233.550,258.440 235.200 C 257.457 242.354,257.237 243.845,257.048 244.600 C 256.698 246.002,256.439 250.095,256.718 249.816 C 256.865 249.668,257.129 248.344,257.304 246.874 C 257.478 245.403,257.796 242.985,258.011 241.500 C 258.225 240.015,258.580 237.540,258.800 236.000 C 259.404 231.770,259.937 228.087,260.361 225.200 C 260.572 223.770,260.949 221.160,261.200 219.400 C 261.451 217.640,261.834 215.030,262.051 213.600 C 263.080 206.831,262.883 199.046,261.600 195.800 C 259.403 190.242,253.073 182.000,251.000 182.000 C 250.859 182.000,249.959 181.460,249.000 180.800 C 248.041 180.140,246.894 179.600,246.452 179.600 C 246.009 179.600,245.536 179.420,245.400 179.200 C 245.264 178.980,244.749 178.800,244.256 178.800 C 243.763 178.800,243.189 178.636,242.980 178.435 C 242.513 177.986,239.222 177.619,233.300 177.353 L 228.800 177.152 228.800 130.342 C 228.800 99.371,228.935 83.578,229.199 83.667 C 229.419 83.740,266.690 120.854,312.023 166.143 C 357.357 211.431,394.482 248.421,394.524 248.343 C 394.566 248.264,394.825 247.797,395.100 247.305 C 395.375 246.813,395.600 245.688,395.600 244.805 C 395.600 243.922,395.780 243.200,396.000 243.200 C 396.220 243.200,396.400 242.401,396.400 241.424 C 396.400 240.447,396.580 239.536,396.800 239.400 C 397.020 239.264,397.200 238.163,397.200 236.953 C 397.200 235.588,397.352 234.847,397.600 235.000 C 397.848 235.153,398.000 234.412,398.000 233.047 C 398.000 231.837,398.180 230.736,398.400 230.600 C 398.620 230.464,398.800 229.139,398.800 227.656 C 398.800 226.033,398.999 224.761,399.300 224.460 C 399.689 224.071,399.800 218.617,399.800 199.913 C 399.800 181.032,399.693 175.831,399.300 175.700 C 398.960 175.587,398.800 174.584,398.800 172.567 C 398.800 170.856,398.631 169.600,398.400 169.600 C 398.180 169.600,398.000 168.621,398.000 167.424 C 398.000 166.227,397.820 165.136,397.600 165.000 C 397.380 164.864,397.200 163.874,397.200 162.800 C 397.200 161.726,397.020 160.736,396.800 160.600 C 396.580 160.464,396.400 159.553,396.400 158.576 C 396.400 157.599,396.220 156.800,396.000 156.800 C 395.780 156.800,395.600 155.979,395.600 154.976 C 395.600 153.863,395.444 153.249,395.200 153.400 C 394.959 153.549,394.800 153.012,394.800 152.047 C 394.800 151.167,394.620 150.336,394.400 150.200 C 394.180 150.064,394.000 149.333,394.000 148.576 C 394.000 147.819,393.820 147.200,393.600 147.200 C 393.380 147.200,393.200 146.658,393.200 145.995 C 393.200 145.332,393.035 144.477,392.833 144.095 C 392.632 143.713,392.161 142.320,391.787 141.000 C 390.517 136.514,388.712 131.005,387.955 129.304 C 387.540 128.372,387.200 127.337,387.200 127.004 C 387.200 126.672,387.020 126.400,386.800 126.400 C 386.580 126.400,386.400 125.961,386.400 125.424 C 386.400 124.887,386.220 124.336,386.000 124.200 C 385.780 124.064,385.600 123.618,385.600 123.210 C 385.600 122.801,385.437 122.407,385.238 122.333 C 385.039 122.260,384.814 121.750,384.738 121.200 C 384.662 120.650,384.510 120.110,384.400 120.000 C 383.922 119.522,383.200 117.961,383.200 117.405 C 383.200 117.072,383.020 116.800,382.800 116.800 C 382.580 116.800,382.400 116.440,382.400 116.000 C 382.400 115.560,382.264 115.200,382.098 115.200 C 381.931 115.200,381.556 114.615,381.263 113.900 C 380.208 111.322,379.068 109.200,378.737 109.200 C 378.552 109.200,378.400 108.851,378.400 108.424 C 378.400 107.997,378.220 107.536,378.000 107.400 C 377.780 107.264,377.600 106.837,377.600 106.452 C 377.600 106.066,377.285 105.402,376.900 104.975 C 376.515 104.549,375.300 102.436,374.200 100.280 C 373.100 98.125,371.930 96.046,371.600 95.660 C 371.049 95.017,370.655 94.389,369.438 92.220 C 369.197 91.792,368.685 91.083,368.300 90.645 C 367.915 90.207,367.600 89.613,367.600 89.325 C 367.600 89.036,367.420 88.800,367.200 88.800 C 366.980 88.800,366.800 88.530,366.800 88.200 C 366.800 87.870,366.620 87.600,366.400 87.600 C 366.180 87.600,366.000 87.370,366.000 87.088 C 366.000 86.807,365.640 86.317,365.200 86.000 C 364.760 85.683,364.400 85.185,364.400 84.894 C 364.400 84.602,363.950 83.914,363.400 83.364 C 362.850 82.814,362.400 82.200,362.400 82.000 C 362.400 81.800,361.950 81.186,361.400 80.636 C 360.850 80.086,360.400 79.537,360.400 79.415 C 360.400 79.293,359.860 78.628,359.200 77.937 C 358.540 77.246,358.000 76.438,358.000 76.141 C 358.000 75.843,357.790 75.600,357.533 75.600 C 357.277 75.600,357.164 75.502,357.284 75.383 C 357.403 75.264,356.938 74.564,356.250 73.827 C 355.563 73.091,354.701 72.092,354.336 71.607 C 352.819 69.594,348.735 65.134,344.752 61.141 C 342.415 58.799,340.252 56.549,339.946 56.141 C 339.285 55.262,335.214 51.521,332.980 49.740 C 332.111 49.047,330.565 47.697,329.544 46.740 C 328.523 45.783,327.283 44.730,326.789 44.400 C 326.294 44.070,325.473 43.395,324.963 42.900 C 324.453 42.405,323.882 42.000,323.693 42.000 C 323.504 42.000,322.832 41.460,322.200 40.800 C 321.568 40.140,320.854 39.600,320.613 39.600 C 320.373 39.600,319.917 39.240,319.600 38.800 C 319.283 38.360,318.793 38.000,318.512 38.000 C 318.230 38.000,318.000 37.820,318.000 37.600 C 318.000 37.380,317.770 37.200,317.488 37.200 C 317.207 37.200,316.717 36.840,316.400 36.400 C 316.083 35.960,315.583 35.600,315.290 35.600 C 314.997 35.600,314.181 35.061,313.478 34.402 C 312.775 33.743,312.041 33.203,311.847 33.202 C 311.653 33.201,311.158 32.812,310.747 32.339 C 310.336 31.865,310.000 31.605,310.000 31.761 C 310.000 32.136,307.857 30.917,305.722 29.328 C 304.782 28.629,303.380 27.827,302.606 27.548 C 301.833 27.268,301.200 26.895,301.200 26.720 C 301.200 26.544,300.919 26.400,300.576 26.400 C 300.233 26.400,300.064 26.220,300.200 26.000 C 300.340 25.773,300.004 25.600,299.424 25.600 C 298.861 25.600,298.400 25.420,298.400 25.200 C 298.400 24.980,298.130 24.800,297.800 24.800 C 297.470 24.800,297.200 24.620,297.200 24.400 C 297.200 24.180,296.840 24.000,296.400 24.000 C 295.960 24.000,295.600 23.850,295.600 23.668 C 295.600 23.326,294.776 22.866,292.500 21.936 C 291.785 21.644,291.200 21.269,291.200 21.102 C 291.200 20.936,290.840 20.800,290.400 20.800 C 289.960 20.800,289.600 20.620,289.600 20.400 C 289.600 20.180,289.240 20.000,288.800 20.000 C 288.360 20.000,288.000 19.820,288.000 19.600 C 288.000 19.380,287.766 19.200,287.480 19.200 C 286.744 19.200,284.807 18.259,284.803 17.900 C 284.801 17.735,284.440 17.600,284.000 17.600 C 283.560 17.600,283.200 17.420,283.200 17.200 C 283.200 16.980,282.928 16.800,282.596 16.800 C 282.263 16.800,281.138 16.422,280.096 15.960 C 279.053 15.498,277.840 14.989,277.400 14.829 C 276.960 14.669,275.790 14.167,274.800 13.714 C 272.411 12.619,269.103 11.386,266.400 10.582 C 265.190 10.223,263.840 9.785,263.400 9.610 C 261.973 9.041,259.199 8.267,258.592 8.267 C 258.266 8.267,258.000 8.117,258.000 7.933 C 258.000 7.750,257.460 7.600,256.800 7.600 C 256.140 7.600,255.600 7.420,255.600 7.200 C 255.600 6.980,254.981 6.800,254.224 6.800 C 253.467 6.800,252.736 6.620,252.600 6.400 C 252.464 6.180,251.834 6.000,251.200 6.000 C 250.566 6.000,249.936 5.820,249.800 5.600 C 249.664 5.380,248.843 5.200,247.976 5.200 C 247.109 5.200,246.400 5.020,246.400 4.800 C 246.400 4.580,245.680 4.400,244.800 4.400 C 243.920 4.400,243.200 4.220,243.200 4.000 C 243.200 3.780,242.300 3.600,241.200 3.600 C 240.100 3.600,239.200 3.420,239.200 3.200 C 239.200 2.980,238.289 2.800,237.176 2.800 C 236.055 2.800,235.254 2.637,235.379 2.434 C 235.503 2.233,234.434 1.963,233.002 1.834 C 231.571 1.705,229.185 1.493,227.700 1.363 C 226.215 1.233,224.756 0.925,224.459 0.680 C 223.921 0.236,187.644 -0.090,179.403 0.275 M256.000 251.733 C 256.000 252.467,255.833 254.042,255.629 255.233 C 254.341 262.761,253.824 267.109,254.272 266.661 C 254.451 266.483,254.728 265.136,254.888 263.668 C 255.048 262.201,255.365 259.740,255.592 258.200 C 256.226 253.903,256.520 250.400,256.247 250.400 C 256.111 250.400,256.000 251.000,256.000 251.733 M390.800 260.200 C 390.800 260.530,390.980 260.800,391.200 260.800 C 391.420 260.800,391.600 260.530,391.600 260.200 C 391.600 259.870,391.420 259.600,391.200 259.600 C 390.980 259.600,390.800 259.870,390.800 260.200 M253.664 269.250 C 253.629 269.608,253.498 270.507,253.373 271.250 C 253.188 272.355,253.229 272.471,253.598 271.891 C 253.846 271.502,253.977 270.602,253.889 269.891 C 253.800 269.181,253.699 268.893,253.664 269.250 M252.619 275.927 C 252.455 276.877,252.417 277.750,252.534 277.868 C 252.826 278.159,253.326 275.373,253.100 274.721 C 253.000 274.435,252.784 274.977,252.619 275.927 M251.818 281.526 C 251.653 282.695,251.613 283.746,251.729 283.862 C 252.014 284.147,252.531 280.587,252.300 279.925 C 252.200 279.636,251.982 280.357,251.818 281.526 M250.982 287.382 C 250.829 288.402,250.802 289.335,250.922 289.455 C 251.042 289.575,251.265 288.839,251.418 287.818 C 251.571 286.798,251.598 285.865,251.478 285.745 C 251.358 285.625,251.135 286.361,250.982 287.382 M250.219 292.727 C 250.055 293.677,250.017 294.550,250.134 294.668 C 250.426 294.959,250.926 292.173,250.700 291.521 C 250.600 291.235,250.384 291.777,250.219 292.727 M249.582 297.033 C 249.556 297.587,248.651 304.078,246.800 317.000 C 246.010 322.516,245.525 325.939,245.213 328.200 C 245.031 329.520,244.703 331.275,244.483 332.100 C 244.264 332.925,244.224 333.600,244.395 333.600 C 244.784 333.600,245.122 332.196,245.600 328.600 C 246.099 324.851,246.677 320.801,247.199 317.400 C 247.436 315.860,247.802 313.340,248.012 311.800 C 248.223 310.260,248.564 307.830,248.770 306.400 C 249.916 298.430,250.063 297.130,249.842 296.909 C 249.709 296.776,249.592 296.832,249.582 297.033 M325.018 356.218 C 324.458 356.778,324.000 357.449,324.000 357.710 C 324.000 357.970,324.405 357.774,324.900 357.273 C 325.395 356.773,326.160 356.107,326.600 355.794 C 327.292 355.303,327.308 355.224,326.718 355.213 C 326.343 355.206,325.578 355.658,325.018 356.218 M241.600 395.915 C 241.600 396.088,241.960 396.257,242.400 396.290 C 242.840 396.323,243.200 396.181,243.200 395.975 C 243.200 395.769,242.840 395.600,242.400 395.600 C 241.960 395.600,241.600 395.742,241.600 395.915 M229.000 398.400 C 229.136 398.620,229.496 398.800,229.800 398.800 C 230.104 398.800,230.464 398.620,230.600 398.400 C 230.741 398.172,230.396 398.000,229.800 398.000 C 229.204 398.000,228.859 398.172,229.000 398.400 " stroke="none" fill="#9cacc4" fill-rule="evenodd"></path><path id="path1" d="M180.503 178.276 L 200.007 178.408 199.903 200.504 L 199.800 222.600 183.498 222.704 L 167.195 222.809 167.298 255.704 L 167.400 288.600 183.700 288.704 L 200.000 288.809 200.000 310.801 L 200.000 332.793 177.900 332.900 C 165.745 332.959,175.519 333.050,199.620 333.103 C 247.486 333.209,244.400 333.372,244.400 330.744 C 244.400 329.921,244.580 329.136,244.800 329.000 C 245.020 328.864,245.200 327.831,245.200 326.705 C 245.200 325.578,245.369 324.104,245.576 323.428 C 245.783 322.753,246.151 320.220,246.395 317.800 C 246.638 315.380,247.016 312.230,247.234 310.800 C 247.453 309.370,247.816 306.850,248.041 305.200 C 248.532 301.601,249.111 297.534,249.635 294.000 C 250.024 291.378,250.453 288.424,251.216 283.100 C 251.444 281.505,251.729 279.120,251.849 277.800 C 251.969 276.480,252.232 275.229,252.434 275.020 C 252.635 274.811,252.800 273.542,252.800 272.200 C 252.800 270.858,252.965 269.589,253.166 269.380 C 253.368 269.171,253.638 267.875,253.766 266.500 C 253.895 265.125,254.105 262.875,254.234 261.500 C 254.362 260.125,254.632 258.829,254.834 258.620 C 255.035 258.411,255.200 257.117,255.200 255.744 C 255.200 254.371,255.380 253.136,255.600 253.000 C 255.820 252.864,256.000 251.604,256.000 250.200 C 256.000 248.796,256.180 247.536,256.400 247.400 C 256.620 247.264,256.800 246.004,256.800 244.600 C 256.800 243.196,256.980 241.936,257.200 241.800 C 257.420 241.664,257.600 240.494,257.600 239.200 C 257.600 237.906,257.780 236.736,258.000 236.600 C 258.220 236.464,258.400 235.204,258.400 233.800 C 258.400 232.396,258.580 231.136,258.800 231.000 C 259.020 230.864,259.200 229.629,259.200 228.256 C 259.200 226.883,259.365 225.589,259.568 225.380 C 259.770 225.171,260.031 223.830,260.147 222.400 C 260.349 219.919,260.555 218.404,261.619 211.600 C 262.542 205.697,261.721 194.800,260.353 194.800 C 260.159 194.800,260.000 194.566,260.000 194.280 C 260.000 193.544,259.059 191.607,258.700 191.603 C 258.535 191.601,258.400 191.280,258.400 190.888 C 258.400 190.497,258.040 189.917,257.600 189.600 C 257.160 189.283,256.800 188.823,256.800 188.578 C 256.800 188.128,251.822 183.200,251.368 183.200 C 251.234 183.200,250.646 182.861,250.062 182.447 C 248.128 181.075,245.987 180.000,245.188 180.000 C 244.755 180.000,244.400 179.820,244.400 179.600 C 244.400 179.380,243.896 179.200,243.280 179.200 C 242.664 179.200,241.989 179.038,241.780 178.841 C 241.563 178.636,224.132 178.410,201.200 178.314 C 179.090 178.221,169.777 178.204,180.503 178.276 M157.400 178.800 C 156.381 179.238,157.432 179.238,158.800 178.800 C 159.604 178.543,159.643 178.477,159.000 178.468 C 158.560 178.462,157.840 178.611,157.400 178.800 M153.200 180.200 C 151.894 180.947,152.351 180.955,154.054 180.216 C 154.794 179.894,155.130 179.631,154.800 179.630 C 154.470 179.629,153.750 179.886,153.200 180.200 M150.500 181.646 C 149.137 182.519,148.695 183.106,149.900 182.443 C 150.818 181.939,152.256 180.827,152.000 180.819 C 151.890 180.816,151.215 181.188,150.500 181.646 M146.491 184.700 L 144.526 186.600 146.363 185.038 C 148.938 182.849,148.989 182.800,148.708 182.800 C 148.569 182.800,147.572 183.655,146.491 184.700 M138.046 199.667 C 138.021 200.034,137.896 200.664,137.770 201.067 C 137.552 201.762,137.563 201.763,137.997 201.087 C 138.248 200.696,138.373 200.066,138.273 199.687 C 138.111 199.068,138.088 199.066,138.046 199.667 M137.647 207.033 C 137.673 207.895,137.839 209.140,138.015 209.800 C 138.218 210.556,138.254 210.038,138.115 208.400 C 137.867 205.486,137.575 204.631,137.647 207.033 M138.658 214.400 C 138.975 216.125,139.202 216.451,139.194 215.167 C 139.191 214.635,139.011 213.930,138.794 213.600 C 138.518 213.178,138.477 213.415,138.658 214.400 M233.000 255.600 L 233.000 289.000 216.826 289.105 C 204.153 289.187,200.584 289.100,200.333 288.705 C 199.963 288.122,199.877 223.587,200.245 222.628 C 200.464 222.057,202.182 222.002,216.745 222.096 L 233.000 222.200 233.000 255.600 M140.268 225.800 C 140.571 227.777,140.802 228.114,140.794 226.567 C 140.791 225.925,140.616 225.130,140.405 224.800 C 140.145 224.391,140.101 224.710,140.268 225.800 M141.073 231.200 C 141.204 232.190,141.376 233.075,141.456 233.167 C 141.757 233.514,141.528 230.964,141.190 230.200 C 140.953 229.666,140.914 229.998,141.073 231.200 M141.882 237.000 C 142.009 238.100,142.177 239.075,142.256 239.167 C 142.555 239.514,142.328 236.564,141.997 235.800 C 141.774 235.285,141.733 235.713,141.882 237.000 M142.673 242.400 C 142.804 243.390,142.976 244.275,143.056 244.367 C 143.357 244.714,143.128 242.164,142.790 241.400 C 142.553 240.866,142.514 241.198,142.673 242.400 M143.701 249.400 C 143.705 250.280,143.787 250.593,143.883 250.095 C 143.979 249.598,143.975 248.878,143.875 248.495 C 143.775 248.113,143.696 248.520,143.701 249.400 M144.509 254.800 C 144.509 255.790,144.587 256.195,144.682 255.700 C 144.778 255.205,144.778 254.395,144.682 253.900 C 144.587 253.405,144.509 253.810,144.509 254.800 M145.301 260.200 C 145.305 261.080,145.387 261.393,145.483 260.895 C 145.579 260.398,145.575 259.678,145.475 259.295 C 145.375 258.913,145.296 259.320,145.301 260.200 M146.101 266.200 C 146.105 267.080,146.187 267.393,146.283 266.895 C 146.379 266.398,146.375 265.678,146.275 265.295 C 146.175 264.913,146.096 265.320,146.101 266.200 M146.909 271.600 C 146.909 272.590,146.987 272.995,147.082 272.500 C 147.178 272.005,147.178 271.195,147.082 270.700 C 146.987 270.205,146.909 270.610,146.909 271.600 M147.709 277.200 C 147.709 278.190,147.787 278.595,147.882 278.100 C 147.978 277.605,147.978 276.795,147.882 276.300 C 147.787 275.805,147.709 276.210,147.709 277.200 M148.501 283.000 C 148.505 283.880,148.587 284.193,148.683 283.695 C 148.779 283.198,148.775 282.478,148.675 282.095 C 148.575 281.713,148.496 282.120,148.501 283.000 M149.293 288.400 C 149.293 289.170,149.375 289.485,149.476 289.100 C 149.576 288.715,149.576 288.085,149.476 287.700 C 149.375 287.315,149.293 287.630,149.293 288.400 M150.095 294.400 C 150.095 294.950,150.232 295.940,150.400 296.600 C 150.672 297.670,150.705 297.692,150.705 296.800 C 150.705 296.250,150.568 295.260,150.400 294.600 C 150.128 293.530,150.095 293.508,150.095 294.400 M153.462 317.800 C 153.596 318.680,153.772 319.475,153.853 319.567 C 154.156 319.910,153.929 317.768,153.581 317.000 C 153.329 316.442,153.293 316.685,153.462 317.800 M154.268 323.800 C 154.571 325.777,154.802 326.114,154.794 324.567 C 154.791 323.925,154.616 323.130,154.405 322.800 C 154.145 322.391,154.101 322.710,154.268 323.800 M155.062 329.000 C 155.196 329.880,155.372 330.675,155.453 330.767 C 155.756 331.110,155.529 328.968,155.181 328.200 C 154.929 327.642,154.893 327.885,155.062 329.000 " stroke="none" fill="#d3d4e3" fill-rule="evenodd"></path><path id="path2" d="M96.541 27.597 C 96.068 27.788,95.570 28.124,95.434 28.345 C 95.298 28.565,95.730 28.475,96.393 28.143 C 97.057 27.812,97.600 27.465,97.600 27.371 C 97.600 27.166,97.620 27.162,96.541 27.597 M333.183 49.946 C 333.944 50.617,334.651 51.082,334.754 50.979 C 334.961 50.772,333.842 49.825,332.600 49.156 C 332.160 48.919,332.423 49.274,333.183 49.946 M349.601 66.200 C 350.151 66.860,350.645 67.475,350.700 67.567 C 350.755 67.658,350.888 67.645,350.996 67.538 C 351.104 67.430,350.609 66.815,349.897 66.171 L 348.603 65.000 349.601 66.200 M228.800 130.342 L 228.800 177.152 233.300 177.353 C 239.222 177.619,242.513 177.986,242.980 178.435 C 243.189 178.636,243.763 178.800,244.256 178.800 C 244.749 178.800,245.264 178.980,245.400 179.200 C 245.536 179.420,246.009 179.600,246.452 179.600 C 246.894 179.600,248.041 180.140,249.000 180.800 C 249.959 181.460,250.859 182.000,251.000 182.000 C 253.073 182.000,259.403 190.242,261.600 195.800 C 262.883 199.046,263.080 206.831,262.051 213.600 C 261.834 215.030,261.451 217.640,261.200 219.400 C 260.949 221.160,260.572 223.770,260.361 225.200 C 259.937 228.087,259.404 231.770,258.800 236.000 C 258.081 241.036,257.628 244.154,257.203 247.000 C 256.973 248.540,256.606 251.060,256.388 252.600 C 256.170 254.140,255.808 256.660,255.585 258.200 C 255.362 259.740,255.004 262.215,254.789 263.700 C 254.575 265.185,254.225 267.615,254.011 269.100 C 253.796 270.585,253.449 272.970,253.239 274.400 C 253.028 275.830,252.670 278.350,252.442 280.000 C 251.926 283.739,251.290 288.206,250.791 291.600 C 250.581 293.030,250.232 295.730,250.015 297.600 C 249.799 299.470,249.445 302.080,249.230 303.400 C 249.014 304.720,248.637 307.330,248.391 309.200 C 248.145 311.070,247.788 313.590,247.597 314.800 C 247.406 316.010,247.053 318.350,246.813 320.000 C 246.573 321.650,246.201 324.001,245.988 325.224 C 245.775 326.447,245.600 328.020,245.600 328.718 C 245.600 329.417,245.383 330.801,245.117 331.794 L 244.634 333.600 200.741 333.600 C 176.599 333.600,156.758 333.745,156.648 333.922 C 156.538 334.100,171.148 348.947,189.113 366.916 C 221.455 399.265,221.792 399.587,223.306 399.527 C 224.147 399.494,224.927 399.317,225.041 399.134 C 225.154 398.950,226.147 398.800,227.247 398.800 C 228.479 398.800,229.152 398.646,229.000 398.400 C 228.859 398.172,229.204 398.000,229.800 398.000 C 230.522 398.000,230.759 398.155,230.565 398.500 C 230.339 398.900,230.390 398.900,230.821 398.500 C 231.118 398.225,232.314 398.000,233.480 398.000 C 234.646 398.000,235.600 397.820,235.600 397.600 C 235.600 397.380,236.455 397.197,237.500 397.194 C 238.874 397.189,239.234 397.080,238.800 396.800 C 238.281 396.465,238.290 396.411,238.867 396.406 C 239.233 396.403,239.624 396.625,239.735 396.900 C 239.896 397.300,239.943 397.300,239.968 396.900 C 239.986 396.625,240.360 396.400,240.800 396.400 C 241.240 396.400,241.600 396.220,241.600 396.000 C 241.600 395.778,242.659 395.600,243.976 395.600 C 245.283 395.600,246.464 395.420,246.600 395.200 C 246.736 394.980,247.647 394.800,248.624 394.800 C 249.601 394.800,250.400 394.620,250.400 394.400 C 250.400 394.180,250.929 394.000,251.576 394.000 C 252.223 394.000,252.864 393.820,253.000 393.600 C 253.136 393.380,253.697 393.200,254.247 393.200 C 254.797 393.200,255.150 393.043,255.031 392.850 C 254.912 392.658,255.282 392.500,255.853 392.500 C 256.424 392.500,257.048 392.253,257.239 391.950 C 257.492 391.551,257.589 391.537,257.594 391.900 C 257.600 392.422,258.436 392.421,258.824 391.899 C 258.948 391.733,259.848 391.499,260.824 391.377 C 261.801 391.256,262.960 390.994,263.400 390.795 C 263.840 390.596,265.540 389.996,267.178 389.461 C 269.160 388.814,269.896 388.423,269.378 388.291 C 268.882 388.165,269.072 388.076,269.900 388.046 C 270.615 388.021,271.200 387.820,271.200 387.600 C 271.200 387.380,271.391 387.200,271.624 387.200 C 271.857 387.200,271.920 387.425,271.765 387.700 C 271.539 388.100,271.590 388.100,272.021 387.700 C 272.318 387.425,272.884 387.200,273.280 387.200 C 273.676 387.200,274.000 387.020,274.000 386.800 C 274.000 386.580,274.450 386.400,275.000 386.400 C 275.550 386.400,276.000 386.220,276.000 386.000 C 276.000 385.780,276.416 385.600,276.925 385.600 C 277.433 385.600,278.243 385.233,278.725 384.784 C 279.213 384.330,279.600 384.180,279.600 384.446 C 279.600 384.708,279.943 384.527,280.361 384.045 C 280.907 383.416,281.181 383.313,281.330 383.684 C 281.488 384.079,281.544 384.083,281.568 383.700 C 281.586 383.425,281.960 383.200,282.400 383.200 C 282.840 383.200,283.200 383.020,283.200 382.800 C 283.200 382.580,283.560 382.400,284.000 382.400 C 284.440 382.400,284.800 382.220,284.800 382.000 C 284.800 381.780,285.205 381.594,285.700 381.587 C 286.195 381.580,286.942 381.316,287.359 381.000 C 287.776 380.684,288.271 380.520,288.459 380.636 C 288.647 380.752,288.800 380.690,288.800 380.498 C 288.800 380.306,289.422 379.905,290.182 379.607 C 290.942 379.309,291.471 378.915,291.358 378.732 C 291.245 378.550,291.613 378.400,292.176 378.400 C 292.739 378.400,293.200 378.241,293.200 378.046 C 293.200 377.851,293.841 377.387,294.624 377.015 C 295.407 376.644,296.147 376.083,296.267 375.770 C 296.387 375.456,296.964 375.200,297.549 375.200 C 298.134 375.200,299.240 374.835,300.006 374.389 C 300.773 373.943,301.715 373.472,302.100 373.342 C 302.485 373.213,302.800 372.948,302.800 372.753 C 302.800 372.559,302.993 372.400,303.228 372.400 C 303.463 372.400,304.441 371.860,305.400 371.200 C 306.359 370.540,307.260 370.000,307.401 370.000 C 307.863 370.000,308.768 368.901,308.514 368.648 C 308.378 368.511,308.707 368.400,309.245 368.400 C 309.783 368.400,310.483 368.040,310.800 367.600 C 311.117 367.160,311.657 366.800,312.000 366.800 C 312.343 366.800,312.883 366.440,313.200 366.000 C 313.517 365.560,314.009 365.200,314.292 365.200 C 314.575 365.200,315.372 364.660,316.063 364.000 C 316.754 363.340,317.522 362.800,317.771 362.800 C 318.020 362.800,318.483 362.440,318.800 362.000 C 319.117 361.560,319.625 361.200,319.928 361.200 C 320.231 361.200,320.983 360.660,321.600 360.000 C 322.217 359.340,322.928 358.800,323.181 358.800 C 323.434 358.800,323.832 358.254,324.065 357.587 C 324.405 356.609,324.653 356.420,325.344 356.613 C 326.028 356.804,326.080 356.767,325.600 356.426 C 325.067 356.047,325.067 355.956,325.600 355.606 C 326.463 355.040,327.308 355.099,326.947 355.700 C 326.740 356.044,326.856 356.030,327.319 355.655 C 327.689 355.355,327.890 354.945,327.766 354.745 C 327.642 354.544,327.689 354.406,327.870 354.437 C 328.911 354.618,329.400 354.388,328.800 354.000 C 328.294 353.673,328.316 353.611,328.940 353.606 C 329.346 353.603,330.156 353.105,330.740 352.500 C 331.323 351.895,332.295 351.145,332.900 350.832 C 333.539 350.502,334.013 349.916,334.032 349.432 C 334.049 348.975,334.156 348.832,334.270 349.116 C 334.483 349.646,336.000 348.262,336.000 347.539 C 336.000 347.352,336.190 347.200,336.422 347.200 C 336.654 347.200,337.918 346.075,339.231 344.700 C 342.266 341.520,341.920 341.866,343.898 340.036 C 344.966 339.049,345.412 338.391,345.098 338.264 C 344.824 338.154,345.050 338.046,345.600 338.025 C 346.397 337.995,346.478 337.909,346.000 337.600 C 345.490 337.271,345.508 337.211,346.118 337.206 C 347.067 337.198,348.956 335.331,348.289 335.061 C 348.017 334.951,348.118 334.849,348.518 334.832 C 349.366 334.794,351.200 333.067,351.200 332.306 C 351.200 332.015,351.560 331.517,352.000 331.200 C 352.440 330.883,352.803 330.258,352.806 329.812 C 352.811 329.141,352.880 329.104,353.200 329.600 C 353.508 330.076,353.590 329.993,353.600 329.200 C 353.610 328.407,353.692 328.324,354.000 328.800 C 354.308 329.276,354.390 329.193,354.400 328.400 C 354.410 327.607,354.492 327.524,354.800 328.000 C 355.114 328.485,355.189 328.428,355.194 327.700 C 355.197 327.205,355.380 326.800,355.600 326.800 C 355.820 326.800,356.000 326.519,356.000 326.176 C 356.000 325.833,356.180 325.664,356.400 325.800 C 356.622 325.937,356.803 325.636,356.806 325.124 C 356.810 324.526,356.923 324.374,357.125 324.692 C 357.341 325.032,357.671 324.784,358.194 323.892 C 358.610 323.181,359.411 322.148,359.975 321.596 C 360.539 321.044,361.056 320.335,361.125 320.022 C 361.194 319.708,361.554 319.167,361.925 318.821 C 362.784 318.019,363.600 316.574,363.600 315.852 C 363.600 315.545,363.960 315.199,364.400 315.084 C 364.941 314.943,365.200 314.538,365.200 313.837 C 365.200 313.038,365.406 312.793,366.100 312.768 C 366.595 312.751,366.773 312.645,366.495 312.533 C 366.158 312.398,366.390 311.957,367.195 311.205 C 367.858 310.586,368.400 309.831,368.400 309.528 C 368.400 309.225,368.760 308.717,369.200 308.400 C 369.640 308.083,370.000 307.666,370.000 307.473 C 370.000 307.281,370.339 306.646,370.753 306.062 C 372.170 304.064,373.200 301.976,373.206 301.088 C 373.211 300.368,373.286 300.313,373.600 300.800 C 373.914 301.285,373.989 301.228,373.994 300.500 C 373.997 300.005,374.160 299.600,374.355 299.600 C 374.551 299.600,374.831 298.962,374.977 298.183 C 375.125 297.393,375.764 296.268,376.421 295.640 C 377.070 295.020,377.600 294.218,377.600 293.857 C 377.600 293.496,377.780 293.200,378.000 293.200 C 378.220 293.200,378.400 292.840,378.400 292.400 C 378.400 291.960,378.580 291.600,378.800 291.600 C 379.020 291.600,379.200 291.240,379.200 290.800 C 379.200 290.360,379.335 289.999,379.500 289.997 C 379.988 289.992,380.800 287.931,380.800 286.697 C 380.800 286.036,380.969 285.657,381.200 285.800 C 381.423 285.938,381.600 285.634,381.600 285.112 C 381.600 284.597,381.960 283.917,382.400 283.600 C 382.840 283.283,383.200 282.703,383.200 282.312 C 383.200 281.920,383.380 281.600,383.600 281.600 C 383.820 281.600,384.000 281.240,384.000 280.800 C 384.000 280.360,384.180 280.000,384.400 280.000 C 384.620 280.000,384.800 279.651,384.800 279.224 C 384.800 278.797,384.985 278.333,385.211 278.193 C 385.436 278.054,385.595 277.728,385.563 277.470 C 385.386 276.033,385.623 275.017,386.000 275.600 C 386.399 276.217,386.583 275.386,386.489 273.400 C 386.468 272.959,386.548 272.837,386.668 273.128 C 387.001 273.938,388.000 271.740,388.000 270.197 C 388.000 269.363,388.233 268.796,388.642 268.639 C 389.019 268.494,389.186 268.140,389.046 267.776 C 388.911 267.423,388.978 267.263,389.205 267.403 C 389.422 267.537,389.600 267.287,389.600 266.847 C 389.600 266.407,389.780 265.936,390.000 265.800 C 390.220 265.664,390.400 265.124,390.400 264.600 C 390.400 264.076,390.559 263.549,390.754 263.429 C 391.221 263.140,391.556 260.800,391.131 260.800 C 390.502 260.800,390.804 259.891,391.687 259.124 C 392.435 258.476,392.482 258.296,391.987 257.977 C 391.494 257.660,391.488 257.543,391.950 257.245 C 392.252 257.051,392.499 256.376,392.497 255.745 C 392.496 255.115,392.609 254.510,392.747 254.400 C 393.484 253.816,393.956 252.451,393.486 252.260 C 393.115 252.110,393.118 252.056,393.500 252.032 C 393.790 252.013,394.003 251.453,394.006 250.700 C 394.011 249.714,394.106 249.545,394.400 250.000 C 394.715 250.487,394.789 250.434,394.794 249.717 C 394.799 248.912,230.411 84.072,229.199 83.667 C 228.935 83.579,228.800 99.408,228.800 130.342 M28.111 95.700 C 27.657 96.286,27.154 97.600,27.383 97.600 C 27.470 97.600,27.811 97.060,28.140 96.400 C 28.770 95.137,28.759 94.863,28.111 95.700 M49.156 332.600 C 49.825 333.842,50.772 334.961,50.979 334.754 C 51.082 334.651,50.617 333.944,49.946 333.183 C 49.274 332.423,48.919 332.160,49.156 332.600 M66.171 349.897 C 66.815 350.609,67.430 351.104,67.538 350.996 C 67.645 350.888,67.658 350.755,67.567 350.700 C 67.475 350.645,66.860 350.151,66.200 349.601 L 65.000 348.603 66.171 349.897 " stroke="none" fill="#7484ac" fill-rule="evenodd"></path><path id="path3" d="M156.800 179.361 C 148.365 181.944,142.623 187.160,139.583 195.000 C 138.838 196.921,138.664 197.511,138.285 199.400 C 137.589 202.866,137.794 206.643,139.212 216.500 C 139.425 217.985,139.785 220.505,140.012 222.100 C 140.239 223.695,140.586 226.080,140.784 227.400 C 140.982 228.720,141.349 231.240,141.600 233.000 C 141.851 234.760,142.211 237.280,142.400 238.600 C 142.589 239.920,142.930 242.350,143.158 244.000 C 143.532 246.711,144.030 250.147,144.606 254.000 C 145.076 257.141,145.595 260.777,146.006 263.800 C 146.245 265.560,146.603 267.990,146.800 269.200 C 147.201 271.655,147.554 274.128,149.003 284.600 C 150.136 292.795,150.694 296.757,151.200 300.200 C 151.394 301.520,151.750 304.040,151.991 305.800 C 152.597 310.228,153.129 313.907,153.436 315.800 C 153.579 316.680,153.849 318.570,154.037 320.000 C 154.225 321.430,154.564 323.860,154.789 325.400 C 155.015 326.940,155.311 329.235,155.448 330.500 L 155.696 332.800 177.848 332.800 L 200.000 332.800 200.000 310.804 L 200.000 288.809 183.700 288.704 L 167.400 288.600 167.298 255.704 L 167.195 222.809 183.498 222.704 L 199.800 222.600 199.903 200.500 L 200.007 178.400 179.903 178.421 C 160.103 178.443,159.755 178.457,156.800 179.361 " stroke="none" fill="#e7edf1" fill-rule="evenodd"></path><path id="path4" d="M166.400 177.600 C 164.090 177.710,175.070 177.935,190.800 178.100 C 226.624 178.475,239.107 178.439,237.103 177.967 C 235.498 177.588,173.407 177.266,166.400 177.600 M157.424 178.362 C 157.296 178.568,157.930 178.631,158.900 178.507 C 161.152 178.219,161.321 178.000,159.290 178.000 C 158.387 178.000,157.547 178.163,157.424 178.362 M152.300 180.229 C 150.749 181.070,150.925 181.361,152.500 180.559 C 154.008 179.793,154.275 179.594,153.767 179.616 C 153.565 179.625,152.905 179.901,152.300 180.229 M246.600 180.400 C 246.736 180.620,247.029 180.800,247.252 180.800 C 247.474 180.800,248.441 181.340,249.400 182.000 C 250.359 182.660,251.271 183.200,251.425 183.200 C 251.580 183.200,252.005 183.515,252.370 183.900 C 252.735 184.285,253.926 185.409,255.017 186.398 C 256.762 187.981,256.712 187.895,254.600 185.685 C 252.017 182.982,245.559 178.715,246.600 180.400 M149.000 182.078 C 143.416 186.045,138.525 193.499,137.887 199.013 L 137.657 201.000 138.068 199.200 C 139.617 192.422,143.842 185.982,148.847 182.770 C 149.921 182.080,150.800 181.445,150.800 181.358 C 150.800 181.005,150.136 181.271,149.000 182.078 M261.612 199.400 C 261.612 199.840,261.787 200.470,262.000 200.800 C 262.321 201.297,262.388 201.262,262.388 200.600 C 262.388 200.160,262.213 199.530,262.000 199.200 C 261.679 198.703,261.612 198.738,261.612 199.400 M137.337 204.200 C 137.339 205.960,137.409 206.630,137.493 205.689 C 137.578 204.749,137.577 203.309,137.491 202.489 C 137.405 201.670,137.336 202.440,137.337 204.200 M261.888 208.933 C 261.730 209.336,261.611 210.056,261.625 210.533 C 261.649 211.356,261.671 211.350,262.040 210.425 C 262.254 209.889,262.373 209.169,262.303 208.825 C 262.199 208.311,262.125 208.330,261.888 208.933 M137.640 209.132 C 137.618 209.424,138.049 212.844,138.597 216.732 C 139.146 220.619,139.699 224.581,139.827 225.537 C 139.955 226.492,140.153 227.181,140.266 227.067 C 140.452 226.881,140.144 224.356,138.743 214.600 C 138.215 210.918,137.699 208.358,137.640 209.132 M260.978 214.978 C 260.827 215.781,260.804 216.537,260.926 216.660 C 261.048 216.782,261.272 216.225,261.422 215.422 C 261.573 214.619,261.596 213.863,261.474 213.740 C 261.352 213.618,261.128 214.175,260.978 214.978 M260.296 219.733 C 260.133 220.136,260.011 220.946,260.025 221.533 L 260.051 222.600 260.443 221.619 C 260.658 221.079,260.780 220.269,260.714 219.819 C 260.601 219.059,260.571 219.053,260.296 219.733 M200.245 222.628 C 199.877 223.587,199.963 288.122,200.333 288.705 C 200.584 289.100,204.153 289.187,216.826 289.105 L 233.000 289.000 233.000 255.600 L 233.000 222.200 216.745 222.096 C 202.182 222.002,200.464 222.057,200.245 222.628 M259.500 225.431 C 259.335 225.597,259.211 226.288,259.225 226.967 C 259.250 228.173,259.259 228.179,259.640 227.225 C 260.069 226.152,259.975 224.952,259.500 225.431 M140.440 229.233 C 140.462 230.205,140.631 231.450,140.816 232.000 C 141.026 232.627,141.066 232.030,140.923 230.400 C 140.655 227.356,140.383 226.698,140.440 229.233 M258.692 231.042 C 258.531 231.202,258.411 231.798,258.425 232.367 L 258.451 233.400 258.837 232.434 C 259.253 231.394,259.167 230.567,258.692 231.042 M141.247 234.633 C 141.273 235.495,141.439 236.740,141.615 237.400 C 141.818 238.156,141.854 237.638,141.715 236.000 C 141.467 233.086,141.175 232.231,141.247 234.633 M257.867 236.667 C 257.720 236.813,257.616 237.488,257.636 238.167 L 257.672 239.400 258.059 238.056 C 258.445 236.713,258.369 236.164,257.867 236.667 M142.040 240.633 C 142.062 241.495,142.233 242.650,142.421 243.200 C 142.642 243.848,142.680 243.355,142.531 241.800 C 142.263 239.020,141.982 238.351,142.040 240.633 M257.100 241.831 C 256.935 241.997,256.811 242.688,256.825 243.367 C 256.850 244.573,256.859 244.579,257.240 243.625 C 257.669 242.552,257.575 241.352,257.100 241.831 M142.828 246.033 C 142.844 247.005,143.014 248.160,143.208 248.600 C 143.431 249.108,143.474 248.524,143.324 247.000 C 143.040 244.099,142.790 243.612,142.828 246.033 M256.292 247.442 C 256.131 247.602,256.016 248.378,256.036 249.167 L 256.072 250.600 256.457 249.263 C 256.863 247.852,256.782 246.952,256.292 247.442 M143.687 252.000 C 143.683 252.770,143.824 253.850,144.000 254.400 C 144.448 255.799,144.448 253.561,144.000 251.800 L 143.695 250.600 143.687 252.000 M255.467 253.067 C 255.320 253.213,255.218 253.978,255.240 254.767 L 255.280 256.200 255.646 254.640 C 256.015 253.068,255.959 252.575,255.467 253.067 M144.475 257.600 C 144.465 258.370,144.611 259.360,144.800 259.800 C 145.257 260.864,145.257 259.197,144.800 257.400 L 144.495 256.200 144.475 257.600 M254.667 258.667 C 254.520 258.813,254.416 259.488,254.436 260.167 L 254.472 261.400 254.859 260.056 C 255.245 258.713,255.169 258.164,254.667 258.667 M145.286 262.800 C 145.283 263.570,145.424 264.650,145.600 265.200 C 146.050 266.604,146.065 265.137,145.623 263.000 L 145.292 261.400 145.286 262.800 M253.849 264.215 C 253.712 264.573,253.623 265.796,253.651 266.933 L 253.701 269.000 254.035 266.418 C 254.373 263.810,254.307 263.024,253.849 264.215 M146.087 268.800 C 146.083 269.570,146.224 270.650,146.400 271.200 C 146.848 272.599,146.848 270.361,146.400 268.600 L 146.095 267.400 146.087 268.800 M253.067 269.467 C 252.920 269.613,252.823 270.828,252.851 272.167 L 252.901 274.600 253.235 272.018 C 253.574 269.401,253.547 268.987,253.067 269.467 M146.887 274.200 C 146.883 274.860,147.024 275.850,147.200 276.400 L 147.520 277.400 147.513 276.400 C 147.509 275.850,147.368 274.860,147.200 274.200 L 146.895 273.000 146.887 274.200 M252.267 275.067 C 252.120 275.213,252.024 276.338,252.052 277.567 L 252.105 279.800 252.413 277.400 C 252.733 274.910,252.715 274.619,252.267 275.067 M147.695 279.800 C 147.695 280.460,147.832 281.540,148.000 282.200 L 148.305 283.400 148.305 282.200 C 148.305 281.540,148.168 280.460,148.000 279.800 L 147.695 278.600 147.695 279.800 M251.434 280.853 C 251.321 281.374,251.137 282.700,251.025 283.800 C 250.832 285.701,250.499 288.149,249.639 294.000 C 249.140 297.392,248.439 302.342,247.997 305.600 C 247.802 307.030,247.442 309.550,247.195 311.200 C 245.989 319.274,245.842 320.691,246.252 320.282 C 246.390 320.143,246.673 318.628,246.880 316.915 C 247.087 315.202,247.411 312.720,247.600 311.400 C 248.460 305.396,248.833 302.817,249.190 300.400 C 249.401 298.970,249.759 296.495,249.987 294.900 C 250.214 293.305,250.575 290.785,250.788 289.300 C 251.585 283.752,251.973 280.240,251.809 280.075 C 251.715 279.982,251.547 280.332,251.434 280.853 M148.495 285.400 C 148.495 286.060,148.632 287.140,148.800 287.800 L 149.105 289.000 149.105 287.800 C 149.105 287.140,148.968 286.060,148.800 285.400 L 148.495 284.200 148.495 285.400 M149.287 290.800 C 149.283 291.570,149.424 292.650,149.600 293.200 C 150.048 294.599,150.048 292.361,149.600 290.600 L 149.295 289.400 149.287 290.800 M150.070 296.400 C 150.057 296.950,150.195 298.120,150.377 299.000 L 150.708 300.600 150.707 299.200 C 150.705 297.435,150.109 294.812,150.070 296.400 M150.895 302.000 C 150.895 302.770,151.032 303.940,151.200 304.600 L 151.505 305.800 151.505 304.400 C 151.505 303.630,151.368 302.460,151.200 301.800 L 150.895 300.600 150.895 302.000 M151.863 308.741 C 152.172 312.237,153.109 317.661,153.159 316.246 C 153.197 315.164,152.875 312.914,152.007 308.200 C 151.654 306.284,151.648 306.306,151.863 308.741 M153.277 318.400 C 153.267 318.950,153.403 320.210,153.580 321.200 L 153.900 323.000 153.903 321.400 C 153.904 320.520,153.768 319.260,153.600 318.600 C 153.323 317.513,153.293 317.494,153.277 318.400 M154.054 323.800 C 153.970 325.171,155.186 332.546,155.558 332.918 C 155.752 333.112,155.672 332.039,155.382 330.535 C 155.091 329.031,154.684 326.720,154.478 325.400 C 154.272 324.080,154.081 323.360,154.054 323.800 M245.488 323.733 C 245.330 324.136,245.211 324.856,245.225 325.333 C 245.249 326.156,245.271 326.150,245.640 325.225 C 245.854 324.689,245.973 323.969,245.903 323.625 C 245.799 323.111,245.725 323.130,245.488 323.733 M244.700 329.031 C 244.535 329.197,244.405 329.798,244.412 330.367 C 244.423 331.273,244.475 331.313,244.839 330.687 C 245.295 329.905,245.181 328.546,244.700 329.031 M243.757 332.803 C 243.516 333.044,235.045 333.234,221.583 333.300 L 199.800 333.407 221.876 333.504 C 237.179 333.570,244.034 333.469,244.216 333.173 C 244.576 332.592,244.239 332.321,243.757 332.803 " stroke="none" fill="#c4ccdc" fill-rule="evenodd"></path></g></svg>