<svg id="svg" version="1.1" xmlns="http://www.w3.org/2000/svg" xmlns:xlink="http://www.w3.org/1999/xlink" width="400" height="400" viewBox="0, 0, 400,400"><g id="svgg"><path id="path0" d="M188.300 61.085 C 180.572 61.165,176.000 61.358,176.000 61.606 C 176.000 61.823,175.706 62.000,175.347 62.000 C 173.686 62.000,172.070 65.522,172.650 67.876 C 173.604 71.748,175.487 72.400,185.716 72.400 C 195.750 72.400,194.800 71.492,194.800 81.080 L 194.800 88.800 197.167 88.800 C 201.111 88.800,200.800 87.837,200.800 100.035 L 200.800 110.785 199.900 110.979 C 197.421 111.515,192.802 111.693,177.418 111.848 C 168.188 111.941,160.538 112.149,160.418 112.309 C 160.298 112.470,159.717 112.850,159.126 113.154 C 158.536 113.458,157.839 114.223,157.578 114.853 C 157.317 115.484,156.945 116.000,156.751 116.000 C 156.554 116.000,156.400 124.582,156.400 135.549 L 156.400 155.098 199.962 155.396 C 223.921 155.560,243.721 155.572,243.962 155.424 C 244.588 155.036,244.573 118.237,243.946 116.360 C 242.541 112.157,240.155 111.221,230.800 111.203 C 226.730 111.195,222.995 111.081,222.500 110.948 L 221.600 110.707 221.600 99.962 L 221.600 89.217 213.900 89.109 L 206.200 89.000 206.086 81.800 C 206.024 77.840,206.072 74.195,206.194 73.700 L 206.415 72.800 226.324 72.800 C 242.497 72.800,246.653 72.910,248.476 73.385 C 255.308 75.164,259.817 80.744,260.562 88.339 C 260.937 92.164,262.940 94.389,266.270 94.680 C 270.473 95.048,273.056 91.920,272.611 87.000 C 271.560 75.369,264.421 66.308,253.000 62.106 L 250.200 61.076 225.400 61.018 C 211.760 60.985,195.065 61.016,188.300 61.085 M178.700 178.300 L 156.400 178.407 156.400 253.212 L 156.400 328.017 157.394 329.519 C 159.497 332.697,158.559 332.562,181.000 332.911 C 241.190 333.847,239.088 333.906,241.900 331.204 C 244.556 328.651,244.400 333.588,244.400 252.254 L 244.400 178.000 222.700 178.097 C 210.765 178.150,190.965 178.241,178.700 178.300 " stroke="none" fill="#3c3d45" fill-rule="evenodd"></path><path id="path1" d="M177.200 60.392 C 176.819 60.634,189.543 60.741,212.077 60.686 C 231.589 60.639,247.249 60.478,246.877 60.328 C 245.798 59.895,177.887 59.957,177.200 60.392 M172.605 63.192 C 171.845 64.395,171.600 65.323,171.600 66.992 L 171.600 69.200 181.000 78.459 C 186.170 83.552,190.400 87.962,190.400 88.259 C 190.400 88.690,189.155 88.800,184.280 88.800 C 176.459 88.800,177.200 87.598,177.200 100.280 L 177.200 110.800 169.500 110.806 C 165.265 110.809,161.592 110.944,161.337 111.106 C 160.864 111.406,176.597 111.300,177.493 110.997 C 177.865 110.871,178.013 108.176,178.093 100.115 L 178.200 89.400 185.800 89.152 C 189.980 89.016,193.445 88.881,193.500 88.852 C 193.555 88.823,193.600 85.200,193.600 80.800 L 193.600 72.800 184.922 72.800 L 176.243 72.800 174.725 71.748 C 171.706 69.656,171.032 65.756,173.229 63.091 C 173.905 62.271,174.267 61.600,174.034 61.600 C 173.801 61.600,173.158 62.316,172.605 63.192 M261.600 66.271 C 263.901 68.226,265.420 69.749,267.315 72.000 L 268.829 73.800 267.379 71.703 C 265.923 69.597,263.238 66.998,261.000 65.529 C 260.340 65.096,260.610 65.430,261.600 66.271 M206.400 80.769 L 206.400 88.400 213.826 88.400 C 223.840 88.400,222.800 87.055,222.800 100.014 L 222.800 110.800 230.788 110.800 C 240.414 110.800,241.721 111.240,243.911 115.214 C 244.677 116.604,244.691 118.393,244.757 222.158 L 244.825 327.688 243.803 329.430 C 240.945 334.308,242.641 334.141,199.279 333.812 C 159.134 333.507,160.364 333.591,158.080 330.996 C 155.418 327.971,155.564 332.827,155.687 251.700 C 155.749 210.945,155.665 177.600,155.500 177.600 C 154.946 177.600,155.136 326.294,155.692 328.154 C 155.989 329.144,156.825 330.396,157.792 331.296 C 163.060 336.196,224.800 397.978,224.800 398.349 C 224.800 398.624,225.589 398.800,226.824 398.800 C 228.071 398.800,228.752 398.647,228.600 398.400 C 228.447 398.152,229.196 398.000,230.576 398.000 C 231.799 398.000,232.800 397.827,232.800 397.615 C 232.800 397.403,233.829 397.242,235.086 397.257 C 236.424 397.273,237.433 397.101,237.519 396.842 C 237.608 396.576,238.768 396.400,240.433 396.400 C 242.011 396.400,243.200 396.228,243.200 396.000 C 243.200 395.780,243.965 395.597,244.900 395.594 C 246.145 395.589,246.439 395.484,246.000 395.200 C 245.543 394.905,245.705 394.811,246.676 394.806 C 247.378 394.803,248.064 394.620,248.200 394.400 C 248.336 394.180,249.067 394.000,249.824 394.000 C 250.581 394.000,251.200 393.820,251.200 393.600 C 251.200 393.380,251.481 393.200,251.824 393.200 C 252.167 393.200,252.336 393.380,252.200 393.600 C 252.064 393.820,252.143 394.000,252.376 394.000 C 252.609 394.000,252.800 393.820,252.800 393.600 C 252.800 393.380,253.160 393.200,253.600 393.200 C 254.040 393.200,254.400 393.020,254.400 392.800 C 254.400 392.580,255.311 392.400,256.424 392.400 C 257.537 392.400,258.350 392.243,258.231 392.050 C 258.112 391.858,258.942 391.611,260.075 391.502 C 261.207 391.394,262.329 391.055,262.567 390.749 C 262.805 390.444,263.425 390.255,263.944 390.331 C 264.578 390.422,264.795 390.316,264.604 390.007 C 264.439 389.739,264.546 389.578,264.860 389.621 C 266.381 389.829,267.399 389.587,266.800 389.159 C 266.310 388.809,266.354 388.764,267.037 388.911 C 267.578 389.028,268.051 388.811,268.370 388.299 C 268.680 387.803,269.007 387.647,269.242 387.882 C 269.449 388.089,270.173 388.177,270.850 388.078 C 271.724 387.950,271.924 387.798,271.541 387.555 C 271.175 387.323,271.413 387.210,272.276 387.206 C 272.978 387.203,273.664 387.020,273.800 386.800 C 273.936 386.580,274.487 386.400,275.024 386.400 C 275.561 386.400,276.000 386.220,276.000 386.000 C 276.000 385.780,276.360 385.600,276.800 385.600 C 277.240 385.600,277.600 385.420,277.600 385.200 C 277.600 384.980,278.061 384.800,278.624 384.800 C 279.204 384.800,279.540 384.627,279.400 384.400 C 279.264 384.180,279.523 384.000,279.976 384.000 C 280.429 384.000,280.800 383.809,280.800 383.576 C 280.800 383.343,280.981 383.265,281.203 383.402 C 281.424 383.539,281.714 383.369,281.846 383.025 C 281.978 382.681,282.527 382.400,283.066 382.400 C 283.618 382.400,283.939 382.225,283.800 382.000 C 283.660 381.773,283.996 381.600,284.576 381.600 C 285.139 381.600,285.600 381.420,285.600 381.200 C 285.600 380.980,285.949 380.800,286.376 380.800 C 286.803 380.800,287.264 380.620,287.400 380.400 C 287.536 380.180,288.076 380.000,288.600 380.000 C 289.124 380.000,289.664 379.820,289.800 379.600 C 289.936 379.380,290.397 379.200,290.824 379.200 C 291.251 379.200,291.600 379.020,291.600 378.800 C 291.600 378.580,291.825 378.399,292.100 378.398 C 292.375 378.397,293.175 377.857,293.878 377.198 C 294.581 376.539,295.436 376.000,295.778 376.000 C 296.120 376.000,296.400 375.820,296.400 375.600 C 296.400 375.380,296.760 375.200,297.200 375.200 C 297.640 375.200,298.003 374.975,298.006 374.700 C 298.011 374.315,298.088 374.319,298.341 374.719 C 298.604 375.133,298.774 375.113,299.184 374.619 C 299.467 374.279,299.957 374.000,300.273 374.000 C 300.589 374.000,300.749 373.840,300.628 373.645 C 300.431 373.327,301.165 372.962,302.760 372.585 C 303.068 372.513,303.428 372.306,303.560 372.126 C 303.692 371.946,304.340 371.529,305.000 371.200 C 305.660 370.871,306.290 370.511,306.400 370.400 C 306.510 370.289,307.089 369.947,307.686 369.639 C 308.284 369.331,308.678 368.927,308.563 368.740 C 308.447 368.553,308.633 368.400,308.976 368.400 C 309.319 368.400,309.600 368.209,309.600 367.976 C 309.600 367.743,309.780 367.664,310.000 367.800 C 310.220 367.936,310.414 367.722,310.432 367.324 C 310.449 366.924,310.552 366.819,310.661 367.088 C 310.817 367.473,310.971 367.473,311.387 367.088 C 311.678 366.820,311.834 366.465,311.734 366.300 C 311.635 366.135,311.833 366.000,312.176 366.000 C 312.519 366.000,312.800 365.820,312.800 365.600 C 312.800 365.380,313.094 365.200,313.453 365.200 C 313.812 365.200,314.442 364.812,314.853 364.339 C 315.295 363.830,315.600 363.691,315.600 364.000 C 315.600 364.309,315.905 364.170,316.347 363.661 C 316.758 363.188,317.298 362.800,317.547 362.800 C 317.796 362.800,318.000 362.620,318.000 362.400 C 318.000 362.180,318.190 362.000,318.422 362.000 C 318.654 362.000,319.419 361.461,320.122 360.802 C 320.825 360.143,321.559 359.603,321.754 359.602 C 321.949 359.601,322.525 359.150,323.035 358.600 C 323.545 358.050,324.180 357.600,324.448 357.600 C 324.715 357.600,324.815 357.482,324.670 357.337 C 324.305 356.972,325.174 356.000,325.865 356.000 C 326.177 356.000,327.117 355.280,327.954 354.400 C 328.791 353.520,329.708 352.800,329.991 352.800 C 330.274 352.800,330.797 352.476,331.153 352.081 C 331.509 351.686,332.387 350.952,333.105 350.450 C 333.822 349.949,334.289 349.345,334.143 349.108 C 333.985 348.851,334.064 348.792,334.338 348.962 C 334.622 349.137,334.802 348.968,334.806 348.524 C 334.811 347.910,334.871 347.891,335.200 348.400 C 335.508 348.876,335.590 348.793,335.600 348.000 C 335.610 347.207,335.692 347.124,336.000 347.600 C 336.328 348.108,336.389 348.088,336.394 347.471 C 336.397 347.071,336.670 346.473,337.000 346.143 C 337.347 345.796,337.600 345.731,337.600 345.987 C 337.600 346.279,337.792 346.254,338.161 345.916 C 338.469 345.632,338.551 345.337,338.344 345.261 C 337.834 345.074,338.755 344.000,339.425 344.000 C 339.715 344.000,340.081 343.792,340.238 343.538 C 340.414 343.254,340.348 343.185,340.066 343.359 C 339.771 343.542,339.693 343.422,339.847 343.021 C 340.126 342.296,340.800 342.187,340.800 342.867 C 340.800 343.544,341.242 342.998,341.363 342.170 C 341.420 341.783,341.729 341.428,342.049 341.381 C 342.964 341.247,347.248 336.888,346.688 336.661 C 346.420 336.552,346.650 336.446,347.200 336.425 C 347.997 336.395,348.078 336.309,347.600 336.000 C 347.122 335.691,347.203 335.605,348.000 335.575 C 348.550 335.554,348.761 335.441,348.469 335.325 C 348.114 335.183,348.602 334.472,349.942 333.181 C 351.045 332.118,351.796 331.193,351.613 331.124 C 351.429 331.056,351.531 330.768,351.839 330.484 C 352.208 330.146,352.400 330.121,352.400 330.413 C 352.400 330.669,352.653 330.604,353.000 330.257 C 353.330 329.927,353.600 329.476,353.600 329.255 C 353.600 329.034,354.500 327.929,355.600 326.800 C 356.700 325.671,357.600 324.570,357.600 324.354 C 357.600 324.138,358.076 323.520,358.658 322.981 C 359.241 322.441,359.509 322.000,359.255 322.000 C 358.913 322.000,358.919 321.799,359.277 321.226 C 359.543 320.800,359.904 320.541,360.080 320.649 C 360.256 320.758,360.400 320.558,360.400 320.205 C 360.400 319.460,362.198 317.531,362.558 317.891 C 362.691 318.024,362.800 317.910,362.800 317.638 C 362.800 317.366,363.072 316.871,363.404 316.539 C 363.736 316.207,363.888 315.742,363.742 315.506 C 363.585 315.251,363.664 315.193,363.938 315.362 C 364.192 315.519,364.400 315.483,364.400 315.283 C 364.400 315.083,364.940 314.354,365.600 313.663 C 366.260 312.972,366.800 312.136,366.800 311.804 C 366.800 311.472,366.980 311.200,367.200 311.200 C 367.420 311.200,367.579 311.065,367.553 310.900 C 367.427 310.103,367.640 309.578,368.000 309.800 C 368.223 309.938,368.400 309.636,368.400 309.120 C 368.400 308.610,368.760 307.968,369.200 307.693 C 369.640 307.418,370.000 306.878,370.000 306.493 C 370.000 306.108,370.360 305.568,370.800 305.293 C 371.240 305.018,371.600 304.444,371.600 304.016 C 371.600 303.589,371.915 303.056,372.300 302.832 C 372.685 302.608,372.866 302.419,372.703 302.412 C 372.539 302.405,373.034 301.576,373.803 300.569 C 374.663 299.442,375.200 298.289,375.200 297.569 C 375.200 296.926,375.380 296.400,375.600 296.400 C 375.820 296.400,376.000 296.040,376.000 295.600 C 376.000 295.160,376.180 294.800,376.400 294.800 C 376.620 294.800,376.800 294.514,376.800 294.164 C 376.800 293.814,377.205 293.171,377.700 292.734 C 378.195 292.297,378.375 292.053,378.100 292.193 C 377.825 292.333,377.600 292.257,377.600 292.024 C 377.600 291.791,377.853 291.600,378.163 291.600 C 378.528 291.600,378.652 291.320,378.516 290.800 C 378.372 290.248,378.504 290.000,378.941 290.000 C 379.368 290.000,379.492 289.783,379.319 289.334 C 379.148 288.887,379.217 288.764,379.532 288.958 C 379.843 289.150,380.000 288.903,380.000 288.224 C 380.000 287.661,380.180 287.200,380.400 287.200 C 380.620 287.200,380.800 286.919,380.800 286.576 C 380.800 286.233,380.980 286.064,381.200 286.200 C 381.420 286.336,381.600 286.077,381.600 285.624 C 381.600 285.171,381.780 284.800,382.000 284.800 C 382.220 284.800,382.400 284.440,382.400 284.000 C 382.400 283.560,382.580 283.200,382.800 283.200 C 383.020 283.200,383.200 282.876,383.200 282.480 C 383.200 282.084,383.408 281.552,383.661 281.299 C 383.915 281.045,384.107 280.289,384.088 279.619 C 384.069 278.948,384.221 278.400,384.427 278.400 C 384.632 278.400,384.800 277.939,384.800 277.376 C 384.800 276.796,384.973 276.460,385.200 276.600 C 385.589 276.840,385.762 276.317,385.630 275.300 C 385.594 275.025,385.710 274.800,385.886 274.800 C 386.063 274.800,386.444 274.421,386.733 273.958 C 387.022 273.495,387.066 273.236,386.830 273.382 C 386.593 273.528,386.400 273.457,386.400 273.224 C 386.400 272.991,386.580 272.800,386.800 272.800 C 387.020 272.800,387.200 272.429,387.200 271.976 C 387.200 271.523,387.380 271.264,387.600 271.400 C 387.820 271.536,388.000 271.364,388.000 271.018 C 388.000 270.672,388.180 270.032,388.400 269.595 C 388.620 269.158,388.980 268.442,389.200 268.005 C 389.420 267.568,389.600 266.668,389.600 266.005 C 389.600 265.342,389.759 264.800,389.953 264.800 C 390.507 264.800,390.731 262.896,390.241 262.362 C 389.907 261.998,389.981 261.946,390.545 262.146 C 391.207 262.380,391.262 262.255,391.033 261.036 C 390.883 260.238,390.948 259.556,391.188 259.408 C 391.414 259.267,391.600 258.623,391.600 257.976 C 391.600 257.329,391.780 256.800,392.000 256.800 C 392.220 256.800,392.400 256.350,392.400 255.800 C 392.400 255.250,392.580 254.800,392.800 254.800 C 393.020 254.800,393.200 254.350,393.200 253.800 C 393.200 253.250,393.380 252.800,393.600 252.800 C 393.820 252.800,394.000 252.069,394.000 251.176 C 394.000 249.984,394.133 249.633,394.500 249.853 C 394.791 250.028,394.750 249.839,394.400 249.400 C 394.050 248.961,394.009 248.772,394.300 248.947 C 394.676 249.173,394.800 248.696,394.800 247.024 C 394.800 245.801,394.980 244.800,395.200 244.800 C 395.420 244.800,395.600 243.990,395.600 243.000 C 395.600 242.010,395.780 241.200,396.000 241.200 C 396.220 241.200,396.400 240.379,396.400 239.376 C 396.400 238.263,396.556 237.649,396.800 237.800 C 397.033 237.944,397.200 237.545,397.200 236.847 C 397.200 236.187,397.380 235.536,397.600 235.400 C 397.821 235.263,398.000 233.463,398.000 231.376 C 398.000 229.125,398.162 227.600,398.400 227.600 C 398.631 227.600,398.800 226.325,398.800 224.576 C 398.800 222.859,398.957 221.650,399.164 221.778 C 399.860 222.208,399.919 217.062,399.227 216.400 C 398.882 216.070,393.654 210.400,387.611 203.800 C 381.567 197.200,376.527 191.710,376.411 191.600 C 376.295 191.490,374.310 189.330,372.001 186.800 C 369.691 184.270,366.811 181.141,365.601 179.848 C 364.390 178.554,363.220 177.294,363.000 177.048 C 362.780 176.801,359.720 173.450,356.200 169.600 C 352.680 165.750,349.620 162.403,349.400 162.162 C 349.180 161.921,347.380 159.956,345.400 157.795 C 341.123 153.126,341.966 154.048,336.800 148.395 C 334.490 145.868,332.330 143.529,332.000 143.199 C 331.670 142.868,330.514 141.608,329.431 140.399 C 328.349 139.189,326.455 137.120,325.222 135.800 C 323.990 134.480,319.938 130.070,316.217 126.000 C 307.849 116.846,302.534 111.045,299.379 107.625 C 298.047 106.181,295.977 103.922,294.779 102.605 C 293.580 101.287,291.587 99.127,290.350 97.805 C 289.112 96.482,287.132 94.320,285.950 93.000 C 284.768 91.680,282.626 89.340,281.190 87.800 C 276.312 82.567,270.571 76.204,269.684 75.046 C 268.488 73.485,268.560 74.090,269.785 75.892 C 270.327 76.689,271.062 78.345,271.418 79.571 C 271.775 80.797,272.232 82.113,272.433 82.495 C 272.635 82.877,272.800 85.082,272.800 87.395 L 272.800 91.600 271.296 93.104 C 269.463 94.937,266.705 95.983,265.572 95.275 C 265.153 95.014,264.554 94.800,264.239 94.800 C 262.389 94.800,260.017 90.498,260.006 87.124 C 260.003 86.092,259.820 85.136,259.600 85.000 C 259.380 84.864,259.200 84.420,259.200 84.014 C 259.200 81.697,254.627 76.328,251.397 74.853 C 250.739 74.553,249.840 74.103,249.400 73.853 C 248.840 73.536,242.261 73.361,227.500 73.269 L 206.400 73.138 206.400 80.769 M157.375 113.700 C 155.166 116.320,155.193 116.023,155.289 136.687 L 155.378 155.800 155.589 136.400 C 155.812 115.911,155.798 116.052,157.796 113.677 C 158.387 112.975,158.781 112.400,158.671 112.400 C 158.561 112.400,157.978 112.985,157.375 113.700 " stroke="none" fill="#7b9393" fill-rule="evenodd"></path><path id="path2" d="M182.389 0.133 C 182.273 0.255,180.608 0.390,178.689 0.432 C 176.770 0.474,175.200 0.664,175.200 0.854 C 175.200 1.044,173.940 1.200,172.400 1.200 C 170.800 1.200,169.600 1.371,169.600 1.600 C 169.600 1.820,168.646 2.000,167.480 2.000 C 166.314 2.000,165.189 2.163,164.980 2.361 C 164.628 2.696,163.836 2.833,158.700 3.449 C 157.655 3.575,156.800 3.840,156.800 4.039 C 156.800 4.237,156.091 4.400,155.224 4.400 C 154.357 4.400,153.536 4.580,153.400 4.800 C 153.264 5.020,152.533 5.200,151.776 5.200 C 151.019 5.200,150.400 5.380,150.400 5.600 C 150.400 5.820,149.770 6.000,149.000 6.000 C 148.230 6.000,147.600 6.180,147.600 6.400 C 147.600 6.620,146.880 6.800,146.000 6.800 C 145.120 6.800,144.400 6.980,144.400 7.200 C 144.400 7.420,143.781 7.600,143.024 7.600 C 142.267 7.600,141.536 7.780,141.400 8.000 C 141.264 8.220,140.623 8.400,139.976 8.400 C 139.329 8.400,138.800 8.580,138.800 8.800 C 138.800 9.020,138.476 9.200,138.080 9.200 C 137.684 9.200,137.189 9.363,136.980 9.563 C 136.771 9.762,135.970 10.012,135.200 10.117 C 133.300 10.377,132.636 10.553,132.400 10.860 C 132.290 11.003,131.840 11.183,131.400 11.260 C 130.960 11.337,130.510 11.500,130.400 11.622 C 130.124 11.929,125.112 13.724,124.518 13.729 C 124.252 13.731,124.128 13.883,124.241 14.067 C 124.355 14.250,123.987 14.400,123.424 14.400 C 122.861 14.400,122.400 14.591,122.400 14.824 C 122.400 15.057,122.247 15.152,122.059 15.036 C 121.871 14.920,121.376 15.084,120.959 15.400 C 120.542 15.716,119.810 15.980,119.333 15.987 C 118.857 15.994,118.407 16.143,118.333 16.319 C 118.153 16.749,114.561 18.400,113.804 18.400 C 113.472 18.400,113.199 18.535,113.197 18.700 C 113.193 19.065,111.251 20.000,110.497 20.000 C 110.198 20.000,110.064 20.180,110.200 20.400 C 110.419 20.755,109.578 20.995,108.670 20.837 C 108.489 20.806,108.436 20.934,108.552 21.123 C 108.669 21.311,108.142 21.709,107.382 22.007 C 106.622 22.305,106.000 22.706,106.000 22.898 C 106.000 23.090,105.835 23.145,105.632 23.020 C 105.430 22.895,104.993 23.064,104.661 23.396 C 104.329 23.728,103.774 24.000,103.429 24.000 C 103.083 24.000,102.800 24.146,102.800 24.325 C 102.800 24.504,102.170 24.898,101.400 25.200 C 100.630 25.502,100.000 25.896,100.000 26.075 C 100.000 26.254,99.730 26.400,99.400 26.400 C 99.070 26.400,98.800 26.566,98.800 26.768 C 98.800 26.971,98.305 27.256,97.700 27.401 C 97.095 27.547,95.790 28.285,94.800 29.041 C 93.810 29.797,92.243 30.777,91.318 31.219 C 90.392 31.660,89.377 32.280,89.061 32.597 C 88.744 32.913,88.241 33.223,87.943 33.286 C 87.644 33.349,87.165 33.715,86.877 34.100 C 86.590 34.485,86.140 34.804,85.877 34.809 C 85.615 34.814,84.706 35.443,83.858 36.207 C 83.010 36.971,82.128 37.479,81.896 37.336 C 81.665 37.193,81.588 37.257,81.725 37.478 C 81.861 37.699,81.484 38.132,80.886 38.440 C 80.289 38.748,79.118 39.675,78.285 40.500 C 77.451 41.325,76.596 42.000,76.385 42.000 C 76.174 42.000,75.334 42.630,74.518 43.400 C 73.701 44.170,72.905 44.800,72.748 44.800 C 72.590 44.800,71.523 45.655,70.375 46.700 C 66.864 49.898,66.221 50.399,65.633 50.400 C 65.322 50.400,65.171 50.505,65.299 50.633 C 65.575 50.908,62.808 53.600,62.250 53.600 C 62.039 53.600,61.969 53.702,62.093 53.827 C 62.390 54.123,54.292 62.308,53.900 62.107 C 53.735 62.022,53.600 62.106,53.600 62.293 C 53.600 62.821,50.895 65.562,50.633 65.299 C 50.505 65.171,50.400 65.322,50.400 65.633 C 50.399 66.221,49.898 66.864,46.700 70.375 C 45.655 71.523,44.800 72.590,44.800 72.748 C 44.800 72.905,44.170 73.701,43.400 74.518 C 42.630 75.334,42.000 76.174,42.000 76.385 C 42.000 76.596,41.325 77.451,40.500 78.285 C 39.675 79.118,38.748 80.289,38.440 80.886 C 38.132 81.484,37.699 81.861,37.478 81.725 C 37.257 81.588,37.193 81.665,37.336 81.896 C 37.479 82.128,36.971 83.010,36.207 83.858 C 35.443 84.706,34.814 85.615,34.809 85.877 C 34.804 86.140,34.485 86.590,34.100 86.877 C 33.715 87.165,33.349 87.644,33.286 87.943 C 33.223 88.241,32.913 88.744,32.597 89.061 C 32.280 89.377,31.660 90.392,31.219 91.318 C 30.777 92.243,29.797 93.810,29.041 94.800 C 28.285 95.790,27.547 97.095,27.401 97.700 C 27.256 98.305,26.971 98.800,26.768 98.800 C 26.566 98.800,26.400 99.070,26.400 99.400 C 26.400 99.730,26.254 100.000,26.075 100.000 C 25.896 100.000,25.502 100.630,25.200 101.400 C 24.898 102.170,24.504 102.800,24.325 102.800 C 24.146 102.800,24.000 103.083,24.000 103.429 C 24.000 103.774,23.728 104.329,23.396 104.661 C 23.064 104.993,22.895 105.430,23.020 105.632 C 23.145 105.835,23.090 106.000,22.898 106.000 C 22.706 106.000,22.305 106.622,22.007 107.382 C 21.709 108.142,21.311 108.669,21.123 108.552 C 20.934 108.436,20.806 108.489,20.837 108.670 C 20.995 109.578,20.755 110.419,20.400 110.200 C 20.180 110.064,20.000 110.198,20.000 110.497 C 20.000 111.251,19.065 113.193,18.700 113.197 C 18.535 113.199,18.400 113.472,18.400 113.804 C 18.400 114.561,16.749 118.153,16.319 118.333 C 16.143 118.407,15.994 118.857,15.987 119.333 C 15.980 119.810,15.716 120.542,15.400 120.959 C 15.084 121.376,14.920 121.871,15.036 122.059 C 15.152 122.247,15.057 122.400,14.824 122.400 C 14.591 122.400,14.400 122.861,14.400 123.424 C 14.400 123.987,14.250 124.355,14.067 124.241 C 13.883 124.128,13.731 124.252,13.729 124.518 C 13.724 125.112,11.929 130.124,11.622 130.400 C 11.500 130.510,11.337 130.960,11.260 131.400 C 11.183 131.840,11.003 132.290,10.860 132.400 C 10.553 132.636,10.377 133.300,10.117 135.200 C 10.012 135.970,9.762 136.771,9.563 136.980 C 9.363 137.189,9.200 137.684,9.200 138.080 C 9.200 138.476,9.020 138.800,8.800 138.800 C 8.580 138.800,8.400 139.329,8.400 139.976 C 8.400 140.623,8.220 141.264,8.000 141.400 C 7.780 141.536,7.600 142.267,7.600 143.024 C 7.600 143.781,7.420 144.400,7.200 144.400 C 6.980 144.400,6.800 145.120,6.800 146.000 C 6.800 146.880,6.620 147.600,6.400 147.600 C 6.180 147.600,6.000 148.230,6.000 149.000 C 6.000 149.770,5.820 150.400,5.600 150.400 C 5.380 150.400,5.200 151.019,5.200 151.776 C 5.200 152.533,5.020 153.264,4.800 153.400 C 4.580 153.536,4.400 154.357,4.400 155.224 C 4.400 156.091,4.237 156.800,4.039 156.800 C 3.840 156.800,3.575 157.655,3.449 158.700 C 2.833 163.836,2.696 164.628,2.361 164.980 C 2.163 165.189,2.000 166.314,2.000 167.480 C 2.000 168.646,1.820 169.600,1.600 169.600 C 1.371 169.600,1.200 170.800,1.200 172.400 C 1.200 173.940,1.044 175.200,0.854 175.200 C 0.014 175.200,-0.127 224.424,0.713 224.704 C 1.033 224.811,1.200 225.809,1.200 227.610 C 1.200 229.118,1.380 230.464,1.600 230.600 C 1.820 230.736,2.000 231.927,2.000 233.247 C 2.000 234.745,2.150 235.554,2.400 235.400 C 2.647 235.248,2.800 235.929,2.800 237.176 C 2.800 238.289,2.980 239.200,3.200 239.200 C 3.420 239.200,3.600 240.100,3.600 241.200 C 3.600 242.300,3.780 243.200,4.000 243.200 C 4.220 243.200,4.400 243.920,4.400 244.800 C 4.400 245.680,4.580 246.400,4.800 246.400 C 5.020 246.400,5.200 247.109,5.200 247.976 C 5.200 248.843,5.380 249.664,5.600 249.800 C 5.820 249.936,6.000 250.577,6.000 251.224 C 6.000 251.871,6.180 252.400,6.400 252.400 C 6.620 252.400,6.800 253.120,6.800 254.000 C 6.800 254.880,6.980 255.600,7.200 255.600 C 7.420 255.600,7.600 255.992,7.600 256.472 C 7.600 257.392,8.260 259.728,8.849 260.895 C 9.042 261.277,9.200 261.862,9.200 262.195 C 9.200 262.528,9.342 262.800,9.515 262.800 C 9.688 262.800,9.855 263.115,9.886 263.500 C 9.916 263.885,10.058 264.740,10.201 265.400 C 10.343 266.060,10.476 266.825,10.496 267.100 C 10.517 267.375,10.683 267.600,10.867 267.600 C 11.050 267.600,11.200 267.846,11.200 268.147 C 11.200 268.704,12.300 271.644,13.650 274.696 C 14.062 275.628,14.400 276.663,14.400 276.996 C 14.400 277.328,14.610 277.600,14.867 277.600 C 15.123 277.600,15.228 277.705,15.100 277.833 C 14.972 277.962,15.332 278.993,15.900 280.124 C 16.468 281.256,16.933 282.411,16.933 282.691 C 16.933 282.971,17.083 283.200,17.267 283.200 C 17.450 283.200,17.600 283.472,17.600 283.805 C 17.600 284.138,17.767 284.723,17.971 285.105 C 18.175 285.487,18.783 286.737,19.323 287.882 C 19.862 289.027,20.415 289.852,20.552 289.715 C 20.688 289.578,20.800 289.957,20.800 290.557 C 20.800 291.182,20.971 291.542,21.200 291.400 C 21.420 291.264,21.600 291.433,21.600 291.776 C 21.600 292.119,21.780 292.400,22.000 292.400 C 22.220 292.400,22.400 292.816,22.400 293.325 C 22.400 293.833,22.760 294.636,23.200 295.108 C 23.640 295.580,24.000 296.244,24.000 296.583 C 24.000 296.922,24.135 297.201,24.300 297.203 C 24.665 297.207,25.600 299.149,25.600 299.903 C 25.600 300.202,25.780 300.336,26.000 300.200 C 26.220 300.064,26.400 300.233,26.400 300.576 C 26.400 300.919,26.580 301.200,26.800 301.200 C 27.020 301.200,27.200 301.467,27.200 301.793 C 27.200 302.393,29.884 307.004,31.248 308.747 C 31.656 309.268,31.911 309.820,31.816 309.974 C 31.721 310.128,31.993 310.507,32.421 310.815 C 32.850 311.124,33.200 311.562,33.201 311.788 C 33.201 312.015,33.741 312.830,34.400 313.600 C 35.059 314.370,35.599 315.185,35.599 315.412 C 35.600 315.638,35.960 316.083,36.400 316.400 C 36.840 316.717,37.200 317.207,37.200 317.488 C 37.200 317.770,37.380 318.000,37.600 318.000 C 37.820 318.000,38.000 318.188,38.000 318.417 C 38.000 318.819,38.323 319.288,39.600 320.739 C 40.757 322.054,42.207 323.862,43.000 324.976 C 43.440 325.595,44.213 326.528,44.718 327.050 C 45.223 327.573,45.525 328.000,45.390 328.000 C 45.254 328.000,45.381 328.246,45.671 328.546 C 45.962 328.847,47.280 330.307,48.600 331.791 C 53.405 337.194,55.026 338.943,56.357 340.159 C 58.534 342.149,62.405 346.000,62.229 346.000 C 62.140 346.000,62.679 346.630,63.426 347.400 C 64.174 348.170,64.980 348.800,65.217 348.800 C 65.453 348.800,65.536 348.980,65.400 349.200 C 65.264 349.420,65.433 349.600,65.776 349.600 C 66.119 349.600,66.400 349.780,66.400 350.000 C 66.400 350.220,66.604 350.400,66.853 350.400 C 67.103 350.400,68.173 351.280,69.232 352.355 C 70.290 353.431,71.224 354.243,71.306 354.160 C 71.389 354.078,72.344 354.837,73.428 355.847 C 74.513 356.857,75.490 357.690,75.600 357.698 C 75.983 357.726,77.807 359.007,78.880 360.000 C 81.412 362.346,82.000 362.800,82.497 362.800 C 82.787 362.800,83.283 363.160,83.600 363.600 C 83.917 364.040,84.362 364.400,84.588 364.401 C 84.815 364.401,85.630 364.941,86.400 365.600 C 87.170 366.259,88.025 366.799,88.300 366.799 C 88.575 366.800,88.800 366.980,88.800 367.200 C 88.800 367.420,89.081 367.600,89.424 367.600 C 89.767 367.600,89.933 367.784,89.794 368.010 C 89.655 368.235,89.689 368.380,89.870 368.331 C 90.446 368.175,92.000 368.838,92.000 369.240 C 92.000 369.452,92.315 369.739,92.700 369.878 C 93.085 370.017,93.869 370.455,94.442 370.851 C 95.873 371.841,100.360 374.353,101.700 374.915 C 102.305 375.168,102.800 375.516,102.800 375.688 C 102.800 375.859,103.078 376.000,103.417 376.000 C 103.756 376.000,104.420 376.360,104.892 376.800 C 105.364 377.240,106.167 377.600,106.675 377.600 C 107.184 377.600,107.600 377.780,107.600 378.000 C 107.600 378.220,107.881 378.400,108.224 378.400 C 108.567 378.400,108.733 378.584,108.594 378.810 C 108.455 379.035,108.489 379.175,108.670 379.121 C 109.140 378.979,111.600 380.135,111.600 380.498 C 111.600 380.664,112.050 380.800,112.600 380.800 C 113.150 380.800,113.601 380.935,113.603 381.100 C 113.607 381.511,115.591 382.400,116.503 382.400 C 116.912 382.400,117.136 382.580,117.000 382.800 C 116.864 383.020,117.036 383.200,117.382 383.200 C 117.956 383.200,119.514 383.914,120.000 384.400 C 120.235 384.635,121.190 384.895,121.900 384.918 C 122.175 384.926,122.400 385.083,122.400 385.267 C 122.400 385.450,122.749 385.600,123.176 385.600 C 123.603 385.600,124.064 385.780,124.200 386.000 C 124.336 386.220,124.887 386.400,125.424 386.400 C 125.961 386.400,126.400 386.580,126.400 386.800 C 126.400 387.020,126.760 387.200,127.200 387.200 C 127.640 387.200,128.000 387.391,128.000 387.624 C 128.000 387.857,128.142 387.959,128.316 387.852 C 128.597 387.678,129.501 388.005,132.207 389.261 C 132.651 389.467,133.416 389.666,133.907 389.703 C 134.398 389.740,134.800 389.942,134.800 390.152 C 134.800 390.362,134.904 390.430,135.030 390.303 C 135.157 390.176,136.282 390.395,137.530 390.789 C 138.779 391.183,140.610 391.724,141.600 391.992 C 142.590 392.259,143.713 392.640,144.095 392.839 C 144.477 393.038,145.321 393.200,145.971 393.200 C 146.621 393.200,147.252 393.360,147.373 393.556 C 147.580 393.891,148.589 394.127,152.098 394.657 C 152.922 394.782,153.496 395.045,153.374 395.242 C 153.252 395.439,153.973 395.600,154.976 395.600 C 155.979 395.600,156.800 395.780,156.800 396.000 C 156.800 396.220,157.599 396.400,158.576 396.400 C 159.553 396.400,160.464 396.580,160.600 396.800 C 160.736 397.020,161.726 397.200,162.800 397.200 C 163.874 397.200,164.864 397.380,165.000 397.600 C 165.136 397.820,166.216 398.000,167.400 398.000 C 168.584 398.000,169.664 398.180,169.800 398.400 C 169.936 398.620,171.192 398.800,172.590 398.800 C 174.202 398.800,175.191 398.974,175.292 399.276 C 175.744 400.633,224.467 400.047,224.728 398.682 C 224.840 398.096,166.932 339.798,157.792 331.296 C 156.808 330.380,155.989 329.146,155.680 328.112 C 154.950 325.671,155.054 117.982,155.786 116.200 C 157.627 111.717,159.973 110.800,169.596 110.800 L 177.200 110.800 177.200 100.280 C 177.200 87.598,176.459 88.800,184.280 88.800 C 189.155 88.800,190.400 88.690,190.400 88.259 C 190.400 87.962,186.170 83.552,181.000 78.459 L 171.600 69.200 171.600 66.992 C 171.600 64.599,173.049 61.600,174.205 61.600 C 174.532 61.600,174.800 61.440,174.800 61.245 C 174.800 59.766,250.916 59.769,251.830 61.249 C 251.949 61.442,252.476 61.600,253.000 61.600 C 253.524 61.600,254.064 61.780,254.200 62.000 C 254.336 62.220,254.887 62.400,255.424 62.400 C 255.961 62.400,256.400 62.580,256.400 62.800 C 256.400 63.020,256.570 63.200,256.779 63.200 C 258.832 63.200,265.516 68.841,268.195 72.834 C 269.943 75.440,274.213 80.356,281.367 88.000 C 282.705 89.430,284.767 91.680,285.950 93.000 C 287.132 94.320,289.112 96.482,290.350 97.805 C 291.587 99.127,293.580 101.287,294.779 102.605 C 295.977 103.922,298.047 106.181,299.379 107.625 C 302.534 111.045,307.849 116.846,316.217 126.000 C 319.938 130.070,323.990 134.480,325.222 135.800 C 326.455 137.120,328.349 139.189,329.431 140.399 C 330.514 141.608,331.670 142.868,332.000 143.199 C 332.330 143.529,334.490 145.868,336.800 148.395 C 341.966 154.048,341.123 153.126,345.400 157.795 C 347.380 159.956,349.180 161.921,349.400 162.162 C 359.525 173.250,362.986 177.025,364.794 178.952 C 366.007 180.246,367.180 181.508,367.400 181.757 C 368.098 182.547,376.138 191.331,377.689 192.999 C 378.508 193.879,383.548 199.389,388.889 205.241 C 394.230 211.094,398.937 216.104,399.350 216.376 C 400.080 216.856,400.095 216.337,399.932 196.162 C 399.805 180.482,399.647 175.416,399.282 175.294 C 398.973 175.191,398.800 174.219,398.800 172.590 C 398.800 171.192,398.620 169.936,398.400 169.800 C 398.180 169.664,398.000 168.584,398.000 167.400 C 398.000 166.216,397.820 165.136,397.600 165.000 C 397.380 164.864,397.200 163.874,397.200 162.800 C 397.200 161.726,397.020 160.736,396.800 160.600 C 396.580 160.464,396.400 159.553,396.400 158.576 C 396.400 157.599,396.220 156.800,396.000 156.800 C 395.780 156.800,395.600 155.979,395.600 154.976 C 395.600 153.973,395.439 153.252,395.242 153.374 C 395.045 153.496,394.782 152.922,394.657 152.098 C 394.127 148.589,393.891 147.580,393.556 147.373 C 393.360 147.252,393.200 146.621,393.200 145.971 C 393.200 145.321,393.038 144.477,392.839 144.095 C 392.640 143.713,392.259 142.590,391.992 141.600 C 391.724 140.610,391.183 138.779,390.789 137.530 C 390.395 136.282,390.176 135.157,390.303 135.030 C 390.430 134.904,390.362 134.800,390.152 134.800 C 389.942 134.800,389.740 134.398,389.703 133.907 C 389.666 133.416,389.467 132.651,389.261 132.207 C 388.005 129.501,387.678 128.597,387.852 128.316 C 387.959 128.142,387.857 128.000,387.624 128.000 C 387.391 128.000,387.200 127.640,387.200 127.200 C 387.200 126.760,387.020 126.400,386.800 126.400 C 386.580 126.400,386.400 125.961,386.400 125.424 C 386.400 124.887,386.220 124.336,386.000 124.200 C 385.780 124.064,385.600 123.603,385.600 123.176 C 385.600 122.749,385.450 122.400,385.267 122.400 C 385.083 122.400,384.926 122.175,384.918 121.900 C 384.895 121.190,384.635 120.235,384.400 120.000 C 383.914 119.514,383.200 117.956,383.200 117.382 C 383.200 117.036,383.020 116.864,382.800 117.000 C 382.580 117.136,382.400 116.912,382.400 116.503 C 382.400 115.591,381.511 113.607,381.100 113.603 C 380.935 113.601,380.800 113.150,380.800 112.600 C 380.800 112.050,380.664 111.600,380.498 111.600 C 380.135 111.600,378.979 109.140,379.121 108.670 C 379.175 108.489,379.035 108.455,378.810 108.594 C 378.584 108.733,378.400 108.567,378.400 108.224 C 378.400 107.881,378.220 107.600,378.000 107.600 C 377.780 107.600,377.600 107.184,377.600 106.675 C 377.600 106.167,377.240 105.364,376.800 104.892 C 376.360 104.420,376.000 103.756,376.000 103.417 C 376.000 103.078,375.859 102.800,375.688 102.800 C 375.516 102.800,375.168 102.305,374.915 101.700 C 374.313 100.264,371.788 95.788,370.786 94.380 C 370.354 93.773,370.000 93.074,370.000 92.826 C 370.000 92.578,369.737 92.274,369.415 92.150 C 368.836 91.928,368.159 90.505,368.331 89.870 C 368.380 89.689,368.235 89.655,368.010 89.794 C 367.784 89.933,367.600 89.767,367.600 89.424 C 367.600 89.081,367.420 88.800,367.200 88.800 C 366.980 88.800,366.800 88.575,366.799 88.300 C 366.799 88.025,366.259 87.170,365.600 86.400 C 364.941 85.630,364.401 84.815,364.401 84.588 C 364.400 84.362,364.040 83.917,363.600 83.600 C 363.160 83.283,362.800 82.787,362.800 82.497 C 362.800 82.000,362.346 81.412,360.000 78.880 C 359.065 77.871,357.914 76.254,357.556 75.448 C 357.470 75.255,356.637 74.277,355.705 73.276 C 354.773 72.275,354.078 71.389,354.160 71.306 C 354.243 71.224,353.431 70.290,352.355 69.232 C 351.280 68.173,350.400 67.103,350.400 66.853 C 350.400 66.604,350.220 66.400,350.000 66.400 C 349.780 66.400,349.600 66.119,349.600 65.776 C 349.600 65.433,349.420 65.264,349.200 65.400 C 348.980 65.536,348.800 65.453,348.800 65.217 C 348.800 64.980,348.170 64.174,347.400 63.426 C 346.630 62.679,346.000 62.140,346.000 62.229 C 346.000 62.405,342.149 58.534,340.159 56.357 C 338.943 55.026,337.194 53.405,331.791 48.600 C 330.307 47.280,328.847 45.962,328.546 45.671 C 328.246 45.381,328.000 45.254,328.000 45.390 C 328.000 45.525,327.573 45.223,327.050 44.718 C 326.528 44.213,325.595 43.440,324.976 43.000 C 323.862 42.207,322.054 40.757,320.739 39.600 C 319.288 38.323,318.819 38.000,318.417 38.000 C 318.188 38.000,318.000 37.820,318.000 37.600 C 318.000 37.380,317.770 37.200,317.488 37.200 C 317.207 37.200,316.717 36.840,316.400 36.400 C 316.083 35.960,315.638 35.600,315.412 35.599 C 315.185 35.599,314.370 35.059,313.600 34.400 C 312.830 33.741,312.015 33.201,311.788 33.201 C 311.562 33.200,311.124 32.850,310.815 32.421 C 310.507 31.993,310.128 31.721,309.974 31.816 C 309.820 31.911,309.268 31.656,308.747 31.248 C 307.004 29.884,302.393 27.200,301.793 27.200 C 301.467 27.200,301.200 27.020,301.200 26.800 C 301.200 26.580,300.919 26.400,300.576 26.400 C 300.233 26.400,300.064 26.220,300.200 26.000 C 300.336 25.780,300.202 25.600,299.903 25.600 C 299.149 25.600,297.207 24.665,297.203 24.300 C 297.201 24.135,296.922 24.000,296.583 24.000 C 296.244 24.000,295.580 23.640,295.108 23.200 C 294.636 22.760,293.833 22.400,293.325 22.400 C 292.816 22.400,292.400 22.220,292.400 22.000 C 292.400 21.780,292.119 21.600,291.776 21.600 C 291.433 21.600,291.264 21.420,291.400 21.200 C 291.542 20.971,291.182 20.800,290.557 20.800 C 289.957 20.800,289.578 20.688,289.715 20.552 C 289.852 20.415,289.027 19.862,287.882 19.323 C 286.737 18.783,285.487 18.175,285.105 17.971 C 284.723 17.767,284.138 17.600,283.805 17.600 C 283.472 17.600,283.200 17.450,283.200 17.267 C 283.200 17.083,282.971 16.933,282.691 16.933 C 282.411 16.933,281.256 16.468,280.124 15.900 C 278.993 15.332,277.962 14.972,277.833 15.100 C 277.705 15.228,277.600 15.123,277.600 14.867 C 277.600 14.610,277.328 14.400,276.996 14.400 C 276.663 14.400,275.628 14.062,274.696 13.650 C 271.644 12.300,268.704 11.200,268.147 11.200 C 267.846 11.200,267.600 11.050,267.600 10.867 C 267.600 10.683,267.375 10.517,267.100 10.496 C 266.825 10.476,266.060 10.343,265.400 10.201 C 264.740 10.058,263.885 9.916,263.500 9.886 C 263.115 9.855,262.800 9.688,262.800 9.515 C 262.800 9.342,262.528 9.200,262.195 9.200 C 261.862 9.200,261.277 9.042,260.895 8.849 C 259.728 8.260,257.392 7.600,256.472 7.600 C 255.992 7.600,255.600 7.420,255.600 7.200 C 255.600 6.980,254.880 6.800,254.000 6.800 C 253.120 6.800,252.400 6.620,252.400 6.400 C 252.400 6.180,251.871 6.000,251.224 6.000 C 250.577 6.000,249.936 5.820,249.800 5.600 C 249.664 5.380,248.843 5.200,247.976 5.200 C 247.109 5.200,246.400 5.020,246.400 4.800 C 246.400 4.580,245.680 4.400,244.800 4.400 C 243.920 4.400,243.200 4.220,243.200 4.000 C 243.200 3.780,242.300 3.600,241.200 3.600 C 240.100 3.600,239.200 3.420,239.200 3.200 C 239.200 2.980,238.289 2.800,237.176 2.800 C 235.929 2.800,235.248 2.647,235.400 2.400 C 235.554 2.150,234.745 2.000,233.247 2.000 C 231.927 2.000,230.736 1.820,230.600 1.600 C 230.464 1.380,229.118 1.200,227.610 1.200 C 225.836 1.200,224.810 1.031,224.707 0.721 C 224.543 0.228,182.850 -0.352,182.389 0.133 M156.667 156.667 C 156.520 156.813,156.400 161.493,156.400 167.067 L 156.400 177.200 178.000 177.200 L 199.600 177.200 199.600 166.800 L 199.600 156.400 178.267 156.400 C 166.533 156.400,156.813 156.520,156.667 156.667 M398.800 223.200 C 398.800 224.208,398.957 224.750,399.204 224.597 C 399.663 224.314,399.590 222.041,399.113 221.746 C 398.941 221.640,398.800 222.294,398.800 223.200 M398.000 229.224 C 398.000 230.232,398.156 230.751,398.411 230.594 C 398.882 230.302,398.799 227.600,398.318 227.600 C 398.143 227.600,398.000 228.331,398.000 229.224 M396.400 238.600 C 396.400 239.196,396.572 239.541,396.800 239.400 C 397.020 239.264,397.200 238.904,397.200 238.600 C 397.200 238.296,397.020 237.936,396.800 237.800 C 396.572 237.659,396.400 238.004,396.400 238.600 M395.600 242.200 C 395.600 242.750,395.780 243.200,396.000 243.200 C 396.220 243.200,396.400 242.750,396.400 242.200 C 396.400 241.650,396.220 241.200,396.000 241.200 C 395.780 241.200,395.600 241.650,395.600 242.200 M394.877 245.972 C 394.926 246.617,395.106 247.058,395.277 246.953 C 395.678 246.705,395.527 244.800,395.106 244.800 C 394.931 244.800,394.827 245.328,394.877 245.972 M391.600 257.624 C 391.600 258.077,391.780 258.336,392.000 258.200 C 392.220 258.064,392.400 257.693,392.400 257.376 C 392.400 257.059,392.220 256.800,392.000 256.800 C 391.780 256.800,391.600 257.171,391.600 257.624 M391.012 259.717 C 390.841 260.112,390.813 260.547,390.951 260.684 C 391.357 261.090,391.684 260.520,391.497 259.731 C 391.332 259.033,391.310 259.032,391.012 259.717 M384.500 278.265 C 383.934 278.493,383.812 279.600,384.353 279.600 C 384.548 279.600,384.801 279.240,384.916 278.800 C 385.031 278.360,385.097 278.014,385.063 278.032 C 385.028 278.049,384.775 278.154,384.500 278.265 M380.832 286.500 C 380.814 286.885,380.620 287.200,380.400 287.200 C 380.180 287.200,380.001 287.605,380.002 288.100 C 380.005 288.917,380.061 288.893,380.613 287.833 C 380.948 287.191,381.141 286.471,381.043 286.233 C 380.944 285.995,380.849 286.115,380.832 286.500 M378.400 290.576 C 378.400 290.893,378.580 291.264,378.800 291.400 C 379.020 291.536,379.200 291.277,379.200 290.824 C 379.200 290.371,379.020 290.000,378.800 290.000 C 378.580 290.000,378.400 290.259,378.400 290.576 M376.941 293.789 C 377.066 294.116,376.863 294.549,376.487 294.759 C 376.113 294.969,375.942 295.275,376.107 295.441 C 376.448 295.781,377.568 294.464,377.587 293.700 C 377.594 293.425,377.401 293.200,377.157 293.200 C 376.914 293.200,376.816 293.465,376.941 293.789 M361.300 318.610 C 360.805 319.139,360.400 319.767,360.400 320.006 C 360.400 320.246,360.850 319.956,361.400 319.362 C 361.950 318.769,362.400 318.129,362.400 317.942 C 362.400 317.470,362.324 317.516,361.300 318.610 M359.287 321.210 C 358.756 322.059,359.037 322.217,359.997 321.611 C 360.401 321.355,360.462 321.102,360.187 320.827 C 359.911 320.551,359.621 320.675,359.287 321.210 M354.060 328.268 C 353.334 329.053,353.625 329.264,354.525 328.606 C 354.922 328.315,355.102 327.988,354.924 327.880 C 354.746 327.772,354.357 327.947,354.060 328.268 M349.063 334.000 C 348.080 335.104,348.045 335.596,349.000 334.894 C 349.423 334.583,350.504 332.800,350.270 332.800 C 350.194 332.800,349.651 333.340,349.063 334.000 M338.400 344.600 C 338.122 344.935,338.079 345.200,338.302 345.200 C 338.522 345.200,338.926 344.930,339.200 344.600 C 339.478 344.265,339.521 344.000,339.298 344.000 C 339.078 344.000,338.674 344.270,338.400 344.600 M328.558 353.724 C 328.095 354.206,327.586 354.870,327.427 355.200 C 327.269 355.530,327.490 355.403,327.920 354.917 C 328.349 354.431,328.775 354.108,328.865 354.199 C 328.956 354.289,329.250 354.012,329.519 353.582 C 330.166 352.545,329.613 352.627,328.558 353.724 M324.800 356.600 C 324.522 356.935,324.479 357.200,324.702 357.200 C 324.922 357.200,325.326 356.930,325.600 356.600 C 325.878 356.265,325.921 356.000,325.698 356.000 C 325.478 356.000,325.074 356.270,324.800 356.600 M312.800 365.600 C 312.800 365.820,312.519 366.000,312.176 366.000 C 311.833 366.000,311.664 366.180,311.800 366.400 C 312.173 367.003,312.554 366.886,313.107 366.000 C 313.403 365.526,313.443 365.200,313.203 365.200 C 312.982 365.200,312.800 365.380,312.800 365.600 M294.300 376.833 C 293.915 377.255,293.735 377.594,293.900 377.587 C 294.319 377.570,295.600 376.566,295.600 376.256 C 295.600 375.793,295.012 376.054,294.300 376.833 M287.400 380.400 C 287.264 380.620,286.803 380.800,286.376 380.800 C 285.949 380.800,285.600 380.974,285.600 381.187 C 285.600 381.594,286.325 381.393,288.000 380.524 C 288.696 380.163,288.794 380.004,288.324 380.002 C 287.952 380.001,287.536 380.180,287.400 380.400 M282.000 382.800 C 282.000 383.020,282.270 383.200,282.600 383.200 C 282.930 383.200,283.200 383.020,283.200 382.800 C 283.200 382.580,282.930 382.400,282.600 382.400 C 282.270 382.400,282.000 382.580,282.000 382.800 M268.396 388.204 C 267.985 388.700,268.045 388.800,268.751 388.800 C 269.218 388.800,269.600 388.631,269.600 388.424 C 269.600 387.731,268.896 387.602,268.396 388.204 M254.400 392.775 C 254.400 392.981,254.748 393.124,255.172 393.092 C 255.597 393.060,255.856 392.891,255.749 392.717 C 255.475 392.273,254.400 392.320,254.400 392.775 M248.200 394.400 C 248.055 394.634,248.470 394.800,249.200 394.800 C 249.930 394.800,250.345 394.634,250.200 394.400 C 250.064 394.180,249.614 394.000,249.200 394.000 C 248.786 394.000,248.336 394.180,248.200 394.400 M237.600 396.800 C 237.600 397.306,238.417 397.306,239.200 396.800 C 239.668 396.498,239.557 396.411,238.700 396.406 C 238.095 396.403,237.600 396.580,237.600 396.800 M232.800 397.600 C 232.800 397.820,233.441 398.000,234.224 398.000 C 235.071 398.000,235.547 397.838,235.400 397.600 C 235.264 397.380,234.623 397.200,233.976 397.200 C 233.329 397.200,232.800 397.380,232.800 397.600 M228.544 398.277 C 229.005 398.738,230.344 398.815,230.603 398.394 C 230.744 398.166,230.303 398.000,229.557 398.000 C 228.847 398.000,228.391 398.125,228.544 398.277 " stroke="none" fill="#a4bbbb" fill-rule="evenodd"></path><path id="path3" d="M155.600 166.546 L 155.600 177.493 199.146 177.790 C 223.096 177.954,243.076 177.966,243.546 177.817 C 244.391 177.549,244.400 177.426,244.400 166.573 L 244.400 155.600 200.000 155.600 L 155.600 155.600 155.600 166.546 M199.600 166.800 L 199.600 177.200 178.000 177.200 L 156.400 177.200 156.400 167.067 C 156.400 161.493,156.520 156.813,156.667 156.667 C 156.813 156.520,166.533 156.400,178.267 156.400 L 199.600 156.400 199.600 166.800 " stroke="none" fill="#ab848b" fill-rule="evenodd"></path><path id="path4" d="M188.000 60.789 C 179.243 60.940,175.551 61.143,174.916 61.505 C 171.099 63.688,170.997 69.164,174.725 71.748 L 176.243 72.800 184.922 72.800 L 193.600 72.800 193.600 80.800 C 193.600 85.200,193.555 88.823,193.500 88.852 C 193.445 88.881,189.980 89.016,185.800 89.152 L 178.200 89.400 178.000 100.200 L 177.800 111.000 169.400 111.207 C 160.100 111.437,159.339 111.623,157.421 114.137 C 156.340 115.555,156.180 116.000,156.751 116.000 C 156.945 116.000,157.317 115.484,157.578 114.853 C 157.839 114.223,158.536 113.458,159.126 113.154 C 159.717 112.850,160.298 112.470,160.418 112.309 C 160.538 112.149,168.188 111.941,177.418 111.848 C 192.802 111.693,197.421 111.515,199.900 110.979 L 200.800 110.785 200.800 100.035 C 200.800 87.837,201.111 88.800,197.167 88.800 L 194.800 88.800 194.800 81.080 C 194.800 71.492,195.750 72.400,185.716 72.400 C 175.487 72.400,173.604 71.748,172.650 67.876 C 172.076 65.546,173.683 62.000,175.313 62.000 C 175.654 62.000,175.993 61.823,176.067 61.606 C 176.152 61.354,188.869 61.088,211.200 60.871 C 241.471 60.576,243.092 60.534,223.200 60.554 C 210.550 60.567,194.710 60.672,188.000 60.789 M247.300 61.087 C 247.905 61.178,248.895 61.178,249.500 61.087 C 250.105 60.995,249.610 60.920,248.400 60.920 C 247.190 60.920,246.695 60.995,247.300 61.087 M256.400 63.379 C 256.400 63.489,256.940 63.859,257.600 64.200 C 258.260 64.541,258.800 64.731,258.800 64.621 C 258.800 64.511,258.260 64.141,257.600 63.800 C 256.940 63.459,256.400 63.269,256.400 63.379 M208.200 73.066 C 212.392 73.312,248.907 73.388,247.782 73.147 C 247.132 73.008,237.510 72.907,226.400 72.921 C 215.290 72.936,207.100 73.001,208.200 73.066 M206.186 81.200 L 206.200 89.000 213.900 89.109 L 221.600 89.217 221.600 99.962 L 221.600 110.707 222.500 110.948 C 222.995 111.081,226.691 111.192,230.713 111.195 C 244.761 111.205,244.478 110.671,244.316 136.900 C 244.252 147.185,244.335 155.600,244.500 155.600 C 245.337 155.600,244.823 116.866,243.966 115.312 C 241.712 111.226,240.467 110.800,230.788 110.800 L 222.800 110.800 222.800 100.014 C 222.800 87.055,223.838 88.400,213.835 88.400 L 206.418 88.400 206.295 80.900 L 206.172 73.400 206.186 81.200 M249.400 74.000 C 249.536 74.220,249.909 74.400,250.229 74.400 C 252.740 74.400,259.200 81.323,259.200 84.014 C 259.200 84.420,259.380 84.864,259.600 85.000 C 259.820 85.136,260.003 86.182,260.006 87.324 C 260.009 88.466,260.185 89.670,260.396 90.000 C 260.954 90.874,260.490 86.673,259.746 84.124 C 258.627 80.287,255.368 76.429,251.657 74.545 C 249.648 73.526,249.012 73.373,249.400 74.000 M269.900 76.919 C 270.505 78.085,271.061 78.892,271.135 78.714 C 271.275 78.378,269.307 74.800,268.983 74.800 C 268.882 74.800,269.294 75.754,269.900 76.919 M271.234 80.000 C 271.246 80.330,271.411 80.960,271.600 81.400 L 271.944 82.200 271.966 81.400 C 271.978 80.960,271.813 80.330,271.600 80.000 C 271.255 79.467,271.215 79.467,271.234 80.000 M272.273 84.487 C 272.587 87.263,272.800 87.427,272.800 84.890 C 272.800 83.767,272.628 82.741,272.417 82.611 C 272.181 82.465,272.126 83.183,272.273 84.487 M271.797 91.735 C 269.811 95.625,264.216 95.795,261.708 92.041 C 261.207 91.291,260.800 90.959,260.800 91.301 C 260.800 92.165,263.523 94.800,264.416 94.800 C 264.821 94.800,265.264 94.980,265.400 95.200 C 266.443 96.888,273.233 92.722,272.733 90.700 C 272.660 90.404,272.239 90.870,271.797 91.735 M155.900 117.550 C 155.735 118.293,155.600 127.158,155.600 137.250 L 155.600 155.600 178.300 155.503 L 201.000 155.407 178.704 155.300 L 156.408 155.193 156.304 135.697 C 156.247 124.973,156.065 116.808,155.900 117.550 M155.867 177.867 C 155.468 178.265,155.600 326.470,156.000 327.400 C 156.193 327.850,156.356 295.449,156.372 253.300 L 156.400 178.400 178.576 178.400 C 192.929 178.400,200.840 178.259,201.000 178.000 C 201.279 177.548,156.318 177.415,155.867 177.867 M243.990 177.863 C 244.626 178.179,244.554 325.993,243.917 328.118 C 242.361 333.311,240.365 333.721,218.000 333.438 C 155.363 332.644,159.523 332.902,157.527 329.679 C 157.077 328.952,156.608 328.458,156.486 328.581 C 156.189 328.878,158.364 331.537,159.752 332.574 C 160.842 333.389,161.371 333.405,198.129 333.754 C 242.559 334.176,240.932 334.330,243.792 329.450 L 244.802 327.726 244.701 252.796 C 244.620 192.453,244.501 177.847,244.090 177.763 C 243.810 177.706,243.764 177.751,243.990 177.863 " stroke="none" fill="#5c6c74" fill-rule="evenodd"></path></g></svg>