<?xml version="1.0" encoding="utf-8"?>
<!-- Generator: Adobe Illustrator 16.0.0, SVG Export Plug-In . SVG Version: 6.00 Build 0)  -->
<!DOCTYPE svg PUBLIC "-//W3C//DTD SVG 1.1//EN" "http://www.w3.org/Graphics/SVG/1.1/DTD/svg11.dtd">
<svg version="1.1"
	 id="Capa_1" xmlns:inkscape="http://www.inkscape.org/namespaces/inkscape" xmlns:sodipodi="http://sodipodi.sourceforge.net/DTD/sodipodi-0.dtd" xmlns:svg="http://www.w3.org/2000/svg" xmlns:rdf="http://www.w3.org/1999/02/22-rdf-syntax-ns#" xmlns:cc="http://creativecommons.org/ns#" xmlns:dc="http://purl.org/dc/elements/1.1/" sodipodi:docname="icon_new_sale.svg" inkscape:version="0.92.1 r15371"
	 xmlns="http://www.w3.org/2000/svg" xmlns:xlink="http://www.w3.org/1999/xlink" x="0px" y="0px" width="426.667px"
	 height="139.917px" viewBox="0 146.833 426.667 139.917" enable-background="new 0 146.833 426.667 139.917" xml:space="preserve">
<sodipodi:namedview  id="namedview37" borderopacity="1" pagecolor="#ffffff" bordercolor="#666666" objecttolerance="10" gridtolerance="10" guidetolerance="10" inkscape:zoom="1.0907007" showgrid="false" inkscape:cy="206.54733" inkscape:cx="121.69628" inkscape:current-layer="Capa_1" inkscape:window-maximized="1" inkscape:window-y="24" inkscape:window-x="65" inkscape:window-height="1056" inkscape:window-width="1855" inkscape:pageshadow="2" inkscape:pageopacity="0">
	</sodipodi:namedview>
<g id="g7" transform="translate(0,-212)">
</g>
<g id="g9" transform="translate(0,-212)">
</g>
<g id="g11" transform="translate(0,-212)">
</g>
<g id="g13" transform="translate(0,-212)">
</g>
<g id="g15" transform="translate(0,-212)">
</g>
<g id="g17" transform="translate(0,-212)">
</g>
<g id="g19" transform="translate(0,-212)">
</g>
<g id="g21" transform="translate(0,-212)">
</g>
<g id="g23" transform="translate(0,-212)">
</g>
<g id="g25" transform="translate(0,-212)">
</g>
<g id="g27" transform="translate(0,-212)">
</g>
<g id="g29" transform="translate(0,-212)">
</g>
<g id="g31" transform="translate(0,-212)">
</g>
<g id="g33" transform="translate(0,-212)">
</g>
<g>
	<path fill="#0647AE" d="M117.196,235.564c12.663,0,24.498,0,36.92,0c0.033,7.245,4.871,8.391,10.48,9.066
		c5.041,0.611,9.951,0.32,14.885-0.541c3.242-0.564,6.151-1.863,6.514-5.521c0.401-4.061-2.909-5.32-5.936-5.802
		c-9.831-1.563-19.718-2.778-29.583-4.122c-0.942-0.128-1.912-0.135-2.828-0.361c-6.295-1.566-12.802-3.103-14.683-10.551
		c-1.51-5.982,2.935-13.128,10.302-17.136c8.061-4.382,16.964-5.955,25.896-7.16c14.854-2.005,29.708-3.599,44.59,0.174
		c12.644,3.205,15.264,6.245,15.851,20.079c-11.325,0-22.646,0-34.589,0c0.538-6.867-4.653-8.949-10.126-9.288
		c-6.703-0.414-12.86,1.952-18.495,6.628c6.437,6.787,14.256,6.262,21.398,7.225c5.618,0.758,11.389,0.369,17.092,0.513
		c10.939,0.267,15.683,3.954,18.956,15.259c12.93-11.927,25.693-23.563,38.264-35.402c2.813-2.648,5.691-3.75,9.516-3.744
		c48.016,0.093,96.029,0.063,144.047,0.089c1.59,0.001,3.316-0.45,5.07,1.212c-1.42,3.049-3.088,6.168-4.344,9.445
		c-1.377,3.598-3.506,5.018-7.523,4.806c-7.111-0.377-14.266,0.093-21.385-0.178c-4.156-0.16-6.363,1.23-7.959,5.222
		c-5.023,12.554-10.709,24.843-15.674,37.419c-1.793,4.547-4.27,5.91-8.986,5.729c-9.717-0.373-19.455-0.113-29.793-0.113
		c5.334-16.58,15.512-30.313,20.518-46.83c-13.098,0-25.777,0-39.277,0c3.703,15.697,7.328,31.061,11.113,47.097
		c-13.465,0-26.338,0-39.354,0c-1.867-2.965,0.076-6.534-1.729-10.263c-9.586,0-19.512,0.035-29.434-0.02
		c-3.394-0.021-5.137,2.493-6.787,4.631c-3.244,4.207-7.209,5.164-12.369,5.133c-23.618-0.146-47.238,0.201-70.858,0.263
		c-7.153,0.021-14.078-1.987-21.117-2.876C123.979,254.16,119.802,246.3,117.196,235.564z M276.74,221.501
		c-4.763,4.258-10.631,9.506-16.47,14.729c5.382,0,10.744,0,16.47,0C276.74,230.25,276.74,224.619,276.74,221.501z"/>
	<path fill="#0647AE" d="M50.101,252.785c-5.458-1.623-3.267,3.59-5.053,6.125c-13.68-0.836-28.295,1.756-37.154-13.67
		c-2.7-4.705-2.661-9.348-1.273-13.472c4.731-14.05,14.938-22.536,29.228-26.418c13.408-3.642,27.076-5.025,40.81-3.885
		c8.063,0.67,11.912-2.976,14.283-9.662c2.697-7.604,5.4-15.196,9.449-22.231c2.813-4.888,6.305-7.521,12.582-7.138
		c9.941,0.606,19.953-0.005,29.934,0.035c1.967,0.007,4.292-0.958,6.593,2.201c-18.73,11.264-15.8,36.292-32.59,50.265
		c3.289,0.644,5.777,2.162,4.615,5.487c-1.006,2.884-3.856,2.227-6.161,2.23c-13.311,0.028-26.625-0.15-39.933,0.092
		c-5.3,0.098-9.009-3.44-13.785-4.365c1.399-3.907,5.325-4.364,8.037-7.512c-15.327-2.333-29.669-1.298-43.101,5.424
		c-6.13,3.07-10.59,15.443-9.042,21.84c1.435,5.93,9.898,10.652,19.566,11.762c4.319,0.496,9.696-2.52,12.859,3.055L50.101,252.785z
		 M69.564,216.751c10.074,0,19.061-0.151,28.043,0.035c12.956,0.269,21.752-6.104,26.758-17.437
		c4.941-11.184,8.303-23.09,17.343-33.477c-11.571,0-21.695-0.031-31.816,0.038c-1.261,0.008-2.521-0.215-3.667,1.231
		c-8.126,10.256-9.335,23.829-16.678,34.43c2.649,8.524-4.021,9.129-9.109,9.606C76.275,211.57,73.279,212.998,69.564,216.751z"/>
	<path fill="#0647AE" d="M419.449,265.358c-136.674,0-273.35,0-410.022,0c-0.001-0.646-0.003-1.293-0.004-1.938
		c136.691,0,273.381,0,410.075,0C419.478,264.065,419.462,264.71,419.449,265.358z"/>
	<path fill="#0647AE" d="M101.717,229.708c-1.745,3.156-4.355,3.112-6.982,3.112c-13.544-0.006-27.09,0.048-40.636-0.021
		c-2.669-0.014-6.351,0.935-6.564-3.375c-0.224-4.506,3.591-3.652,6.206-3.672c13.544-0.114,27.09,0,40.633-0.105
		C97.551,225.625,99.88,226.68,101.717,229.708z"/>
	<path fill="#0647AE" d="M67.377,239.261c4.726,0,9.452-0.047,14.178,0.021c2.1,0.033,3.787,1.025,3.832,3.295
		c0.047,2.287-1.655,3.396-3.72,3.416c-9.92,0.098-19.844,0.108-29.767,0.041c-2.048-0.014-3.807-1.059-3.802-3.354
		c0.004-2.75,2.119-3.478,4.393-3.517c4.96-0.084,9.925-0.024,14.886-0.024C67.377,239.18,67.377,239.218,67.377,239.261z"/>
	<path fill="#0647AE" d="M49.963,252.947c7.833-2.564,15.831-0.842,23.753-0.803c1.856,0.008,3.705,1.188,3.454,3.641
		c-0.203,1.982-1.685,2.836-3.458,2.855c-6.359,0.076-12.738,0.309-19.073-0.098c-2.92-0.188-4.826-2.422-4.534-5.767
		C50.101,252.785,49.963,252.947,49.963,252.947z"/>
</g>
</svg>
