<?xml version="1.0" encoding="utf-8"?>
<!-- Generator: Adobe Illustrator 16.0.0, SVG Export Plug-In . SVG Version: 6.00 Build 0)  -->
<!DOCTYPE svg PUBLIC "-//W3C//DTD SVG 1.1//EN" "http://www.w3.org/Graphics/SVG/1.1/DTD/svg11.dtd">
<svg version="1.1"
	 id="Capa_1" xmlns:inkscape="http://www.inkscape.org/namespaces/inkscape" xmlns:sodipodi="http://sodipodi.sourceforge.net/DTD/sodipodi-0.dtd" xmlns:svg="http://www.w3.org/2000/svg" xmlns:rdf="http://www.w3.org/1999/02/22-rdf-syntax-ns#" xmlns:cc="http://creativecommons.org/ns#" xmlns:dc="http://purl.org/dc/elements/1.1/" sodipodi:docname="icon_new_sale.svg" inkscape:version="0.92.1 r15371"
	 xmlns="http://www.w3.org/2000/svg" xmlns:xlink="http://www.w3.org/1999/xlink" x="0px" y="0px" width="426.667px"
	 height="426.667px" viewBox="0 0 426.667 426.667" enable-background="new 0 0 426.667 426.667" xml:space="preserve">
<sodipodi:namedview  id="namedview37" borderopacity="1" pagecolor="#ffffff" bordercolor="#666666" objecttolerance="10" gridtolerance="10" guidetolerance="10" inkscape:zoom="1.0907007" showgrid="false" inkscape:cy="206.54733" inkscape:cx="121.69628" inkscape:current-layer="Capa_1" inkscape:window-maximized="1" inkscape:window-y="24" inkscape:window-x="65" inkscape:window-height="1056" inkscape:window-width="1855" inkscape:pageshadow="2" inkscape:pageopacity="0">
	</sodipodi:namedview>
<g id="g7" transform="translate(0,-212)">
</g>
<g id="g9" transform="translate(0,-212)">
</g>
<g id="g11" transform="translate(0,-212)">
</g>
<g id="g13" transform="translate(0,-212)">
</g>
<g id="g15" transform="translate(0,-212)">
</g>
<g id="g17" transform="translate(0,-212)">
</g>
<g id="g19" transform="translate(0,-212)">
</g>
<g id="g21" transform="translate(0,-212)">
</g>
<g id="g23" transform="translate(0,-212)">
</g>
<g id="g25" transform="translate(0,-212)">
</g>
<g id="g27" transform="translate(0,-212)">
</g>
<g id="g29" transform="translate(0,-212)">
</g>
<g id="g31" transform="translate(0,-212)">
</g>
<g id="g33" transform="translate(0,-212)">
</g>
<g id="g35" transform="translate(0,-212)">
</g>
<g>
	<path fill-rule="evenodd" clip-rule="evenodd" fill="#0647AE" d="M119.051,233.769c12.613,0,24.402,0,36.776,0
		c0.033,7.217,4.852,8.356,10.439,9.033c5.022,0.605,9.913,0.319,14.827-0.54c3.23-0.563,6.127-1.855,6.488-5.501
		c0.4-4.045-2.898-5.3-5.913-5.779c-9.792-1.559-19.641-2.768-29.466-4.106c-0.938-0.128-1.904-0.132-2.818-0.359
		c-6.27-1.561-12.751-3.088-14.625-10.51c-1.504-5.958,2.923-13.077,10.262-17.068c8.029-4.365,16.897-5.932,25.795-7.132
		c14.796-1.998,29.592-3.585,44.416,0.174c12.593,3.191,15.204,6.22,15.789,20c-11.281,0-22.557,0-34.455,0
		c0.536-6.841-4.636-8.914-10.087-9.252c-6.677-0.412-12.81,1.945-18.422,6.602c6.412,6.76,14.201,6.239,21.315,7.198
		c5.596,0.753,11.344,0.368,17.025,0.509c10.896,0.266,15.622,3.938,18.881,15.2c12.879-11.881,25.593-23.471,38.112-35.264
		c2.802-2.638,5.67-3.736,9.478-3.729c47.829,0.093,95.655,0.063,143.482,0.089c1.584,0.001,3.306-0.448,5.053,1.208
		c-1.415,3.037-3.076,6.144-4.325,9.408c-1.372,3.583-3.494,4.998-7.496,4.787c-7.084-0.376-14.21,0.093-21.302-0.177
		c-4.14-0.16-6.336,1.224-7.928,5.201c-5.003,12.505-10.666,24.746-15.61,37.272c-1.787,4.53-4.255,5.886-8.953,5.705
		c-9.677-0.372-19.379-0.112-29.676-0.112c5.313-16.515,15.452-30.195,20.437-46.648c-13.045,0-25.675,0-39.124,0
		c3.69,15.637,7.301,30.939,11.072,46.916c-13.414,0-26.236,0-39.2,0c-1.86-2.955,0.076-6.512-1.723-10.226
		c-9.547,0-19.435,0.037-29.318-0.02c-3.379-0.02-5.115,2.485-6.76,4.614c-3.231,4.192-7.18,5.143-12.32,5.112
		c-23.526-0.144-47.055,0.201-70.582,0.263c-7.125,0.018-14.023-1.98-21.035-2.866C125.807,252.291,121.646,244.463,119.051,233.769
		z M277.969,219.762c-4.744,4.242-10.59,9.469-16.405,14.671c5.361,0,10.703,0,16.405,0
		C277.969,228.476,277.969,222.866,277.969,219.762z"/>
	<path fill-rule="evenodd" clip-rule="evenodd" fill="#0647AE" d="M52.219,250.922c-5.437-1.618-3.255,3.575-5.034,6.103
		C33.559,256.19,19,258.771,10.176,243.406c-2.689-4.685-2.651-9.311-1.269-13.419c4.713-13.993,14.88-22.447,29.113-26.313
		c13.355-3.627,26.971-5.006,40.65-3.869c8.032,0.668,11.865-2.964,14.227-9.625c2.687-7.575,5.379-15.136,9.413-22.145
		c2.802-4.869,6.28-7.492,12.532-7.11c9.902,0.604,19.875-0.006,29.817,0.035c1.959,0.007,4.274-0.954,6.567,2.193
		c-18.657,11.22-15.738,36.15-32.462,50.068c3.275,0.642,5.754,2.154,4.596,5.465c-1.002,2.872-3.841,2.218-6.137,2.225
		c-13.258,0.027-26.521-0.15-39.776,0.092c-5.279,0.096-8.974-3.43-13.731-4.352c1.394-3.891,5.304-4.345,8.005-7.482
		c-15.267-2.325-29.553-1.293-42.932,5.404c-6.107,3.059-10.549,15.383-9.007,21.752c1.429,5.908,9.859,10.614,19.49,11.718
		c4.303,0.494,9.658-2.509,12.809,3.043L52.219,250.922z M71.605,215.03c10.035,0,18.986-0.149,27.934,0.035
		c12.906,0.267,21.667-6.079,26.654-17.367c4.921-11.141,8.27-23,17.274-33.347c-11.526,0-21.61-0.03-31.692,0.038
		c-1.256,0.008-2.51-0.214-3.652,1.227c-8.094,10.216-9.299,23.735-16.613,34.295c2.638,8.491-4.005,9.093-9.074,9.569
		C78.289,209.87,75.306,211.292,71.605,215.03z"/>
	<path fill-rule="evenodd" clip-rule="evenodd" fill="#0647AE" d="M420.12,263.447c-136.138,0-272.279,0-408.417,0
		c-0.001-0.643-0.003-1.287-0.004-1.933c136.156,0,272.311,0,408.468,0C420.151,262.16,420.135,262.804,420.12,263.447z"/>
	<path fill-rule="evenodd" clip-rule="evenodd" fill="#0647AE" d="M103.632,227.937c-1.738,3.145-4.339,3.102-6.955,3.1
		c-13.491-0.006-26.984,0.048-40.478-0.018c-2.659-0.015-6.325,0.929-6.538-3.361c-0.223-4.489,3.577-3.64,6.182-3.66
		c13.491-0.113,26.984,0,40.474-0.106C99.482,223.867,101.802,224.92,103.632,227.937z"/>
	<path fill-rule="evenodd" clip-rule="evenodd" fill="#0647AE" d="M69.426,237.453c4.708,0,9.416-0.049,14.123,0.023
		c2.092,0.03,3.772,1.021,3.817,3.28c0.047,2.277-1.649,3.384-3.706,3.403c-9.882,0.095-19.766,0.107-29.65,0.039
		c-2.04-0.013-3.792-1.054-3.788-3.34c0.004-2.74,2.111-3.464,4.375-3.504c4.941-0.083,9.886-0.025,14.828-0.025
		C69.426,237.371,69.426,237.412,69.426,237.453z"/>
	<path fill-rule="evenodd" clip-rule="evenodd" fill="#0647AE" d="M52.081,251.084c7.802-2.554,15.769-0.839,23.66-0.801
		c1.849,0.009,3.69,1.183,3.44,3.627c-0.202,1.976-1.678,2.823-3.444,2.845c-6.334,0.077-12.688,0.307-18.999-0.098
		c-2.909-0.186-4.808-2.412-4.516-5.742C52.219,250.922,52.081,251.084,52.081,251.084z"/>
</g>
</svg>
