<?xml version="1.0" encoding="UTF-8" standalone="no"?>
<!-- Generator: Adobe Illustrator 17.1.0, SVG Export Plug-In . SVG Version: 6.00 Build 0)  -->

<svg
   xmlns:dc="http://purl.org/dc/elements/1.1/"
   xmlns:cc="http://creativecommons.org/ns#"
   xmlns:rdf="http://www.w3.org/1999/02/22-rdf-syntax-ns#"
   xmlns:svg="http://www.w3.org/2000/svg"
   xmlns="http://www.w3.org/2000/svg"
   xmlns:sodipodi="http://sodipodi.sourceforge.net/DTD/sodipodi-0.dtd"
   xmlns:inkscape="http://www.inkscape.org/namespaces/inkscape"
   version="1.1"
   id="Capa_1"
   x="0px"
   y="0px"
   viewBox="0 0 400.00001 400.00001"
   xml:space="preserve"
   inkscape:version="0.92.1 r15371"
   sodipodi:docname="icon_salesman.svg"
   width="426.66666"
   height="426.66666"><metadata
     id="metadata39"><rdf:RDF><cc:Work
         rdf:about=""><dc:format>image/svg+xml</dc:format><dc:type
           rdf:resource="http://purl.org/dc/dcmitype/StillImage" /><dc:title /></cc:Work></rdf:RDF></metadata><defs
     id="defs37" /><sodipodi:namedview
     pagecolor="#ffffff"
     bordercolor="#666666"
     borderopacity="1"
     objecttolerance="10"
     gridtolerance="10"
     guidetolerance="10"
     inkscape:pageopacity="0"
     inkscape:pageshadow="2"
     inkscape:window-width="926"
     inkscape:window-height="1027"
     id="namedview35"
     showgrid="false"
     inkscape:zoom="0.53984566"
     inkscape:cx="280.37669"
     inkscape:cy="-100.14861"
     inkscape:window-x="992"
     inkscape:window-y="24"
     inkscape:window-maximized="0"
     inkscape:current-layer="Capa_1" /><path
     d="m 301.11142,151.21595 c -6.17155,23.59622 -20.57302,28.79388 -28.25707,29.83667 -4.73339,9.46316 -15.13778,28.80295 -25.5458,38.52 -4.1603,3.88283 -9.56652,7.15993 -16.06813,9.74063 -8.30066,3.29342 -17.06741,4.96371 -26.0536,4.96371 -8.98618,0 -17.75293,-1.67029 -26.05359,-4.96371 -6.49979,-2.57888 -11.90783,-5.85598 -16.06813,-9.74063 -10.40983,-9.71523 -20.81422,-29.05684 -25.54761,-38.52 -7.68224,-1.04279 -22.08371,-6.23864 -28.25525,-29.83667 -3.30068,-12.61875 -2.45556,-22.90526 2.51359,-30.5748 2.19622,-3.38954 4.85852,-5.6982 7.33766,-7.26149 0.007,-2.51904 0.11244,-5.67282 0.40442,-9.26004 -4.46317,-6.202369 -10.53133,-19.584623 -3.01595,-41.245775 7.94339,-22.899813 25.90307,-26.436254 34.57188,-26.742746 2.93071,-5.447932 8.46751,-13.182762 18.52188,-20.293728 11.16065,-7.8980508 25.73441,-12.246966 41.03541,-12.246966 18.82837,0 37.77463,6.626746 54.78944,19.163881 27.58605,20.326373 25.22298,65.415084 24.54652,73.601491 1.00109,6.862513 1.27856,12.814613 1.29126,17.022063 2.47913,1.56329 5.14144,3.87195 7.33766,7.2615 4.96915,7.67135 5.81427,17.95605 2.51541,30.57661 z m 80.678,175.71394 v 64.00232 c 0,5.00724 -4.06056,9.0678 -9.0678,9.0678 H 37.650225 c -5.007237,0 -9.067796,-4.06056 -9.067796,-9.0678 v -64.00232 c 0,-26.22044 15.730813,-49.45576 40.076033,-59.19457 l 79.279738,-31.7119 c 2.28146,-0.91041 4.83495,-0.86144 7.07832,0.1469 2.24156,1.00471 3.98076,2.87812 4.815,5.18859 l 19.93102,55.10137 3.9463,-11.34562 -6.27854,-15.34816 c -1.14254,-2.79651 -0.81973,-5.9793 0.86507,-8.48745 1.68479,-2.50816 4.50669,-4.01341 7.52808,-4.01341 h 38.72675 c 3.02139,0 5.8451,1.50525 7.52808,4.01341 1.6848,2.50815 2.00761,5.69094 0.86507,8.48745 l -6.27854,15.34816 3.9463,11.34562 19.93102,-55.10137 c 0.83424,-2.31047 2.57344,-4.18388 4.815,-5.18859 2.24337,-1.00653 4.79868,-1.05549 7.07832,-0.1469 l 79.27975,31.7119 c 24.34522,9.73881 40.07422,32.97413 40.07422,59.19457 z m -48.2697,6.95863 c 0,-5.00724 -4.06056,-9.0678 -9.0678,-9.0678 h -60.88118 c -5.00724,0 -9.0678,4.06056 -9.0678,9.0678 v 28.27339 c 0,5.00724 4.06056,9.0678 9.0678,9.0678 h 60.88118 c 5.00724,0 9.0678,-4.06056 9.0678,-9.0678 z"
     id="path3"
     inkscape:connector-curvature="0"
     style="fill:#006680;fill-opacity:1" /><g
     id="g5"
     transform="translate(0,181.41901)" /><g
     id="g7"
     transform="translate(0,181.41901)" /><g
     id="g9"
     transform="translate(0,181.41901)" /><g
     id="g11"
     transform="translate(0,181.41901)" /><g
     id="g13"
     transform="translate(0,181.41901)" /><g
     id="g15"
     transform="translate(0,181.41901)" /><g
     id="g17"
     transform="translate(0,181.41901)" /><g
     id="g19"
     transform="translate(0,181.41901)" /><g
     id="g21"
     transform="translate(0,181.41901)" /><g
     id="g23"
     transform="translate(0,181.41901)" /><g
     id="g25"
     transform="translate(0,181.41901)" /><g
     id="g27"
     transform="translate(0,181.41901)" /><g
     id="g29"
     transform="translate(0,181.41901)" /><g
     id="g31"
     transform="translate(0,181.41901)" /><g
     id="g33"
     transform="translate(0,181.41901)" /></svg>