<?xml version="1.0" encoding="UTF-8" standalone="no"?>
<!-- Generator: Adobe Illustrator 16.0.0, SVG Export Plug-In . SVG Version: 6.00 Build 0)  -->

<svg
   xmlns:dc="http://purl.org/dc/elements/1.1/"
   xmlns:cc="http://creativecommons.org/ns#"
   xmlns:rdf="http://www.w3.org/1999/02/22-rdf-syntax-ns#"
   xmlns:svg="http://www.w3.org/2000/svg"
   xmlns="http://www.w3.org/2000/svg"
   xmlns:sodipodi="http://sodipodi.sourceforge.net/DTD/sodipodi-0.dtd"
   xmlns:inkscape="http://www.inkscape.org/namespaces/inkscape"
   version="1.1"
   id="Capa_1"
   x="0px"
   y="0px"
   width="426.66666"
   height="426.66666"
   viewBox="0 0 400.00001 400.00001"
   xml:space="preserve"
   inkscape:version="0.92.1 r15371"
   sodipodi:docname="icon_search_sale.svg"><metadata
     id="metadata41"><rdf:RDF><cc:Work
         rdf:about=""><dc:format>image/svg+xml</dc:format><dc:type
           rdf:resource="http://purl.org/dc/dcmitype/StillImage" /><dc:title /></cc:Work></rdf:RDF></metadata><defs
     id="defs39" /><sodipodi:namedview
     pagecolor="#ffffff"
     bordercolor="#666666"
     borderopacity="1"
     objecttolerance="10"
     gridtolerance="10"
     guidetolerance="10"
     inkscape:pageopacity="0"
     inkscape:pageshadow="2"
     inkscape:window-width="1855"
     inkscape:window-height="1056"
     id="namedview37"
     showgrid="false"
     inkscape:zoom="0.54535212"
     inkscape:cx="-522.53106"
     inkscape:cy="326.50642"
     inkscape:window-x="65"
     inkscape:window-y="24"
     inkscape:window-maximized="1"
     inkscape:current-layer="Capa_1" /><g
     id="g3"
     transform="matrix(0.65359689,0,0,0.65359689,-7.0839236e-6,2.6853229)"
     style="fill:#006680;fill-opacity:1"><path
       d="M 598.007,109.07 524.344,16.651 C 517.386,7.922 506.829,2.836 495.665,2.836 H 169.943 c -11.164,0 -21.72,5.085 -28.678,13.815 L 67.601,109.07 c -7.696,9.655 -13.992,27.656 -13.992,40.002 v 152.604 c 28.321,-47.217 79.863,-78.988 138.814,-78.988 89.294,0 161.934,72.641 161.934,161.926 0,52.824 -25.536,99.674 -64.787,129.25 h 276.585 c 25.318,0 45.843,-20.523 45.843,-45.842 v -318.95 c 10e-4,-12.346 -6.295,-30.347 -13.991,-40.002 z M 91.675,108.287 116.07,77.682 H 236.668 L 253.093,50.677 H 137.594 l 18.011,-22.596 c 3.499,-4.391 8.726,-6.908 14.339,-6.908 h 325.722 c 5.614,0 10.841,2.518 14.34,6.908 l 18.011,22.596 H 409.643 l 9.169,27.005 h 130.729 l 24.394,30.605 z m 100.754,141.908 c -74.24,0 -134.423,60.184 -134.423,134.424 0,31.756 11.076,60.889 29.489,83.893 L 8.52,554.762 c -12.106,13.227 -11.204,33.768 2.023,45.881 6.236,5.701 14.086,8.52 21.922,8.52 8.788,0 17.554,-3.551 23.959,-10.541 l 82.888,-90.523 c 16.298,7.021 34.244,10.945 53.117,10.945 74.24,0 134.423,-60.184 134.423,-134.424 0.001,-74.239 -60.184,-134.425 -134.423,-134.425 z m 0,222.942 c -48.888,0 -88.519,-39.631 -88.519,-88.518 0,-48.889 39.631,-88.52 88.519,-88.52 48.888,0 88.519,39.631 88.519,88.52 0,48.887 -39.632,88.518 -88.519,88.518 z"
       id="path5"
       inkscape:connector-curvature="0"
       style="fill:#006680;fill-opacity:1" /></g><g
     id="g7"
     transform="translate(0,-211.99799)" /><g
     id="g9"
     transform="translate(0,-211.99799)" /><g
     id="g11"
     transform="translate(0,-211.99799)" /><g
     id="g13"
     transform="translate(0,-211.99799)" /><g
     id="g15"
     transform="translate(0,-211.99799)" /><g
     id="g17"
     transform="translate(0,-211.99799)" /><g
     id="g19"
     transform="translate(0,-211.99799)" /><g
     id="g21"
     transform="translate(0,-211.99799)" /><g
     id="g23"
     transform="translate(0,-211.99799)" /><g
     id="g25"
     transform="translate(0,-211.99799)" /><g
     id="g27"
     transform="translate(0,-211.99799)" /><g
     id="g29"
     transform="translate(0,-211.99799)" /><g
     id="g31"
     transform="translate(0,-211.99799)" /><g
     id="g33"
     transform="translate(0,-211.99799)" /><g
     id="g35"
     transform="translate(0,-211.99799)" /></svg>