<?xml version="1.0" encoding="utf-8"?>
<!-- Generator: Adobe Illustrator 16.0.0, SVG Export Plug-In . SVG Version: 6.00 Build 0)  -->
<!DOCTYPE svg PUBLIC "-//W3C//DTD SVG 1.1//EN" "http://www.w3.org/Graphics/SVG/1.1/DTD/svg11.dtd">
<svg version="1.1"
	 id="Capa_1" xmlns:inkscape="http://www.inkscape.org/namespaces/inkscape" xmlns:sodipodi="http://sodipodi.sourceforge.net/DTD/sodipodi-0.dtd" xmlns:svg="http://www.w3.org/2000/svg" xmlns:rdf="http://www.w3.org/1999/02/22-rdf-syntax-ns#" xmlns:cc="http://creativecommons.org/ns#" xmlns:dc="http://purl.org/dc/elements/1.1/" sodipodi:docname="icon_new_sale.svg" inkscape:version="0.92.1 r15371"
	 xmlns="http://www.w3.org/2000/svg" xmlns:xlink="http://www.w3.org/1999/xlink" x="0px" y="0px" width="426.667px"
	 height="426.667px" viewBox="0 0 426.667 426.667" enable-background="new 0 0 426.667 426.667" xml:space="preserve">
<sodipodi:namedview  id="namedview37" borderopacity="1" pagecolor="#ffffff" bordercolor="#666666" objecttolerance="10" gridtolerance="10" guidetolerance="10" inkscape:zoom="1.0907007" showgrid="false" inkscape:cy="206.54733" inkscape:cx="121.69628" inkscape:current-layer="Capa_1" inkscape:window-maximized="1" inkscape:window-y="24" inkscape:window-x="65" inkscape:window-height="1056" inkscape:window-width="1855" inkscape:pageshadow="2" inkscape:pageopacity="0">
	</sodipodi:namedview>
<g id="g7" transform="translate(0,-212)">
</g>
<g id="g9" transform="translate(0,-212)">
</g>
<g id="g11" transform="translate(0,-212)">
</g>
<g id="g13" transform="translate(0,-212)">
</g>
<g id="g15" transform="translate(0,-212)">
</g>
<g id="g17" transform="translate(0,-212)">
</g>
<g id="g19" transform="translate(0,-212)">
</g>
<g id="g21" transform="translate(0,-212)">
</g>
<g id="g23" transform="translate(0,-212)">
</g>
<g id="g25" transform="translate(0,-212)">
</g>
<g id="g27" transform="translate(0,-212)">
</g>
<g id="g29" transform="translate(0,-212)">
</g>
<g id="g31" transform="translate(0,-212)">
</g>
<g id="g33" transform="translate(0,-212)">
</g>
<g>
	<path fill-rule="evenodd" clip-rule="evenodd" fill="#0647AE" d="M117.196,235.564c12.663,0,24.498,0,36.92,0
		c0.033,7.245,4.871,8.391,10.48,9.067c5.041,0.61,9.951,0.32,14.885-0.541c3.242-0.565,6.151-1.864,6.514-5.522
		c0.401-4.061-2.909-5.32-5.936-5.802c-9.831-1.563-19.718-2.778-29.583-4.122c-0.942-0.128-1.912-0.134-2.828-0.362
		c-6.295-1.565-12.802-3.102-14.683-10.55c-1.51-5.982,2.935-13.128,10.302-17.136c8.061-4.382,16.964-5.955,25.896-7.16
		c14.854-2.005,29.708-3.599,44.59,0.174c12.644,3.205,15.264,6.245,15.851,20.079c-11.325,0-22.646,0-34.589,0
		c0.538-6.867-4.653-8.949-10.126-9.288c-6.703-0.414-12.86,1.952-18.495,6.628c6.437,6.787,14.256,6.262,21.398,7.224
		c5.618,0.758,11.389,0.37,17.092,0.513c10.939,0.267,15.683,3.954,18.955,15.259c12.93-11.927,25.694-23.563,38.264-35.402
		c2.812-2.648,5.691-3.75,9.515-3.744c48.017,0.093,96.03,0.063,144.047,0.089c1.59,0.001,3.317-0.45,5.071,1.212
		c-1.421,3.049-3.089,6.168-4.343,9.445c-1.377,3.598-3.507,5.018-7.525,4.806c-7.111-0.377-14.265,0.093-21.385-0.178
		c-4.156-0.16-6.362,1.23-7.959,5.222c-5.022,12.554-10.709,24.843-15.672,37.419c-1.794,4.547-4.271,5.91-8.988,5.729
		c-9.716-0.373-19.455-0.114-29.793-0.114c5.334-16.58,15.513-30.313,20.518-46.83c-13.097,0-25.776,0-39.277,0
		c3.703,15.698,7.329,31.06,11.114,47.097c-13.466,0-26.339,0-39.354,0c-1.867-2.965,0.076-6.534-1.729-10.263
		c-9.585,0-19.511,0.036-29.434-0.02c-3.393-0.02-5.136,2.494-6.786,4.631c-3.244,4.208-7.209,5.164-12.369,5.134
		c-23.618-0.146-47.239,0.2-70.859,0.262c-7.153,0.02-14.078-1.987-21.117-2.876C123.979,254.159,119.802,246.3,117.196,235.564z
		 M276.74,221.502c-4.763,4.258-10.631,9.505-16.47,14.728c5.382,0,10.744,0,16.47,0C276.74,230.25,276.74,224.618,276.74,221.502z"
		/>
	<path fill-rule="evenodd" clip-rule="evenodd" fill="#0647AE" d="M50.101,252.785c-5.458-1.624-3.267,3.59-5.053,6.125
		c-13.68-0.836-28.295,1.756-37.154-13.671c-2.7-4.704-2.661-9.347-1.273-13.471c4.731-14.05,14.938-22.536,29.228-26.418
		c13.408-3.642,27.076-5.025,40.81-3.885c8.063,0.67,11.912-2.976,14.283-9.662c2.697-7.605,5.4-15.196,9.449-22.232
		c2.813-4.888,6.305-7.521,12.582-7.138c9.941,0.606,19.953-0.005,29.934,0.035c1.967,0.007,4.292-0.958,6.593,2.201
		c-18.73,11.264-15.8,36.292-32.59,50.265c3.289,0.644,5.777,2.162,4.615,5.487c-1.006,2.884-3.856,2.227-6.161,2.231
		c-13.311,0.028-26.625-0.15-39.933,0.092c-5.3,0.098-9.009-3.441-13.785-4.366c1.399-3.907,5.325-4.364,8.037-7.512
		c-15.327-2.333-29.669-1.298-43.101,5.425c-6.13,3.07-10.59,15.443-9.042,21.839c1.435,5.93,9.898,10.653,19.566,11.762
		c4.319,0.496,9.696-2.519,12.859,3.055L50.101,252.785z M69.564,216.751c10.074,0,19.061-0.151,28.043,0.036
		c12.956,0.268,21.752-6.104,26.758-17.437c4.941-11.184,8.303-23.09,17.343-33.477c-11.571,0-21.695-0.031-31.816,0.038
		c-1.261,0.008-2.521-0.215-3.667,1.231c-8.126,10.256-9.335,23.829-16.678,34.43c2.649,8.524-4.021,9.129-9.109,9.607
		C76.275,211.57,73.279,212.998,69.564,216.751z"/>
	<path fill-rule="evenodd" clip-rule="evenodd" fill="#0647AE" d="M419.449,265.358c-136.674,0-273.35,0-410.022,0
		c-0.001-0.646-0.003-1.293-0.004-1.939c136.691,0,273.381,0,410.074,0C419.479,264.065,419.463,264.711,419.449,265.358z"/>
	<path fill-rule="evenodd" clip-rule="evenodd" fill="#0647AE" d="M101.717,229.708c-1.745,3.157-4.355,3.113-6.982,3.113
		c-13.544-0.006-27.09,0.047-40.636-0.02c-2.669-0.015-6.351,0.934-6.564-3.375c-0.224-4.506,3.591-3.653,6.206-3.673
		c13.544-0.114,27.09,0,40.633-0.105C97.551,225.624,99.88,226.68,101.717,229.708z"/>
	<path fill-rule="evenodd" clip-rule="evenodd" fill="#0647AE" d="M67.377,239.261c4.726,0,9.452-0.047,14.178,0.022
		c2.1,0.033,3.787,1.025,3.832,3.294c0.047,2.288-1.655,3.396-3.72,3.416c-9.92,0.098-19.844,0.109-29.767,0.042
		c-2.048-0.014-3.807-1.059-3.802-3.355c0.004-2.75,2.119-3.478,4.393-3.517c4.96-0.083,9.925-0.024,14.886-0.024
		C67.377,239.18,67.377,239.219,67.377,239.261z"/>
	<path fill-rule="evenodd" clip-rule="evenodd" fill="#0647AE" d="M49.963,252.947c7.833-2.564,15.831-0.842,23.753-0.803
		c1.856,0.008,3.705,1.188,3.454,3.64c-0.203,1.983-1.685,2.837-3.458,2.856c-6.359,0.077-12.738,0.309-19.073-0.098
		c-2.92-0.188-4.826-2.422-4.534-5.766C50.101,252.785,49.963,252.947,49.963,252.947z"/>
</g>
</svg>
