<?xml version="1.0" encoding="UTF-8" standalone="no"?>
<!-- Generator: Adobe Illustrator 18.0.0, SVG Export Plug-In . SVG Version: 6.00 Build 0)  -->

<svg
   xmlns:dc="http://purl.org/dc/elements/1.1/"
   xmlns:cc="http://creativecommons.org/ns#"
   xmlns:rdf="http://www.w3.org/1999/02/22-rdf-syntax-ns#"
   xmlns:svg="http://www.w3.org/2000/svg"
   xmlns="http://www.w3.org/2000/svg"
   xmlns:sodipodi="http://sodipodi.sourceforge.net/DTD/sodipodi-0.dtd"
   xmlns:inkscape="http://www.inkscape.org/namespaces/inkscape"
   version="1.1"
   id="Capa_1"
   x="0px"
   y="0px"
   viewBox="0 0 399.99999 399.99999"
   xml:space="preserve"
   inkscape:version="0.92.1 r15371"
   sodipodi:docname="icon_comment.svg"
   width="426.66666"
   height="426.66666"><metadata
     id="metadata40"><rdf:RDF><cc:Work
         rdf:about=""><dc:format>image/svg+xml</dc:format><dc:type
           rdf:resource="http://purl.org/dc/dcmitype/StillImage" /><dc:title /></cc:Work></rdf:RDF></metadata><defs
     id="defs38" /><sodipodi:namedview
     pagecolor="#ffffff"
     bordercolor="#666666"
     borderopacity="1"
     objecttolerance="10"
     gridtolerance="10"
     guidetolerance="10"
     inkscape:pageopacity="0"
     inkscape:pageshadow="2"
     inkscape:window-width="1855"
     inkscape:window-height="1056"
     id="namedview36"
     showgrid="false"
     inkscape:zoom="0.6733698"
     inkscape:cx="208.07123"
     inkscape:cy="151.07207"
     inkscape:window-x="65"
     inkscape:window-y="24"
     inkscape:window-maximized="1"
     inkscape:current-layer="Capa_1" /><g
     id="XMLID_192_"
     transform="matrix(0.80079395,0,0,0.78645166,2.9701362,11.435015)"
     style="fill:#006680;fill-opacity:1"><path
       id="XMLID_194_"
       d="M 458.456,50.395 H 227.885 c -20.528,0 -37.193,16.655 -37.193,37.201 v 54.287 h 77.056 c 38.796,0 70.343,31.555 70.343,70.333 v 60.781 l 83.254,47.095 c 1.52,0.865 3.413,0.679 4.74,-0.453 1.342,-1.132 1.813,-2.976 1.214,-4.618 l -23.005,-61.955 h 54.163 c 20.53,0 37.192,-16.655 37.192,-37.202 V 87.596 C 495.648,67.051 478.986,50.395 458.456,50.395 Z"
       inkscape:connector-curvature="0"
       style="fill:#006680;fill-opacity:1" /><path
       id="XMLID_193_"
       d="M 267.747,175.014 H 37.211 C 16.665,175.014 0,191.671 0,212.216 v 128.268 c 0,20.547 16.665,37.202 37.211,37.202 H 91.359 L 68.354,439.64 c -0.598,1.641 -0.131,3.485 1.212,4.618 0.778,0.655 1.733,0.995 2.704,0.995 0.693,0 1.391,-0.177 2.038,-0.542 l 118.487,-67.025 h 74.952 c 20.548,0 37.21,-16.655 37.21,-37.202 V 212.216 c 0,-20.545 -16.662,-37.202 -37.21,-37.202 z"
       inkscape:connector-curvature="0"
       style="fill:#006680;fill-opacity:1" /></g><g
     id="g6"
     transform="translate(0,-95.64801)" /><g
     id="g8"
     transform="translate(0,-95.64801)" /><g
     id="g10"
     transform="translate(0,-95.64801)" /><g
     id="g12"
     transform="translate(0,-95.64801)" /><g
     id="g14"
     transform="translate(0,-95.64801)" /><g
     id="g16"
     transform="translate(0,-95.64801)" /><g
     id="g18"
     transform="translate(0,-95.64801)" /><g
     id="g20"
     transform="translate(0,-95.64801)" /><g
     id="g22"
     transform="translate(0,-95.64801)" /><g
     id="g24"
     transform="translate(0,-95.64801)" /><g
     id="g26"
     transform="translate(0,-95.64801)" /><g
     id="g28"
     transform="translate(0,-95.64801)" /><g
     id="g30"
     transform="translate(0,-95.64801)" /><g
     id="g32"
     transform="translate(0,-95.64801)" /><g
     id="g34"
     transform="translate(0,-95.64801)" /></svg>