<?xml version="1.0" encoding="utf-8"?>
<!-- Generator: Adobe Illustrator 16.0.0, SVG Export Plug-In . SVG Version: 6.00 Build 0)  -->
<!DOCTYPE svg PUBLIC "-//W3C//DTD SVG 1.1//EN" "http://www.w3.org/Graphics/SVG/1.1/DTD/svg11.dtd">
<svg version="1.1"
	 id="Capa_1" inkscape:version="0.92.1 r15371" sodipodi:docname="icon_new_sale.svg" xmlns:inkscape="http://www.inkscape.org/namespaces/inkscape" xmlns:sodipodi="http://sodipodi.sourceforge.net/DTD/sodipodi-0.dtd" xmlns:svg="http://www.w3.org/2000/svg" xmlns:rdf="http://www.w3.org/1999/02/22-rdf-syntax-ns#" xmlns:cc="http://creativecommons.org/ns#" xmlns:dc="http://purl.org/dc/elements/1.1/"
	 xmlns="http://www.w3.org/2000/svg" xmlns:xlink="http://www.w3.org/1999/xlink" x="0px" y="0px" width="340.833px" height="344px"
	 viewBox="0 0 340.833 344" enable-background="new 0 0 340.833 344" xml:space="preserve">
<sodipodi:namedview  inkscape:window-width="1855" inkscape:window-maximized="1" inkscape:current-layer="Capa_1" inkscape:window-height="1056" inkscape:window-x="65" inkscape:window-y="24" inkscape:cx="121.69628" inkscape:cy="206.54733" showgrid="false" inkscape:zoom="1.0907007" guidetolerance="10" gridtolerance="10" objecttolerance="10" bordercolor="#666666" pagecolor="#ffffff" borderopacity="1" id="namedview37" inkscape:pageopacity="0" inkscape:pageshadow="2">
	</sodipodi:namedview>
<g id="g7" transform="translate(0,-212)">
</g>
<g id="g9" transform="translate(0,-212)">
</g>
<g id="g11" transform="translate(0,-212)">
</g>
<g id="g13" transform="translate(0,-212)">
</g>
<g id="g15" transform="translate(0,-212)">
</g>
<g id="g17" transform="translate(0,-212)">
</g>
<g id="g19" transform="translate(0,-212)">
</g>
<g id="g21" transform="translate(0,-212)">
</g>
<g id="g23" transform="translate(0,-212)">
</g>
<g id="g25" transform="translate(0,-212)">
</g>
<g id="g27" transform="translate(0,-212)">
</g>
<g id="g29" transform="translate(0,-212)">
</g>
<g id="g31" transform="translate(0,-212)">
</g>
<g id="g33" transform="translate(0,-212)">
</g>
<g>
	<path fill="#006680" d="M105.271,269.107c-13.057-3.882-7.817,8.59-12.09,14.655c-32.726-2-67.691,4.2-88.884-32.704
		c-6.459-11.256-6.366-22.362-3.045-32.23c11.318-33.613,35.737-53.913,69.924-63.201c32.076-8.712,64.774-12.021,97.632-9.294
		c19.289,1.603,28.496-7.118,34.169-23.115c6.453-18.19,12.917-36.352,22.605-53.183c6.73-11.696,15.084-17.994,30.103-17.078
		c23.78,1.45,47.731-0.009,71.61,0.084c4.707,0.019,10.27-2.292,15.775,5.266c-44.813,26.947-37.802,86.823-77.968,120.253
		c7.868,1.54,13.817,5.172,11.038,13.125c-2.404,6.9-9.225,5.326-14.739,5.336c-31.844,0.064-63.696-0.359-95.533,0.219
		c-12.68,0.234-21.553-8.228-32.979-10.443c3.346-9.346,12.739-10.438,19.228-17.97c-36.668-5.581-70.979-3.107-103.113,12.976
		c-14.664,7.346-25.335,36.945-21.63,52.248c3.432,14.187,23.679,25.484,46.808,28.139c10.332,1.188,23.195-6.025,30.763,7.311
		L105.271,269.107z M151.833,182.903c24.101,0,45.6-0.362,67.089,0.084c30.994,0.644,52.037-14.604,64.013-41.714
		c11.821-26.756,19.864-55.241,41.491-80.089c-27.682,0-51.901-0.075-76.114,0.091c-3.019,0.019-6.03-0.514-8.771,2.944
		c-19.44,24.535-22.336,57.007-39.901,82.37c6.337,20.393-9.619,21.839-21.792,22.979
		C167.888,170.509,160.72,173.924,151.833,182.903z"/>
	<path fill="#006680" d="M7.964,299.186c-0.002-1.542-0.006-3.095-0.008-4.635"/>
	<path fill="#006680" d="M228.752,213.9c-4.172,7.55-10.418,7.445-16.703,7.445c-32.401-0.014-64.807,0.115-97.214-0.051
		c-6.386-0.033-15.194,2.237-15.704-8.076c-0.536-10.778,8.591-8.736,14.847-8.783c32.402-0.271,64.81,0,97.208-0.253
		C218.788,204.133,224.359,206.655,228.752,213.9z"/>
	<path fill="#006680" d="M146.601,236.754c11.306,0,22.613-0.112,33.919,0.052c5.023,0.077,9.059,2.45,9.168,7.882
		c0.111,5.472-3.961,8.124-8.9,8.173c-23.732,0.233-47.474,0.259-71.212,0.099c-4.899-0.035-9.108-2.535-9.095-8.025
		c0.009-6.578,5.068-8.318,10.51-8.412c11.865-0.201,23.743-0.059,35.611-0.059C146.601,236.56,146.601,236.651,146.601,236.754z"/>
	<path fill="#006680" d="M104.94,269.498c18.739-6.137,37.873-2.016,56.825-1.922c4.441,0.021,8.864,2.842,8.265,8.711
		c-0.486,4.743-4.031,6.782-8.274,6.83c-15.212,0.18-30.473,0.738-45.628-0.236c-6.985-0.45-11.546-5.793-10.847-13.793
		C105.271,269.107,104.94,269.498,104.94,269.498z"/>
</g>
</svg>
