<?xml version="1.0" encoding="utf-8"?>
<!-- Generator: Adobe Illustrator 16.0.0, SVG Export Plug-In . SVG Version: 6.00 Build 0)  -->
<!DOCTYPE svg PUBLIC "-//W3C//DTD SVG 1.1//EN" "http://www.w3.org/Graphics/SVG/1.1/DTD/svg11.dtd">
<svg version="1.1"
	 id="Capa_1" inkscape:version="0.92.1 r15371" sodipodi:docname="icon_new_sale.svg" xmlns:inkscape="http://www.inkscape.org/namespaces/inkscape" xmlns:sodipodi="http://sodipodi.sourceforge.net/DTD/sodipodi-0.dtd" xmlns:svg="http://www.w3.org/2000/svg" xmlns:rdf="http://www.w3.org/1999/02/22-rdf-syntax-ns#" xmlns:cc="http://creativecommons.org/ns#" xmlns:dc="http://purl.org/dc/elements/1.1/"
	 xmlns="http://www.w3.org/2000/svg" xmlns:xlink="http://www.w3.org/1999/xlink" x="0px" y="0px" width="426.667px"
	 height="426.667px" viewBox="0 0 426.667 426.667" enable-background="new 0 0 426.667 426.667" xml:space="preserve">
<sodipodi:namedview  inkscape:window-width="1855" inkscape:window-maximized="1" inkscape:current-layer="Capa_1" inkscape:window-height="1056" inkscape:window-x="65" inkscape:window-y="24" inkscape:cx="121.69628" inkscape:cy="206.54733" showgrid="false" inkscape:zoom="1.0907007" guidetolerance="10" gridtolerance="10" objecttolerance="10" bordercolor="#666666" pagecolor="#ffffff" borderopacity="1" id="namedview37" inkscape:pageopacity="0" inkscape:pageshadow="2">
	</sodipodi:namedview>
<g id="g7" transform="translate(0,-212)">
</g>
<g id="g9" transform="translate(0,-212)">
</g>
<g id="g11" transform="translate(0,-212)">
</g>
<g id="g13" transform="translate(0,-212)">
</g>
<g id="g15" transform="translate(0,-212)">
</g>
<g id="g17" transform="translate(0,-212)">
</g>
<g id="g19" transform="translate(0,-212)">
</g>
<g id="g21" transform="translate(0,-212)">
</g>
<g id="g23" transform="translate(0,-212)">
</g>
<g id="g25" transform="translate(0,-212)">
</g>
<g id="g27" transform="translate(0,-212)">
</g>
<g id="g29" transform="translate(0,-212)">
</g>
<g id="g31" transform="translate(0,-212)">
</g>
<g id="g33" transform="translate(0,-212)">
</g>
<path fill-rule="evenodd" clip-rule="evenodd" fill="#006680" d="M-3.158,123.648c3.253-8.933,8-16.79,15.928-22.417
	c6.449-4.577,13.427-7.26,21.495-7.128c11.188,0.184,22.382,0.046,34.075,0.046c0-7.435-0.042-14.667,0.013-21.899
	c0.049-6.441-0.442-12.971,0.447-19.301c2.188-15.588,19.87-30.786,37.123-30.668c55.921,0.382,111.846,0.143,167.769,0.143
	c4.346,0,8.693,0.101,13.035-0.018c9.897-0.27,16.767,4.462,21.461,12.814c3.948,7.023,5.251,14.67,5.223,22.635
	c-0.042,11.896-0.011,23.792-0.011,35.548c1.439,1.223,2.898,0.716,4.225,0.72c13.595,0.042,27.192,0.154,40.785-0.017
	c9.341-0.118,16.089,4.085,20.896,11.73c4.119,6.555,6.049,13.876,6.067,21.55c0.094,38.404,0.146,76.807-0.001,115.21
	c-0.063,16.501-9.514,25.623-26.055,25.692c-15.13,0.064-30.261,0.013-45.31,0.013c-1.012,1.607-0.563,3.188-0.563,4.682
	c-0.029,36.021-0.018,72.042-0.033,108.063c-0.002,3.919-0.051,7.825-1.04,11.683c-2.512,9.788-9.5,15.936-19.525,16.895
	c-2.367,0.227-4.758,0.271-7.139,0.272c-59.849,0.015-119.696-0.017-179.544,0.043c-8.708,0.009-17.002-1.369-24.579-5.842
	c-8.749-5.164-13.385-12.492-13.324-23.045c0.208-35.879,0.079-71.761,0.079-107.642c0-1.527,0-3.055,0-4.626
	c-1.984-0.921-3.957-0.431-5.852-0.442c-9.951-0.062-19.91,0.205-29.852-0.085c-15.977-0.467-29.226-5.731-35.792-21.802
	C-3.158,205.52-3.158,164.584-3.158,123.648z M313.393,247.62c1.174,0.107,1.846,0.222,2.519,0.222
	c14.438,0.01,28.876-0.088,43.313,0.066c4.21,0.046,5.383-1.463,5.364-5.665c-0.16-38.688-0.092-77.376-0.097-116.065
	c0-1.682,0.034-3.372-0.113-5.043c-0.453-5.111-2.082-6.605-7.166-6.605c-107.515-0.005-215.03-0.008-322.545,0.002
	c-9.705,0.001-17.472,7.865-17.473,17.594c-0.002,35.044-0.001,70.088-0.001,105.131c0,7.556,1.556,9.303,9.018,10.133
	c8.109,0.901,16.247,0.325,24.37,0.444c5.844,0.086,11.69,0.018,17.759,0.018c0-5.088-0.005-9.7,0.001-14.312
	c0.027-19.501,17.083-36.839,36.67-36.868c60.696-0.089,121.392,0.001,182.088-0.069c9.012-0.011,15.517,3.979,20.176,11.388
	c4.459,7.089,6.09,14.954,6.115,23.224C313.406,236.531,313.393,241.847,313.393,247.62z M191.142,217.036
	c-30.135,0-60.27-0.007-90.404,0.005c-8.129,0.002-12.037,3.926-12.04,12.148c-0.014,49.477-0.016,98.954,0.002,148.431
	c0.003,8.323,4.031,12.314,12.416,12.315c59.849,0.015,119.697,0.014,179.546,0.001c8.542-0.001,12.323-3.776,12.326-12.268
	c0.01-49.477,0.009-98.953,0.001-148.431c-0.001-8.568-3.67-12.198-12.284-12.2C250.85,217.033,220.996,217.037,191.142,217.036z
	 M88.697,93.917c68.315,0,136.183,0,204.208,0c0-14.92,0.126-29.611-0.063-44.298c-0.075-5.805-1.942-7.232-7.831-7.233
	c-59.406-0.003-118.813-0.002-178.219-0.001c-0.841,0-1.685-0.04-2.521,0.026c-6.917,0.538-15.395,8.417-15.512,14.967
	C88.542,69.415,88.697,81.457,88.697,93.917z"/>
<path fill-rule="evenodd" clip-rule="evenodd" fill="#006680" d="M427.508,363.375c-1.481,1.329-1.232,3.267-1.652,4.937
	c-6.286,25.006-29.377,40.859-55.352,37.942c-23.156-2.6-42.602-24.412-43.233-48.499c-0.021-0.799-0.003-1.6-0.003-2.569
	c4.188,0,8.064,0,12.278,0c0.645,13.834,6.192,25.086,17.957,32.789c7.833,5.13,16.545,6.923,25.696,5.334
	c20.128-3.494,33.803-22.092,31.566-42.499c-2.143-19.54-18.982-35.133-37.45-34.294c0,8.153,0,16.339,0,23.66
	c-10.423-9.589-21.08-19.396-32.109-29.542c10.938-11.277,21.087-21.74,31.92-32.911c0,8.998,0,17.13,0,25.487
	c4.447,0.478,8.502,0.561,12.385,1.711c20.439,6.053,32.504,19.796,37.121,40.389c0.166,0.741-0.264,1.747,0.876,2.083
	C427.508,352.72,427.508,358.048,427.508,363.375z"/>
<path fill-rule="evenodd" clip-rule="evenodd" fill="#006680" d="M310.519,139.958c0.037-8.466,6.807-15.077,15.288-14.93
	c8.218,0.144,14.857,6.93,14.792,15.12c-0.064,8.215-6.759,14.89-14.982,14.938C317.139,155.136,310.483,148.465,310.519,139.958z"
	/>
<path fill-rule="evenodd" clip-rule="evenodd" fill="#006680" d="M230.253,310.498c-13.573,18.076-26.485,35.271-39.62,52.764
	c-13.127-17.481-26.042-34.68-39.361-52.417c9.68,0,18.698,0,28.133,0c0-23.229,0-46.13,0-69.266c7.504,0,14.591,0,22.138,0
	c0,22.828,0,45.713,0,68.919C211.033,310.498,220.076,310.498,230.253,310.498z"/>
</svg>
