<?xml version="1.0" standalone="no"?>
<!DOCTYPE svg PUBLIC "-//W3C//DTD SVG 20010904//EN"
 "http://www.w3.org/TR/2001/REC-SVG-20010904/DTD/svg10.dtd">
<svg version="1.0" xmlns="http://www.w3.org/2000/svg"
 width="860.000000pt" height="726.000000pt" viewBox="0 0 860.000000 726.000000"
 preserveAspectRatio="xMidYMid meet">

<g transform="translate(0.000000,726.000000) scale(0.100000,-0.100000)"
fill="#000000" stroke="none">
<path d="M3395 6849 c-240 -20 -470 -93 -682 -215 -309 -178 -554 -451 -693
-772 -213 -491 -177 -1045 98 -1507 89 -149 245 -328 392 -447 24 -20 42 -38
40 -40 -3 -2 -59 -23 -125 -47 -262 -93 -636 -299 -867 -478 -730 -564 -1176
-1395 -1249 -2322 -20 -262 -4 -356 76 -436 115 -114 304 -107 409 17 49 57
66 120 66 242 0 358 107 784 285 1139 123 244 274 455 470 656 440 453 983
722 1620 802 147 19 493 16 640 -5 484 -70 902 -240 1269 -515 52 -39 96 -71
99 -71 3 0 49 50 102 111 54 61 137 152 186 203 l88 93 -32 30 c-46 43 -229
172 -354 250 -188 116 -484 256 -655 309 -32 10 -58 20 -58 23 0 4 25 26 56
51 31 25 103 94 160 153 577 602 606 1542 67 2189 -342 411 -875 633 -1408
587z m270 -560 c374 -46 693 -275 857 -616 174 -363 133 -803 -106 -1119 -223
-297 -560 -457 -926 -441 -267 11 -509 113 -701 295 -484 456 -454 1232 64
1647 230 184 525 269 812 234z"/>
<path d="M5285 6432 c-48 -23 -69 -45 -90 -95 -28 -67 -12 -143 42 -199 34
-36 63 -44 208 -63 131 -17 268 -59 355 -107 188 -104 342 -275 419 -465 54
-132 66 -195 65 -358 -1 -174 -18 -256 -84 -394 -144 -300 -438 -506 -752
-528 l-88 -6 0 -232 0 -232 98 -7 c196 -14 395 -55 587 -121 l100 -35 345 101
c190 56 348 104 352 108 7 6 -508 173 -690 223 -45 13 -81 26 -80 29 2 4 40
34 85 68 202 152 368 389 447 640 75 237 75 531 0 778 -33 112 -121 284 -196
385 -229 310 -593 508 -963 524 -104 4 -125 3 -160 -14z"/>
<path d="M6650 3464 c-524 -67 -953 -367 -1181 -824 -207 -416 -207 -917 1
-1330 106 -210 310 -443 499 -568 756 -503 1768 -238 2172 568 250 500 199
1101 -132 1552 -78 105 -231 256 -337 332 -162 115 -366 203 -574 247 -91 19
-365 33 -448 23z m330 -954 l0 -360 385 0 385 0 0 -170 0 -170 -385 0 -385 0
0 -365 0 -365 -172 2 -173 3 -3 363 -2 362 -340 0 -340 0 0 170 0 170 340 0
340 0 0 360 0 360 175 0 175 0 0 -360z"/>
</g>
</svg>
