<?xml version="1.0" encoding="utf-8"?>
<!-- Generator: Adobe Illustrator 16.0.0, SVG Export Plug-In . SVG Version: 6.00 Build 0)  -->
<!DOCTYPE svg PUBLIC "-//W3C//DTD SVG 1.1//EN" "http://www.w3.org/Graphics/SVG/1.1/DTD/svg11.dtd">
<svg version="1.1" id="Capa_1" xmlns="http://www.w3.org/2000/svg" xmlns:xlink="http://www.w3.org/1999/xlink" x="0px" y="0px"
	 width="609.449px" height="609.449px" viewBox="0 0 609.449 609.449" enable-background="new 0 0 609.449 609.449"
	 xml:space="preserve">
<g>
	<path fill-rule="evenodd" clip-rule="evenodd" fill="#006680" d="M606.617,296.392c-0.2,5.462-0.245,10.924,0.027,16.385
		c-0.056,2.936-0.112,5.871-0.17,8.805c-0.16,8.053-1.089,16.045-2.142,24.012c-1.58,11.961-3.896,23.791-6.952,35.467
		c-6.938,26.498-17.212,51.623-30.986,75.314c-11.342,19.504-24.673,37.516-40.026,54.049
		c-21.922,23.607-46.967,43.203-75.133,58.82c-24.781,13.742-50.999,23.748-78.61,30.076c-10.205,2.338-20.511,4.113-30.915,5.342
		c-9.326,1.1-18.668,1.887-28.057,2.07c-2.827-0.324-5.663-0.078-8.494-0.107c-4.419-0.049-8.839-0.035-13.259-0.047
		c-0.677-0.023-1.353-0.047-2.029-0.07c-1.803-0.822-3.702-0.33-5.559-0.402c-5.955-0.162-11.863-0.898-17.758-1.645
		c-11.554-1.461-22.993-3.598-34.299-6.408c-31.249-7.766-60.499-20.215-87.773-37.334c-22.943-14.4-43.533-31.629-61.861-51.541
		c-16.889-18.346-31.257-38.516-43.143-60.451c-12.65-23.346-22.049-47.926-28.181-73.756c-2.594-10.924-4.491-21.969-5.921-33.111
		c-2.292-17.861-2.531-35.787-1.782-53.726c0.425-10.204,1.65-20.355,3.235-30.463c2.734-17.425,6.953-34.471,12.689-51.14
		c11.659-33.881,28.875-64.688,51.505-92.452c20.188-24.769,43.746-45.807,70.603-63.12c29.304-18.89,60.966-32.271,94.917-40.185
		c11.096-2.586,22.323-4.458,33.65-5.786c15.525-1.822,31.097-2.369,46.694-1.793c12.392,0.457,24.717,1.739,36.976,3.725
		c22.01,3.564,43.345,9.498,64.016,17.813c26.302,10.581,50.613,24.629,72.965,42.078c9.731,7.597,18.989,15.732,27.7,24.468
		c21.886,21.951,40.09,46.616,54.411,74.134c13.913,26.731,23.638,54.888,29.062,84.533c1.886,10.306,3.234,20.672,4.078,31.119
		C606.505,286.176,606.372,291.286,606.617,296.392z M39.146,304.948c-0.179,146.304,118.915,265.714,265.52,265.97
		c145.692,0.252,266.342-117.721,266.406-265.88c0.063-147.145-119.063-266.073-265.938-266.085
		C156.973,38.94,38.946,159.477,39.146,304.948z"/>
	<path fill-rule="evenodd" clip-rule="evenodd" fill="#006680" d="M307.224,185.356c56.705,0,113.411,0.018,170.118-0.043
		c3.665-0.003,6.922,0.791,9.914,2.862c3.44,2.381,5.591,5.646,6.911,9.575c0.843,2.509,0.938,5.047,0.937,7.65
		c-0.021,69.289-0.012,138.577-0.027,207.866c0,5.316-1.83,9.912-5.712,13.65c-2.918,2.811-6.52,3.961-10.409,4.426
		c-0.993,0.119-2.011,0.035-3.018,0.035c-112.992,0-225.984-0.004-338.976,0.02c-2.89,0-5.596-0.441-8.315-1.51
		c-4.934-1.939-7.822-5.545-9.378-10.428c-0.689-2.164-0.924-4.373-0.923-6.662c0.033-69.791,0.023-139.584,0.034-209.375
		c0-5.348,1.749-9.977,5.753-13.691c1.777-1.648,3.916-2.5,6.091-3.38c2.56-1.036,5.22-0.934,7.888-0.933
		c56.37,0.004,112.741,0.003,169.111,0.003C307.224,185.398,307.224,185.377,307.224,185.356z M303.585,321.006
		c0.378-0.158,0.641-0.209,0.828-0.355c5.005-3.922,9.983-7.881,15.008-11.777c4.627-3.592,9.329-7.086,13.954-10.68
		c9.517-7.395,18.984-14.85,28.506-22.24c10.709-8.313,21.466-16.568,32.182-24.874c7.936-6.151,15.831-12.354,23.762-18.513
		c11.566-8.985,23.146-17.952,34.721-26.925c0.407-0.316,0.804-0.636,0.509-1.29c-0.743-0.474-1.599-0.21-2.4-0.201
		c-9.306,0.113-18.613,0.14-27.918,0.253c-21.723,0.263-43.45,0.13-65.177,0.225c-29.354,0.126-58.706-0.048-88.06,0.306
		c-31.197,0.376-62.4,0.157-93.599,0.556c-4.781,0.061-9.563,0.007-14.344,0.047c-0.791,0.006-1.687-0.309-2.557,0.66
		C207.228,244.493,255.426,282.764,303.585,321.006z M153.519,413.576c0.399,0.018,0.567,0.021,0.734,0.033
		c0.501,0.037,1.003,0.107,1.504,0.107c99.643,0.039,199.286,0.074,298.928,0.105c0.336,0.002,0.672,0.002,1.007-0.008
		c0.252-0.008,0.502-0.023,0.753-0.051c0.249-0.027,0.498-0.066,0.747-0.107c0.082-0.012,0.178-0.021,0.238-0.068
		c0.06-0.047,0.082-0.139,0.302-0.543c-13.752-10.207-27.745-20.178-41.588-30.348c-13.955-10.252-28.012-20.365-42.022-30.539
		c-13.921-10.107-27.841-20.215-41.774-30.334c-1.012,0.783-1.867,1.443-2.72,2.107c-6.346,4.928-12.818,9.705-18.988,14.844
		c-3.803,3.166-9.441,3.363-13.367,0.297c-3.298-2.578-6.569-5.189-9.847-7.793c-3.21-2.549-6.436-5.082-9.607-7.68
		c-1.082-0.889-1.938-0.959-3.102-0.078c-3.332,2.525-6.766,4.916-10.132,7.395c-7.211,5.313-14.403,10.648-21.607,15.969
		c-6.26,4.623-12.533,9.227-18.788,13.857c-8.002,5.926-15.982,11.881-23.991,17.799c-6.663,4.92-13.365,9.787-20.03,14.707
		c-8.214,6.059-16.409,12.145-24.612,18.219C154.824,412.01,154.048,412.508,153.519,413.576z M476.033,211.508
		c-0.533-0.057-0.699-0.104-0.857-0.083c-0.162,0.021-0.342,0.07-0.467,0.168c-41.872,32.478-83.74,64.959-125.604,97.449
		c-0.322,0.252-0.568,0.604-0.837,0.918c-0.048,0.055-0.038,0.162-0.042,0.244s0.007,0.164,0.026,0.498
		c38.563,28.064,77.254,56.227,115.953,84.375c3.72,2.705,7.489,5.342,11.238,8.006c0.054,0.037,0.161,0.016,0.236-0.002
		c0.079-0.021,0.15-0.072,0.353-0.172C476.033,339.18,476.033,275.387,476.033,211.508z M136.642,402.133
		c1.326-0.102,2.018-0.537,2.697-1.045c9.113-6.816,18.212-13.648,27.354-20.426c10.016-7.426,20.08-14.787,30.108-22.195
		c11.037-8.154,22.048-16.34,33.089-24.488c9.155-6.756,18.337-13.477,27.502-20.221c1.257-0.924,2.482-1.891,4.057-3.096
		c-41.23-32.742-82.236-65.306-123.241-97.873c-0.333-0.265-0.65-0.53-1.116-0.382c-0.299,0.207-0.446,0.513-0.446,0.855
		C136.642,276.14,136.642,339.018,136.642,402.133z"/>
</g>
</svg>
