<?xml version="1.0" encoding="utf-8"?>
<!-- Generator: Adobe Illustrator 22.0.1, SVG Export Plug-In . SVG Version: 6.00 Build 0)  -->
<svg version="1.1" id="Capa_1" xmlns="http://www.w3.org/2000/svg" xmlns:xlink="http://www.w3.org/1999/xlink" x="0px" y="0px"
	 viewBox="0 0 511 512" style="enable-background:new 0 0 511 512;" xml:space="preserve">
<style type="text/css">
	.st0{fill:#606060;}
</style>
<g>
	<path class="st0" d="M322.9,413.3c-0.3-1.7-0.9-3.4-0.9-5.1c0-43.5,0-86.9,0-130.4c0-1.3,0-2.7,0-4.3c-1.7,0-2.9,0-4.2,0
		c-21.7,0-43.5,0-65.2,0c-4.3,0-4.3,0-4.3-4.4c0-5.9,0.1-11.8,0-17.6c-0.1-2.5,0.6-3.5,3.3-3.5c55.4,0.1,110.9,0.1,166.3,0
		c2.4,0,3.3,0.8,3.3,3.3c-0.1,6.2-0.1,12.4,0,18.6c0,2.2-0.7,3-2.8,3.2c-5.6,0.3-11.1,0.9-16.6,0.9c-15.6,0-31.3-0.2-46.9-0.3
		c-1.5,0-2.9,0-4.9,0c0,1.4,0,2.7,0,4c0,43.7,0,87.3-0.1,131c0,1.6-0.7,3.1-1.1,4.7C340.1,413.3,331.5,413.3,322.9,413.3z"/>
	<path class="st0" d="M106.7,413.3c-2.9-1.7-3.4-3.8-2.5-7.1c10.2-35.7,12.7-72.2,9.6-109.1c-1.7-20.5-5.2-40.8-9.8-60.8
		c-0.8-3.7,0.7-6,4.4-6.2c4.2-0.2,8.4-0.1,12.6,0c3.2,0.1,4.7,2.3,5,5.1c1.8,13.8,3.9,27.6,5,41.5c1.2,15.7,1.6,31.4,2.1,47.2
		c0.1,2.8,1.3,2.9,3.4,2.9c27.3,0,54.6,0,81.9,0c7.3,0,9.1,1.7,9.1,9.1c0,3.1,0,6.3,0,9.8c-1.6,0.1-3.1,0.2-5,0.4c0,1.1,0,2.3,0,3.4
		c0,19.7,0,39.5,0,59.2c0,4.1-0.1,4.2-4.2,4.2c-4.4,0-8.8-0.1-13.2,0c-2.5,0.1-3.3-0.9-3.3-3.3c0.1-8.8,0-17.6,0-26.7
		c-23.9,0-47.7,0-71.8,0c-0.8,5.5-1.7,11.2-2.5,16.8c-0.4,2.8-0.6,5.7-1.5,8.4c-0.6,1.9-2,3.5-3,5.3
		C117.7,413.3,112.2,413.3,106.7,413.3z M201.7,373.5c0-9.4,0-18.5,0-27.5c-22.9,0-45.6,0-68.2,0c-0.9,9.2-1.7,18.3-2.6,27.5
		C154.5,373.5,178,373.5,201.7,373.5z"/>
	<path class="st0" d="M185.5,90.7c1.4,0.4,2.8,0.8,4.2,1.1c18.1,4.6,30,21.7,27.8,40c-2.2,18.2-17.6,32.3-35.5,32.6
		c-19.1,0.3-34.9-12.9-37.6-31.6c-2.9-19.4,10.1-37.7,29.3-41.5c0.8-0.2,1.6-0.4,2.4-0.7C179.2,90.7,182.4,90.7,185.5,90.7z"/>
	<path class="st0" d="M241.5,402c0-1.7,0-2.9,0-4.2c0-26.4,0-52.7,0.1-79.1c0-2.8-1.1-3.3-3.5-3.2c-22.7,0-45.4,0-68,0
		c-17.6,0-28.6-11.1-28.6-28.8c0-27.7,0-55.4,0-83.2c0-16.9,11.6-28.4,28.5-28.4c6,0,12,0.1,17.9,0.5c8.5,0.6,14.8,5,18.6,12.6
		c1.2,2.4,2.4,4.9,3.4,6.7c1.5,0.4,2.6,0.5,3.6,1c9.4,4.2,18.7,8.5,28,12.8c4.8,2.2,5.8,2,9.1-2.1c6.6-8.2,13.2-16.3,19.7-24.6
		c2.5-3.2,5.6-4.7,9.5-4.5c5.4,0.2,10,2.3,13.5,6.5c3.8,4.5,4.5,10.6,0.7,16.1c-7.8,11.2-15.7,22.3-24.3,32.9
		c-6.7,8.2-16.1,9.4-25.9,6.4c-8.9-2.8-17.6-6.1-26.4-9.2c-1-0.3-2-0.7-3.4-1.1c0,17.1,0,33.9,0,51.2c0.9,0,2,0,3.1,0
		c13.8,0,27.5,0,41.3,0c11.1,0,18.5,7.5,18.5,18.6c0,28.1-0.1,56.3-0.1,84.4c0,11.3-7.4,18.7-18.8,18.7
		C252.6,402.1,247.3,402,241.5,402z"/>
</g>
</svg>
