<svg viewBox="-106 1 511 511.99994" xmlns="http://www.w3.org/2000/svg"><path d="m192.25 492.703125-31.925781-13.167969c-8.371094-3.453125-13.769531-11.160156-13.769531-19.664062v-8.972656l6.144531-17.746094c42.355469-72.757813 58.523437-233.453125 62.199219-276.765625.5-5.882813-4.144532-10.933594-10.050782-10.933594h-161.148437c-5.90625 0-10.550781 5.050781-10.050781 10.933594 3.675781 43.3125 19.84375 204.007812 62.199218 276.765625l6.144532 17.746094v8.972656c0 8.503906-5.394532 16.210937-13.765626 19.664062l-31.925781 13.167969c-3.21875 1.324219-5.289062 4.285156-5.289062 7.554687 0 2.324219 2.027343 4.210938 4.535156 4.210938h137.457031c2.503906 0 4.535156-1.886719 4.535156-4.210938 0-3.269531-2.074218-6.230468-5.289062-7.554687zm0 0" fill="#dfede7"/><path d="m152.699219 433.152344c42.355469-72.757813 58.523437-233.453125 62.203125-276.765625.5-5.882813-4.148438-10.933594-10.054688-10.933594h-39.582031c-4.285156 48.625-22.074219 216.800781-63.351563 287.699219l-3.03125 8.765625 3.109376 8.980469v8.972656c0 3.855468-1.117188 7.539062-3.109376 10.746094 2.402344 3.863281 6.078126 7.03125 10.65625 8.917968l31.925782 13.167969c3.214844 1.324219 5.289062 4.285156 5.289062 7.554687 0 2.324219-2.03125 4.210938-4.535156 4.210938h50.785156c2.503906 0 4.535156-1.886719 4.535156-4.210938 0-3.269531-2.070312-6.230468-5.289062-7.554687l-31.925781-13.167969c-8.371094-3.453125-13.765625-11.160156-13.765625-19.667968v-8.96875zm0 0" fill="#d7e0dc"/><path d="m211.910156 99.09375c.335938-1.675781.515625-3.410156.515625-5.183594 0-14.417968-11.730469-26.144531-26.144531-26.144531-7.3125 0-13.929688 3.019531-18.679688 7.875-4.445312-3.484375-10.03125-5.570313-16.101562-5.570313-2.585938 0-5.085938.382813-7.445312 1.085938 1.167968-2.960938 1.816406-6.183594 1.816406-9.558594 0-14.417968-11.726563-26.144531-26.144532-26.144531-12.476562 0-22.929687 8.78125-25.523437 20.488281-3.742187-2.066406-8.035156-3.246094-12.605469-3.246094-14.417968 0-26.144531 11.730469-26.144531 26.148438 0 .152344.007813.304688.011719.457031-10.09375 1.90625-18.152344 9.628907-20.546875 19.542969-.246094-.007812-.488281-.019531-.738281-.019531-14.417969 0-26.144532 11.730469-26.144532 26.148437 0 14.414063 11.730469 26.144532 26.144532 26.144532h174.011718c14.417969 0 26.148438-11.730469 26.148438-26.144532-.003906-13.15625-9.769532-24.066406-22.429688-25.878906zm0 0" fill="#f3e8d7"/><path d="m211.910156 99.09375c.589844-2.9375.695313-6.050781.203125-9.257812-1.777343-11.507813-11.207031-20.574219-22.777343-21.898438-8.511719-.972656-16.332032 2.179688-21.738282 7.703125-4.441406-3.484375-10.03125-5.570313-16.101562-5.570313-2.585938 0-5.082032.382813-7.441406 1.085938 1.382812-3.503906 2.035156-7.367188 1.75-11.414062-.902344-12.855469-11.292969-23.292969-24.148438-24.21875-13.3125-.964844-24.726562 8.113281-27.453125 20.417968-2.351563-1.296875-4.921875-2.246094-7.640625-2.769531.375 6.066406 2.914062 10.230469 6.214844 13.234375 6.714844 6.105469 16.089844 6.160156 24.824218 3.683594 12.503907-3.546875 26.253907 7.683594 34.253907 23.308594 1.648437 3.226562 4.316406 5.84375 7.703125 7.132812 9.851562 3.75 16.871094 13.289062 16.871094 24.441406 0 14.417969-11.730469 26.144532-26.148438 26.144532h57.351562c14.539063 0 26.855469-11.890626 26.703126-26.425782-.136719-13.027344-9.855469-23.796875-22.425782-25.597656zm0 0" fill="#e5d8c6"/><path d="m36.476562 185.792969c6.769532 63.636719 23.871094 186.375 59.371094 247.359375l4.144532 11.972656c.730468-.152344 1.484374-.230469 2.257812-.230469h44.046875c.773437 0 1.53125.082031 2.257813.230469l4.144531-11.972656c35.503906-60.984375 52.601562-183.722656 59.371093-247.359375zm0 0" fill="#ef50ab"/><path d="m204.847656 145.453125h-161.148437c-5.90625 0-10.550781 5.050781-10.050781 10.933594.59375 7.011719 1.519531 17.113281 2.828124 29.40625h175.59375c1.308594-12.292969 2.234376-22.394531 2.832032-29.40625.496094-5.882813-4.148438-10.933594-10.054688-10.933594zm0 0" fill="#f3e8d7"/><g fill="#e5d8c6"><path d="m204.847656 145.453125h-39.582031c-.832031 9.453125-2.179687 23.441406-4.105469 40.339844h50.910156c.757813-7.097657 1.382813-13.464844 1.894532-18.925781.015625-.167969.03125-.339844.046875-.507813.050781-.554687.101562-1.09375.148437-1.628906.027344-.28125.054688-.566407.078125-.839844.042969-.460937.082031-.910156.125-1.355469.03125-.351562.0625-.699218.089844-1.039062.035156-.382813.070313-.757813.101563-1.125.035156-.40625.070312-.796875.105468-1.1875.023438-.289063.050782-.585938.074219-.867188.058594-.664062.117187-1.3125.167969-1.929687.496094-5.882813-4.148438-10.933594-10.054688-10.933594zm0 0"/><path d="m211.8125 188.21875c-.09375.863281-.191406 1.738281-.285156 2.617188.09375-.878907.191406-1.753907.285156-2.617188zm0 0"/><path d="m211.867188 187.703125c-.019532.171875-.035157.339844-.054688.515625.019531-.175781.035156-.34375.054688-.515625zm0 0"/><path d="m212.066406 185.84375c0-.015625.003906-.03125.003906-.050781-.066406.632812-.132812 1.265625-.203124 1.910156.066406-.621094.132812-1.246094.199218-1.859375zm0 0"/><path d="m211.527344 190.839844c-.019532.160156-.035156.316406-.054688.480468.019532-.164062.035156-.320312.054688-.480468zm0 0"/><path d="m210.753906 197.734375c.125-1.082031.242188-2.148437.363282-3.199219-.121094 1.050782-.238282 2.117188-.363282 3.199219zm0 0"/><path d="m211.472656 191.320312c-.085937.804688-.179687 1.625-.269531 2.445313.089844-.824219.179687-1.640625.269531-2.445313zm0 0"/><path d="m211.203125 193.765625c-.03125.257813-.058594.507813-.085937.769531.027343-.261718.054687-.511718.085937-.769531zm0 0"/></g><path d="m161.160156 185.792969c-7.988281 70.015625-25.996094 190.246093-59.246094 247.359375l-3.035156 8.765625.90625 2.609375.207032.597656c.726562-.152344 1.484374-.230469 2.257812-.230469h44.046875c.773437 0 1.527344.082031 2.257813.230469l4.144531-11.972656c.617187-1.054688 1.222656-2.132813 1.828125-3.222656.191406-.355469.386718-.714844.578125-1.070313.410156-.753906.816406-1.507813 1.222656-2.277344.21875-.421875.441406-.847656.660156-1.273437.378907-.734375.753907-1.472656 1.128907-2.222656.214843-.433594.433593-.863282.648437-1.300782.390625-.796875.777344-1.601562 1.164063-2.410156.1875-.390625.375-.777344.558593-1.171875.507813-1.078125 1.011719-2.171875 1.507813-3.273437.058594-.128907.121094-.257813.175781-.386719.5625-1.242188 1.113281-2.503907 1.664063-3.777344.152343-.359375.304687-.726563.460937-1.085937.390625-.921876.78125-1.847657 1.167969-2.78125.1875-.457032.375-.917969.5625-1.378907.351562-.867187.703125-1.738281 1.050781-2.617187.1875-.472656.375-.949219.5625-1.425782.359375-.917968.714844-1.839843 1.066406-2.765624.164063-.433594.328125-.863282.492188-1.296876.433593-1.15625.863281-2.320312 1.292969-3.492187.074218-.207031.152343-.410156.226562-.621094.507812-1.40625 1.011719-2.824219 1.511719-4.25.101562-.300781.207031-.605469.3125-.90625.386719-1.117187.769531-2.238281 1.152343-3.371093.152344-.453126.300782-.910157.453126-1.367188.335937-1.003906.667968-2.011719.996093-3.023438.15625-.484374.3125-.96875.46875-1.457031.332031-1.03125.660157-2.070312.988281-3.113281.136719-.441406.277344-.878906.414063-1.324219.386719-1.246093.769531-2.5 1.148437-3.761719.070313-.234374.144532-.464843.214844-.699218.460938-1.539063.917969-3.082032 1.367188-4.640625.054687-.179688.105468-.359375.15625-.542969.386718-1.339844.769531-2.683594 1.152344-4.035156.117187-.425782.234374-.851563.355468-1.277344.3125-1.128906.625-2.261719.933594-3.398438.128906-.46875.253906-.9375.382812-1.410156.308594-1.140625.609376-2.28125.914063-3.425781.113281-.429687.226563-.859375.339844-1.292969.34375-1.320312.6875-2.644531 1.023437-3.976562.0625-.242188.128906-.484375.1875-.726563.8125-3.210937 1.609375-6.441406 2.382813-9.6875.089843-.378906.179687-.761719.269531-1.140625.292969-1.226562.582031-2.457031.867188-3.691406.109374-.457031.214843-.914062.316406-1.371094.277344-1.195312.550781-2.394531.820312-3.589844.097656-.433593.195313-.867187.292969-1.300781.296875-1.335937.59375-2.675781.886719-4.015625.058594-.269531.121094-.542968.179687-.816406.714844-3.296875 1.414063-6.601562 2.09375-9.90625.070313-.324219.132813-.648438.199219-.972656.265625-1.300782.53125-2.601563.792969-3.902344.085937-.4375.175781-.875.261719-1.3125.242187-1.21875.480468-2.433594.71875-3.652344.085937-.4375.171874-.875.257812-1.3125.25-1.300781.5-2.597656.746094-3.894531.058594-.320313.121094-.644531.183594-.964844.621093-3.292969 1.222656-6.574219 1.8125-9.84375.050781-.289062.101562-.574219.152343-.863281.234375-1.316406.464844-2.632812.695313-3.945312.078125-.433594.152344-.871094.226562-1.304688.207032-1.175781.410156-2.347656.609375-3.519531.078125-.46875.15625-.933594.238281-1.398438.203126-1.203125.402344-2.40625.605469-3.605469.0625-.382812.128907-.769531.191407-1.152343.257812-1.566407.515624-3.128907.765624-4.683594 0-.003906 0-.007813 0-.011719.257813-1.597656.511719-3.1875.761719-4.773437.054688-.34375.105469-.683594.160157-1.023438.1875-1.203125.375-2.398437.558593-3.589843.074219-.492188.148438-.984376.226563-1.472657.15625-1.039062.316406-2.078125.46875-3.109375.082031-.535156.164062-1.070312.242187-1.601562.152344-1.015625.300781-2.027344.449219-3.035156.074219-.5.148438-1.003907.21875-1.503907.171875-1.15625.335938-2.304687.5-3.449219.046875-.335937.097656-.671874.144531-1.003906.207031-1.449218.40625-2.886718.605469-4.320312.066406-.46875.128906-.929688.195312-1.394532.132813-.964843.265626-1.929687.398438-2.890624.078125-.59375.160156-1.1875.238281-1.777344.113281-.824219.222657-1.640625.332031-2.457032.082032-.625.164063-1.25.246094-1.875.101563-.769531.203125-1.53125.300782-2.292968.085937-.640625.167968-1.28125.25-1.917969.09375-.714844.183593-1.421875.273437-2.128906.082031-.65625.167969-1.320313.25-1.96875.082031-.664063.164063-1.316407.246094-1.972657.167969-1.328124.332031-2.644531.492187-3.949218.0625-.523438.128906-1.050782.191406-1.570313.089844-.765625.179688-1.519531.273438-2.277343.058594-.492188.117188-.988282.175781-1.476563.09375-.777344.183594-1.542969.273438-2.308594.050781-.429687.097656-.855469.148437-1.285156.09375-.808594.1875-1.613281.28125-2.410156.03125-.289063.0625-.570313.097656-.859375.472657-4.15625.914063-8.136719 1.3125-11.902344.003907-.019531.003907-.035156.003907-.050781zm0 0" fill="#dd3ca7"/><path d="m146.296875 469.769531h-44.046875c-6.105469 0-11.050781-4.949219-11.050781-11.054687v-2.769532c0-6.105468 4.949219-11.050781 11.050781-11.050781h44.046875c6.105469 0 11.050781 4.949219 11.050781 11.050781v2.769532c0 6.105468-4.945312 11.054687-11.050781 11.054687zm0 0" fill="#dfede7"/><path d="m298.144531 6.574219c-.527343-4.125-4.308593-7.035157-8.425781-6.5156252l-69.980469 8.9531252c-2.585937.328125-4.820312 1.976562-5.898437 4.351562l-21.570313 47.414063c-1.945312-.351563-3.945312-.542969-5.988281-.542969-7.011719 0-13.679688 2.125-19.296875 6.078125-4.203125-2.195312-8.800781-3.457031-13.597656-3.71875.011719-.332031.015625-.664062.015625-.992188 0-18.570312-15.105469-33.679687-33.675782-33.679687-12.722656 0-24.230468 7.320313-29.921874 18.261719-2.675782-.671875-5.433594-1.019532-8.207032-1.019532-16.757812 0-30.699218 12.304688-33.257812 28.355469-8.472656 3.234375-15.320313 9.78125-18.925782 18.109375-16.320312 2.324219-28.914062 16.390625-28.914062 33.34375 0 15.820313 10.96875 29.121094 25.699219 32.714844.027343.339844.058593.691406.089843 1.050781 1.921876 22.242188 6.359376 66.515625 14.570313 115.0625.054687.316407.109375.636719.164063.957031.175781 1.046876.355468 2.09375.539062 3.144532.105469.605468.210938 1.207031.316406 1.8125.152344.875.304688 1.75.457032 2.628906.164062.910156.328124 1.828125.488281 2.742188.109375.605468.21875 1.207031.328125 1.816406.589844 3.277344 1.203125 6.5625 1.828125 9.855468.027343.125.050781.25.074219.375.296874 1.566407.601562 3.136719.910156 4.703126.027344.144531.054687.289062.082031.433593 6.753906 34.421875 15.425781 69.113281 26.441406 98.289063.050781.132812.101563.261718.152344.394531.46875 1.238281.945313 2.46875 1.421875 3.6875.109375.28125.222656.5625.332031.839844.429688 1.089843.867188 2.171875 1.304688 3.242187.125.304688.246093.613282.375.914063.457031 1.117187.921875 2.222656 1.390625 3.316406.089844.21875.183594.4375.277344.652344 1.113281 2.597656 2.253906 5.136719 3.414062 7.613281.167969.363281.339844.71875.511719 1.082031.402343.84375.804687 1.683594 1.210937 2.511719.210938.433594.425782.863281.640625 1.292969.375.757812.753907 1.507812 1.136719 2.25.222656.433593.445312.867187.667969 1.292969.402343.769531.808593 1.527343 1.214843 2.285156.199219.367187.394532.738281.59375 1.105468.605469 1.101563 1.214844 2.191407 1.832032 3.261719l1.761718 5.089844c-4.296874 3.410156-7.0625 8.660156-7.0625 14.554687v2.773438c0 4.6875 1.761719 8.96875 4.636719 12.242188-.914062.625-1.894531 1.175781-2.949219 1.609374l-31.929687 13.167969c-6.042969 2.492188-9.945313 8.191407-9.945313 14.519531 0 6.472657 5.410157 11.742188 12.066407 11.742188h137.457031c6.65625 0 12.066406-5.269531 12.066406-11.742188 0-6.328124-3.902344-12.027343-9.945312-14.519531-.003906 0-.003906 0-.003906 0l-31.921876-13.167969c-1.058593-.433593-2.039062-.984374-2.953124-1.609374 2.878906-3.273438 4.636718-7.554688 4.636718-12.242188v-2.773438c0-5.894531-2.765625-11.148437-7.0625-14.554687l1.761719-5.089844c5.710937-9.910156 11.214844-21.824219 16.367187-35.425781 1.472657-3.886719-.484374-8.234375-4.375-9.707031-3.882812-1.472657-8.238281.480469-9.710937 4.375-4.957031 13.089843-10.21875 24.445312-15.632813 33.757812-.003906.007813-.007812.015625-.011718.023438-.007813.011719-.015625.027343-.023438.039062-.039062.070313-.070312.140625-.109375.210938-.074219.140625-.152343.28125-.222656.425781-.101563.226562-.195313.453125-.277344.691406l-2.308593 6.671875h-38l-2.3125-6.671875c-.160157-.460937-.363282-.90625-.605469-1.328125-.589844-1.011719-1.171875-2.042969-1.75-3.089843-.195313-.347657-.382813-.707032-.574219-1.054688-.386719-.710938-.769531-1.421875-1.152344-2.144531-.222656-.425781-.445312-.855469-.667968-1.285157-.34375-.664062-.683594-1.335937-1.027344-2.015624-.230469-.460938-.460938-.925782-.691406-1.394532-.332032-.667968-.65625-1.339844-.980469-2.015625-.230469-.480469-.460938-.960937-.691407-1.449219-.328124-.695312-.652343-1.402343-.976562-2.109374-.21875-.472657-.4375-.941407-.652344-1.421876-.40625-.902343-.808594-1.816406-1.207031-2.734374-.339844-.773438-.671875-1.554688-1.007813-2.335938-.277343-.65625-.554687-1.308594-.832031-1.96875-.28125-.679688-.5625-1.371094-.839843-2.058594-.21875-.535156-.4375-1.074218-.65625-1.613281-.296876-.746094-.59375-1.496094-.886719-2.25-.1875-.480469-.375-.960937-.5625-1.445313-.3125-.8125-.625-1.628906-.933594-2.453124-.148437-.394532-.296875-.792969-.445313-1.191407-.339843-.914062-.679687-1.835937-1.019531-2.761719-.0625-.175781-.121093-.351562-.1875-.523437-21.636719-59.980469-33.714843-142.816406-39.738281-196.71875h98.757812.039063.027344 59.957031c-4.972656 44.214844-14.59375 112.691406-30.988281 169.429687-1.15625 3.992188 1.148437 8.171876 5.144531 9.324219 3.996094 1.15625 8.171875-1.148437 9.324219-5.144531 7.347656-25.429688 25.34375-96.09375 34.960937-206.382812.113282-1.273438.214844-2.460938.304688-3.527344.046875-.519532.058594-1.039063.058594-1.554688 11.453124-5.382812 19.40625-17.027344 19.40625-30.496094 0-14.199218-9.035157-26.714843-21.914063-31.550781-.15625-10.957031-5.574219-20.667969-13.835937-26.707031l19.695312-43.296875 65.816406-8.417969c4.125-.53125 7.042969-4.300781 6.515625-8.429687zm-199.414062 449.371093c0-1.699218 1.207031-3.117187 2.808593-3.449218.230469-.046875.46875-.070313.710938-.070313h44.046875c.242187 0 .480469.023438.710937.070313 1.601563.332031 2.808594 1.75 2.808594 3.449218v2.769532c0 1.648437-1.136718 3.023437-2.667968 3.40625-.109376.027344-.210938.042968-.3125.0625-.175782.027344-.355469.054687-.539063.054687h-44.046875c-.183594 0-.363281-.027343-.539062-.054687-.101563-.019532-.203126-.035156-.3125-.0625-1.53125-.382813-2.667969-1.757813-2.667969-3.40625zm-7.632813 30.550782c4.871094-2.007813 9.097656-5.199219 12.269532-9.195313h41.8125c3.171874 3.996094 7.398437 7.1875 12.273437 9.195313l25.316406 10.441406h-116.988281zm47.730469-308.234375h-95.5625c-.808594-7.917969-1.425781-14.605469-1.863281-19.609375h106.347656zm-104.195313-34.671875h-.453124c-10.265626 0-18.617188-8.351563-18.617188-18.617188s8.351562-18.617187 18.617188-18.617187l.523437.019531c3.558594.074219 6.695313-2.300781 7.53125-5.757812 1.714844-7.097657 7.457031-12.558594 14.625-13.914063 3.613281-.679687 6.203125-3.871094 6.132813-7.542969l-.011719-.316406c0-10.265625 8.351562-18.617188 18.617187-18.617188 3.128906 0 6.230469.800782 8.960938 2.308594 2.078125 1.148438 4.574218 1.25 6.738281.273438 2.164063-.976563 3.742187-2.917969 4.257813-5.234375 1.871093-8.453125 9.511718-14.589844 18.167968-14.589844 10.265625 0 18.617188 8.351563 18.617188 18.617187 0 2.332032-.433594 4.621094-1.292969 6.796876-1.054687 2.679687-.492187 5.726562 1.457031 7.851562 1.949219 2.121094 4.9375 2.949219 7.695313 2.128906 1.726562-.515625 3.507812-.773437 5.296875-.773437 4.1875 0 8.148437 1.367187 11.453125 3.960937 3.023437 2.371094 7.347656 2.085938 10.03125-.660156 3.394531-3.464844 7.871093-5.417969 12.667969-5.578125l-31.050782 68.261719zm172.375 16.632812c-.429687 4.835938-1.003906 10.929688-1.730468 18.039063h-49.902344l8.921875-19.609375h42.847656c-.042969.5-.089843 1.035156-.136719 1.570312zm3.835938-53.671875c9.097656 1.300781 15.960938 9.222657 15.960938 18.421875 0 8.953125-6.355469 16.445313-14.789063 18.214844-.605469.128906-1.21875.222656-1.832031.289062-.019532.003907-.039063.007813-.058594.011719-.644531.066407-1.292969.101563-1.933594.101563h-37.042968l28.484374-62.621094c3.25 3.355469 5.261719 7.914062 5.261719 12.941406 0 1.238282-.125 2.480469-.367187 3.695313-.410156 2.027343.035156 4.140625 1.230468 5.832031 1.195313 1.695312 3.035157 2.820312 5.085938 3.113281zm0 0"/><path d="m116.742188 226.628906v98.332032c0 4.160156 3.371093 7.53125 7.53125 7.53125 4.160156 0 7.53125-3.371094 7.53125-7.53125v-98.332032c0-4.160156-3.371094-7.53125-7.53125-7.53125-4.160157 0-7.53125 3.371094-7.53125 7.53125zm0 0"/><path d="m171.027344 219.097656c-4.160156 0-7.53125 3.371094-7.53125 7.53125 0 31.96875-6.753906 74.5-10.78125 97.007813-.730469 4.09375 1.992187 8.007812 6.089844 8.738281.449218.082031.894531.121094 1.335937.121094 3.578125 0 6.75-2.5625 7.402344-6.207032 5.027343-28.09375 11.015625-68.1875 11.015625-99.660156 0-4.160156-3.371094-7.53125-7.53125-7.53125zm0 0"/><path d="m81.105469 326.84375c.65625 3.640625 3.828125 6.191406 7.402343 6.191406.441407 0 .894532-.039062 1.347657-.121094 4.09375-.742187 6.8125-4.660156 6.070312-8.753906-2.964843-16.359375-5.375-31.96875-7.167969-46.394531-.515624-4.125-4.277343-7.058594-8.402343-6.542969-4.128907.515625-7.058594 4.277344-6.546875 8.402344 1.828125 14.703125 4.285156 30.585938 7.296875 47.21875zm0 0"/><path d="m78.449219 251.324219c4.15625-.230469 7.332031-3.785157 7.101562-7.9375-.332031-5.957031-.5-11.59375-.5-16.757813 0-4.160156-3.371093-7.53125-7.53125-7.53125-4.160156 0-7.53125 3.371094-7.53125 7.53125 0 5.441406.175781 11.359375.523438 17.59375.222656 4.011719 3.542969 7.113282 7.511719 7.113282.144531 0 .285156-.003907.425781-.011719zm0 0"/></svg>