<?xml version="1.0" encoding="UTF-8" standalone="no"?>
<!-- Generator: Adobe Illustrator 16.0.0, SVG Export Plug-In . SVG Version: 6.00 Build 0)  -->

<svg
   xmlns:dc="http://purl.org/dc/elements/1.1/"
   xmlns:cc="http://creativecommons.org/ns#"
   xmlns:rdf="http://www.w3.org/1999/02/22-rdf-syntax-ns#"
   xmlns:svg="http://www.w3.org/2000/svg"
   xmlns="http://www.w3.org/2000/svg"
   xmlns:sodipodi="http://sodipodi.sourceforge.net/DTD/sodipodi-0.dtd"
   xmlns:inkscape="http://www.inkscape.org/namespaces/inkscape"
   version="1.1"
   id="Capa_1"
   x="0px"
   y="0px"
   width="426.66666"
   height="426.66666"
   viewBox="0 0 400 400"
   xml:space="preserve"
   inkscape:version="0.92.1 r15371"
   sodipodi:docname="icon_position.svg"><metadata
     id="metadata41"><rdf:RDF><cc:Work
         rdf:about=""><dc:format>image/svg+xml</dc:format><dc:type
           rdf:resource="http://purl.org/dc/dcmitype/StillImage" /><dc:title /></cc:Work></rdf:RDF></metadata><defs
     id="defs39" /><sodipodi:namedview
     pagecolor="#ffffff"
     bordercolor="#666666"
     borderopacity="1"
     objecttolerance="10"
     gridtolerance="10"
     guidetolerance="10"
     inkscape:pageopacity="0"
     inkscape:pageshadow="2"
     inkscape:window-width="926"
     inkscape:window-height="1027"
     id="namedview37"
     showgrid="false"
     inkscape:zoom="0.54535033"
     inkscape:cx="195.36285"
     inkscape:cy="129.7875"
     inkscape:window-x="992"
     inkscape:window-y="24"
     inkscape:window-maximized="0"
     inkscape:current-layer="Capa_1" /><g
     id="g3"
     transform="matrix(0.65677966,0,0,0.65677966,0.02963009,0.64406784)"
     style="fill:#006680;fill-opacity:1"><path
       d="m 371.718,338.58 44.566,-99.29 -99.289,44.565 c -20.535,-3.406 -42.361,2.734 -58.17,18.543 -15.809,15.809 -21.949,37.635 -18.543,58.17 l -44.565,99.289 99.29,-44.565 c 20.535,3.405 42.36,-2.735 58.169,-18.544 15.809,-15.809 21.949,-37.634 18.542,-58.168 z m -49.872,26.839 c -8.737,8.737 -22.954,8.737 -31.69,0 -8.736,-8.737 -8.737,-22.954 0,-31.69 8.737,-8.736 22.954,-8.736 31.69,0 8.736,8.737 8.736,22.954 0,31.69 z M 306,477.347 321.509,511.876 H 290.49 Z m 0,-255.726 -15.509,-34.53 h 31.019 z m 127.863,127.863 34.529,-15.509 v 31.019 z m -255.725,0 -34.53,15.509 V 333.974 Z M 367.728,94.55 c 3.658,-8.302 5.726,-17.456 5.726,-27.094 C 373.453,30.263 343.193,0 306,0 c -37.193,0 -67.453,30.263 -67.453,67.456 0,9.639 2.067,18.792 5.725,27.094 C 129.267,122.393 43.574,226.136 43.574,349.574 43.574,494.275 161.297,612 306,612 450.703,612 568.426,494.274 568.426,349.574 568.426,226.136 482.733,122.393 367.728,94.55 Z M 279.779,67.456 c 0,-14.461 11.764,-26.224 26.221,-26.224 14.458,0 26.222,11.763 26.222,26.224 0,8.204 -3.863,15.448 -9.778,20.26 -5.444,-0.338 -10.916,-0.567 -16.443,-0.567 -5.527,0 -10.999,0.229 -16.442,0.567 -5.917,-4.812 -9.78,-12.056 -9.78,-20.26 z M 306,540.368 c -105.204,0 -190.795,-85.593 -190.795,-190.795 0,-105.202 85.591,-190.794 190.795,-190.794 105.204,0 190.795,85.593 190.795,190.795 0,105.202 -85.591,190.794 -190.795,190.794 z"
       id="path5"
       inkscape:connector-curvature="0"
       style="fill:#006680;fill-opacity:1" /></g><g
     id="g7"
     transform="translate(0,-212)" /><g
     id="g9"
     transform="translate(0,-212)" /><g
     id="g11"
     transform="translate(0,-212)" /><g
     id="g13"
     transform="translate(0,-212)" /><g
     id="g15"
     transform="translate(0,-212)" /><g
     id="g17"
     transform="translate(0,-212)" /><g
     id="g19"
     transform="translate(0,-212)" /><g
     id="g21"
     transform="translate(0,-212)" /><g
     id="g23"
     transform="translate(0,-212)" /><g
     id="g25"
     transform="translate(0,-212)" /><g
     id="g27"
     transform="translate(0,-212)" /><g
     id="g29"
     transform="translate(0,-212)" /><g
     id="g31"
     transform="translate(0,-212)" /><g
     id="g33"
     transform="translate(0,-212)" /><g
     id="g35"
     transform="translate(0,-212)" /></svg>