<?xml version="1.0" encoding="UTF-8" standalone="no"?>
<svg
   xmlns:dc="http://purl.org/dc/elements/1.1/"
   xmlns:cc="http://creativecommons.org/ns#"
   xmlns:rdf="http://www.w3.org/1999/02/22-rdf-syntax-ns#"
   xmlns:svg="http://www.w3.org/2000/svg"
   xmlns="http://www.w3.org/2000/svg"
   xmlns:sodipodi="http://sodipodi.sourceforge.net/DTD/sodipodi-0.dtd"
   xmlns:inkscape="http://www.inkscape.org/namespaces/inkscape"
   version="1.1"
   viewBox="0 0 16.40625 16.40625"
   enable-background="new 0 0 21 21"
   width="426.66666"
   height="426.66666"
   id="svg2"
   inkscape:version="0.92.1 r15371"
   sodipodi:docname="icon_print_order.svg">
  <metadata
     id="metadata18">
    <rdf:RDF>
      <cc:Work
         rdf:about="">
        <dc:format>image/svg+xml</dc:format>
        <dc:type
           rdf:resource="http://purl.org/dc/dcmitype/StillImage" />
        <dc:title />
      </cc:Work>
    </rdf:RDF>
  </metadata>
  <defs
     id="defs16" />
  <sodipodi:namedview
     pagecolor="#ffffff"
     bordercolor="#666666"
     borderopacity="1"
     objecttolerance="10"
     gridtolerance="10"
     guidetolerance="10"
     inkscape:pageopacity="0"
     inkscape:pageshadow="2"
     inkscape:window-width="926"
     inkscape:window-height="1027"
     id="namedview14"
     showgrid="false"
     inkscape:zoom="0.4609375"
     inkscape:cx="206.10169"
     inkscape:cy="256"
     inkscape:window-x="992"
     inkscape:window-y="24"
     inkscape:window-maximized="0"
     inkscape:current-layer="svg2" />
  <g
     id="g4"
     style="fill:#006680;fill-opacity:1"
     transform="matrix(0.7881356,0,0,0.68451426,0.08898305,1.3114962)">
    <path
       d="m 15,13 c -1.657,0 -3,1.343 -3,3 0,1.657 1.343,3 3,3 1.657,0 3,-1.343 3,-3 0,-1.657 -1.343,-3 -3,-3 z m 0,4 c -0.552,0 -1,-0.448 -1,-1 0,-0.552 0.448,-1 1,-1 0.552,0 1,0.448 1,1 0,0.552 -0.448,1 -1,1 z"
       id="path6"
       style="fill:#006680;fill-opacity:1"
       inkscape:connector-curvature="0" />
    <path
       d="m 0,13 v 2 H 1.184 C 1.072,15.314 1,15.647 1,16 1,17.657 2.343,19 4,19 5.657,19 7,17.657 7,16 7,14.49 5.88,13.253 4.428,13.043 4.615,13.016 4.805,13 5,13 Z m 5,3 c 0,0.552 -0.448,1 -1,1 -0.552,0 -1,-0.448 -1,-1 0,-0.552 0.448,-1 1,-1 0.552,0 1,0.448 1,1 z"
       id="path8"
       style="fill:#006680;fill-opacity:1"
       inkscape:connector-curvature="0" />
    <path
       d="M 20.014,15.003 C 20.031,13.589 20.052,11.054 20,10 19.908,8.126 19.068,6.421 18,4.999 v 0 C 17.999,4.447 17.552,4 17,4 h -5 c -0.552,0 -1,0.448 -1,1 v 8 H 5 c 1.474,0 2.75,0.81 3.444,2 h 0.142 c 0.905,0 1.774,0.36 2.414,1 h 0.142 c 0.447,-1.72 2,-3 3.858,-3 2.206,0 4,1.794 4,4 h 1 c 0.552,0 1,-0.448 1,-1 0,-0.547 -0.441,-0.989 -0.986,-0.997 z M 17.477,9 H 14 V 5 h 2.528 c 0.159,0 0.308,0.071 0.401,0.2 0.513,0.71 1.217,1.827 1.484,2.446 C 18.69,8.288 18.177,9 17.477,9 Z"
       id="path10"
       style="fill:#006680;fill-opacity:1"
       inkscape:connector-curvature="0" />
    <path
       d="M 9,2 H 1 C 0.448,2 0,2.448 0,3 v 9 c 0,0.552 0.448,1 1,1 h 8 c 0.552,0 1,-0.448 1,-1 V 3 C 10,2.448 9.552,2 9,2 Z"
       id="path12"
       style="fill:#006680;fill-opacity:1"
       inkscape:connector-curvature="0" />
  </g>
</svg>
