<?xml version="1.0" encoding="UTF-8" standalone="no"?>
<!-- Generator: Adobe Illustrator 18.0.0, SVG Export Plug-In . SVG Version: 6.00 Build 0)  -->

<svg
   xmlns:dc="http://purl.org/dc/elements/1.1/"
   xmlns:cc="http://creativecommons.org/ns#"
   xmlns:rdf="http://www.w3.org/1999/02/22-rdf-syntax-ns#"
   xmlns:svg="http://www.w3.org/2000/svg"
   xmlns="http://www.w3.org/2000/svg"
   xmlns:sodipodi="http://sodipodi.sourceforge.net/DTD/sodipodi-0.dtd"
   xmlns:inkscape="http://www.inkscape.org/namespaces/inkscape"
   version="1.1"
   id="Capa_1"
   x="0px"
   y="0px"
   viewBox="0 0 399.99999 399.99999"
   xml:space="preserve"
   inkscape:version="0.92.1 r15371"
   sodipodi:docname="icon_print_sale.svg"
   width="426.66666"
   height="426.66666"><metadata
     id="metadata41"><rdf:RDF><cc:Work
         rdf:about=""><dc:format>image/svg+xml</dc:format><dc:type
           rdf:resource="http://purl.org/dc/dcmitype/StillImage" /><dc:title /></cc:Work></rdf:RDF></metadata><defs
     id="defs39" /><sodipodi:namedview
     pagecolor="#ffffff"
     bordercolor="#666666"
     borderopacity="1"
     objecttolerance="10"
     gridtolerance="10"
     guidetolerance="10"
     inkscape:pageopacity="0"
     inkscape:pageshadow="2"
     inkscape:window-width="926"
     inkscape:window-height="1027"
     id="namedview37"
     showgrid="false"
     inkscape:zoom="0.6705073"
     inkscape:cx="168.72603"
     inkscape:cy="323.19614"
     inkscape:window-x="992"
     inkscape:window-y="24"
     inkscape:window-maximized="0"
     inkscape:current-layer="Capa_1" /><g
     id="XMLID_43_"
     transform="matrix(0.80359529,0,0,0.80359529,1.4741706,-0.0010086)"
     style="fill:#006680;fill-opacity:1"><path
       id="XMLID_46_"
       d="M 403.22,109.799 H 391.597 V 16.956 C 391.596,7.592 384.003,0 374.64,0 H 123.134 c -9.365,0 -16.956,7.592 -16.956,16.956 v 92.843 H 94.545 c -25.575,0 -46.307,20.732 -46.307,46.305 v 127.583 c 0,25.575 20.732,46.306 46.307,46.306 h 11.633 v 150.814 c 0,9.363 7.591,16.956 16.956,16.956 H 374.64 c 9.363,0 16.956,-7.593 16.956,-16.956 V 329.994 h 11.623 c 25.575,0 46.307,-20.732 46.307,-46.306 V 156.104 c 0,-25.573 -20.731,-46.305 -46.306,-46.305 z M 115.707,287.72 c -3.402,0 -6.616,-0.77 -9.529,-2.078 -8.115,-3.652 -13.785,-11.766 -13.785,-21.237 0,-9.471 5.67,-17.585 13.785,-21.237 2.914,-1.308 6.127,-2.078 9.529,-2.078 12.873,0 23.314,10.44 23.314,23.314 0,12.876 -10.441,23.316 -23.314,23.316 z M 357.684,463.852 H 140.09 V 329.994 h 217.595 v 133.858 z m 0,-354.053 H 140.09 V 33.911 h 217.595 v 75.888 z"
       inkscape:connector-curvature="0"
       style="fill:#006680;fill-opacity:1" /><path
       id="XMLID_45_"
       d="m 186.709,382.235 h 124.347 c 7.021,0 12.717,-5.696 12.717,-12.717 0,-7.02 -5.696,-12.717 -12.717,-12.717 H 186.709 c -7.021,0 -12.717,5.697 -12.717,12.717 -10e-4,7.022 5.695,12.717 12.717,12.717 z"
       inkscape:connector-curvature="0"
       style="fill:#006680;fill-opacity:1" /><path
       id="XMLID_44_"
       d="m 186.709,433.103 h 124.347 c 7.021,0 12.717,-5.695 12.717,-12.717 0,-7.02 -5.696,-12.717 -12.717,-12.717 H 186.709 c -7.021,0 -12.717,5.697 -12.717,12.717 -10e-4,7.022 5.695,12.717 12.717,12.717 z"
       inkscape:connector-curvature="0"
       style="fill:#006680;fill-opacity:1" /></g><g
     id="g7"
     transform="translate(0,-97.764008)" /><g
     id="g9"
     transform="translate(0,-97.764008)" /><g
     id="g11"
     transform="translate(0,-97.764008)" /><g
     id="g13"
     transform="translate(0,-97.764008)" /><g
     id="g15"
     transform="translate(0,-97.764008)" /><g
     id="g17"
     transform="translate(0,-97.764008)" /><g
     id="g19"
     transform="translate(0,-97.764008)" /><g
     id="g21"
     transform="translate(0,-97.764008)" /><g
     id="g23"
     transform="translate(0,-97.764008)" /><g
     id="g25"
     transform="translate(0,-97.764008)" /><g
     id="g27"
     transform="translate(0,-97.764008)" /><g
     id="g29"
     transform="translate(0,-97.764008)" /><g
     id="g31"
     transform="translate(0,-97.764008)" /><g
     id="g33"
     transform="translate(0,-97.764008)" /><g
     id="g35"
     transform="translate(0,-97.764008)" /></svg>