<?xml version="1.0" encoding="utf-8"?>
<!-- Generator: Adobe Illustrator 22.0.1, SVG Export Plug-In . SVG Version: 6.00 Build 0)  -->
<svg version="1.1"
	 id="Capa_1" inkscape:version="0.92.1 r15371" sodipodi:docname="icon_new_sale.svg" xmlns:cc="http://creativecommons.org/ns#" xmlns:dc="http://purl.org/dc/elements/1.1/" xmlns:inkscape="http://www.inkscape.org/namespaces/inkscape" xmlns:rdf="http://www.w3.org/1999/02/22-rdf-syntax-ns#" xmlns:sodipodi="http://sodipodi.sourceforge.net/DTD/sodipodi-0.dtd" xmlns:svg="http://www.w3.org/2000/svg"
	 xmlns="http://www.w3.org/2000/svg" xmlns:xlink="http://www.w3.org/1999/xlink" x="0px" y="0px" viewBox="0 0 340.8 311.5"
	 style="enable-background:new 0 0 340.8 311.5;" xml:space="preserve">
<style type="text/css">
	.st0{fill:#006680;}
</style>
<sodipodi:namedview  bordercolor="#666666" borderopacity="1" gridtolerance="10" guidetolerance="10" id="namedview37" inkscape:current-layer="Capa_1" inkscape:cx="121.69628" inkscape:cy="206.54733" inkscape:pageopacity="0" inkscape:pageshadow="2" inkscape:window-height="1056" inkscape:window-maximized="1" inkscape:window-width="1855" inkscape:window-x="65" inkscape:window-y="24" inkscape:zoom="1.0907007" objecttolerance="10" pagecolor="#ffffff" showgrid="false">
	</sodipodi:namedview>
<g id="g7" transform="translate(0,-212)">
</g>
<g id="g9" transform="translate(0,-212)">
</g>
<g id="g11" transform="translate(0,-212)">
</g>
<g id="g13" transform="translate(0,-212)">
</g>
<g id="g15" transform="translate(0,-212)">
</g>
<g id="g17" transform="translate(0,-212)">
</g>
<g id="g19" transform="translate(0,-212)">
</g>
<g id="g21" transform="translate(0,-212)">
</g>
<g id="g23" transform="translate(0,-212)">
</g>
<g id="g25" transform="translate(0,-212)">
</g>
<g id="g27" transform="translate(0,-212)">
</g>
<g id="g29" transform="translate(0,-212)">
</g>
<g id="g31" transform="translate(0,-212)">
</g>
<g id="g33" transform="translate(0,-212)">
</g>
<g>
	<path class="st0" d="M19.9,241.2c-4.6-5.7-8.2-10.6-10.9-16.1c-3.2-6.7-5-13.6-4.9-21c0.1-19.4,1.4-38.6,7.9-57.2
		c3.8-10.8,9.3-20.5,17.2-28.8c0.4-0.4,1.1-0.8,0.9-1.9c-9-1.8-16.3-6.5-21.3-14.5C5,95.7,3.7,89,4.3,82C5.8,66.8,16.5,56.9,35,53.9
		c2-17.1,10.8-28.4,28.5-30.6c13.4-1.7,25.5,5.6,31.2,17.5c5.9,12.6,3.4,25.6-7.8,37.2c4.1,3.9,8.2,7.8,12.3,11.8
		c1.5,1.4,3.1,0.9,4.8,0.9c67.5-0.5,130.5,15.4,188.1,51c15.1,9.3,28.3,21.1,37.3,36.9c11.2,19.7,9.5,39.5-4.8,57.7
		c-1.1,1.4-2.2,2.8-3.9,4.9c3.8,0,6.9,0,9.9,0c2.4,0,4.4,0.5,5.5,2.9c1.1,2.4,0.6,4.5-1.3,6.4c-10.2,10.2-20.4,20.4-30.6,30.6
		c-1.8,1.8-3.9,1.8-6.1,1.8c-71,0-142,0-213.1,0c-14.3,0-28.6-0.1-42.8,0c-2.7,0-4.7-0.8-6.6-2.7C26.1,270.5,16.6,261,7,251.5
		c-2.1-2-3.6-4.2-2.4-7.2c1.2-2.9,3.8-3.2,6.5-3.1C13.7,241.2,16.2,241.2,19.9,241.2z M212.5,241.2c1.1,0,2.2,0,3.4,0
		c25.3,0,50.7-0.8,75.9,0.4c12.3,0.6,19.8-4.2,25.9-13.6c1.6-2.5,3.3-5,4.6-7.6c4.5-8.9,5.1-18.1,2-27.5c-2.7-8.2-7.3-15.1-13-21.4
		c-12.2-13.5-27.1-23.4-43-31.7c-44.1-22.7-91.1-34.9-140.5-38.3c-5.4-0.4-10.9-0.1-16.9-0.1c12.9,13.1,27.1,23.2,43.1,30.7
		c13.5,6.4,27.9,10.3,42,15.1c26.9,9.1,42.1,36.7,35.3,64.1C228.1,223.1,221.6,232.7,212.5,241.2z M147,241.2
		c-2.6-2.5-4.7-4.3-6.6-6.2c-8.3-8.3-11.9-18.9-15.3-29.8c-6.2-20.1-13.6-39.7-26.3-56.8c-10.4-14.1-23.5-25.5-35.5-38.1
		c-1.5-1.6-2.8-0.8-4.1-0.2c-16.4,7-28.2,18.6-35.2,35c-5,11.7-7.3,24-8.4,36.6c-0.8,8.9-1.7,17.9-0.7,26.8
		c1.5,12.5,8.9,21.8,17.6,30.3c1.8,1.8,3.7,2.5,6.2,2.4c32.4-0.1,64.9,0,97.3,0C139.3,241.2,142.7,241.2,147,241.2z M94.8,127
		c14.1,15.2,25,32.2,32.2,51.3c4.3,11.4,7.8,23.1,11.9,34.5c6.4,17.8,24.3,29.5,42.8,28.2c17.9-1.2,33-12.8,38.5-29.3
		c5.6-16.9,0.5-34.7-13-46.6c-7.4-6.5-16.6-8.9-25.6-11.7c-21-6.5-41.3-14.6-59-28.1c-4.9-3.7-9.6-7.7-14.4-11.5
		C103.6,118.2,99.3,122.5,94.8,127z M318.4,251.9c-98.9,0-197.2,0-296.3,0c3.8,3.6,7.4,6.4,10,9.9c6.6,8.8,14.9,12.5,25.8,10.6
		c0.8-0.1,1.6,0,2.3,0c78,0,156,0,234.1,0c1.5,0,3.2,0.6,4.4-0.7C305.1,265.1,311.6,258.7,318.4,251.9z M100.8,106.2
		c-8.1-8-15.6-15.7-23.3-23.2c-5.6-5.5-5.4-7.6,0.9-12.1c8.3-5.7,11.2-17,6.7-25.9C80.4,35.7,70,31.3,60.2,34.4
		c-9.7,3.1-15.8,13.1-14.1,23.1c1.1,6.1-1.3,8.4-7.6,7.3c-9.8-1.6-19.8,4.4-22.9,14C12.4,88.8,17,99.5,26.4,104
		c9.1,4.4,20.1,1.5,25.9-6.9c4.2-6.1,6.5-6.3,11.8-0.9c7.7,7.7,15.3,15.4,23,23.2c0.7-0.6,1.1-0.8,1.5-1.2
		C92.5,114.3,96.5,110.4,100.8,106.2z"/>
	<path class="st0" d="M180.7,79.9c0.3-4.6,2-8,5.1-10.7c1.4-1.2,2.7-2.4,4-3.7c1.7-1.8,1.7-3.7,0-5.5c-1.2-1.2-2.5-2.2-3.7-3.4
		c-7.2-6.8-7.3-15.7,0.1-22.4c2.5-2.3,5-4.2,5.5-8c0.4-2.6,3-3.5,5.5-3.1c2.6,0.4,4.2,2.1,4.3,4.7c0.3,4.3-1.4,7.8-4.5,10.8
		c-1,1-2.1,1.9-3.2,2.8c-3.6,3.2-3.7,5.1,0.1,8.2c3.9,3.2,7.2,6.7,7.6,12.1c0.4,5.6-2.2,9.7-6.3,13.1c-2,1.6-3.9,3.2-4.2,6.2
		c-0.4,3.1-2.7,4.7-5.9,4.2C182,84.8,180.7,82.5,180.7,79.9z"/>
	<path class="st0" d="M170.4,29c-0.1,4.3-2.2,7.6-5.3,10.5c-1.1,1.1-2.4,2-3.5,3.1c-2,2-2,4.1,0,6.1c1.1,1.1,2.4,2,3.5,3.1
		c7.1,6.6,7.2,15.6,0.2,22.1c-2.6,2.4-5.2,4.4-5.8,8.3c-0.4,2.6-2.9,3.6-5.5,3.2c-3-0.5-4.5-2.6-4.4-5.5c0.1-3.3,1.2-6.4,3.4-8.9
		c1-1.1,2-2,3.1-2.9c5.2-4.6,5.2-5.6,0-10.2c-9-7.9-8.8-16.8,0.4-24.7c1.8-1.5,3.4-3,3.7-5.7c0.4-3.3,2.7-4.6,5.8-4.3
		C169.3,23.5,170.5,25.9,170.4,29z"/>
	<path class="st0" d="M232.7,28.8c-0.1,4.3-2.1,7.7-5.1,10.5c-1.1,1-2.4,2-3.5,3.1c-2.2,2.1-2.2,4.3,0,6.4c1.2,1.1,2.6,2.2,3.8,3.3
		c6.5,6.3,6.6,15,0.2,21.3c-2.6,2.6-5.7,4.6-6.3,8.9c-0.4,2.5-3,3.5-5.6,3c-3-0.6-4.4-2.7-4.2-5.7c0.2-4.4,2.2-7.9,5.5-10.8
		c6.6-5.9,6.5-6,0.1-12c-7.5-7-7.5-16.1,0.3-22.9c2.4-2.1,4.5-3.9,5-7.4c0.4-2.8,3-3.8,5.8-3.3C231.6,23.7,232.8,25.8,232.7,28.8z"
		/>
	<path class="st0" d="M182.7,168.7c15.1,0.1,29.9,14.1,29.1,31.3c-0.1,3-2.1,4.8-5.1,4.7c-3.4-0.1-5-2.2-5.2-5.5
		c-0.8-10.1-6.4-17.2-15.4-19.6c-1.7-0.5-3.6-0.4-5.4-0.7c-2.5-0.5-5.3-1.4-4.7-4.5c0.5-2.5,0.7-6.4,5.2-5.6
		C181.7,168.9,182.2,168.8,182.7,168.7z"/>
</g>
</svg>
