<?xml version="1.0" encoding="utf-8"?>
<!-- Generator: Adobe Illustrator 16.0.0, SVG Export Plug-In . SVG Version: 6.00 Build 0)  -->
<!DOCTYPE svg PUBLIC "-//W3C//DTD SVG 1.1//EN" "http://www.w3.org/Graphics/SVG/1.1/DTD/svg11.dtd">
<svg version="1.1" id="Capa_1" xmlns="http://www.w3.org/2000/svg" xmlns:xlink="http://www.w3.org/1999/xlink" x="0px" y="0px"
	 width="609.449px" height="609.449px" viewBox="0 0 609.449 609.449" enable-background="new 0 0 609.449 609.449"
	 xml:space="preserve">
<g>
	<path fill="#006680" d="M306.127,600.249c-87.01,0-174.019,0-261.028,0c-0.955,0-1.909,0.021-2.862-0.006
		c-6.818-0.185-8.581-1.961-8.641-8.769c-0.541-61.145-1.088-122.288-1.608-183.434c-0.443-52.137-0.855-104.273-1.276-156.41
		c-0.06-7.416-0.08-14.834-0.139-22.251c-0.04-5.172-2.185-7.304-7.375-7.325c-4.875-0.022-9.751,0.033-14.625-0.018
		c-4.865-0.05-7.275-2.398-7.282-7.21c-0.029-22.149-0.006-44.3-0.017-66.449c-0.002-5.284,3.013-8.316,7.521-10.287
		c34.371-15.031,68.745-30.055,103.109-45.1c38.919-17.04,77.831-34.096,116.745-51.147c23.811-10.433,47.613-20.882,71.432-31.293
		c4.521-1.976,9.021-1.718,13.537,0.269c24.088,10.597,48.192,21.152,72.301,31.703c49.086,21.479,98.179,42.936,147.262,64.419
		c23.815,10.425,47.604,20.91,71.423,31.327c4.895,2.141,7.314,5.648,7.294,11.092c-0.081,21.514-0.028,43.028-0.035,64.542
		c-0.002,6.041-2.149,8.134-8.313,8.146c-5.934,0.01-11.868-0.007-17.803,0.004c-5.702,0.012-7.602,1.916-7.602,7.625
		c-0.002,120.286-0.002,240.572-0.002,360.858c0,1.166,0.068,2.345-0.068,3.494c-0.446,3.724-2.435,5.704-6.156,6.129
		c-1.257,0.144-2.541,0.087-3.813,0.087C480.78,600.249,393.452,600.249,306.127,600.249z M96.718,571.823c0-1.743,0-3.104,0-4.463
		c0-91.466,0-182.932,0-274.397c0-7.785,2.042-9.859,9.714-9.859c133.437,0,266.874,0,400.311,0.012
		c1.369,0,2.757,0.059,4.101,0.294c3.243,0.569,4.96,2.651,5.312,5.86c0.139,1.259,0.103,2.539,0.103,3.81
		c0.005,91.36,0.005,182.721,0.005,274.081c0,1.451,0,2.904,0,4.612c9.748,0,19.157,0.124,28.558-0.073
		c2.98-0.063,4.716-2.256,5.148-5.194c0.215-1.456,0.133-2.961,0.133-4.442c0.005-119.979,0.003-239.954,0.005-359.932
		c0-1.166-0.048-2.335,0.032-3.496c0.25-3.593,2.151-5.749,5.771-5.884c7.083-0.263,14.183-0.161,21.269-0.386
		c4.738-0.151,6.651-2.248,6.681-6.977c0.044-6.677-0.07-13.355,0.039-20.031c0.085-5.293-2.195-8.793-7.077-10.878
		c-9.432-4.026-18.79-8.221-28.183-12.333c-41.241-18.061-82.484-36.114-123.726-54.173c-36.886-16.152-73.783-32.275-110.636-48.5
		c-5.307-2.335-10.275-2.329-15.565,0.064c-15.312,6.925-30.716,13.646-46.086,20.444c-46.884,20.738-93.771,41.473-140.653,62.216
		c-25.422,11.248-50.835,22.515-76.259,33.758c-4.347,1.922-6.481,5.155-6.426,9.955c0.082,7.101-0.016,14.203,0.036,21.303
		c0.029,4.034,1.956,6.154,5.946,6.306c4.656,0.178,9.323,0.104,13.985,0.117c7.117,0.02,9.109,1.961,9.174,8.998
		c0.258,27.764,0.533,55.529,0.765,83.293c0.438,52.457,0.876,104.916,1.269,157.374c0.299,39.955,0.527,79.91,0.796,119.864
		c0.008,1.161,0.011,2.343,0.223,3.477c0.606,3.265,2.574,5.117,5.889,5.148C77.001,571.882,86.636,571.823,96.718,571.823z
		 M288.277,446.023c-13.883,0-27.767-0.016-41.65,0.006c-6.326,0.009-8.169,1.83-8.184,8.119c-0.028,12.717-0.026,25.435,0,38.151
		c0.012,6.289,1.881,8.155,8.16,8.157c27.872,0.015,55.745,0.014,83.617,0.002c6.098-0.002,8.103-2.07,8.104-8.29
		c0.007-12.612,0.007-25.223,0.001-37.835c-0.003-6.362-1.966-8.306-8.398-8.31C316.043,446.018,302.16,446.023,288.277,446.023z
		 M169.776,427.39c13.988,0,27.976,0.008,41.964-0.004c6.15-0.005,8.14-2.012,8.147-8.235c0.014-12.611,0.012-25.222,0-37.831
		c-0.005-6.382-1.97-8.353-8.354-8.354c-27.763-0.008-55.527-0.008-83.29,0.001c-6.331,0.003-8.232,1.866-8.241,8.081
		c-0.017,12.716-0.014,25.434,0,38.148c0.007,6.27,1.914,8.187,8.13,8.188C142.013,427.396,155.895,427.39,169.776,427.39z
		 M170.207,445.936c-14.094,0-28.188-0.008-42.282,0.004c-5.774,0.004-7.854,1.83-7.892,7.429
		c-0.092,13.353-0.074,26.705-0.007,40.058c0.024,4.71,2.102,6.743,6.833,6.885c3.706,0.107,7.417,0.034,11.126,0.034
		c24.69,0.002,49.382,0.015,74.073-0.009c5.66-0.005,7.803-2.079,7.82-7.588c0.04-12.823,0.046-25.646-0.001-38.469
		c-0.024-6.492-1.933-8.34-8.342-8.342C197.759,445.932,183.982,445.936,170.207,445.936z M356.84,571.617
		c33.465,0,66.553,0,99.815,0c0-15.771,0.062-31.328-0.048-46.885c-0.026-3.64-2.472-5.669-6.298-5.674
		c-29.025-0.023-58.051-0.023-87.075,0c-3.967,0.004-6.334,2.092-6.356,5.946C356.787,540.462,356.84,555.917,356.84,571.617z
		 M338.135,571.673c0.078-0.6,0.176-1.003,0.176-1.405c0.011-14.828,0.051-29.658-0.01-44.487c-0.019-4.577-2.331-6.727-6.949-6.729
		c-28.389-0.012-56.775-0.007-85.165-0.005c-5.953,0-7.737,1.76-7.746,7.764c-0.021,13.664-0.006,27.329-0.006,40.993
		c0,1.239,0,2.479,0,3.869C271.785,571.673,304.801,571.673,338.135,571.673z M219.601,571.684c0.129-0.567,0.258-0.867,0.258-1.171
		c0.015-14.931,0.077-29.862-0.009-44.792c-0.026-4.631-2.324-6.668-6.989-6.67c-28.381-0.01-56.76-0.006-85.14-0.004
		c-5.909,0-7.709,1.796-7.718,7.813c-0.02,13.979-0.009,27.957,0.002,41.935c0.001,0.918,0.119,1.837,0.192,2.889
		C153.397,571.684,186.404,571.684,219.601,571.684z"/>
	<path fill="#006680" d="M252.217,195.128c12.501,0,25-0.013,37.501,0.006c5.718,0.008,7.947,2.194,7.958,7.828
		c0.023,13.031,0.026,26.062-0.002,39.091c-0.012,5.815-2.256,7.979-8.146,7.979c-25.106,0.004-50.213,0.004-75.319,0
		c-5.888-0.001-8.097-2.177-8.101-8.009c-0.012-12.924-0.011-25.847-0.001-38.771c0.005-5.962,2.1-8.109,7.973-8.118
		C226.793,195.115,239.506,195.128,252.217,195.128z"/>
	<path fill="#006680" d="M470.475,195.129c12.5,0,25.001-0.009,37.502,0.002c6.266,0.005,8.271,1.962,8.278,8.103
		c0.018,12.924,0.02,25.849,0,38.772c-0.01,5.951-2.11,8.025-8.053,8.025c-25.104,0.004-50.213,0.004-75.318,0
		c-5.992,0-8.046-2.031-8.051-7.963c-0.007-12.926-0.004-25.848,0-38.773c0.003-6.223,1.813-8.118,8.141-8.148
		C445.475,195.087,457.974,195.129,470.475,195.129z"/>
	<path fill="#006680" d="M142.826,195.129c12.292-0.001,24.582-0.026,36.873,0.008c6.866,0.02,8.598,1.816,8.598,8.69
		c0,12.819,0.007,25.642-0.003,38.461c-0.005,5.55-2.165,7.739-7.66,7.741c-25.43,0.008-50.858,0.009-76.288-0.001
		c-5.017-0.003-7.558-2.304-7.592-7.283c-0.093-13.455-0.079-26.913-0.01-40.368c0.024-4.808,2.514-7.218,7.303-7.233
		C116.974,195.103,129.9,195.13,142.826,195.129z"/>
	<path fill="#006680" d="M361.281,250.034c-12.71,0-25.422,0.008-38.132-0.003c-5.469-0.006-7.649-2.217-7.655-7.756
		c-0.012-13.135-0.012-26.27,0-39.403c0.005-5.464,1.947-7.684,7.335-7.699c25.846-0.073,51.692-0.059,77.538-0.006
		c4.104,0.008,6.527,2.437,6.554,6.592c0.082,13.876,0.086,27.752-0.005,41.627c-0.03,4.348-2.643,6.629-7.184,6.639
		C386.915,250.051,374.098,250.034,361.281,250.034z"/>
</g>
</svg>
