<?xml version="1.0" encoding="utf-8"?>
<!-- Generator: Adobe Illustrator 22.0.1, SVG Export Plug-In . SVG Version: 6.00 Build 0)  -->
<svg version="1.1"
	 id="Capa_1" inkscape:version="0.92.1 r15371" sodipodi:docname="icon_new_sale.svg" xmlns:cc="http://creativecommons.org/ns#" xmlns:dc="http://purl.org/dc/elements/1.1/" xmlns:inkscape="http://www.inkscape.org/namespaces/inkscape" xmlns:rdf="http://www.w3.org/1999/02/22-rdf-syntax-ns#" xmlns:sodipodi="http://sodipodi.sourceforge.net/DTD/sodipodi-0.dtd" xmlns:svg="http://www.w3.org/2000/svg"
	 xmlns="http://www.w3.org/2000/svg" xmlns:xlink="http://www.w3.org/1999/xlink" x="0px" y="0px" viewBox="0 0 340.8 311.5"
	 style="enable-background:new 0 0 340.8 311.5;" xml:space="preserve">
<style type="text/css">
	.st0{fill:#006680;}
	.st1{fill:#FEFEFE;}
</style>
<sodipodi:namedview  bordercolor="#666666" borderopacity="1" gridtolerance="10" guidetolerance="10" id="namedview37" inkscape:current-layer="Capa_1" inkscape:cx="121.69628" inkscape:cy="206.54733" inkscape:pageopacity="0" inkscape:pageshadow="2" inkscape:window-height="1056" inkscape:window-maximized="1" inkscape:window-width="1855" inkscape:window-x="65" inkscape:window-y="24" inkscape:zoom="1.0907007" objecttolerance="10" pagecolor="#ffffff" showgrid="false">
	</sodipodi:namedview>
<g id="g7" transform="translate(0,-212)">
</g>
<g id="g9" transform="translate(0,-212)">
</g>
<g id="g11" transform="translate(0,-212)">
</g>
<g id="g13" transform="translate(0,-212)">
</g>
<g id="g15" transform="translate(0,-212)">
</g>
<g id="g17" transform="translate(0,-212)">
</g>
<g id="g19" transform="translate(0,-212)">
</g>
<g id="g21" transform="translate(0,-212)">
</g>
<g id="g23" transform="translate(0,-212)">
</g>
<g id="g25" transform="translate(0,-212)">
</g>
<g id="g27" transform="translate(0,-212)">
</g>
<g id="g29" transform="translate(0,-212)">
</g>
<g id="g31" transform="translate(0,-212)">
</g>
<g id="g33" transform="translate(0,-212)">
</g>
<path class="st0" d="M176.5,311.3c-1.9,0-3.8,0-5.7,0c-0.4-0.1-0.9-0.1-1.3-0.2c-8.2-0.1-16.3-1-24.3-2.5
	c-19.9-3.8-38.4-11.1-55.4-22.1c-9.9-6.4-19-13.8-27.2-22.3c-7.4-7.5-13.9-15.8-19.6-24.6c-7.6-11.8-13.4-24.4-17.6-37.8
	c-2.5-8-4.2-16.1-5.4-24.3c-0.8-5.7-1.1-11.5-1.6-17.3c0-4.2,0-8.3,0-12.5c0.6-2.2,0.4-4.4,0.7-6.6c1.3-12.1,3.7-24,7.7-35.5
	c5.4-15.7,13.1-30.2,23.1-43.4C59.1,49.8,70,39,82.5,29.9c7.9-5.7,16.3-10.7,25.1-14.8c9.2-4.3,18.7-7.8,28.5-10.2
	c6.8-1.7,13.6-3,20.6-3.6c3.8-0.4,7.6-0.6,11.4-0.9c3.9,0,7.9,0,11.8,0c0.7,0.1,1.4,0.2,2.2,0.3C193.2,1,204,2.8,214.7,5.7
	c13.4,3.6,26.1,9,38.1,16.1c10.3,6,19.7,13.2,28.3,21.4c7.5,7.1,14.2,14.9,20.1,23.4c5.6,8.1,10.5,16.6,14.6,25.6
	c7.1,15.8,11.4,32.3,13,49.5c0.2,2.3,0.1,4.7,0.6,7c0,5.2,0,10.4,0,15.5c-0.3,0.3-0.3,0.7-0.3,1.1c-0.2,2.9-0.4,5.8-0.7,8.7
	c-1.2,10.3-3.4,20.4-6.7,30.2c-3.7,11.2-8.7,21.9-14.8,32.1c-5.9,9.9-13,18.9-20.9,27.2c-4.3,4.6-9,8.7-13.9,12.7
	c-8.4,6.9-17.4,12.7-27,17.7c-8.2,4.3-16.8,7.8-25.7,10.4c-10.5,3.2-21.1,5.3-32.1,6.2C183.7,311,180.1,311,176.5,311.3z
	 M173.8,11.4c-79.2-0.2-143.7,64-144.4,142.9c-0.8,80.8,65,146.8,146.1,145.9c78.4-0.8,142-64.5,142.9-142.8
	C319.2,76.5,253.4,11,173.8,11.4z"/>
<path class="st0" d="M224,114.4c0-11.6,0-23.1,0-34.7c-39.1,0-77.9,0-116.8,0c0,54,0,107.8,0,161.8c38.9,0,77.8,0,116.6,0
	c0.5-0.6,0.2-1.3,0.2-2c0-6.2,0-12.4,0-18.6c0-1.2,0.4-1.9,1.4-2.6c2.9-1.8,5.7-3.6,8.4-5.6c3.4-2.4,5-6.1,7-9.6
	c0.3-0.6,0.6-1.2,1.3-1.8c0,0.8,0,1.4,0,1.9c0,15.4,0,30.8,0,46.1c0,6.4-3.7,10.2-10.1,10.2c-44.4,0-88.8,0-133.2,0
	c-5.9,0-9.7-3.8-9.7-9.7c0-59.6,0-119.2,0-178.8c0-6,3.7-9.6,9.7-9.6c44.4,0,88.9,0,133.3,0c6.2,0,10,3.8,10,10c0,3.7,0,7.3,0,11
	c0,0.9-0.2,1.7-0.7,2.5c-3.4,5.8-6.6,11.6-10,17.4c-2.3,4.1-4.7,8.1-7.1,12.1C224.3,114.4,224.1,114.4,224,114.4z"/>
<path class="st0" d="M257.9,83.6c6.8,0.4,12.7,3.1,18.2,6.8c3.8,2.6,7.2,5.7,9.4,9.9c1.4,2.6,1.6,4.9-0.1,7.5
	c-4.1,6.8-8,13.8-11.9,20.7c-5.2,9.1-10.5,18.2-15.7,27.2c-4.9,8.5-9.9,17.1-14.8,25.6c-4.1,7.1-8.2,14.2-12.2,21.3
	c-0.9,1.5-2.1,2.7-3.6,3.7c-9.2,6-18.5,12.1-27.7,18.2c-1.6,1.1-3.3,1.4-5.1,0.4c-1.8-1-2.4-2.6-2.3-4.5c0.4-6.4,0.8-12.8,1.2-19.2
	c0.3-5,0.5-10.1,0.9-15.1c0.2-2.8,2.1-4.8,3.3-7.1c5.3-9.3,10.7-18.6,16-27.8c5.1-8.7,10.1-17.5,15.2-26.2c4.1-7,8.1-14.1,12.2-21.1
	c3.3-5.8,6.7-11.6,10-17.3C252.6,83.7,255.4,83.7,257.9,83.6z M200.8,192.6c-0.6,3.4-0.5,6.7-0.7,9.9c0,0.4,0.2,0.7,0.6,0.9
	c3.6,1.5,6.9,3.4,9.9,5.7c3-2,5.8-3.9,8.8-5.8C214.2,197.8,208.2,194.2,200.8,192.6z"/>
<path class="st0" d="M165.5,96.7c11,0,22,0.1,33,0c7.5-0.1,11.3,6.5,9.1,12.4c-1.4,3.7-4.8,5.7-9.6,5.7c-15.6,0-31.2,0-46.8,0
	c-6.3,0-12.5,0-18.8,0c-6.1,0-10.2-4.4-9.5-10.3c0.6-4.4,3.8-7.6,8.6-7.7c10.6-0.1,21.2-0.1,31.8-0.1
	C164.1,96.7,164.8,96.7,165.5,96.7C165.5,96.7,165.5,96.7,165.5,96.7z"/>
<path class="st0" d="M165.5,130.6c10.9,0,21.9,0.1,32.8,0c6.1-0.1,10,4.2,9.9,9.3c-0.1,5.2-4.1,8.8-9.9,8.8c-5.1,0-10.1,0-15.2,0
	c-16.8,0-33.6,0-50.4,0c-4.7,0-8-2.2-9.5-6.4c-1.9-5.5,2.1-11.5,8.1-11.6c7.9-0.2,15.9-0.1,23.8-0.1
	C158.7,130.5,162.1,130.5,165.5,130.6C165.5,130.5,165.5,130.5,165.5,130.6z"/>
<path class="st0" d="M148.6,182.3c-5.6,0-11.3,0.1-16.9,0c-5.6-0.1-9.4-4.6-8.8-10.2c0.4-3.8,4-7.4,7.8-7.7c1.1-0.1,2.1-0.1,3.2-0.1
	c10.4,0,20.8,0,31.2,0c3.8,0,6.7,1.6,8.5,5c1.7,3.4,1.3,6.7-1,9.6c-1.5,2-3.6,3.3-6.2,3.3C160.5,182.3,154.5,182.2,148.6,182.3
	C148.6,182.2,148.6,182.3,148.6,182.3z"/>
<path class="st0" d="M151.6,222c-1.6,2.7-3.2,4.6-6.2,3.1c-2.5-1.3-1.3-3.3-0.6-5.3c-1.4,0.7-1.9,1.9-2.9,2.6c-1.5,1-3.1,1-4.6-0.3
	c-1.1-1-1.2-2.5-0.3-4c1.1-1.7,2.2-3.3,3-5.3c-1.4,1.4-2.7,2.9-4.1,4.3c-4,4.5-7.7,9.3-11.5,14c-0.7,0.9-1.5,1.6-2.6,1.7
	c-1.4,0.2-2.7-0.1-3.6-1.4c-1-1.3-0.5-2.6,0.3-3.7c4.1-5.2,8.1-10.5,12.5-15.4c3.6-4,7.4-8,11.4-11.7c1.2-1.1,2.5-2,4.1-2.6
	c3.9-1.6,6.6,0.3,6.3,4.6c-0.1,1.5-0.6,3-1,4.4c-0.4,1.4-1.3,2.6-1.8,4c0.8,0.6,1.8,1.1,2.2,2.2c0.1,0.3,0.3,0.4,0.7,0.4
	c3.3,0,4.8,2.1,5.8,4.9c0,0.1,0.1,0.2,0.3,0.3c8-1.1,15.9,0.6,23.9,0.9c2.2,0.1,3.3,1.4,3.3,3.5c-0.1,2-1.3,3.2-3.5,3.2
	c-3.5,0-6.9-0.8-10.3-1.3c-5-0.8-9.8-0.9-14.4,1.5C155.2,228,152,225.8,151.6,222z"/>
<path class="st1" d="M200.8,192.6c7.5,1.6,13.5,5.2,18.6,10.7c-3,2-5.9,3.9-8.8,5.8c-3.1-2.3-6.3-4.3-9.9-5.7
	c-0.4-0.2-0.6-0.5-0.6-0.9C200.3,199.3,200.2,196.1,200.8,192.6z"/>
</svg>
