<?xml version="1.0" encoding="utf-8"?>
<!-- Generator: Adobe Illustrator 22.0.1, SVG Export Plug-In . SVG Version: 6.00 Build 0)  -->
<svg version="1.1"
	 id="svg2" inkscape:version="0.92.1 r15371" sodipodi:docname="icon_search_product.svg" xmlns:cc="http://creativecommons.org/ns#" xmlns:dc="http://purl.org/dc/elements/1.1/" xmlns:inkscape="http://www.inkscape.org/namespaces/inkscape" xmlns:rdf="http://www.w3.org/1999/02/22-rdf-syntax-ns#" xmlns:sodipodi="http://sodipodi.sourceforge.net/DTD/sodipodi-0.dtd" xmlns:svg="http://www.w3.org/2000/svg"
	 xmlns="http://www.w3.org/2000/svg" xmlns:xlink="http://www.w3.org/1999/xlink" x="0px" y="0px" viewBox="0 0 426.7 426.7"
	 style="enable-background:new 0 0 426.7 426.7;" xml:space="preserve">
<style type="text/css">
	.st0{fill:#006680;}
</style>
<sodipodi:namedview  bordercolor="#666666" borderopacity="1" fit-margin-bottom="0" fit-margin-left="0" fit-margin-right="0" fit-margin-top="0" gridtolerance="10" guidetolerance="10" id="namedview10" inkscape:current-layer="svg2" inkscape:cx="-790.21019" inkscape:cy="256.01321" inkscape:pageopacity="0" inkscape:pageshadow="2" inkscape:window-height="1056" inkscape:window-maximized="1" inkscape:window-width="1855" inkscape:window-x="65" inkscape:window-y="24" inkscape:zoom="0.4609375" objecttolerance="10" pagecolor="#ffffff" showgrid="false">
	</sodipodi:namedview>
<g>
	<path class="st0" d="M282.6,23.5c5,2,10.4,3.3,14.8,6.8c8.7,6.9,13.3,15.9,13.3,26.9c0.2,29.5,0.3,59.1,0,88.6
		c-0.2,19.2-14.5,33.4-33.7,33.5c-59.1,0.2-118.1,0.2-177.2,0c-19.3-0.1-33.6-14.5-33.7-33.9c-0.2-29.3-0.2-58.6,0-87.8
		c0.1-15.8,9-27.5,24.3-32.5c0.9-0.3,2-0.2,2.4-1.4C156,23.5,219.3,23.5,282.6,23.5z M188.8,56.8c-21.9,0-43.7,0-65.6,0
		c-8.2,0-12.6,4.4-12.6,12.5c0,21.2,0,42.5,0,63.7c0,8.4,4.4,12.7,12.8,12.7c43.4,0,86.7,0,130.1,0c8.5,0,12.8-4.3,12.8-12.7
		c0-21.1,0-42.2,0-63.4c0-8.6-4.3-12.9-13-12.9C231.8,56.8,210.3,56.8,188.8,56.8z"/>
	<path class="st0" d="M288.7,380.9c11.1,0,22-0.1,32.8,0c8.3,0.1,13.6,7.7,10.7,15c-1.6,4.1-4.8,6.5-9.2,7.1c-1,0.1-2,0.1-3,0.1
		c-87.8,0-175.5,0-263.3,0c-5.4,0-9.8-1.7-12.1-6.8c-3.3-7.3,2.1-15.4,10.4-15.5c10.9-0.1,21.7,0,32.9,0c0-59.7,0-119.4,0-179.2
		c66.8,0,133.4,0,200.3,0c0,7.5,0,15.3,0,23.1c11.4,2.5,21.1,7.7,28.9,15.9c10.5,10.9,15.6,24.1,15.7,39.2c0,14.5-0.1,28.9,0,43.4
		c0.1,9.1,9,14.5,16.6,10.1c3.9-2.2,5.6-5.7,5.6-10.1c0-7.7,0-15.3,0-23c0-31.6,0-63.3,0-94.9c0-1.2,0-2.4,0-3.9
		c-4,0-7.6,0.1-11.3,0c-5.7-0.2-10.7-4.2-10.7-9.8c-0.1-11.6-1.3-23.2,1.1-34.7c2.5-12.4,8.8-22.7,18.4-30.8
		c1.9-1.6,2.6-3.2,2.6-5.6c-0.2-6.2,0-12.4-0.1-18.5c-0.1-6.7-4.2-11.1-10.9-11.7c-7.3-0.7-12-5.8-11.3-12.3
		c0.7-6.6,6.4-10.6,13.7-9.7c18.4,2.2,30.5,15.7,30.7,34.2c0,3.6,0,7.1,0,10.9c3.6-0.3,7-0.7,10.4-0.8c6.9-0.1,11.8,4.5,11.8,11.4
		c0.1,22,0.1,44,0,66c0,6.8-4.7,11.3-11.4,11.5c-3.4,0.1-6.9,0-10.3,0c-0.9,1.4-0.5,2.7-0.5,4c0,38.8,0,77.6,0,116.4
		c0,14.3-6,25.1-18.9,31.8c-19.1,10-44.7-3.1-47.1-24.5c-1.8-15.7-0.4-31.6-0.7-47.4c-0.1-3.8-0.3-7.6-1.3-11.4
		c-2.8-10.3-10.3-18.4-20.7-22.1C288.7,292.4,288.7,336.5,288.7,380.9z M188.3,312.7c22.2,0.1,38.3-21.5,31.6-42.6
		c-4.9-15.3-13.6-28.7-22.7-41.7c-4.4-6.2-13.7-5.9-18.1,0.5c-8.1,11.8-15.5,24-21.1,37.3C148.1,289.9,165.7,312.3,188.3,312.7z
		 M188.4,357.2c14.6,0,29.1,0,43.7,0c5.3,0,9.4-2.7,11.1-7.1c3-7.6-2.6-15.1-11.3-15.1c-28.8,0-57.5,0-86.3,0
		c-7.8,0-12.9,4.5-12.8,11.2c0.1,6.6,5.1,11,12.7,11C159.8,357.2,174.1,357.2,188.4,357.2z"/>
	<path class="st0" d="M243.9,79.3c0,14.8,0,29.3,0,44.1c-37,0-73.8,0-110.9,0c0-14.6,0-29.2,0-44.1
		C169.8,79.3,206.7,79.3,243.9,79.3z"/>
	<path class="st0" d="M188.4,255.4c4.2,7.6,8.5,14.2,10.6,21.9c1.2,4.3-0.6,8.6-4.4,11.2c-3.8,2.6-8.7,2.5-12.5-0.2
		c-3.7-2.6-5.4-6.8-4.3-10.9C179.9,269.7,184.2,263,188.4,255.4z"/>
</g>
</svg>
