<?xml version="1.0" encoding="UTF-8" standalone="no"?>
<svg
   xmlns:dc="http://purl.org/dc/elements/1.1/"
   xmlns:cc="http://creativecommons.org/ns#"
   xmlns:rdf="http://www.w3.org/1999/02/22-rdf-syntax-ns#"
   xmlns:svg="http://www.w3.org/2000/svg"
   xmlns="http://www.w3.org/2000/svg"
   xmlns:sodipodi="http://sodipodi.sourceforge.net/DTD/sodipodi-0.dtd"
   xmlns:inkscape="http://www.inkscape.org/namespaces/inkscape"
   version="1.1"
   viewBox="0 0 15.119336 15.119531"
   enable-background="new 0 0 19.353 19.353"
   width="426.66116"
   height="426.66666"
   id="svg2"
   inkscape:version="0.92.1 r15371"
   sodipodi:docname="icon_search_product.svg">
  <metadata
     id="metadata14">
    <rdf:RDF>
      <cc:Work
         rdf:about="">
        <dc:format>image/svg+xml</dc:format>
        <dc:type
           rdf:resource="http://purl.org/dc/dcmitype/StillImage" />
        <dc:title />
      </cc:Work>
    </rdf:RDF>
  </metadata>
  <defs
     id="defs12" />
  <sodipodi:namedview
     pagecolor="#ffffff"
     bordercolor="#666666"
     borderopacity="1"
     objecttolerance="10"
     gridtolerance="10"
     guidetolerance="10"
     inkscape:pageopacity="0"
     inkscape:pageshadow="2"
     inkscape:window-width="1855"
     inkscape:window-height="1056"
     id="namedview10"
     showgrid="false"
     inkscape:zoom="0.4609375"
     inkscape:cx="-790.21019"
     inkscape:cy="256.01321"
     inkscape:window-x="65"
     inkscape:window-y="24"
     inkscape:window-maximized="1"
     inkscape:current-layer="svg2"
     fit-margin-top="0"
     fit-margin-left="0"
     fit-margin-right="0"
     fit-margin-bottom="0" />
  <g
     id="g4"
     style="fill:#006680;fill-opacity:1"
     transform="scale(0.7812399,0.78122987)">
    <path
       d="M 19.06,16.939 17.454,15.333 C 17.195,15.074 16.878,14.878 16.53,14.762 H 16.529 C 16.181,14.646 15.864,14.45 15.605,14.191 L 14.314,12.9 C 15.367,11.545 16,9.848 16,8 16,3.582 12.418,0 8,0 3.582,0 0,3.582 0,8 c 0,4.418 3.582,8 8,8 1.849,0 3.546,-0.633 4.9,-1.686 l 1.291,1.291 c 0.26,0.26 0.455,0.576 0.571,0.925 0.116,0.349 0.312,0.665 0.571,0.925 l 1.606,1.606 c 0.391,0.39 1.024,0.39 1.414,0 l 0.707,-0.707 c 0.391,-0.391 0.391,-1.024 0,-1.415 z M 8,14 C 4.692,14 2,11.308 2,8 2,4.692 4.692,2 8,2 c 3.308,0 6,2.692 6,6 0,3.308 -2.692,6 -6,6 z"
       id="path6"
       style="fill:#006680;fill-opacity:1"
       inkscape:connector-curvature="0" />
    <polygon
       points="7,9 7,11 9,11 9,9 11,9 11,7 9,7 9,5 7,5 7,7 5,7 5,9 "
       id="polygon8"
       style="fill:#006680;fill-opacity:1" />
  </g>
</svg>
