<svg id="svg" version="1.1" xmlns="http://www.w3.org/2000/svg" xmlns:xlink="http://www.w3.org/1999/xlink" width="400" height="400" viewBox="0, 0, 400,400"><g id="svgg"><path id="path0" d="M187.398 0.603 C 187.107 1.044,185.442 1.361,181.200 1.783 C 178.010 2.101,174.612 2.639,173.650 2.980 C 172.687 3.321,171.296 3.600,170.559 3.600 C 169.822 3.600,168.023 4.050,166.562 4.600 C 165.100 5.150,163.431 5.601,162.852 5.603 C 162.274 5.604,161.260 5.963,160.600 6.400 C 159.940 6.837,158.950 7.197,158.400 7.199 C 157.850 7.201,156.860 7.526,156.200 7.920 C 155.540 8.314,154.235 8.861,153.300 9.135 C 152.365 9.408,151.600 9.776,151.600 9.953 C 151.600 10.129,150.901 10.483,150.047 10.739 C 149.194 10.994,148.272 11.473,147.998 11.802 C 147.725 12.131,147.315 12.400,147.086 12.400 C 146.670 12.400,142.778 14.748,142.400 15.227 C 142.290 15.366,141.480 15.935,140.600 16.490 C 139.720 17.046,138.496 17.973,137.879 18.550 C 137.263 19.128,136.653 19.600,136.523 19.600 C 135.038 19.600,126.078 30.605,123.570 35.508 C 122.717 37.176,121.835 38.725,121.609 38.951 C 121.384 39.176,121.200 39.646,121.200 39.995 C 121.200 40.345,120.842 41.334,120.404 42.193 C 119.966 43.052,119.493 44.395,119.353 45.178 C 119.213 45.960,118.784 47.320,118.399 48.200 C 118.014 49.080,117.575 51.150,117.423 52.800 C 117.271 54.450,116.754 57.060,116.273 58.600 L 115.400 61.400 115.400 127.000 C 115.400 187.644,115.452 192.786,116.084 195.068 C 116.459 196.425,116.950 198.993,117.173 200.775 C 117.397 202.556,117.796 204.416,118.062 204.907 C 118.327 205.398,118.773 206.700,119.052 207.800 C 119.698 210.346,121.015 214.194,121.859 216.000 C 122.219 216.770,122.967 218.390,123.522 219.600 C 124.592 221.933,124.730 222.200,126.000 224.400 C 127.739 227.412,129.958 230.827,131.587 233.000 C 132.246 233.880,132.998 235.005,133.257 235.500 C 133.516 235.995,133.875 236.400,134.055 236.400 C 134.234 236.400,134.966 237.075,135.682 237.900 C 138.566 241.225,145.990 248.220,149.000 250.447 C 150.760 251.750,152.461 253.037,152.780 253.308 C 154.901 255.109,167.439 261.600,168.799 261.600 C 169.151 261.600,169.660 261.820,169.929 262.089 C 170.198 262.358,171.449 262.878,172.709 263.244 C 173.969 263.611,175.540 264.094,176.200 264.319 C 186.151 267.703,209.732 268.560,217.774 265.829 C 218.754 265.497,220.663 265.046,222.018 264.828 C 223.372 264.610,224.689 264.258,224.945 264.045 C 225.201 263.833,226.308 263.437,227.405 263.166 C 228.502 262.895,230.027 262.341,230.794 261.936 C 231.561 261.531,232.351 261.200,232.550 261.200 C 232.749 261.200,233.652 260.860,234.556 260.446 C 235.460 260.031,236.650 259.495,237.200 259.254 C 237.750 259.014,238.858 258.409,239.663 257.909 C 242.656 256.049,245.598 254.400,245.924 254.400 C 246.109 254.400,246.683 253.950,247.200 253.400 C 247.717 252.850,248.307 252.400,248.512 252.400 C 248.886 252.400,249.850 251.680,253.200 248.903 C 256.233 246.388,267.524 234.898,268.696 233.135 C 269.303 232.220,270.070 231.078,270.400 230.596 C 270.971 229.761,271.607 228.775,272.719 227.000 C 272.994 226.560,273.584 225.480,274.029 224.600 C 274.474 223.720,275.458 221.830,276.217 220.400 C 276.975 218.970,277.597 217.620,277.600 217.400 C 277.603 217.180,277.893 216.460,278.244 215.800 C 279.111 214.173,280.331 210.706,281.059 207.805 C 281.390 206.488,281.828 205.207,282.034 204.958 C 282.240 204.710,282.590 203.060,282.812 201.292 C 283.034 199.523,283.520 197.204,283.892 196.138 C 284.515 194.354,284.579 188.950,284.699 128.126 L 284.829 62.051 283.844 58.526 C 283.303 56.587,282.737 53.740,282.588 52.200 C 282.438 50.660,282.070 48.923,281.769 48.341 C 281.468 47.758,281.033 46.408,280.802 45.341 C 280.571 44.273,280.126 42.860,279.813 42.200 C 276.026 34.206,275.600 33.423,273.007 29.692 C 269.797 25.073,263.781 19.248,258.640 15.782 C 255.798 13.865,255.321 13.570,254.000 12.905 C 253.230 12.517,252.251 11.885,251.825 11.500 C 251.398 11.115,250.804 10.800,250.504 10.800 C 250.204 10.800,249.293 10.449,248.479 10.019 C 245.007 8.186,240.247 6.374,236.400 5.423 C 235.190 5.124,233.480 4.599,232.600 4.257 C 231.720 3.915,230.370 3.619,229.600 3.600 C 228.830 3.581,227.480 3.300,226.600 2.977 C 225.720 2.654,222.300 2.123,219.000 1.798 C 214.638 1.369,212.879 1.043,212.556 0.604 C 212.066 -0.062,206.800 -0.293,206.800 0.351 C 206.800 1.597,211.480 2.380,219.011 2.393 C 222.081 2.398,223.243 2.555,223.964 3.060 C 224.545 3.467,226.281 3.846,228.502 4.051 C 230.918 4.274,232.247 4.580,232.550 4.982 C 232.811 5.330,234.008 5.694,235.400 5.851 C 236.761 6.004,238.213 6.441,238.754 6.860 C 239.306 7.289,240.360 7.600,241.258 7.600 C 242.312 7.600,243.027 7.856,243.491 8.398 C 243.867 8.837,244.810 9.313,245.587 9.456 C 246.364 9.599,247.429 10.050,247.954 10.458 C 248.479 10.866,249.216 11.200,249.593 11.200 C 249.969 11.200,250.693 11.560,251.200 12.000 C 251.707 12.440,252.429 12.800,252.803 12.800 C 253.177 12.800,253.969 13.250,254.562 13.800 C 255.156 14.350,255.900 14.800,256.217 14.800 C 256.534 14.800,257.018 15.160,257.293 15.600 C 257.568 16.040,257.991 16.400,258.233 16.400 C 258.475 16.400,259.107 16.760,259.637 17.201 C 262.939 19.947,263.550 20.400,263.953 20.400 C 264.199 20.400,264.400 20.641,264.400 20.936 C 264.400 21.230,264.850 21.677,265.400 21.927 C 265.950 22.178,266.400 22.657,266.400 22.991 C 266.400 23.326,266.674 23.600,267.009 23.600 C 267.343 23.600,267.822 24.050,268.073 24.600 C 268.323 25.150,268.770 25.600,269.064 25.600 C 269.359 25.600,269.600 25.838,269.600 26.128 C 269.600 26.418,270.050 27.047,270.600 27.525 C 271.150 28.003,271.600 28.656,271.600 28.975 C 271.600 29.294,271.952 29.801,272.381 30.102 C 272.811 30.403,273.346 31.133,273.571 31.724 C 273.796 32.316,274.150 32.800,274.358 32.800 C 274.566 32.800,274.855 33.341,275.001 34.003 C 275.146 34.665,275.610 35.391,276.033 35.617 C 276.493 35.864,276.800 36.452,276.800 37.088 C 276.800 37.671,277.167 38.539,277.616 39.017 C 278.065 39.494,278.538 40.586,278.669 41.443 C 278.799 42.299,279.220 43.360,279.605 43.800 C 280.001 44.254,280.386 45.511,280.494 46.704 C 280.601 47.899,280.981 49.137,281.372 49.569 C 281.885 50.136,282.115 51.327,282.276 54.265 C 282.422 56.927,282.704 58.523,283.146 59.200 C 284.007 60.517,284.167 189.300,283.310 191.400 C 283.041 192.060,282.644 194.709,282.428 197.286 C 282.197 200.055,281.799 202.347,281.456 202.886 C 281.137 203.389,280.750 204.790,280.595 206.000 C 280.440 207.210,280.064 208.484,279.758 208.830 C 279.452 209.177,279.043 210.309,278.850 211.345 C 278.656 212.381,278.221 213.537,277.883 213.914 C 277.544 214.291,277.142 215.320,276.989 216.200 C 276.836 217.080,276.478 217.987,276.193 218.216 C 275.909 218.445,275.477 219.372,275.234 220.275 C 274.990 221.179,274.533 222.017,274.218 222.138 C 273.902 222.259,273.524 222.997,273.378 223.779 C 273.231 224.561,272.947 225.200,272.747 225.200 C 272.547 225.200,272.169 225.695,271.907 226.300 C 271.645 226.905,271.019 227.909,270.516 228.531 C 270.012 229.153,269.600 229.918,269.600 230.231 C 269.600 230.544,269.416 230.800,269.190 230.800 C 268.965 230.800,268.607 231.255,268.396 231.810 C 268.185 232.366,267.756 232.919,267.443 233.039 C 267.129 233.159,266.655 233.785,266.388 234.429 C 265.658 236.191,264.654 235.886,262.094 233.125 C 257.472 228.140,251.010 222.400,250.019 222.400 C 249.775 222.400,249.480 222.154,249.365 221.853 C 249.139 221.265,245.539 218.800,244.906 218.800 C 244.696 218.800,244.212 218.455,243.831 218.034 C 243.449 217.612,240.586 216.019,237.469 214.493 C 231.725 211.682,230.588 211.207,227.000 210.122 C 225.900 209.790,224.460 209.286,223.800 209.004 C 215.958 205.647,190.006 204.618,182.450 207.364 C 181.487 207.714,180.317 208.008,179.850 208.018 C 179.382 208.027,178.280 208.305,177.400 208.636 C 176.520 208.966,174.900 209.485,173.800 209.789 C 172.700 210.092,171.260 210.623,170.600 210.968 C 169.940 211.313,169.130 211.597,168.800 211.600 C 168.470 211.603,167.030 212.232,165.600 212.998 C 164.170 213.764,162.730 214.509,162.400 214.654 C 158.755 216.257,156.400 217.557,156.400 217.964 C 156.400 218.161,155.837 218.518,155.148 218.758 C 154.460 218.998,152.975 219.923,151.848 220.813 C 150.722 221.704,148.630 223.336,147.200 224.440 C 144.272 226.700,139.417 231.343,137.307 233.900 C 135.885 235.622,134.000 236.261,134.000 235.021 C 134.000 234.702,133.556 233.962,133.013 233.376 C 132.470 232.790,131.923 231.988,131.798 231.592 C 131.672 231.197,131.306 230.773,130.985 230.650 C 130.663 230.526,130.400 230.183,130.400 229.888 C 130.400 229.593,130.068 228.994,129.661 228.558 C 128.874 227.712,128.113 226.409,126.850 223.744 C 126.419 222.833,125.885 221.976,125.664 221.839 C 125.443 221.703,125.143 221.051,124.998 220.391 C 124.853 219.732,124.458 218.916,124.121 218.578 C 123.783 218.240,123.337 217.210,123.130 216.288 C 122.923 215.366,122.479 214.308,122.143 213.937 C 121.807 213.566,121.428 212.483,121.302 211.531 C 121.175 210.579,120.758 209.350,120.376 208.800 C 119.993 208.250,119.582 206.863,119.461 205.718 C 119.341 204.573,118.976 203.223,118.650 202.718 C 118.300 202.174,117.877 199.842,117.613 197.000 C 117.368 194.360,116.950 191.660,116.684 191.000 C 115.822 188.863,115.999 60.901,116.866 59.600 C 117.311 58.932,117.624 57.274,117.810 54.600 C 118.007 51.771,118.310 50.235,118.844 49.353 C 119.260 48.667,119.600 47.386,119.600 46.507 C 119.600 45.536,119.902 44.525,120.367 43.933 C 120.789 43.396,121.263 42.247,121.420 41.379 C 121.577 40.510,122.042 39.478,122.453 39.084 C 122.864 38.691,123.200 37.997,123.200 37.542 C 123.200 37.087,123.650 36.181,124.200 35.527 C 124.750 34.873,125.200 34.082,125.200 33.769 C 125.200 33.456,125.475 32.885,125.810 32.500 C 127.905 30.097,128.403 29.421,128.645 28.655 C 128.793 28.185,129.249 27.565,129.657 27.277 C 130.066 26.990,130.400 26.495,130.400 26.177 C 130.400 25.860,130.674 25.600,131.010 25.600 C 131.345 25.600,131.791 25.150,132.000 24.600 C 132.209 24.050,132.643 23.600,132.963 23.600 C 133.284 23.600,133.654 23.259,133.786 22.843 C 133.918 22.427,134.381 21.994,134.813 21.881 C 135.246 21.767,135.600 21.388,135.600 21.037 C 135.600 20.687,135.831 20.400,136.113 20.400 C 136.626 20.400,137.802 19.570,140.220 17.500 C 140.927 16.895,141.701 16.400,141.939 16.400 C 142.177 16.400,142.565 16.040,142.800 15.600 C 143.035 15.160,143.583 14.800,144.017 14.800 C 144.450 14.800,145.197 14.350,145.675 13.800 C 146.153 13.250,146.934 12.800,147.410 12.800 C 147.886 12.800,148.586 12.458,148.964 12.040 C 149.343 11.621,150.280 11.161,151.047 11.018 C 151.814 10.874,152.534 10.517,152.646 10.225 C 152.758 9.933,153.528 9.586,154.357 9.453 C 155.187 9.321,156.193 8.849,156.595 8.406 C 157.105 7.842,157.828 7.600,159.001 7.600 C 160.062 7.600,160.993 7.327,161.536 6.855 C 162.034 6.424,163.355 5.998,164.681 5.842 C 165.938 5.694,167.274 5.295,167.649 4.956 C 168.074 4.571,169.594 4.223,171.683 4.032 C 173.526 3.864,175.477 3.449,176.017 3.110 C 176.753 2.648,178.659 2.434,183.600 2.260 C 190.540 2.016,193.200 1.550,193.200 0.581 C 193.200 -0.269,187.960 -0.249,187.398 0.603 " stroke="none" fill="#c4acac" fill-rule="evenodd"></path><path id="path1" d="M193.200 0.581 C 193.200 1.550,190.540 2.016,183.600 2.260 C 178.659 2.434,176.753 2.648,176.017 3.110 C 175.477 3.449,173.526 3.864,171.683 4.032 C 169.594 4.223,168.074 4.571,167.649 4.956 C 167.274 5.295,165.938 5.694,164.681 5.842 C 163.355 5.998,162.034 6.424,161.536 6.855 C 160.993 7.327,160.062 7.600,159.001 7.600 C 157.828 7.600,157.105 7.842,156.595 8.406 C 156.193 8.849,155.187 9.321,154.357 9.453 C 153.528 9.586,152.758 9.933,152.646 10.225 C 152.534 10.517,151.814 10.874,151.047 11.018 C 150.280 11.161,149.343 11.621,148.964 12.040 C 148.586 12.458,147.886 12.800,147.410 12.800 C 146.934 12.800,146.153 13.250,145.675 13.800 C 145.197 14.350,144.450 14.800,144.017 14.800 C 143.583 14.800,143.035 15.160,142.800 15.600 C 142.565 16.040,142.177 16.400,141.939 16.400 C 141.701 16.400,140.927 16.895,140.220 17.500 C 137.802 19.570,136.626 20.400,136.113 20.400 C 135.831 20.400,135.600 20.687,135.600 21.037 C 135.600 21.388,135.246 21.767,134.813 21.881 C 134.381 21.994,133.918 22.427,133.786 22.843 C 133.654 23.259,133.284 23.600,132.963 23.600 C 132.643 23.600,132.209 24.050,132.000 24.600 C 131.791 25.150,131.345 25.600,131.010 25.600 C 130.674 25.600,130.400 25.860,130.400 26.177 C 130.400 26.495,130.066 26.990,129.657 27.277 C 129.249 27.565,128.793 28.185,128.645 28.655 C 128.403 29.421,127.905 30.097,125.810 32.500 C 125.475 32.885,125.200 33.456,125.200 33.769 C 125.200 34.082,124.750 34.873,124.200 35.527 C 123.650 36.181,123.200 37.087,123.200 37.542 C 123.200 37.997,122.864 38.691,122.453 39.084 C 122.042 39.478,121.577 40.510,121.420 41.379 C 121.263 42.247,120.789 43.396,120.367 43.933 C 119.902 44.525,119.600 45.536,119.600 46.507 C 119.600 47.386,119.260 48.667,118.844 49.353 C 118.310 50.235,118.007 51.771,117.810 54.600 C 117.624 57.274,117.311 58.932,116.866 59.600 C 115.999 60.901,115.822 188.863,116.684 191.000 C 116.950 191.660,117.368 194.360,117.613 197.000 C 117.877 199.842,118.300 202.174,118.650 202.718 C 118.976 203.223,119.341 204.573,119.461 205.718 C 119.582 206.863,119.993 208.250,120.376 208.800 C 120.758 209.350,121.175 210.579,121.302 211.531 C 121.428 212.483,121.807 213.566,122.143 213.937 C 122.479 214.308,122.923 215.366,123.130 216.288 C 123.337 217.210,123.783 218.240,124.121 218.578 C 124.458 218.916,124.853 219.732,124.998 220.391 C 125.143 221.051,125.443 221.703,125.664 221.839 C 125.885 221.976,126.419 222.833,126.850 223.744 C 128.113 226.409,128.874 227.712,129.661 228.558 C 130.068 228.994,130.400 229.593,130.400 229.888 C 130.400 230.183,130.663 230.526,130.985 230.650 C 131.306 230.773,131.672 231.197,131.798 231.592 C 131.923 231.988,132.470 232.790,133.013 233.376 C 133.556 233.962,134.000 234.702,134.000 235.021 C 134.000 236.261,135.885 235.622,137.307 233.900 C 139.417 231.343,144.272 226.700,147.200 224.440 C 148.630 223.336,150.722 221.704,151.848 220.813 C 152.975 219.923,154.460 218.998,155.148 218.758 C 155.837 218.518,156.400 218.161,156.400 217.964 C 156.400 217.557,158.755 216.257,162.400 214.654 C 162.730 214.509,164.170 213.764,165.600 212.998 C 167.030 212.232,168.470 211.603,168.800 211.600 C 169.130 211.597,169.940 211.313,170.600 210.968 C 171.260 210.623,172.700 210.092,173.800 209.789 C 174.900 209.485,176.520 208.966,177.400 208.636 C 178.280 208.305,179.382 208.027,179.850 208.018 C 180.317 208.008,181.487 207.714,182.450 207.364 C 190.006 204.618,215.958 205.647,223.800 209.004 C 224.460 209.286,225.900 209.790,227.000 210.122 C 230.588 211.207,231.725 211.682,237.469 214.493 C 240.586 216.019,243.449 217.612,243.831 218.034 C 244.212 218.455,244.696 218.800,244.906 218.800 C 245.539 218.800,249.139 221.265,249.365 221.853 C 249.480 222.154,249.775 222.400,250.019 222.400 C 251.010 222.400,257.472 228.140,262.094 233.125 C 264.654 235.886,265.658 236.191,266.388 234.429 C 266.655 233.785,267.129 233.159,267.443 233.039 C 267.756 232.919,268.185 232.366,268.396 231.810 C 268.607 231.255,268.965 230.800,269.190 230.800 C 269.416 230.800,269.600 230.544,269.600 230.231 C 269.600 229.918,270.012 229.153,270.516 228.531 C 271.019 227.909,271.645 226.905,271.907 226.300 C 272.169 225.695,272.547 225.200,272.747 225.200 C 272.947 225.200,273.231 224.561,273.378 223.779 C 273.524 222.997,273.902 222.259,274.218 222.138 C 274.533 222.017,274.990 221.179,275.234 220.275 C 275.477 219.372,275.909 218.445,276.193 218.216 C 276.478 217.987,276.836 217.080,276.989 216.200 C 277.142 215.320,277.544 214.291,277.883 213.914 C 278.221 213.537,278.656 212.381,278.850 211.345 C 279.043 210.309,279.452 209.177,279.758 208.830 C 280.064 208.484,280.440 207.210,280.595 206.000 C 280.750 204.790,281.137 203.389,281.456 202.886 C 281.799 202.347,282.197 200.055,282.428 197.286 C 282.644 194.709,283.041 192.060,283.310 191.400 C 284.167 189.300,284.007 60.517,283.146 59.200 C 282.704 58.523,282.422 56.927,282.276 54.265 C 282.115 51.327,281.885 50.136,281.372 49.569 C 280.981 49.137,280.601 47.899,280.494 46.704 C 280.386 45.511,280.001 44.254,279.605 43.800 C 279.220 43.360,278.799 42.299,278.669 41.443 C 278.538 40.586,278.065 39.494,277.616 39.017 C 277.167 38.539,276.800 37.671,276.800 37.088 C 276.800 36.452,276.493 35.864,276.033 35.617 C 275.610 35.391,275.146 34.665,275.001 34.003 C 274.855 33.341,274.566 32.800,274.358 32.800 C 274.150 32.800,273.796 32.316,273.571 31.724 C 273.346 31.133,272.811 30.403,272.381 30.102 C 271.952 29.801,271.600 29.294,271.600 28.975 C 271.600 28.656,271.150 28.003,270.600 27.525 C 270.050 27.047,269.600 26.418,269.600 26.128 C 269.600 25.838,269.359 25.600,269.064 25.600 C 268.770 25.600,268.323 25.150,268.073 24.600 C 267.822 24.050,267.343 23.600,267.009 23.600 C 266.674 23.600,266.400 23.326,266.400 22.991 C 266.400 22.657,265.950 22.178,265.400 21.927 C 264.850 21.677,264.400 21.230,264.400 20.936 C 264.400 20.641,264.199 20.400,263.953 20.400 C 263.550 20.400,262.939 19.947,259.637 17.201 C 259.107 16.760,258.475 16.400,258.233 16.400 C 257.991 16.400,257.568 16.040,257.293 15.600 C 257.018 15.160,256.534 14.800,256.217 14.800 C 255.900 14.800,255.156 14.350,254.562 13.800 C 253.969 13.250,253.177 12.800,252.803 12.800 C 252.429 12.800,251.707 12.440,251.200 12.000 C 250.693 11.560,249.969 11.200,249.593 11.200 C 249.216 11.200,248.479 10.866,247.954 10.458 C 247.429 10.050,246.364 9.599,245.587 9.456 C 244.810 9.313,243.867 8.837,243.491 8.398 C 243.027 7.856,242.312 7.600,241.258 7.600 C 240.360 7.600,239.306 7.289,238.754 6.860 C 238.213 6.441,236.761 6.004,235.400 5.851 C 234.008 5.694,232.811 5.330,232.550 4.982 C 232.247 4.580,230.918 4.274,228.502 4.051 C 226.281 3.846,224.545 3.467,223.964 3.060 C 223.243 2.555,222.081 2.398,219.011 2.393 C 212.466 2.381,207.918 1.777,207.136 0.816 C 206.265 -0.253,193.200 -0.474,193.200 0.581 " stroke="none" fill="#bb9494" fill-rule="evenodd"></path><path id="path2" d="M180.539 0.557 C 180.266 0.868,178.644 1.200,176.583 1.367 C 174.662 1.523,172.439 1.902,171.645 2.208 C 170.850 2.515,169.040 2.967,167.622 3.214 C 166.205 3.461,164.680 3.919,164.233 4.232 C 163.787 4.544,162.914 4.800,162.293 4.800 C 161.672 4.800,160.318 5.250,159.285 5.800 C 158.064 6.450,157.689 6.800,158.214 6.800 C 158.658 6.800,159.377 6.556,159.811 6.257 C 160.245 5.958,161.590 5.484,162.800 5.203 C 164.010 4.922,165.486 4.447,166.080 4.146 C 166.674 3.846,167.586 3.600,168.107 3.600 C 168.628 3.600,170.392 3.240,172.027 2.800 C 173.662 2.360,176.790 1.820,178.979 1.602 C 183.370 1.163,184.400 0.929,184.400 0.373 C 184.400 -0.199,181.062 -0.040,180.539 0.557 M215.600 0.357 C 215.600 0.903,216.451 1.121,219.659 1.396 C 223.117 1.692,231.992 3.453,234.000 4.240 C 234.770 4.542,236.273 4.976,237.341 5.205 C 238.408 5.434,239.816 5.898,240.468 6.235 C 241.120 6.573,241.857 6.781,242.106 6.698 C 242.798 6.467,239.091 4.800,237.886 4.800 C 237.302 4.800,236.144 4.455,235.312 4.034 C 234.481 3.612,232.810 3.141,231.600 2.987 C 230.390 2.832,228.946 2.474,228.392 2.190 C 227.837 1.907,225.711 1.544,223.667 1.384 C 221.411 1.207,219.735 0.878,219.404 0.546 C 218.802 -0.055,215.600 -0.214,215.600 0.357 M154.644 7.552 C 154.269 7.965,153.245 8.419,152.366 8.559 C 151.488 8.699,150.669 9.076,150.546 9.396 C 150.423 9.716,149.696 10.096,148.929 10.240 C 148.163 10.383,147.441 10.748,147.325 11.051 C 147.209 11.353,146.896 11.600,146.629 11.600 C 145.501 11.600,134.400 19.653,134.400 20.472 C 134.400 20.652,134.142 20.800,133.827 20.800 C 133.512 20.800,133.140 21.160,133.000 21.600 C 132.860 22.040,132.495 22.400,132.187 22.400 C 131.880 22.400,131.428 22.773,131.184 23.229 C 130.940 23.685,130.034 24.744,129.170 25.583 C 128.307 26.421,127.597 27.262,127.593 27.453 C 127.589 27.644,127.139 28.224,126.593 28.742 C 126.047 29.260,125.600 29.839,125.600 30.029 C 125.600 30.219,124.891 31.416,124.024 32.687 C 123.158 33.959,122.328 35.495,122.181 36.100 C 122.034 36.705,121.782 37.200,121.621 37.200 C 121.213 37.200,120.400 39.077,120.400 40.019 C 120.400 40.448,120.242 40.800,120.049 40.800 C 119.634 40.800,118.962 42.435,118.573 44.394 C 118.420 45.161,118.061 46.151,117.774 46.594 C 117.487 47.037,117.127 48.570,116.973 50.000 C 116.819 51.430,116.466 53.050,116.189 53.600 C 115.911 54.150,115.555 55.808,115.397 57.285 C 115.129 59.795,115.006 60.054,113.498 61.283 C 110.381 63.824,100.544 75.088,97.501 79.600 C 97.130 80.150,96.280 81.371,95.613 82.314 C 94.946 83.257,94.400 84.180,94.400 84.365 C 94.400 84.550,94.102 84.949,93.738 85.251 C 93.374 85.553,92.818 86.340,92.503 87.000 C 92.188 87.660,91.422 89.100,90.801 90.200 C 88.869 93.622,85.200 101.084,85.200 101.591 C 85.200 101.856,84.840 102.531,84.400 103.091 C 83.960 103.650,83.600 104.350,83.600 104.646 C 83.600 105.230,81.962 109.601,80.752 112.244 C 80.339 113.148,79.992 114.318,79.982 114.844 C 79.973 115.370,79.690 116.520,79.355 117.400 C 79.019 118.280,78.502 120.170,78.206 121.600 C 77.910 123.030,77.463 124.731,77.213 125.380 C 76.964 126.029,76.590 128.099,76.383 129.980 C 76.176 131.861,75.703 134.750,75.331 136.400 C 74.339 140.805,74.001 400.000,74.987 400.000 C 75.536 400.000,75.600 386.687,75.600 271.967 C 75.600 169.718,75.701 143.967,76.100 144.100 C 76.498 144.233,76.620 170.267,76.701 272.133 L 76.801 400.000 200.001 400.000 L 323.200 400.000 323.200 272.633 C 323.200 150.163,323.240 144.000,324.043 144.000 C 324.252 144.000,324.400 197.157,324.400 272.000 C 324.400 386.379,324.465 400.000,325.009 400.000 C 326.004 400.000,325.668 138.401,324.669 135.200 C 324.292 133.990,323.812 131.369,323.602 129.374 C 323.393 127.380,322.969 125.130,322.660 124.374 C 322.351 123.619,321.969 122.102,321.811 121.005 C 321.652 119.908,321.291 118.558,321.009 118.005 C 320.726 117.452,320.364 116.190,320.205 115.200 C 320.045 114.210,319.587 112.770,319.186 112.000 C 318.786 111.230,318.375 110.150,318.272 109.600 C 318.034 108.317,314.866 100.672,313.963 99.200 C 313.761 98.870,313.496 98.330,313.376 98.000 C 313.255 97.670,312.902 96.950,312.590 96.400 C 312.279 95.850,311.820 94.950,311.570 94.400 C 311.319 93.850,310.952 93.130,310.752 92.800 C 310.553 92.470,310.025 91.480,309.578 90.600 C 308.603 88.679,307.565 86.971,305.301 83.560 C 304.367 82.152,303.377 80.660,303.101 80.244 C 302.825 79.829,302.226 79.019,301.768 78.444 C 301.311 77.870,299.972 76.140,298.793 74.600 C 296.042 71.005,294.778 69.596,289.300 64.017 C 285.238 59.880,284.800 59.293,284.800 57.984 C 284.800 57.187,284.452 55.379,284.028 53.967 C 283.603 52.555,283.141 50.378,283.002 49.128 C 282.863 47.878,282.491 46.641,282.175 46.379 C 281.859 46.117,281.600 45.501,281.600 45.011 C 281.600 43.826,280.820 41.555,280.143 40.769 C 279.845 40.421,279.600 39.770,279.600 39.322 C 279.600 38.874,279.251 38.064,278.825 37.522 C 278.398 36.980,277.932 36.069,277.789 35.498 C 277.645 34.926,277.184 34.148,276.764 33.767 C 276.344 33.387,276.000 32.862,276.000 32.600 C 276.000 32.338,275.640 31.798,275.200 31.400 C 274.760 31.002,274.400 30.449,274.400 30.172 C 274.400 29.671,273.356 28.272,271.770 26.649 C 271.314 26.182,270.824 25.485,270.683 25.100 C 270.541 24.715,270.149 24.400,269.813 24.400 C 269.476 24.400,269.200 24.233,269.200 24.028 C 269.200 23.484,266.583 20.800,266.053 20.800 C 265.804 20.800,265.600 20.530,265.600 20.200 C 265.600 19.870,265.426 19.600,265.214 19.600 C 265.001 19.600,264.236 19.055,263.514 18.389 C 261.187 16.243,261.020 16.114,259.700 15.442 C 258.985 15.077,258.400 14.608,258.400 14.397 C 258.400 14.187,257.950 13.902,257.400 13.764 C 256.850 13.626,256.400 13.351,256.400 13.153 C 256.400 12.955,255.680 12.505,254.800 12.153 C 253.920 11.801,253.200 11.367,253.200 11.188 C 253.200 11.009,252.525 10.642,251.700 10.373 C 250.875 10.104,249.771 9.550,249.246 9.142 C 248.721 8.734,247.940 8.400,247.509 8.400 C 247.079 8.400,246.269 8.040,245.709 7.600 C 245.150 7.160,244.221 6.802,243.646 6.804 C 242.500 6.808,245.968 8.752,247.200 8.796 C 247.530 8.808,248.250 9.170,248.800 9.600 C 249.350 10.030,250.080 10.386,250.422 10.391 C 250.765 10.396,251.655 10.850,252.400 11.400 C 253.145 11.950,253.962 12.400,254.215 12.400 C 254.469 12.400,255.199 12.851,255.838 13.402 C 256.477 13.954,257.315 14.506,257.700 14.629 C 258.085 14.753,258.400 15.010,258.400 15.200 C 258.400 15.390,258.757 15.660,259.194 15.798 C 261.074 16.395,269.565 24.300,272.320 28.018 C 273.973 30.250,277.600 35.911,277.600 36.260 C 277.600 36.403,278.070 37.528,278.644 38.760 C 280.353 42.425,280.678 43.247,281.764 46.648 C 282.334 48.435,282.800 50.410,282.800 51.037 C 282.800 51.665,283.343 54.358,284.006 57.022 L 285.211 61.867 285.106 130.916 C 285.009 194.334,284.947 200.008,284.345 200.483 C 283.894 200.838,283.625 201.870,283.484 203.785 C 283.322 205.974,283.099 206.714,282.439 207.249 C 281.770 207.791,281.600 208.376,281.600 210.141 C 281.600 211.835,281.427 212.477,280.864 212.877 C 280.452 213.170,280.009 214.151,279.858 215.106 C 279.710 216.044,279.231 217.169,278.794 217.606 C 278.357 218.043,278.000 218.928,278.000 219.573 C 278.000 220.395,277.760 220.822,277.200 221.000 C 276.606 221.189,276.400 221.605,276.400 222.618 C 276.400 223.631,276.143 224.150,275.400 224.637 C 274.704 225.093,274.400 225.654,274.400 226.483 C 274.400 227.338,274.174 227.734,273.600 227.884 C 273.133 228.006,272.800 228.430,272.800 228.901 C 272.800 229.345,272.350 230.125,271.800 230.635 C 271.250 231.145,270.800 231.947,270.800 232.418 C 270.800 232.938,270.486 233.357,270.000 233.484 C 269.560 233.599,269.200 234.020,269.200 234.420 C 269.200 234.819,268.840 235.260,268.400 235.400 C 267.960 235.540,267.600 235.998,267.600 236.419 C 267.600 236.902,267.231 237.277,266.600 237.436 C 265.963 237.596,265.600 237.969,265.600 238.462 C 265.600 238.889,265.150 239.655,264.600 240.165 C 264.050 240.675,263.600 241.267,263.600 241.482 C 263.600 241.696,263.150 242.077,262.600 242.327 C 262.050 242.578,261.600 243.057,261.600 243.391 C 261.600 243.726,261.313 244.000,260.963 244.000 C 260.612 244.000,260.231 244.360,260.116 244.800 C 260.001 245.240,259.698 245.600,259.442 245.600 C 259.187 245.600,258.502 246.095,257.919 246.700 C 255.642 249.065,254.940 249.600,254.114 249.600 C 253.528 249.600,253.215 249.886,253.128 250.500 C 253.048 251.063,252.679 251.446,252.141 251.522 C 251.668 251.590,251.190 251.995,251.078 252.422 C 250.963 252.862,250.531 253.200,250.084 253.200 C 249.644 253.200,249.205 253.536,249.095 253.958 C 248.978 254.407,248.387 254.827,247.645 254.990 C 246.957 255.141,246.209 255.610,245.983 256.033 C 245.753 256.462,245.149 256.800,244.613 256.800 C 244.005 256.800,243.561 257.093,243.400 257.600 C 243.221 258.162,242.795 258.400,241.963 258.400 C 241.069 258.400,240.687 258.644,240.400 259.400 C 240.095 260.203,239.745 260.400,238.624 260.400 C 237.638 260.400,237.103 260.635,236.800 261.200 C 236.498 261.764,235.962 262.000,234.982 262.000 C 234.099 262.000,233.349 262.284,232.924 262.780 C 232.496 263.280,231.496 263.655,230.141 263.825 C 228.561 264.022,227.965 264.280,227.786 264.844 C 227.580 265.494,227.137 265.600,224.620 265.600 C 222.090 265.600,221.667 265.702,221.496 266.354 C 221.328 266.995,220.744 267.151,217.557 267.403 C 214.816 267.620,213.688 267.873,213.340 268.350 C 212.621 269.334,187.384 269.338,186.664 268.355 C 186.315 267.878,185.164 267.632,182.248 267.414 C 178.851 267.159,178.276 267.013,178.105 266.359 C 177.937 265.714,177.525 265.600,175.367 265.600 C 173.290 265.600,172.755 265.463,172.425 264.847 C 172.160 264.351,171.370 263.997,170.111 263.810 C 169.055 263.653,167.880 263.185,167.484 262.763 C 167.018 262.266,166.227 262.000,165.211 262.000 C 164.005 262.000,163.597 261.820,163.400 261.200 C 163.211 260.606,162.795 260.400,161.782 260.400 C 160.769 260.400,160.250 260.143,159.763 259.400 C 159.369 258.798,158.730 258.400,158.157 258.400 C 157.635 258.400,156.982 258.040,156.707 257.600 C 156.432 257.160,155.784 256.800,155.266 256.800 C 154.677 256.800,154.251 256.515,154.126 256.038 C 154.000 255.555,153.434 255.183,152.586 255.024 C 151.777 254.872,151.151 254.476,151.008 254.026 C 150.878 253.615,150.328 253.168,149.786 253.032 C 149.244 252.896,148.800 252.538,148.800 252.236 C 148.800 251.934,148.350 251.574,147.800 251.436 C 147.154 251.274,146.800 250.904,146.800 250.392 C 146.800 249.901,146.531 249.600,146.092 249.600 C 144.755 249.600,134.988 240.289,134.568 238.613 C 134.432 238.072,133.978 237.520,133.560 237.387 C 133.142 237.255,132.800 236.909,132.800 236.619 C 132.800 236.329,132.350 235.797,131.800 235.437 C 131.250 235.076,130.800 234.559,130.800 234.287 C 130.800 234.015,130.440 233.568,130.000 233.293 C 129.490 232.974,129.200 232.360,129.200 231.597 C 129.200 230.671,129.021 230.400,128.408 230.400 C 127.884 230.400,127.525 230.041,127.350 229.342 C 127.204 228.760,126.750 227.950,126.342 227.542 C 125.934 227.134,125.600 226.371,125.600 225.847 C 125.600 225.241,125.318 224.820,124.826 224.691 C 124.305 224.555,123.959 223.986,123.766 222.944 C 123.608 222.095,123.146 221.165,122.739 220.877 C 122.269 220.545,122.000 219.862,122.000 219.004 C 122.000 218.036,121.788 217.587,121.251 217.416 C 120.710 217.244,120.445 216.673,120.297 215.359 C 120.157 214.118,119.822 213.351,119.246 212.947 C 118.553 212.462,118.400 211.942,118.400 210.074 C 118.400 208.288,118.239 207.692,117.661 207.331 C 117.096 206.978,116.864 206.180,116.676 203.941 C 116.496 201.788,116.241 200.873,115.715 200.489 C 115.034 199.990,114.995 196.716,114.889 131.083 L 114.778 62.201 115.780 58.400 C 116.331 56.310,116.981 53.160,117.226 51.400 C 117.470 49.640,117.816 48.020,117.996 47.800 C 118.175 47.580,118.527 46.590,118.779 45.600 C 120.579 38.506,125.954 29.572,132.600 22.629 C 135.385 19.719,145.165 12.400,146.267 12.400 C 146.492 12.400,147.002 12.040,147.400 11.600 C 147.798 11.160,148.319 10.800,148.556 10.800 C 148.794 10.800,149.981 10.328,151.194 9.752 C 157.394 6.807,157.405 6.800,156.343 6.800 C 155.782 6.800,155.018 7.138,154.644 7.552 M113.280 64.080 C 112.907 64.453,112.800 64.347,112.800 63.600 C 112.800 62.853,112.907 62.747,113.280 63.120 C 113.653 63.493,113.653 63.707,113.280 64.080 M112.400 65.151 C 112.400 65.344,112.130 65.726,111.800 66.000 C 111.299 66.416,111.200 66.358,111.200 65.649 C 111.200 65.161,111.455 64.800,111.800 64.800 C 112.130 64.800,112.400 64.958,112.400 65.151 M289.200 64.967 C 289.200 65.850,288.649 66.373,288.153 65.961 C 287.363 65.305,287.470 64.800,288.400 64.800 C 288.840 64.800,289.200 64.875,289.200 64.967 M110.394 67.100 C 110.371 68.209,107.600 70.361,107.600 69.270 C 107.600 68.667,107.845 68.400,108.400 68.400 C 108.933 68.400,109.200 68.133,109.200 67.600 C 109.200 67.156,109.467 66.800,109.800 66.800 C 110.130 66.800,110.397 66.935,110.394 67.100 M290.800 67.600 C 290.800 68.133,291.067 68.400,291.600 68.400 C 292.166 68.400,292.397 68.663,292.388 69.300 C 292.377 70.145,292.303 70.120,291.188 68.894 C 289.973 67.558,289.688 66.800,290.400 66.800 C 290.620 66.800,290.800 67.160,290.800 67.600 M297.933 76.387 C 297.847 76.637,297.587 76.637,297.200 76.387 C 296.667 76.043,296.667 75.957,297.200 75.613 C 297.815 75.216,298.198 75.620,297.933 76.387 M103.200 75.976 C 103.200 76.647,102.491 76.813,102.254 76.198 C 102.115 75.835,102.256 75.600,102.613 75.600 C 102.936 75.600,103.200 75.769,103.200 75.976 M101.600 77.751 C 101.600 78.054,101.330 78.526,101.000 78.800 C 100.493 79.221,100.400 79.136,100.400 78.249 C 100.400 77.583,100.619 77.200,101.000 77.200 C 101.330 77.200,101.600 77.448,101.600 77.751 M299.600 78.249 C 299.600 79.136,299.507 79.221,299.000 78.800 C 298.670 78.526,298.400 78.054,298.400 77.751 C 298.400 77.448,298.670 77.200,299.000 77.200 C 299.381 77.200,299.600 77.583,299.600 78.249 M98.119 82.653 C 98.447 82.980,97.689 84.400,97.186 84.400 C 96.974 84.400,96.800 83.950,96.800 83.400 C 96.800 82.468,97.525 82.058,98.119 82.653 M303.200 83.400 C 303.200 84.517,302.616 84.741,302.243 83.767 C 301.859 82.766,301.954 82.400,302.600 82.400 C 302.973 82.400,303.200 82.778,303.200 83.400 M96.000 86.200 C 96.000 86.530,95.820 86.800,95.600 86.800 C 95.380 86.800,95.200 86.530,95.200 86.200 C 95.200 85.870,95.380 85.600,95.600 85.600 C 95.820 85.600,96.000 85.870,96.000 86.200 M94.519 87.853 C 94.847 88.180,94.089 89.600,93.586 89.600 C 93.374 89.600,93.200 89.150,93.200 88.600 C 93.200 87.668,93.925 87.258,94.519 87.853 M306.800 88.633 C 306.800 89.886,305.861 89.749,305.672 88.469 C 305.587 87.892,305.755 87.600,306.172 87.600 C 306.581 87.600,306.800 87.961,306.800 88.633 M92.667 91.431 C 92.800 91.778,92.615 92.357,92.255 92.717 C 91.648 93.323,91.600 93.276,91.600 92.086 C 91.600 90.742,92.250 90.344,92.667 91.431 M308.502 91.300 C 308.893 92.342,308.187 93.502,307.717 92.591 C 307.289 91.763,307.436 90.800,307.991 90.800 C 308.169 90.800,308.399 91.025,308.502 91.300 M90.680 95.041 C 90.752 95.256,90.544 95.785,90.218 96.216 C 89.656 96.960,89.625 96.931,89.613 95.667 C 89.601 94.431,90.334 94.001,90.680 95.041 M310.400 95.824 C 310.400 96.404,310.227 96.740,310.000 96.600 C 309.780 96.464,309.600 96.003,309.600 95.576 C 309.600 95.149,309.780 94.800,310.000 94.800 C 310.220 94.800,310.400 95.261,310.400 95.824 M88.794 98.700 C 88.791 99.085,88.613 99.670,88.400 100.000 C 88.106 100.455,88.011 100.286,88.006 99.300 C 88.003 98.585,88.180 98.000,88.400 98.000 C 88.620 98.000,88.797 98.315,88.794 98.700 M311.988 99.300 C 311.978 100.405,311.912 100.491,311.554 99.876 C 311.323 99.477,311.232 98.892,311.354 98.576 C 311.724 97.612,312.001 97.929,311.988 99.300 M87.194 102.300 C 87.176 103.177,86.412 103.759,86.406 102.900 C 86.403 102.405,86.580 102.000,86.800 102.000 C 87.020 102.000,87.197 102.135,87.194 102.300 M314.000 103.024 C 314.000 103.604,313.827 103.940,313.600 103.800 C 313.380 103.664,313.200 103.203,313.200 102.776 C 313.200 102.349,313.380 102.000,313.600 102.000 C 313.820 102.000,314.000 102.461,314.000 103.024 M85.600 106.010 C 85.600 106.665,85.104 107.600,84.757 107.600 C 84.561 107.600,84.400 107.066,84.400 106.413 C 84.400 105.521,84.550 105.283,85.000 105.455 C 85.330 105.582,85.600 105.832,85.600 106.010 M315.600 106.449 C 315.600 107.514,315.512 107.625,315.000 107.200 C 314.039 106.402,314.235 105.631,315.500 105.232 C 315.555 105.214,315.600 105.762,315.600 106.449 M83.756 110.629 C 83.978 111.209,83.414 112.800,82.986 112.800 C 82.884 112.800,82.800 112.170,82.800 111.400 C 82.800 109.953,83.332 109.524,83.756 110.629 M317.600 111.433 C 317.600 112.402,317.438 112.813,317.100 112.700 C 316.160 112.387,316.237 110.000,317.187 110.000 C 317.414 110.000,317.600 110.645,317.600 111.433 M81.910 117.074 C 81.621 120.567,80.800 120.729,80.800 117.293 C 80.800 114.820,80.889 114.459,81.445 114.672 C 81.960 114.870,82.053 115.351,81.910 117.074 M319.200 117.224 C 319.200 118.638,319.043 119.550,318.823 119.414 C 318.341 119.116,317.833 115.794,318.182 115.228 C 318.812 114.209,319.200 114.970,319.200 117.224 M79.994 123.700 C 79.991 124.855,79.813 126.070,79.600 126.400 C 79.328 126.820,79.210 126.191,79.206 124.300 C 79.203 122.763,79.372 121.600,79.600 121.600 C 79.820 121.600,79.997 122.545,79.994 123.700 M321.200 124.480 C 321.200 128.071,320.346 127.710,320.078 124.006 C 319.932 121.983,320.007 121.600,320.552 121.600 C 321.089 121.600,321.200 122.092,321.200 124.480 M78.386 133.424 C 78.395 135.306,78.204 136.506,77.813 137.024 C 77.285 137.721,77.226 137.330,77.227 133.200 C 77.228 129.012,77.280 128.690,77.800 129.600 C 78.142 130.198,78.377 131.734,78.386 133.424 M322.794 133.500 C 322.790 136.424,322.664 137.608,322.400 137.200 C 321.689 136.099,321.919 129.200,322.667 129.200 C 322.740 129.200,322.797 131.135,322.794 133.500 " stroke="none" fill="#e4d4d4" fill-rule="evenodd"></path><path id="path3" d="M0.000 200.000 L 0.000 400.000 37.187 400.000 L 74.375 400.000 74.515 269.700 C 74.645 149.142,74.706 139.176,75.331 136.400 C 75.703 134.750,76.176 131.861,76.383 129.980 C 76.590 128.099,76.964 126.029,77.213 125.380 C 77.463 124.731,77.910 123.030,78.206 121.600 C 78.502 120.170,79.019 118.280,79.355 117.400 C 79.690 116.520,79.973 115.370,79.982 114.844 C 79.992 114.318,80.339 113.148,80.752 112.244 C 81.962 109.601,83.600 105.230,83.600 104.646 C 83.600 104.350,83.960 103.650,84.400 103.091 C 84.840 102.531,85.200 101.856,85.200 101.591 C 85.200 101.084,88.869 93.622,90.801 90.200 C 91.422 89.100,92.188 87.660,92.503 87.000 C 92.818 86.340,93.374 85.553,93.738 85.251 C 94.102 84.949,94.400 84.550,94.400 84.365 C 94.400 84.180,94.946 83.257,95.613 82.314 C 96.280 81.371,97.130 80.150,97.501 79.600 C 100.544 75.088,110.381 63.824,113.498 61.283 C 115.006 60.054,115.129 59.795,115.397 57.285 C 115.555 55.808,115.911 54.150,116.189 53.600 C 116.466 53.050,116.819 51.430,116.973 50.000 C 117.127 48.570,117.487 47.037,117.774 46.594 C 118.061 46.151,118.420 45.161,118.573 44.394 C 118.962 42.435,119.634 40.800,120.049 40.800 C 120.242 40.800,120.400 40.448,120.400 40.019 C 120.400 39.077,121.213 37.200,121.621 37.200 C 121.782 37.200,122.034 36.705,122.181 36.100 C 122.328 35.495,123.158 33.959,124.024 32.687 C 124.891 31.416,125.600 30.219,125.600 30.029 C 125.600 29.839,126.047 29.260,126.593 28.742 C 127.139 28.224,127.589 27.644,127.593 27.453 C 127.597 27.262,128.307 26.421,129.170 25.583 C 130.034 24.744,130.940 23.685,131.184 23.229 C 131.428 22.773,131.880 22.400,132.187 22.400 C 132.495 22.400,132.860 22.040,133.000 21.600 C 133.140 21.160,133.512 20.800,133.827 20.800 C 134.142 20.800,134.400 20.652,134.400 20.472 C 134.400 19.653,145.501 11.600,146.629 11.600 C 146.896 11.600,147.209 11.353,147.325 11.051 C 147.441 10.748,148.163 10.383,148.929 10.240 C 149.696 10.096,150.423 9.716,150.546 9.396 C 150.669 9.076,151.488 8.699,152.366 8.559 C 153.245 8.419,154.269 7.965,154.644 7.552 C 155.018 7.138,155.793 6.800,156.365 6.800 C 156.938 6.800,158.252 6.350,159.285 5.800 C 160.318 5.250,161.672 4.800,162.293 4.800 C 162.914 4.800,163.787 4.544,164.233 4.232 C 164.680 3.919,166.205 3.461,167.622 3.214 C 169.040 2.967,170.830 2.523,171.600 2.226 C 172.370 1.929,174.440 1.563,176.200 1.412 C 179.901 1.094,180.800 0.890,180.800 0.373 C 180.800 0.143,146.045 0.000,90.400 0.000 L 0.000 0.000 0.000 200.000 M219.200 0.373 C 219.200 0.902,220.130 1.105,224.000 1.418 C 225.870 1.569,227.850 1.921,228.400 2.200 C 228.950 2.478,230.390 2.832,231.600 2.987 C 232.810 3.141,234.481 3.612,235.312 4.034 C 236.144 4.455,237.332 4.800,237.953 4.800 C 238.573 4.800,239.927 5.250,240.962 5.800 C 241.996 6.350,243.259 6.800,243.767 6.800 C 244.276 6.800,245.150 7.160,245.709 7.600 C 246.269 8.040,247.079 8.400,247.509 8.400 C 247.940 8.400,248.721 8.734,249.246 9.142 C 249.771 9.550,250.875 10.104,251.700 10.373 C 252.525 10.642,253.200 11.009,253.200 11.188 C 253.200 11.367,253.920 11.801,254.800 12.153 C 255.680 12.505,256.400 12.955,256.400 13.153 C 256.400 13.351,256.850 13.626,257.400 13.764 C 257.950 13.902,258.400 14.187,258.400 14.397 C 258.400 14.608,258.985 15.077,259.700 15.442 C 261.020 16.114,261.187 16.243,263.514 18.389 C 264.236 19.055,265.001 19.600,265.214 19.600 C 265.426 19.600,265.600 19.870,265.600 20.200 C 265.600 20.530,265.804 20.800,266.053 20.800 C 266.583 20.800,269.200 23.484,269.200 24.028 C 269.200 24.233,269.476 24.400,269.813 24.400 C 270.149 24.400,270.541 24.715,270.683 25.100 C 270.824 25.485,271.314 26.182,271.770 26.649 C 273.356 28.272,274.400 29.671,274.400 30.172 C 274.400 30.449,274.760 31.002,275.200 31.400 C 275.640 31.798,276.000 32.338,276.000 32.600 C 276.000 32.862,276.344 33.387,276.764 33.767 C 277.184 34.148,277.645 34.926,277.789 35.498 C 277.932 36.069,278.398 36.980,278.825 37.522 C 279.251 38.064,279.600 38.874,279.600 39.322 C 279.600 39.770,279.845 40.421,280.143 40.769 C 280.820 41.555,281.600 43.826,281.600 45.011 C 281.600 45.501,281.859 46.117,282.175 46.379 C 282.491 46.641,282.863 47.878,283.002 49.128 C 283.141 50.378,283.603 52.555,284.028 53.967 C 284.452 55.379,284.800 57.187,284.800 57.984 C 284.800 59.293,285.238 59.880,289.300 64.017 C 294.778 69.596,296.042 71.005,298.793 74.600 C 299.972 76.140,301.311 77.870,301.768 78.444 C 302.226 79.019,302.825 79.829,303.101 80.244 C 303.377 80.660,304.367 82.152,305.301 83.560 C 307.565 86.971,308.603 88.679,309.578 90.600 C 310.025 91.480,310.543 92.470,310.730 92.800 C 311.589 94.314,312.413 95.884,312.830 96.800 C 313.081 97.350,313.447 98.070,313.645 98.400 C 313.843 98.730,314.113 99.270,314.246 99.600 C 314.378 99.930,314.884 101.100,315.371 102.200 C 317.142 106.202,318.091 108.621,318.272 109.600 C 318.375 110.150,318.786 111.230,319.186 112.000 C 319.587 112.770,320.045 114.210,320.205 115.200 C 320.364 116.190,320.726 117.452,321.009 118.005 C 321.291 118.558,321.652 119.908,321.811 121.005 C 321.969 122.102,322.351 123.619,322.660 124.374 C 322.969 125.130,323.393 127.380,323.602 129.374 C 323.812 131.369,324.292 133.990,324.669 135.200 C 325.310 137.256,325.364 146.003,325.487 268.700 L 325.619 400.000 362.809 400.000 L 400.000 400.000 400.000 200.000 L 400.000 0.000 309.600 0.000 C 253.955 0.000,219.200 0.143,219.200 0.373 " stroke="none" fill="#fbfbfb" fill-rule="evenodd"></path><path id="path4" d="M184.317 0.449 C 184.234 0.697,183.454 1.036,182.584 1.203 L 181.000 1.508 183.000 1.507 C 185.597 1.505,187.292 1.126,187.500 0.500 C 187.615 0.156,187.169 0.000,186.067 0.000 C 185.187 0.000,184.399 0.202,184.317 0.449 M212.400 0.376 C 212.400 1.063,213.110 1.215,219.078 1.805 C 222.335 2.126,225.720 2.654,226.600 2.977 C 227.480 3.300,228.830 3.557,229.600 3.548 C 231.727 3.522,223.127 1.681,219.494 1.384 C 217.659 1.234,216.156 0.899,215.822 0.565 C 215.195 -0.062,212.400 -0.217,212.400 0.376 M173.000 2.595 C 170.668 3.203,169.840 3.546,170.650 3.567 C 171.337 3.585,172.687 3.321,173.650 2.981 C 174.612 2.640,176.660 2.214,178.200 2.033 L 181.000 1.704 178.800 1.679 C 177.590 1.666,174.980 2.078,173.000 2.595 M166.229 4.072 C 165.805 4.318,164.635 4.746,163.629 5.024 C 162.269 5.399,162.070 5.538,162.851 5.564 C 163.430 5.584,165.050 5.159,166.451 4.620 C 168.124 3.976,168.656 3.637,168.000 3.632 C 167.450 3.628,166.653 3.826,166.229 4.072 M232.600 4.257 C 233.480 4.599,235.190 5.124,236.400 5.423 C 240.247 6.374,245.007 8.186,248.479 10.019 C 249.293 10.449,250.204 10.800,250.504 10.800 C 250.804 10.800,251.398 11.122,251.825 11.515 C 252.251 11.908,253.179 12.467,253.887 12.758 C 254.594 13.048,255.381 13.537,255.636 13.843 C 255.890 14.149,256.301 14.400,256.549 14.400 C 256.797 14.399,256.477 13.949,255.838 13.400 C 255.199 12.850,254.469 12.400,254.215 12.400 C 253.962 12.400,253.145 11.950,252.400 11.400 C 251.655 10.850,250.765 10.396,250.422 10.391 C 250.080 10.386,249.350 10.030,248.800 9.600 C 248.250 9.170,247.530 8.813,247.200 8.806 C 246.870 8.800,246.060 8.507,245.400 8.156 C 243.801 7.304,240.394 6.088,237.187 5.225 C 235.750 4.838,234.186 4.314,233.713 4.061 C 233.240 3.807,232.436 3.608,231.926 3.618 C 231.228 3.631,231.394 3.788,232.600 4.257 M159.824 6.213 C 159.396 6.536,158.688 6.800,158.250 6.800 C 157.246 6.800,153.689 8.496,154.280 8.693 C 154.520 8.773,155.320 8.471,156.058 8.021 C 156.796 7.571,157.850 7.201,158.400 7.199 C 158.950 7.197,159.940 6.837,160.600 6.400 C 161.260 5.963,161.530 5.610,161.200 5.615 C 160.870 5.621,160.251 5.890,159.824 6.213 M151.408 9.591 C 150.752 10.023,149.736 10.482,149.149 10.611 C 148.090 10.844,146.298 12.400,147.089 12.400 C 147.316 12.400,147.725 12.131,147.998 11.802 C 148.272 11.473,149.194 10.994,150.047 10.739 C 150.901 10.483,151.600 10.137,151.600 9.970 C 151.600 9.803,152.095 9.486,152.700 9.265 C 153.305 9.044,153.530 8.850,153.200 8.834 C 152.870 8.818,152.064 9.159,151.408 9.591 M142.822 14.425 C 139.308 16.792,136.284 19.217,136.534 19.467 C 136.631 19.564,137.226 19.162,137.855 18.572 C 138.485 17.983,139.720 17.046,140.600 16.490 C 141.480 15.935,142.290 15.368,142.400 15.232 C 142.510 15.095,143.500 14.404,144.600 13.696 C 145.700 12.988,146.420 12.412,146.200 12.414 C 145.980 12.417,144.460 13.321,142.822 14.425 M258.000 15.213 C 258.550 15.659,260.591 17.293,262.535 18.842 C 265.941 21.556,268.271 23.780,270.568 26.511 C 272.080 28.307,275.600 33.316,275.600 33.671 C 275.600 33.833,276.050 34.628,276.600 35.438 C 277.150 36.249,277.600 36.706,277.600 36.455 C 277.600 35.948,274.366 30.780,272.320 28.018 C 269.565 24.300,261.074 16.395,259.194 15.798 C 258.757 15.660,258.400 15.397,258.400 15.216 C 258.400 15.034,258.085 14.776,257.700 14.643 C 257.265 14.492,257.378 14.707,258.000 15.213 M133.581 21.717 C 128.271 26.872,123.597 33.431,121.267 39.000 C 120.631 40.522,122.303 37.986,123.570 35.508 C 125.478 31.778,129.993 25.681,132.861 22.962 C 135.059 20.879,136.226 19.600,135.930 19.600 C 135.837 19.600,134.780 20.553,133.581 21.717 M277.688 37.500 C 277.773 37.665,278.151 38.520,278.528 39.400 C 278.905 40.280,279.477 41.540,279.798 42.200 C 280.119 42.860,280.571 44.273,280.802 45.341 C 281.033 46.408,281.487 47.794,281.811 48.421 C 282.135 49.048,282.425 50.154,282.454 50.880 C 282.500 51.972,282.541 52.028,282.694 51.207 C 282.871 50.262,281.343 44.752,280.196 42.200 C 279.899 41.540,279.294 40.145,278.851 39.100 C 278.408 38.055,277.930 37.200,277.789 37.200 C 277.648 37.200,277.603 37.335,277.688 37.500 M120.114 41.730 C 119.627 42.869,119.019 44.658,118.765 45.707 C 118.510 46.756,118.144 47.711,117.951 47.830 C 117.758 47.950,117.601 48.442,117.602 48.924 C 117.606 50.224,118.710 47.992,119.234 45.625 C 119.456 44.621,120.005 43.036,120.453 42.103 C 120.902 41.169,121.208 40.238,121.134 40.033 C 121.060 39.828,120.601 40.592,120.114 41.730 M117.200 51.352 C 117.200 52.095,116.655 54.869,115.989 57.515 L 114.778 62.327 114.889 131.146 C 114.995 196.718,115.034 199.990,115.715 200.489 C 116.241 200.873,116.496 201.788,116.676 203.941 C 116.864 206.180,117.096 206.978,117.661 207.331 C 118.239 207.692,118.400 208.288,118.400 210.074 C 118.400 211.942,118.553 212.462,119.246 212.947 C 119.822 213.351,120.157 214.118,120.297 215.359 C 120.445 216.673,120.710 217.244,121.251 217.416 C 121.788 217.587,122.000 218.036,122.000 219.004 C 122.000 219.862,122.269 220.545,122.739 220.877 C 123.146 221.165,123.608 222.095,123.766 222.944 C 123.959 223.986,124.305 224.555,124.826 224.691 C 125.318 224.820,125.600 225.241,125.600 225.847 C 125.600 226.371,125.934 227.134,126.342 227.542 C 126.750 227.950,127.204 228.760,127.350 229.342 C 127.525 230.041,127.884 230.400,128.408 230.400 C 129.021 230.400,129.200 230.671,129.200 231.597 C 129.200 232.360,129.490 232.974,130.000 233.293 C 130.440 233.568,130.800 234.015,130.800 234.287 C 130.800 234.559,131.250 235.076,131.800 235.437 C 132.350 235.797,132.800 236.329,132.800 236.619 C 132.800 236.909,133.142 237.255,133.560 237.387 C 133.978 237.520,134.432 238.072,134.568 238.613 C 134.988 240.289,144.755 249.600,146.092 249.600 C 146.531 249.600,146.800 249.901,146.800 250.392 C 146.800 250.904,147.154 251.274,147.800 251.436 C 148.350 251.574,148.800 251.934,148.800 252.236 C 148.800 252.538,149.244 252.896,149.786 253.032 C 150.328 253.168,150.878 253.615,151.008 254.026 C 151.151 254.476,151.777 254.872,152.586 255.024 C 153.434 255.183,154.000 255.555,154.126 256.038 C 154.251 256.515,154.677 256.800,155.266 256.800 C 155.784 256.800,156.432 257.160,156.707 257.600 C 156.982 258.040,157.635 258.400,158.157 258.400 C 158.730 258.400,159.369 258.798,159.763 259.400 C 160.250 260.143,160.769 260.400,161.782 260.400 C 162.795 260.400,163.211 260.606,163.400 261.200 C 163.597 261.820,164.005 262.000,165.211 262.000 C 166.227 262.000,167.018 262.266,167.484 262.763 C 167.880 263.185,169.055 263.653,170.111 263.810 C 171.370 263.997,172.160 264.351,172.425 264.847 C 172.755 265.463,173.290 265.600,175.367 265.600 C 177.525 265.600,177.937 265.714,178.105 266.359 C 178.276 267.013,178.851 267.159,182.248 267.414 C 185.164 267.632,186.315 267.878,186.664 268.355 C 187.384 269.338,212.621 269.334,213.340 268.350 C 213.688 267.873,214.816 267.620,217.557 267.403 C 220.744 267.151,221.328 266.995,221.496 266.354 C 221.667 265.702,222.090 265.600,224.620 265.600 C 227.137 265.600,227.580 265.494,227.786 264.844 C 227.965 264.280,228.561 264.022,230.141 263.825 C 231.496 263.655,232.496 263.280,232.924 262.780 C 233.349 262.284,234.099 262.000,234.982 262.000 C 235.962 262.000,236.498 261.764,236.800 261.200 C 237.103 260.635,237.638 260.400,238.624 260.400 C 239.745 260.400,240.095 260.203,240.400 259.400 C 240.687 258.644,241.069 258.400,241.963 258.400 C 242.795 258.400,243.221 258.162,243.400 257.600 C 243.561 257.093,244.005 256.800,244.613 256.800 C 245.149 256.800,245.753 256.462,245.983 256.033 C 246.209 255.610,246.957 255.141,247.645 254.990 C 248.387 254.827,248.978 254.407,249.095 253.958 C 249.205 253.536,249.644 253.200,250.084 253.200 C 250.531 253.200,250.963 252.862,251.078 252.422 C 251.190 251.995,251.668 251.590,252.141 251.522 C 252.679 251.446,253.048 251.063,253.128 250.500 C 253.215 249.886,253.528 249.600,254.114 249.600 C 254.940 249.600,255.642 249.065,257.919 246.700 C 258.502 246.095,259.208 245.600,259.489 245.600 C 259.770 245.600,260.000 245.313,260.000 244.963 C 260.000 244.612,260.360 244.231,260.800 244.116 C 261.240 244.001,261.600 243.654,261.600 243.345 C 261.600 243.036,262.050 242.578,262.600 242.327 C 263.150 242.077,263.600 241.696,263.600 241.482 C 263.600 241.267,264.050 240.675,264.600 240.165 C 265.150 239.655,265.600 238.889,265.600 238.462 C 265.600 237.969,265.963 237.596,266.600 237.436 C 267.231 237.277,267.600 236.902,267.600 236.419 C 267.600 235.998,267.960 235.540,268.400 235.400 C 268.840 235.260,269.200 234.819,269.200 234.420 C 269.200 234.020,269.560 233.599,270.000 233.484 C 270.486 233.357,270.800 232.938,270.800 232.418 C 270.800 231.947,271.250 231.145,271.800 230.635 C 272.350 230.125,272.800 229.345,272.800 228.901 C 272.800 228.430,273.133 228.006,273.600 227.884 C 274.174 227.734,274.400 227.338,274.400 226.483 C 274.400 225.654,274.704 225.093,275.400 224.637 C 276.143 224.150,276.400 223.631,276.400 222.618 C 276.400 221.605,276.606 221.189,277.200 221.000 C 277.760 220.822,278.000 220.395,278.000 219.573 C 278.000 218.928,278.357 218.043,278.794 217.606 C 279.231 217.169,279.710 216.044,279.858 215.106 C 280.009 214.151,280.452 213.170,280.864 212.877 C 281.427 212.477,281.600 211.835,281.600 210.141 C 281.600 208.376,281.770 207.791,282.439 207.249 C 283.099 206.714,283.322 205.974,283.484 203.785 C 283.625 201.870,283.894 200.838,284.345 200.483 C 284.947 200.008,285.008 194.333,285.103 130.883 L 285.206 61.800 284.028 57.200 C 283.380 54.670,282.839 53.148,282.825 53.817 C 282.811 54.487,283.257 56.609,283.815 58.534 L 284.829 62.033 284.699 128.117 C 284.579 188.950,284.515 194.354,283.892 196.138 C 283.520 197.204,283.034 199.523,282.812 201.292 C 282.590 203.060,282.240 204.710,282.034 204.958 C 281.828 205.207,281.390 206.488,281.059 207.805 C 280.331 210.706,279.111 214.173,278.244 215.800 C 277.893 216.460,277.603 217.180,277.600 217.400 C 277.597 217.620,276.975 218.970,276.217 220.400 C 275.458 221.830,274.474 223.720,274.029 224.600 C 273.584 225.480,272.994 226.560,272.719 227.000 C 271.607 228.775,270.971 229.761,270.400 230.596 C 270.070 231.078,269.303 232.220,268.696 233.135 C 267.524 234.898,256.233 246.388,253.200 248.903 C 249.850 251.680,248.886 252.400,248.512 252.400 C 248.307 252.400,247.717 252.850,247.200 253.400 C 246.683 253.950,246.109 254.400,245.924 254.400 C 245.598 254.400,242.656 256.049,239.663 257.909 C 238.858 258.409,237.750 259.014,237.200 259.254 C 236.650 259.495,235.460 260.031,234.556 260.446 C 233.652 260.860,232.749 261.200,232.550 261.200 C 232.351 261.200,231.561 261.531,230.794 261.936 C 230.027 262.341,228.502 262.895,227.405 263.166 C 226.308 263.437,225.201 263.833,224.945 264.045 C 224.689 264.258,223.372 264.610,222.018 264.828 C 220.663 265.046,218.754 265.497,217.774 265.829 C 209.732 268.560,186.151 267.703,176.200 264.319 C 175.540 264.094,173.969 263.611,172.709 263.244 C 171.449 262.878,170.198 262.358,169.929 262.089 C 169.660 261.820,169.151 261.600,168.799 261.600 C 167.439 261.600,154.901 255.109,152.780 253.308 C 152.461 253.037,150.760 251.750,149.000 250.447 C 145.990 248.220,138.566 241.225,135.682 237.900 C 134.966 237.075,134.234 236.400,134.055 236.400 C 133.875 236.400,133.516 235.995,133.257 235.500 C 132.998 235.005,132.246 233.880,131.587 233.000 C 129.958 230.827,127.739 227.412,126.000 224.400 C 124.730 222.200,124.592 221.933,123.522 219.600 C 122.967 218.390,122.219 216.770,121.859 216.000 C 121.015 214.194,119.698 210.346,119.052 207.800 C 118.773 206.700,118.327 205.398,118.062 204.907 C 117.796 204.416,117.397 202.556,117.173 200.775 C 116.950 198.993,116.459 196.425,116.084 195.068 C 115.452 192.786,115.400 187.644,115.400 127.000 L 115.400 61.400 116.273 58.600 C 117.138 55.827,117.937 50.000,117.452 50.000 C 117.313 50.000,117.200 50.608,117.200 51.352 M112.800 63.600 C 112.800 64.347,112.907 64.453,113.280 64.080 C 113.653 63.707,113.653 63.493,113.280 63.120 C 112.907 62.747,112.800 62.853,112.800 63.600 M111.200 65.649 C 111.200 66.358,111.299 66.416,111.800 66.000 C 112.130 65.726,112.400 65.344,112.400 65.151 C 112.400 64.958,112.130 64.800,111.800 64.800 C 111.455 64.800,111.200 65.161,111.200 65.649 M287.600 65.151 C 287.600 65.934,288.698 66.442,288.953 65.777 C 289.310 64.848,289.282 64.800,288.400 64.800 C 287.960 64.800,287.600 64.958,287.600 65.151 M109.200 67.600 C 109.200 68.133,108.933 68.400,108.400 68.400 C 107.845 68.400,107.600 68.667,107.600 69.270 C 107.600 70.138,107.601 70.138,108.697 69.170 C 110.524 67.553,110.875 66.800,109.800 66.800 C 109.467 66.800,109.200 67.156,109.200 67.600 M290.000 67.194 C 290.000 67.410,290.535 68.175,291.188 68.894 C 292.303 70.120,292.377 70.145,292.388 69.300 C 292.397 68.663,292.166 68.400,291.600 68.400 C 291.067 68.400,290.800 68.133,290.800 67.600 C 290.800 67.160,290.620 66.800,290.400 66.800 C 290.180 66.800,290.000 66.977,290.000 67.194 M297.200 75.613 C 296.667 75.957,296.667 76.043,297.200 76.387 C 297.815 76.784,298.198 76.380,297.933 75.613 C 297.847 75.363,297.587 75.363,297.200 75.613 M102.254 76.198 C 102.381 76.526,102.645 76.696,102.842 76.574 C 103.407 76.225,103.260 75.600,102.613 75.600 C 102.256 75.600,102.115 75.835,102.254 76.198 M100.400 78.249 C 100.400 79.136,100.493 79.221,101.000 78.800 C 101.330 78.526,101.600 78.054,101.600 77.751 C 101.600 77.448,101.330 77.200,101.000 77.200 C 100.619 77.200,100.400 77.583,100.400 78.249 M298.400 77.751 C 298.400 78.054,298.670 78.526,299.000 78.800 C 299.507 79.221,299.600 79.136,299.600 78.249 C 299.600 77.583,299.381 77.200,299.000 77.200 C 298.670 77.200,298.400 77.448,298.400 77.751 M96.800 83.400 C 96.800 84.579,97.406 84.710,97.972 83.653 C 98.404 82.844,98.178 82.400,97.333 82.400 C 97.031 82.400,96.800 82.833,96.800 83.400 M302.000 82.767 C 302.000 83.459,302.486 84.400,302.843 84.400 C 303.039 84.400,303.200 83.950,303.200 83.400 C 303.200 82.778,302.973 82.400,302.600 82.400 C 302.270 82.400,302.000 82.565,302.000 82.767 M95.200 86.200 C 95.200 86.530,95.380 86.800,95.600 86.800 C 95.820 86.800,96.000 86.530,96.000 86.200 C 96.000 85.870,95.820 85.600,95.600 85.600 C 95.380 85.600,95.200 85.870,95.200 86.200 M93.200 88.600 C 93.200 89.779,93.806 89.910,94.372 88.853 C 94.804 88.044,94.578 87.600,93.733 87.600 C 93.431 87.600,93.200 88.033,93.200 88.600 M305.672 88.469 C 305.861 89.749,306.800 89.886,306.800 88.633 C 306.800 87.961,306.581 87.600,306.172 87.600 C 305.755 87.600,305.587 87.892,305.672 88.469 M91.600 92.086 C 91.600 93.276,91.648 93.323,92.255 92.717 C 92.615 92.357,92.800 91.778,92.667 91.431 C 92.250 90.344,91.600 90.742,91.600 92.086 M307.487 91.300 C 307.389 91.575,307.492 92.156,307.717 92.591 C 308.124 93.379,308.127 93.379,308.407 92.591 C 308.716 91.725,308.501 90.800,307.991 90.800 C 307.812 90.800,307.586 91.025,307.487 91.300 M89.613 95.667 C 89.625 96.931,89.656 96.960,90.218 96.216 C 90.866 95.360,90.814 94.738,90.075 94.492 C 89.770 94.390,89.605 94.811,89.613 95.667 M309.600 95.576 C 309.600 96.003,309.780 96.464,310.000 96.600 C 310.227 96.740,310.400 96.404,310.400 95.824 C 310.400 95.261,310.220 94.800,310.000 94.800 C 309.780 94.800,309.600 95.149,309.600 95.576 M88.006 99.300 C 88.011 100.286,88.106 100.455,88.400 100.000 C 88.908 99.214,88.908 98.000,88.400 98.000 C 88.180 98.000,88.003 98.585,88.006 99.300 M311.354 98.576 C 311.232 98.892,311.323 99.477,311.554 99.876 C 311.912 100.491,311.978 100.405,311.988 99.300 C 312.001 97.929,311.724 97.612,311.354 98.576 M86.406 102.900 C 86.411 103.628,86.486 103.685,86.800 103.200 C 87.301 102.424,87.301 102.000,86.800 102.000 C 86.580 102.000,86.403 102.405,86.406 102.900 M313.200 102.776 C 313.200 103.203,313.380 103.664,313.600 103.800 C 313.827 103.940,314.000 103.604,314.000 103.024 C 314.000 102.461,313.820 102.000,313.600 102.000 C 313.380 102.000,313.200 102.349,313.200 102.776 M84.400 106.413 C 84.400 107.684,84.958 108.008,85.357 106.967 C 85.726 106.006,85.656 105.707,85.000 105.455 C 84.550 105.283,84.400 105.521,84.400 106.413 M314.900 105.465 C 314.221 105.739,314.270 106.594,315.000 107.200 C 315.512 107.625,315.600 107.514,315.600 106.449 C 315.600 105.762,315.555 105.214,315.500 105.232 C 315.445 105.249,315.175 105.354,314.900 105.465 M82.800 111.400 C 82.800 112.170,82.884 112.800,82.986 112.800 C 83.414 112.800,83.978 111.209,83.756 110.629 C 83.332 109.524,82.800 109.953,82.800 111.400 M316.554 110.577 C 316.235 111.407,316.518 112.506,317.100 112.700 C 317.438 112.813,317.600 112.402,317.600 111.433 C 317.600 110.001,316.972 109.487,316.554 110.577 M80.800 117.293 C 80.800 120.729,81.621 120.567,81.910 117.074 C 82.053 115.351,81.960 114.870,81.445 114.672 C 80.889 114.459,80.800 114.820,80.800 117.293 M318.182 115.228 C 317.833 115.794,318.341 119.116,318.823 119.414 C 319.043 119.550,319.200 118.638,319.200 117.224 C 319.200 114.970,318.812 114.209,318.182 115.228 M79.206 124.300 C 79.210 126.191,79.328 126.820,79.600 126.400 C 80.113 125.607,80.113 121.600,79.600 121.600 C 79.372 121.600,79.203 122.763,79.206 124.300 M320.078 124.006 C 320.346 127.710,321.200 128.071,321.200 124.480 C 321.200 122.092,321.089 121.600,320.552 121.600 C 320.007 121.600,319.932 121.983,320.078 124.006 M77.227 133.200 C 77.226 137.330,77.285 137.721,77.813 137.024 C 78.591 135.994,78.583 130.969,77.800 129.600 C 77.280 128.690,77.228 129.012,77.227 133.200 M322.267 129.467 C 321.851 129.882,321.966 136.528,322.400 137.200 C 322.664 137.608,322.790 136.424,322.794 133.500 C 322.800 129.206,322.768 128.965,322.267 129.467 M75.600 271.967 C 75.600 385.566,75.668 400.000,76.201 400.000 C 77.026 400.000,76.926 144.375,76.100 144.100 C 75.701 143.967,75.600 169.718,75.600 271.967 M323.443 144.633 C 322.829 146.233,323.184 400.000,323.800 400.000 C 324.332 400.000,324.400 385.511,324.400 272.000 C 324.400 197.157,324.252 144.000,324.043 144.000 C 323.846 144.000,323.576 144.285,323.443 144.633 " stroke="none" fill="#dbcaca" fill-rule="evenodd"></path></g></svg>