<?xml version="1.0" encoding="utf-8"?>
<!-- Generator: Adobe Illustrator 22.0.1, SVG Export Plug-In . SVG Version: 6.00 Build 0)  -->
<svg version="1.1" id="Capa_1" xmlns="http://www.w3.org/2000/svg" xmlns:xlink="http://www.w3.org/1999/xlink" x="0px" y="0px"
	 viewBox="0 0 496 496" style="enable-background:new 0 0 496 496;" xml:space="preserve">
<style type="text/css">
	.st0{fill:#006680;}
</style>
<path class="st0" d="M11,452c0,24.3,21,44,46.4,44h272.5c22.8,0,41.7-15.8,45.4-36.6C397.2,456,414,437.9,414,416V218h22.1
	c1.5,0,3.1-0.4,4.4-1.2l40.5-26.3c2.3-1.5,3.6-4,3.6-6.7c0-2.7-1.4-5.2-3.6-6.7l-40.5-26.6c-1.3-0.9-2.8-1.4-4.4-1.5H414v-43.6
	c-0.2-2.7-1.5-5.2-3.6-6.9l-92.2-94c-0.5-0.7-1.1-1.4-1.9-1.9l-0.3-0.2c-1.5-1.5-3.6-2.4-5.7-2.4h-215C72.6,0,53.5,15.8,49.8,36.6
	C27.9,40,11,58.1,11,80V452z M147,202v-37h281v37H147z M444,195.4v-23.2l17.8,11.6L444,195.4z M320,28.8L386.3,97h-55.6
	c-2.8,0.1-5.5-1-7.5-2.9c-2-1.9-3.2-4.6-3.2-7.3V28.8z M95.4,16H304v70.8c0.1,14.6,12.1,26.4,26.7,26.2H398v36H139.4
	c-4.6,0.2-8.2,3.9-8.4,8.4v1l-23.8-0.5h-0.1c-4.5,0.1-8,3.8-8,8.2l0.3,34.8c0,4.4,3.6,7.9,8,7.9H131v1.2c0,4.4,4,7.8,8.4,7.8h16.9
	l-0.1,12c-0.1,4.6,1.6,9,4.8,12.3c2.7,2.9,6.4,4.6,10.4,4.7h97.1c4.4,0,8-3.6,8-8s-3.6-8-8-8h-96.2c0-1,0-0.5,0-0.6l0.1-12.4H398
	v198c0,15.4-13.5,28-30.1,28H95.4C78.8,444,65,431.5,65,416V45.2c0-0.4,0.3-0.8,0.3-1.2c0-0.3,0-0.7,0-1C65.8,28,79.2,16,95.4,16z
	 M131,193h-15.7l-0.3-18.7l16,0.2V193z M27,80c0-12.8,10-23.7,22-27v363c0,24.3,21,44,46.4,44h263.4c-3.7,12-15.2,20-28.8,20H57.4
	C40.8,480,27,467.5,27,452V80z"/>
<path class="st0" d="M107.5,284H239c4.4,0,8-3.6,8-8s-3.6-8-8-8H107.5c-4.4,0-8,3.6-8,8S103,284,107.5,284z"/>
<path class="st0" d="M107.5,323h228.9c4.4,0,8-3.6,8-8s-3.6-8-8-8H107.5c-4.4,0-8,3.6-8,8S103,323,107.5,323z"/>
<path class="st0" d="M107.5,362h228.9c4.4,0,8-3.6,8-8s-3.6-8-8-8H107.5c-4.4,0-8,3.6-8,8S103,362,107.5,362z"/>
<path class="st0" d="M107.5,401h228.9c4.4,0,8-3.6,8-8s-3.6-8-8-8H107.5c-4.4,0-8,3.6-8,8S103,401,107.5,401z"/>
</svg>
