<?xml version="1.0" encoding="UTF-8" standalone="no"?>
<!-- Generator: Adobe Illustrator 19.0.0, SVG Export Plug-In . SVG Version: 6.00 Build 0)  -->

<svg
   xmlns:dc="http://purl.org/dc/elements/1.1/"
   xmlns:cc="http://creativecommons.org/ns#"
   xmlns:rdf="http://www.w3.org/1999/02/22-rdf-syntax-ns#"
   xmlns:svg="http://www.w3.org/2000/svg"
   xmlns="http://www.w3.org/2000/svg"
   xmlns:sodipodi="http://sodipodi.sourceforge.net/DTD/sodipodi-0.dtd"
   xmlns:inkscape="http://www.inkscape.org/namespaces/inkscape"
   version="1.1"
   id="Layer_1"
   x="0px"
   y="0px"
   viewBox="0 0 425.982 425.982"
   style="enable-background:new 0 0 425.982 425.982;"
   xml:space="preserve"
   sodipodi:docname="table.svg"
   inkscape:version="0.92.4 (5da689c313, 2019-01-14)"><metadata
   id="metadata73"><rdf:RDF><cc:Work
       rdf:about=""><dc:format>image/svg+xml</dc:format><dc:type
         rdf:resource="http://purl.org/dc/dcmitype/StillImage" /></cc:Work></rdf:RDF></metadata><defs
   id="defs71">
	
	
	
	
	
	
	
	
	
	
	
	
	
	
	
	
	
</defs><sodipodi:namedview
   pagecolor="#ffffff"
   bordercolor="#666666"
   borderopacity="1"
   objecttolerance="10"
   gridtolerance="10"
   guidetolerance="10"
   inkscape:pageopacity="0"
   inkscape:pageshadow="2"
   inkscape:window-width="1330"
   inkscape:window-height="836"
   id="namedview69"
   showgrid="false"
   inkscape:zoom="0.27700701"
   inkscape:cx="410.82783"
   inkscape:cy="246.23777"
   inkscape:window-x="70"
   inkscape:window-y="27"
   inkscape:window-maximized="1"
   inkscape:current-layer="Layer_1" />
<polygon
   id="polygon2"
   points="34.31,86.676 19.37,57.326 146.61,57.326 131.67,86.676 "
   style="fill:#cccccc" /><polygon
   id="polygon4"
   points="294.31,86.676 279.37,57.326 406.61,57.326 391.67,86.676 "
   style="fill:#cccccc" /><polygon
   id="polygon6"
   points="59.31,86.676 44.37,57.326 146.61,57.326 131.67,86.676 "
   style="fill:#e6e6e6" /><polygon
   id="polygon8"
   points="319.31,86.676 304.37,57.326 406.61,57.326 391.67,86.676 "
   style="fill:#e6e6e6" /><polyline
   id="polyline10"
   points="254.03,149.666 297.99,193.626 341.95,149.666 254.03,149.666  "
   style="fill:#f24125" /><polyline
   id="polyline12"
   points="341.95,149.666 254.03,149.666 297.99,193.626 341.95,149.666  "
   style="fill:#666666" /><polygon
   id="polygon14"
   points="139.56,173.626 163.52,149.666 226.52,86.676 131.67,86.676 52.61,86.676 115.6,149.666 "
   style="fill:#999999" /><polyline
   id="polyline24"
   points="71.25,149.666 24.78,149.666 26.44,176.666 71.25,176.666 71.25,149.666  "
   style="fill:#666666;fill-opacity:1" /><polyline
   id="polyline26"
   points="401.2,149.666 354.74,149.666 354.74,176.666 399.54,176.666 401.2,149.666  "
   style="fill:#666666" /><rect
   id="rect28"
   height="12"
   width="67.790001"
   y="80.676003"
   x="226.52" /><path
   inkscape:connector-curvature="0"
   id="path30"
   d="m 390.643,110.68 c -0.39,0 -0.78,-0.04 -1.17,-0.12 -0.38,-0.08 -0.76,-0.19 -1.12,-0.34 -0.36,-0.15 -0.71,-0.34 -1.04,-0.55 -0.33,-0.22 -0.63,-0.47 -0.91,-0.75 -0.28,-0.28 -0.53,-0.59 -0.74,-0.91 -0.22,-0.33 -0.41,-0.68 -0.56,-1.04 -0.15,-0.36 -0.26,-0.74 -0.34,-1.12 -0.08,-0.39 -0.12,-0.78 -0.12,-1.17 0,-0.4 0.04,-0.79 0.12,-1.18 0.08,-0.38 0.19,-0.76 0.34,-1.12 0.15,-0.36 0.34,-0.71 0.56,-1.03 0.21,-0.33 0.46,-0.64 0.74,-0.92 0.28,-0.27 0.58,-0.52 0.91,-0.74 0.33,-0.22 0.68,-0.4 1.04,-0.55 0.36,-0.15 0.74,-0.27 1.12,-0.35 0.78,-0.15 1.57,-0.15 2.35,0 0.38,0.08 0.76,0.2 1.12,0.35 0.36,0.15 0.71,0.33 1.03,0.55 0.33,0.22 0.64,0.47 0.92,0.74 1.11,1.12 1.75,2.67 1.75,4.25 0,0.39 -0.04,0.78 -0.11,1.17 -0.08,0.38 -0.2,0.76 -0.35,1.12 -0.15,0.36 -0.33,0.71 -0.55,1.04 -0.22,0.32 -0.47,0.63 -0.74,0.91 -0.28,0.28 -0.59,0.53 -0.92,0.75 -0.32,0.21 -0.67,0.4 -1.03,0.55 -0.36,0.15 -0.74,0.26 -1.12,0.34 -0.39,0.08 -0.79,0.12 -1.18,0.12 z"
   style="fill:#ffffff" /><path
   inkscape:connector-curvature="0"
   id="path32"
   d="M 370.037,110.676 H 237.151 c -3.313,0 -6,-2.686 -6,-6 0,-3.314 2.687,-6 6,-6 h 132.885 c 3.314,0 6,2.686 6,6 0,3.314 -2.685,6 -5.999,6 z"
   style="fill:#ffffff" /><path
   inkscape:connector-curvature="0"
   id="path34"
   d="m 419.98,80.676 h -18.523 l 10.5,-20.628 c 0.947,-1.86 0.859,-4.079 -0.232,-5.858 -1.091,-1.779 -3.028,-2.864 -5.115,-2.864 H 279.37 c -2.087,0 -4.024,1.085 -5.115,2.864 -1.091,1.779 -1.179,3.998 -0.232,5.858 l 10.5,20.628 H 226.52 141.457 l 10.5,-20.628 c 0.947,-1.86 0.859,-4.079 -0.232,-5.858 -1.091,-1.779 -3.028,-2.864 -5.115,-2.864 H 19.37 c -2.087,0 -4.024,1.085 -5.115,2.864 -1.091,1.779 -1.179,3.998 -0.232,5.858 l 10.5,20.628 H 6 c -3.313,0 -6,2.686 -6,6 v 62.99 c 0,3.314 2.687,6 6,6 h 13.137 l 13.124,213.358 c 0.195,3.165 2.818,5.632 5.989,5.632 h 33 c 3.313,0 6,-2.686 6,-6 v -212.99 h 35.865 l 22.203,22.203 c 1.171,1.172 2.707,1.757 4.243,1.757 1.536,0 3.071,-0.586 4.243,-1.757 l 22.205,-22.203 h 85.537 l 42.203,42.203 c 1.171,1.172 2.707,1.757 4.243,1.757 1.536,0 3.071,-0.586 4.243,-1.757 l 42.203,-42.203 h 4.304 v 212.99 c 0,3.314 2.686,6 6,6 h 32.99 c 3.171,0 5.794,-2.467 5.989,-5.632 l 13.124,-213.358 h 13.137 c 3.313,0 6,-2.686 6,-6 v -62.99 c -0.002,-3.314 -2.689,-6 -6.002,-6 z M 289.157,63.326 h 107.667 l -8.832,17.35 h -90.003 z m -260,0 h 107.667 l -8.832,17.35 H 37.988 Z M 65.25,362.656 H 43.892 L 31.16,155.666 H 65.25 Z M 12,143.666 v -50.99 h 38.125 l 50.99,50.99 z M 139.56,165.141 67.095,92.676 h 144.938 z m 158.43,20 -29.475,-29.475 h 58.95 z m 84.098,177.515 H 360.74 v -206.99 h 34.08 z M 413.98,143.666 H 178.009 l 50.996,-50.99 H 413.98 Z"
   style="fill:#333333" />
<g
   id="g38">
</g>
<g
   id="g40">
</g>
<g
   id="g42">
</g>
<g
   id="g44">
</g>
<g
   id="g46">
</g>
<g
   id="g48">
</g>
<g
   id="g50">
</g>
<g
   id="g52">
</g>
<g
   id="g54">
</g>
<g
   id="g56">
</g>
<g
   id="g58">
</g>
<g
   id="g60">
</g>
<g
   id="g62">
</g>
<g
   id="g64">
</g>
<g
   id="g66">
</g>
</svg>