<?xml version="1.0" encoding="utf-8"?>
<!-- Generator: Adobe Illustrator 22.0.1, SVG Export Plug-In . SVG Version: 6.00 Build 0)  -->
<svg version="1.1" id="Capa_1" xmlns="http://www.w3.org/2000/svg" xmlns:xlink="http://www.w3.org/1999/xlink" x="0px" y="0px"
	 viewBox="0 0 511 512" style="enable-background:new 0 0 511 512;" xml:space="preserve">
<style type="text/css">
	.st0{fill:#FC3850;}
	.st1{fill:#EEF75F;}
	.st2{fill:#F2C65B;}
</style>
<g>
	<path class="st0" d="M497.1,497.6c-159.7,0-319.3,0-478.9,0c0-159.7,0-319.3,0-478.9c159.7,0,319.3,0,478.9,0
		C497.1,178.4,497.1,338,497.1,497.6z M231.3,236.8c-1.6,0.1-3.2,0.1-4.8,0.2c-11.3-0.3-22.7-0.3-34-0.9c-6.9-0.4-9.5,2.3-9.3,9.2
		c0.3,14.2-0.2,28.3-0.1,42.5c0.1,15.1-1.3,30.2,1.2,45.7c17.3,0,34,4.8,50.6-1.4c1-5,2.9-10.1-1.6-16c-10.2,0-21,0-32.3,0
		c0-8.1-1.1-15,1.2-21.9c8.8-2,17.4,0.8,25.4-1.9c2-15.1,1.6-15.4-12.9-15.7c-4.4-0.1-9.2,1.5-13.5-1.7c-1.1-6.6-0.9-13.1,0.9-20.6
		c11.2,0,22,0,34.1,0C234.7,247.6,241.6,240.3,231.3,236.8z M407.8,317.4c6.7-2.7,8,1.8,9.3,5.9c3.5,10.8,6.7,21.6,10.2,32.4
		c4.5,13.6,11.1,16.3,26.7,10.6c-5.3-15.3-10.5-30.6-16-45.8c-2.1-5.8-1.8-10.2,3.7-13.7c14.9-9.5,14.3-46.7,4.4-57.9
		c-2.8-3.2-5.7-6.5-10-7.6c-16.8-4.6-33.9-5.8-51.3-3.4c-0.3,3.1-0.7,5.2-0.7,7.3c-0.5,37.5-0.5,75.1-1.7,112.6
		c-0.4,11.5,6.8,10.4,13.6,11.1c7.7,0.8,10.6-2.7,10.5-10.5C406.4,344.5,405.6,330.7,407.8,317.4z M79.6,369
		c20,1.6,37.7-0.7,55.3-0.6c7.3,0,11.5-0.6,11.1-9.3c-0.4-8-0.4-15-11.7-14.2c-9.4,0.7-18.8,0.1-28.7,0.1
		c-1.5-38.3-3.4-75.6-2.6-113.1c-3.3-0.5-5.4-1-7.5-1.2c-15.6-0.9-16.4-0.3-16.5,15c0,20.6,0.3,41.1,0.4,61.7
		C79.7,327.8,79.6,347.9,79.6,369z M320.8,218.9c-3.6-10.5-6.6-20.3-10.4-29.8c-2.8-6.9-2.4-11.5,3.3-17.6
		c13.5-14.2,7.3-42.9-9.6-47.2c-11.2-2.8-22.9-3.7-35.5-1.1c0,31.8,0,63.1,0,94.7c13.8,5.6,16.5,3.9,16.8-10.9
		c0.2-8.5-1.4-17.3,2-25.5c5.8,0.3,5.7,4.7,6.8,7.7c2.3,6.3,3.8,12.9,5.9,19.3C304.1,221,306.2,222.1,320.8,218.9z M254.4,218.5
		c-0.3-3-0.4-5.8-1-8.5c-5.6-26.3-11.6-52.5-16.7-78.8c-1.6-8.2-5.6-10-13-10c-7.6,0-11.7,2.2-13.1,10.2
		c-2.4,14.3-6.5,28.3-8.5,42.6c-2.1,15.2-7.8,29.9-7.4,45.7c10.7,2.2,18.4,1.2,19-11.4c0.4-8.1,6.5-6.7,11.6-7.1
		c5.2-0.5,9.2,0.6,9.8,6.7C236,219.8,242.4,222.7,254.4,218.5z M390.4,218.5c0.9-3.8-0.1-7.5-0.9-11.3
		c-5.5-25.3-11.2-50.5-16.2-75.9c-1.6-8-5.3-10.2-12.9-10.2c-7.5,0-11.6,2.1-13.1,10.2c-4.2,23-9.4,45.8-13.6,68.7
		c-1.2,6.3-4.3,12.8-1.8,19.3c11,3.2,17.7,0.7,18.4-11.4c0.5-8.1,6.9-6.3,11.9-6.8c5.3-0.5,8.2,1,9.6,7
		C375.1,222,375.6,222,390.4,218.5z M372.7,332.7c-6.6-30.7-13-60.8-19.6-90.8c-1.7-7.7-8.1-5.2-13-5.6c-5.3-0.4-9.9,0.5-11,7.1
		c-2,11.1-4.3,22.2-6.5,33.3c-3.8,19-7.6,38-11.3,56.9c15.8,3.5,17.1,3.2,19.8-9.9c1.5-7.4,5.9-7.5,11.5-7.6c5.4-0.1,9,0.1,10.5,7
		C355.9,336.7,357.2,336.9,372.7,332.7z M275.3,289.6c-0.7-0.8-1.4-1.3-1.5-1.8c-2.8-12.8-5.4-25.6-8.3-38.3
		c-2.9-13-5.8-14.4-20-9.4c6.4,30.2,12.9,60.5,19.4,90.9c0.7,3.3,2.6,4.5,5.8,5c13.3,2.3,16.8,0.1,19.6-13.2
		c0.6-2.8,1.2-5.5,1.8-8.3c5.2-24.8,10.4-49.6,15.6-74.3c-14.6-4.7-16.5-3.7-19.4,8.9c-2.5,11-5.1,22-7.7,33
		C279.9,284.9,280.6,288.8,275.3,289.6z M154.2,181.5c3.8-0.4,5.9-0.7,8-0.8c10-0.4,19.9-2.7,24-12.6c4.8-11.7,5.9-24.1-1.6-35.7
		c-2.2-3.4-5-5.9-9-7.1c-12.4-3.7-24.9-2.2-38.2-2.1c0,31,0.1,60.7,0,90.5c0,6.3,4.3,6.7,8.6,6.6c4.3-0.1,8.4-0.8,8.3-7
		C154,202.9,154.2,192.7,154.2,181.5z M143.6,232.1c-7.4,0.6-16.6-5-17,5.8c-0.9,30.3-0.3,60.7-0.3,91.4c14.2,1.9,26.9-0.2,39.5,0.2
		c5.3,0.2,7.9-1.5,7.8-7.1c-0.1-5.5-0.7-9.6-7.9-9.7c-6.9-0.1-14,1.5-22.2-1.8C143.6,285,143.6,259,143.6,232.1z"/>
	<path class="st1" d="M407.8,317.4c-2.2,13.3-1.4,27.1-1.3,40.8c0.1,7.8-2.8,11.3-10.5,10.5c-6.8-0.7-13.9,0.4-13.6-11.1
		c1.1-37.5,1.2-75,1.7-112.6c0-2.1,0.4-4.2,0.7-7.3c17.5-2.4,34.5-1.2,51.3,3.4c4.2,1.2,7.1,4.4,10,7.6c9.8,11.2,10.5,48.4-4.4,57.9
		c-5.5,3.5-5.8,7.9-3.7,13.7c5.6,15.2,10.7,30.5,16,45.8c-15.5,5.7-22.2,3-26.7-10.6c-3.6-10.7-6.7-21.6-10.2-32.4
		C415.9,319.2,414.5,314.7,407.8,317.4z M408.1,291.7c7.4-0.3,15.7,2.6,19.7-4.5c3.7-6.6,3.8-15.9,0.1-22.4
		c-4.1-7.2-12.5-3.4-19.8-3.6C408.1,271.5,408.1,281.2,408.1,291.7z"/>
	<path class="st1" d="M79.6,369c0-21.1,0.1-41.2,0-61.4c-0.1-20.6-0.4-41.1-0.4-61.7c0-15.4,0.9-16,16.5-15c2.1,0.1,4.2,0.6,7.5,1.2
		c-0.8,37.5,1.1,74.8,2.6,113.1c9.9,0,19.3,0.5,28.7-0.1c11.3-0.8,11.3,6.2,11.7,14.2c0.4,8.7-3.8,9.3-11.1,9.3
		C117.3,368.4,99.6,370.6,79.6,369z"/>
	<path class="st1" d="M320.8,218.9c-14.6,3.1-16.7,2.1-20.7-10.3c-2.1-6.4-3.6-13-5.9-19.3c-1.1-3-1-7.4-6.8-7.7
		c-3.4,8.2-1.8,16.9-2,25.5c-0.3,14.8-3,16.6-16.8,10.9c0-31.5,0-62.9,0-94.7c12.6-2.5,24.3-1.7,35.5,1.1c16.9,4.2,23.1,33,9.6,47.2
		c-5.7,6-6.1,10.7-3.3,17.6C314.2,198.6,317.2,208.4,320.8,218.9z M286.6,163.2c5.7-0.2,11.6,1.6,14.6-4c2.7-5,3-11.3-0.1-16.2
		c-3.3-5.3-9.2-2.8-14.5-2.9C286.6,148.2,286.6,155.3,286.6,163.2z"/>
	<path class="st1" d="M254.4,218.5c-11.9,4.2-18.3,1.3-19.3-10.6c-0.5-6.1-4.5-7.2-9.8-6.7c-5.1,0.5-11.2-1-11.6,7.1
		c-0.6,12.6-8.3,13.6-19,11.4c-0.5-15.8,5.3-30.5,7.4-45.7c2-14.3,6.1-28.3,8.5-42.6c1.4-8,5.5-10.3,13.1-10.2c7.4,0,11.4,1.8,13,10
		c5.1,26.4,11.1,52.6,16.7,78.8C254,212.7,254,215.5,254.4,218.5z M224,160.6c-2.9,8.5-4.5,15.1-5.1,22c3.7,1.7,6.9,1.9,10.3-1.2
		C228.6,175.1,227.3,168.8,224,160.6z"/>
	<path class="st1" d="M231.3,236.8c10.3,3.5,3.4,10.8,5,17.6c-12.2,0-23,0-34.1,0c-1.8,7.4-2,14-0.9,20.6c4.3,3.2,9.1,1.6,13.5,1.7
		c14.5,0.3,14.9,0.6,12.9,15.7c-8,2.7-16.6-0.1-25.4,1.9c-2.3,6.9-1.2,13.8-1.2,21.9c11.2,0,22.1,0,32.3,0c4.6,5.9,2.6,11,1.6,16
		c-16.7,6.2-33.3,1.4-50.6,1.4c-2.5-15.4-1.1-30.6-1.2-45.7c-0.1-14.2,0.3-28.3,0.1-42.5c-0.1-6.9,2.4-9.5,9.3-9.2
		c11.3,0.6,22.7,0.6,34,0.9C228.2,239.9,229.8,239.5,231.3,236.8z"/>
	<path class="st1" d="M390.4,218.5c-14.7,3.5-15.3,3.5-18.5-10.3c-1.4-6-4.3-7.5-9.6-7c-5,0.5-11.5-1.4-11.9,6.8
		c-0.7,12.1-7.5,14.6-18.4,11.4c-2.5-6.5,0.6-13,1.8-19.3c4.2-23,9.5-45.8,13.6-68.7c1.5-8.2,5.6-10.2,13.1-10.2
		c7.6,0,11.3,2.2,12.9,10.2c4.9,25.4,10.7,50.6,16.2,75.9C390.3,211,391.3,214.7,390.4,218.5z M362.2,162.3
		c-3.9,6.8-6.5,13.5-6.3,21.2c3.8,0,7,1.2,10.1-2.3C364.8,175.3,363.5,168.8,362.2,162.3z"/>
	<path class="st1" d="M372.7,332.7c-15.6,4.2-16.8,4-19.7-9.6c-1.5-6.9-5.2-7.2-10.5-7c-5.6,0.2-9.9,0.2-11.5,7.6
		c-2.7,13.1-3.9,13.4-19.8,9.9c3.8-18.9,7.6-37.9,11.3-56.9c2.2-11.1,4.5-22.2,6.5-33.3c1.2-6.6,5.7-7.6,11-7.1
		c4.9,0.4,11.3-2.1,13,5.6C359.7,271.9,366.1,302,372.7,332.7z M343.2,276.7c-4.2,6.8-5.9,13.6-6.3,20.9c3.8,1.7,7,2,10.3-1.4
		C345.9,289.8,344.5,283.2,343.2,276.7z"/>
	<path class="st1" d="M275.3,289.6c5.3-0.8,4.6-4.7,5.3-7.5c2.7-11,5.2-22,7.7-33c2.9-12.6,4.8-13.6,19.4-8.9
		c-5.2,24.7-10.4,49.5-15.6,74.3c-0.6,2.8-1.2,5.5-1.8,8.3c-2.8,13.2-6.3,15.4-19.6,13.2c-3.2-0.5-5.1-1.7-5.8-5
		c-6.4-30.3-12.9-60.7-19.4-90.9c14.2-4.9,17-3.5,20,9.4c2.9,12.8,5.5,25.6,8.3,38.3C273.9,288.3,274.7,288.8,275.3,289.6z"/>
	<path class="st1" d="M154.2,181.5c0,11.2-0.2,21.4,0.1,31.7c0.2,6.2-3.9,6.9-8.3,7c-4.3,0.1-8.6-0.3-8.6-6.6
		c0.1-29.7,0-59.5,0-90.5c13.2,0,25.7-1.6,38.2,2.1c4,1.2,6.8,3.7,9,7.1c7.5,11.6,6.4,24,1.6,35.7c-4.1,10-13.9,12.2-24,12.6
		C160.1,180.7,158,181.1,154.2,181.5z M155.4,140.8c-1.9,5-0.8,10.3-1.2,15.5c-0.3,3.8,0.2,7.2,5.2,7.2c4.9,0,10,0.4,11.8-6.1
		C174.9,144.2,169.6,138.5,155.4,140.8z"/>
	<path class="st1" d="M143.6,232.1c0,26.8,0,52.9,0,78.8c8.2,3.3,15.3,1.7,22.2,1.8c7.2,0.1,7.7,4.3,7.9,9.7
		c0.1,5.7-2.5,7.3-7.8,7.1c-12.6-0.4-25.3,1.7-39.5-0.2c0-30.8-0.6-61.1,0.3-91.4C127,227.1,136.2,232.7,143.6,232.1z"/>
	<path class="st2" d="M231.3,236.8c-1.5,2.7-3.1,3.1-4.8,0.2C228.1,236.9,229.7,236.8,231.3,236.8z"/>
	<path class="st0" d="M408.1,291.7c0-10.5,0-20.2,0-30.5c7.4,0.1,15.8-3.6,19.8,3.6c3.7,6.6,3.6,15.8-0.1,22.4
		C423.8,294.4,415.4,291.4,408.1,291.7z"/>
	<path class="st0" d="M286.6,163.2c0-7.9,0-15.1,0-23.1c5.3,0,11.2-2.5,14.5,2.9c3,4.9,2.7,11.2,0.1,16.2
		C298.2,164.8,292.3,163.1,286.6,163.2z"/>
	<path class="st0" d="M224,160.6c3.3,8.2,4.6,14.5,5.2,20.8c-3.4,3.1-6.6,3-10.3,1.2C219.5,175.8,221.1,169.1,224,160.6z"/>
	<path class="st0" d="M362.2,162.3c1.3,6.5,2.6,12.9,3.8,19c-3.1,3.5-6.3,2.3-10.1,2.3C355.7,175.8,358.3,169.1,362.2,162.3z"/>
	<path class="st0" d="M343.2,276.7c1.3,6.6,2.7,13.1,4,19.5c-3.3,3.4-6.5,3-10.3,1.4C337.3,290.3,339,283.5,343.2,276.7z"/>
	<path class="st0" d="M155.4,140.8c14.2-2.3,19.5,3.5,15.8,16.6c-1.8,6.5-6.9,6-11.8,6.1c-5.1,0-5.5-3.4-5.2-7.2
		C154.6,151.1,153.6,145.8,155.4,140.8z"/>
</g>
</svg>
