<svg viewBox="0 -76 512.00064 512" xmlns="http://www.w3.org/2000/svg"><path d="m325.664062 257.472656c-1.425781 0-2.878906-.234375-4.304687-.722656-6.914063-2.375-10.589844-9.910156-8.214844-16.824219 1.992188-5.796875 16.277344-35.703125 101.929688-54.984375 25.867187-5.824218 41.050781-21.503906 49.230469-33.636718 10.046874-14.890626 15.039062-32.804688 13.359374-47.914063-1.285156-11.566406-6.742187-25.355469-25.441406-25.355469-19.609375 0-41.425781 10.648438-49.191406 25.546875-6.003906 11.507813-3.941406 33.023438-11.226562 32.964844-7.3125-.097656-13.160157-6.101563-13.066407-13.414063.027344-1.820312.492188-18.265624 9.320313-35.199218 8.652344-16.59375 26.808594-36.375 64.164062-36.375 14.773438 0 27.492188 5.085937 36.777344 14.710937 8.265625 8.570313 13.445312 20.394531 14.980469 34.195313 4.777343 42.976562-25.632813 97.371094-83.089844 110.304687-40.554687 9.132813-61.714844 20.25-72.320313 27.964844-7.480468 5.445313-10.375 9.769531-10.386718 9.800781-1.886719 5.488282-7.019532 8.9375-12.519532 8.9375zm0 0" fill="#e2e2e2"/><path d="m286.488281 288.847656-31.660156-35.679687h-42.324219l-.105468.203125v-.203125h-42.328126l-31.660156 35.679687s-25.246094 11.414063-33.757812 25.09375c-1.777344 2.855469.265625 6.550782 3.625 6.550782h208.347656c3.359375 0 5.402344-3.695313 3.625-6.550782-8.511719-13.679687-33.761719-25.09375-33.761719-25.09375zm0 0" fill="#e2e2e2"/><path d="m320.25 313.941406c-8.511719-13.679687-33.761719-25.09375-33.761719-25.09375l-31.660156-35.679687h-42.324219l-.105468.203125v-.203125h-15.527344l31.65625 35.679687s25.25 11.414063 33.761718 25.09375c1.777344 2.855469-.265624 6.550782-3.625 6.550782h57.960938c3.359375 0 5.402344-3.695313 3.625-6.550782zm0 0" fill="#d8d6d4"/><path d="m13.570312 13.558594c-1.574218 47.644531.1875 225.828125 124.839844 275.289062h147.972656c124.652344-49.460937 126.414063-227.644531 124.835938-275.289062-.109375-3.359375-2.859375-6.019532-6.21875-6.019532h-385.207031c-3.359375 0-6.109375 2.660157-6.222657 6.019532zm0 0" fill="#e2e2e2"/><path d="m411.21875 13.558594c-.109375-3.359375-2.859375-6.019532-6.21875-6.019532h-51.980469c1.695313 35.945313 6.144531 229.429688-124.597656 281.308594h57.960937c124.652344-49.460937 126.414063-227.644531 124.835938-275.289062zm0 0" fill="#d8d6d4"/><path d="m134.519531 70.878906h-27.648437c-3.589844 0-6.90625 1.898438-8.722656 4.996094l-16.207032 27.644531c-.910156 1.550781-1.390625 3.3125-1.390625 5.113281v58.675782c0 5.585937 4.527344 10.109375 10.113281 10.109375h60.0625c5.585938 0 10.113282-4.523438 10.113282-10.109375v-58.675782c0-1.800781-.480469-3.5625-1.390625-5.113281l-16.207031-27.644531c-1.8125-3.097656-5.132813-4.996094-8.722657-4.996094zm0 0" fill="#a0e557"/><path d="m143.242188 75.875c-1.8125-3.097656-5.132813-4.996094-8.722657-4.996094h-27.648437c-1.398438 0-2.75.292969-3.992188.828125v105.710938h47.847656c5.585938 0 10.113282-4.523438 10.113282-10.109375v-58.675782c0-1.800781-.480469-3.566406-1.390625-5.117187zm0 0" fill="#93cc4a"/><path d="m381.496094 351.777344h-338.203125c-15.714844 0-29.648438-10.097656-34.535157-25.035156l-.933593-2.847657c-1.238281-3.789062 1.582031-7.683593 5.570312-7.683593h398.003907c3.984374 0 6.808593 3.894531 5.566406 7.683593l-.929688 2.847657c-4.886718 14.933593-18.820312 25.035156-34.539062 25.035156zm0 0" fill="#0d6e9a"/><path d="m411.398438 316.210938h-50.386719l-4.765625 14.566406c-4.097656 12.527344-15.789063 21-28.96875 21h54.21875c15.714844 0 29.652344-10.101563 34.539062-25.035156l.929688-2.847657c1.242187-3.789062-1.582032-7.683593-5.566406-7.683593zm0 0" fill="#09627a"/><path d="m411.398438 308.671875h-85.59375c-5.34375-7.769531-14.535157-14.503906-22.351563-19.28125 7.925781-4.039063 15.496094-8.695313 22.621094-13.925781 3.355469-2.460938 4.082031-7.179688 1.617187-10.535156-2.460937-3.359376-7.179687-4.082032-10.535156-1.617188-9.890625 7.257812-20.726562 13.308594-32.234375 17.996094h-145.050781c-115.867188-47.210938-120.378906-213.910156-118.804688-266.230469h34.027344c4.164062 0 7.539062-3.375 7.539062-7.539063 0-4.164062-3.375-7.539062-7.539062-7.539062h-35.300781c-7.464844 0-13.507813 5.847656-13.753907 13.308594-.933593 28.125-.175781 83.613281 15.355469 139.238281 9.117188 32.652344 22.101563 60.761719 38.59375 83.539063 16.824219 23.238281 37.460938 41.109374 61.457031 53.332031-7.828124 4.789062-17.03125 11.527343-22.347656 19.253906h-85.703125c-4.28125 0-8.335937 2.070313-10.847656 5.535156-2.5117188 3.464844-3.21875 7.960938-1.886719 12.03125l.933594 2.847657c5.917969 18.082031 22.675781 30.230468 41.699219 30.230468h338.203125c19.027344 0 35.785156-12.148437 41.703125-30.234375l.929687-2.84375c1.332032-4.070312.628906-8.566406-1.882812-12.03125-2.511719-3.464843-6.566406-5.535156-10.847656-5.535156zm-271.304688-12.285156h144.722656c4.769532 2.289062 13.207032 6.886719 20.078125 12.285156h-184.859375c6.859375-5.378906 15.285156-9.984375 20.058594-12.285156zm268.777344 28.007812c-3.882813 11.871094-14.886719 19.84375-27.371094 19.84375h-338.207031c-12.488281 0-23.484375-7.972656-27.371094-19.84375l-.210937-.644531h393.371093zm0 0"/><path d="m511.472656 99.632812c-1.71875-15.472656-7.617187-28.816406-17.046875-38.59375-10.738281-11.132812-25.332031-17.019531-42.203125-17.019531-12.386718 0-23.640625 2.050781-33.628906 6.101563.601562-15.226563.453125-27.964844.160156-36.816406-.246094-7.460938-6.289062-13.304688-13.753906-13.304688h-314.828125c-4.164063 0-7.539063 3.375-7.539063 7.539062 0 4.164063 3.375 7.539063 7.539063 7.539063h22.984375v48.261719h-6.285156c-6.238282 0-12.070313 3.34375-15.222656 8.722656l-16.207032 27.640625c-1.585937 2.707031-2.425781 5.792969-2.425781 8.929687v58.675782c0 9.734375 7.917969 17.648437 17.648437 17.648437h60.066407c9.730469 0 17.648437-7.914062 17.648437-17.648437v-58.675782c0-3.136718-.835937-6.21875-2.421875-8.925781l-16.207031-27.640625c-3.15625-5.382812-8.988281-8.726562-15.226562-8.726562h-6.285157v-48.261719h275.488281c.335938 11.1875.410157 28.179687-.929687 48.304687-.15625 2.324219-.324219 4.644532-.511719 6.957032-.050781.613281-.101562 1.230468-.15625 1.851562-.1875 2.257813-.394531 4.511719-.613281 6.753906-.050781.507813-.101563 1.015626-.152344 1.527344-.25 2.460938-.519531 4.90625-.800781 7.339844-.035156.277344-.066406.554688-.097656.832031-.316406 2.636719-.648438 5.253907-1.003906 7.847657-.847657 6.179687-1.839844 12.488281-3.007813 18.878906-5.164063 28.285156-12.785156 53.457031-22.777344 75.335937-.132812.222657-.253906.453125-.363281.691407-6.261719 13.601562-13.523438 26.050781-21.585938 37-.039062.058593-.066406.121093-.109374.179687-3.125 4.234375-6.382813 8.273437-9.777344 12.105469-2.757813 3.121094-2.464844 7.882812.652344 10.640625 1.433593 1.269531 3.214843 1.894531 4.992187 1.894531 2.082031 0 4.160156-.859375 5.648437-2.542969 3.378907-3.820312 6.628907-7.824219 9.757813-12 14.734375-8.035156 34.78125-14.949219 59.652344-20.550781 61.527343-13.851562 94.066406-72.289062 88.929687-118.492188zm-376.953125-21.214843c.910157 0 1.761719.484375 2.222657 1.269531l16.207031 27.644531c.230469.394531.351562.84375.351562 1.300781v58.675782c0 1.417968-1.152343 2.574218-2.574219 2.574218h-60.0625c-1.417968 0-2.574218-1.152343-2.574218-2.574218v-58.675782c0-.457031.121094-.90625.355468-1.300781l16.207032-27.644531c.460937-.785156 1.308594-1.269531 2.21875-1.269531h6.285156v10.570312c0 4.164063 3.375 7.539063 7.539062 7.539063 4.164063 0 7.539063-3.375 7.539063-7.539063v-10.570312zm276.765625 39.660156c1.046875-5.722656 1.953125-11.378906 2.746094-16.945313 8.527344-9.097656 24.191406-15.558593 38.191406-15.558593 6.8125 0 16.09375 1.9375 17.949219 18.652343 1.488281 13.386719-3.039063 29.410157-12.117187 42.867188-7.417969 10.992188-21.179688 25.210938-44.636719 30.492188-6.929688 1.558593-13.601563 3.242187-19.980469 5.027343 7.578125-19.449219 13.546875-40.984375 17.847656-64.535156zm7.949219 85.339844c-15.457031 3.480469-29.230469 7.480469-41.203125 11.964843 2.664062-4.734374 5.203125-9.632812 7.617188-14.703124 9.515624-3.0625 19.953124-5.878907 31.082031-8.386719 28.285156-6.367188 44.882812-23.511719 53.824219-36.769531 11.015624-16.332032 16.476562-36.128907 14.605468-52.960938-2.265625-20.375-14.269531-32.0625-32.9375-32.0625-12.355468 0-25.140625 3.640625-35.679687 9.742188.054687-.523438.097656-1.050782.144531-1.574219.0625-.648438.121094-1.289063.179688-1.933594.160156-1.78125.316406-3.566406.460937-5.355469.03125-.398437.0625-.789062.089844-1.183594.078125-.976562.160156-1.949218.230469-2.929687 9.636718-5.421875 21.246093-8.167969 34.574218-8.167969 12.679688 0 23.523438 4.289063 31.351563 12.40625 7.101562 7.359375 11.566406 17.664063 12.914062 29.796875 4.417969 39.75-23.859375 90.09375-77.253906 102.117188zm0 0"/></svg>