<?xml version="1.0" encoding="utf-8"?>
<!-- Generator: Adobe Illustrator 16.0.0, SVG Export Plug-In . SVG Version: 6.00 Build 0)  -->
<!DOCTYPE svg PUBLIC "-//W3C//DTD SVG 1.1//EN" "http://www.w3.org/Graphics/SVG/1.1/DTD/svg11.dtd">
<svg version="1.1"
	 id="Capa_1" sodipodi:docname="icon_new_sale.svg" inkscape:version="0.92.1 r15371" xmlns:inkscape="http://www.inkscape.org/namespaces/inkscape" xmlns:sodipodi="http://sodipodi.sourceforge.net/DTD/sodipodi-0.dtd" xmlns:svg="http://www.w3.org/2000/svg" xmlns:rdf="http://www.w3.org/1999/02/22-rdf-syntax-ns#" xmlns:cc="http://creativecommons.org/ns#" xmlns:dc="http://purl.org/dc/elements/1.1/"
	 xmlns="http://www.w3.org/2000/svg" xmlns:xlink="http://www.w3.org/1999/xlink" x="0px" y="0px" width="340.833px"
	 height="311.5px" viewBox="0 0 340.833 311.5" enable-background="new 0 0 340.833 311.5" xml:space="preserve">
<sodipodi:namedview  inkscape:window-x="65" inkscape:window-height="1056" inkscape:current-layer="Capa_1" inkscape:window-maximized="1" inkscape:window-width="1855" inkscape:window-y="24" id="namedview37" borderopacity="1" pagecolor="#ffffff" bordercolor="#666666" objecttolerance="10" gridtolerance="10" guidetolerance="10" inkscape:zoom="1.0907007" showgrid="false" inkscape:cy="206.54733" inkscape:cx="121.69628" inkscape:pageshadow="2" inkscape:pageopacity="0">
	</sodipodi:namedview>
<g id="g7" transform="translate(0,-212)">
</g>
<g id="g9" transform="translate(0,-212)">
</g>
<g id="g11" transform="translate(0,-212)">
</g>
<g id="g13" transform="translate(0,-212)">
</g>
<g id="g15" transform="translate(0,-212)">
</g>
<g id="g17" transform="translate(0,-212)">
</g>
<g id="g19" transform="translate(0,-212)">
</g>
<g id="g21" transform="translate(0,-212)">
</g>
<g id="g23" transform="translate(0,-212)">
</g>
<g id="g25" transform="translate(0,-212)">
</g>
<g id="g27" transform="translate(0,-212)">
</g>
<g id="g29" transform="translate(0,-212)">
</g>
<g id="g31" transform="translate(0,-212)">
</g>
<g id="g33" transform="translate(0,-212)">
</g>
<path fill-rule="evenodd" clip-rule="evenodd" fill="#006680" d="M165.068,149.243c27.787-37.602,55.165-74.651,82.827-112.083
	c31.401,23.202,62.578,46.239,94.132,69.555C299.975,163.614,258.083,220.3,215.96,277.294c-31.438-23.23-62.649-46.294-93.782-69.3
	c0.158-0.562,0.193-0.844,0.312-1.085c2.955-6.007,7.552-8.4,14.452-8.396c20.887,0.012,41.71-2.429,62.628-2.002
	c10.555,0.216,19.369-9.216,19.549-20.646c0.187-11.851-8.175-21.005-19.912-21.192
	C187.838,154.492,176.926,151.965,165.068,149.243z M232.64,151.899c4.429,3.797,8.658,7.421,13.012,11.152
	c-4.036,2.376-7.5,0.48-11.261-0.501c-1.954,2.871-3.896,5.722-5.833,8.571c8.786,5.835,15.698,5.47,24.896-1.001
	c2.405,0.83,3.58,3.515,6.148,4.167c1.28-1.292,2.655-2.42,3.361-4.261c-1.817-1.683-3.639-3.367-5.438-5.032
	c2.727-4.907,4.355-9.756,3.051-15.125c-3.068-12.632-15.434-18.047-26.946-11.955c-1.7,0.9-3.357,3.51-5.385,2.069
	c-3.979-2.831-7.545-6.244-11.531-9.628c3.407-1.718,5.942-0.367,8.449-0.1c1.828-2.878,3.543-5.58,5.356-8.437
	c-7.766-4.843-14.581-3.147-20.625,1.831c-1.827-0.103-2.346-1.918-3.915-1.697c-1.127,1.331-2.645,2.355-3.051,4.15
	c2.279,2.703,2.279,2.703,0.93,5.645c-3.678,8.016-1.572,16.036,5.619,21.162C217.228,158.433,224.802,156.854,232.64,151.899z"/>
<path fill-rule="evenodd" clip-rule="evenodd" fill="#006680" d="M42.383,181.171c1.478-22.745,3.593-45.004,4.318-67.726
	c9.583-0.658,19.3-1.404,28.797-3.728c14.076-3.444,26.944-9.781,39.694-16.435c9.765-5.096,19.848-9.217,30.995-10.266
	c15.169-1.43,29.412,2.322,43.385,7.529c3.512,1.31,5.288,4.61,6.944,7.805c0.542,1.047,0.358,1.955-0.358,2.872
	c-8.838,11.318-17.659,22.649-26.75,34.319c-6.899-5.992-14.325-8.047-22.668-4c-9.465,4.592-10.893,14.03-14.209,23.098
	c18.026-1.649,34.602,3.562,51.503,6.449c4.804,0.821,9.726,1.027,14.604,1.312c8.217,0.479,12.999,5.681,12.644,13.975
	c-0.329,7.694-5.991,12.476-13.945,12.208c-8.861-0.296-17.707,0.111-26.493,1.519c-1.882,0.302-3.851,0.077-5.779,0.076
	c-3.846,0-7.713-0.275-11.535,0.026c-16.623,1.313-33.113,0.612-49.648-1.69C83.493,185.674,62.999,183.598,42.383,181.171z"/>
<path fill-rule="evenodd" clip-rule="evenodd" fill="#006680" d="M0.089,171.541c1.216-19.074,2.217-38.166,3.755-57.213
	c0.643-7.957,4.273-14.841,12.487-17.289c8.065-2.403,14.761,0.872,20.133,7.092c4.664,5.4,6.937,11.425,6.333,18.751
	c-1.41,17.127-2.545,34.278-3.585,51.432c-0.666,10.973-12.479,22.358-26.402,18.291C6.899,190.878-0.924,182.643,0.089,171.541z"/>
<path fill-rule="evenodd" clip-rule="evenodd" fill="#006680" d="M237.979,148.515c3.819-2.603,7.106-3.004,10.296-0.479
	c3.437,2.721,3.944,6.249,2.155,11.052C246.183,155.482,242.341,152.221,237.979,148.515z"/>
<path fill-rule="evenodd" clip-rule="evenodd" fill="#006680" d="M212.483,134.681c3.82,3.266,7.133,6.098,10.57,9.037
	c-3.828,1.864-5.939,1.837-8.27-0.019C212.064,141.531,211.4,138.719,212.483,134.681z"/>
</svg>
