<?xml version="1.0" encoding="UTF-8" standalone="no"?>
<!-- Created with Inkscape (http://www.inkscape.org/) -->

<svg
   xmlns:dc="http://purl.org/dc/elements/1.1/"
   xmlns:cc="http://creativecommons.org/ns#"
   xmlns:rdf="http://www.w3.org/1999/02/22-rdf-syntax-ns#"
   xmlns:svg="http://www.w3.org/2000/svg"
   xmlns="http://www.w3.org/2000/svg"
   xmlns:sodipodi="http://sodipodi.sourceforge.net/DTD/sodipodi-0.dtd"
   xmlns:inkscape="http://www.inkscape.org/namespaces/inkscape"
   width="100mm"
   height="30mm"
   viewBox="0 0 100 30"
   version="1.1"
   id="svg8"
   inkscape:version="0.92.4 (5da689c313, 2019-01-14)"
   sodipodi:docname="menu_section.svg"
   inkscape:export-filename="/media/DATA/Seafile/DEVELOPMENT/TRYTON/TRYTON-5.0/FRONTENDS/neox/neox/share/menu.png"
   inkscape:export-xdpi="50.799999"
   inkscape:export-ydpi="50.799999">
  <defs
     id="defs2">
    <filter
       inkscape:collect="always"
       style="color-interpolation-filters:sRGB"
       id="filter1117"
       x="-0.023622749"
       width="1.0472455"
       y="-0.07562305"
       height="1.1512461">
      <feGaussianBlur
         inkscape:collect="always"
         stdDeviation="0.498419"
         id="feGaussianBlur1119" />
    </filter>
  </defs>
  <sodipodi:namedview
     id="base"
     pagecolor="#ffffff"
     bordercolor="#666666"
     borderopacity="1.0"
     inkscape:pageopacity="0.0"
     inkscape:pageshadow="2"
     inkscape:zoom="0.98994949"
     inkscape:cx="197.06429"
     inkscape:cy="44.674911"
     inkscape:document-units="mm"
     inkscape:current-layer="layer1"
     showgrid="false"
     inkscape:window-width="1330"
     inkscape:window-height="836"
     inkscape:window-x="70"
     inkscape:window-y="27"
     inkscape:window-maximized="1" />
  <metadata
     id="metadata5">
    <rdf:RDF>
      <cc:Work
         rdf:about="">
        <dc:format>image/svg+xml</dc:format>
        <dc:type
           rdf:resource="http://purl.org/dc/dcmitype/StillImage" />
        <dc:title></dc:title>
      </cc:Work>
    </rdf:RDF>
  </metadata>
  <g
     inkscape:label="Layer 1"
     inkscape:groupmode="layer"
     id="layer1"
     transform="translate(0,-267)">
    <text
       xml:space="preserve"
       style="font-style:normal;font-variant:normal;font-weight:normal;font-stretch:normal;font-size:18.86659431px;line-height:1.25;font-family:'Aller Display';-inkscape-font-specification:'Aller Display';letter-spacing:0px;word-spacing:0px;fill:#ff9955;fill-opacity:1;stroke:none;stroke-width:0.47166479"
       x="28.838203"
       y="289.38608"
       id="text817"
       inkscape:export-filename="/home/psk/text817-3.png"
       inkscape:export-xdpi="136"
       inkscape:export-ydpi="136"><tspan
         sodipodi:role="line"
         id="tspan815"
         x="28.838203"
         y="289.38608"
         style="fill:#ff9955;stroke-width:0.47166479">Menu</tspan></text>
    <g
       id="g1097"
       transform="matrix(0.03877099,0,0,0.03877099,7.2309428,272.30016)"
       inkscape:export-filename="/home/psk/text817-3.png"
       inkscape:export-xdpi="136"
       inkscape:export-ydpi="136">
      <g
         id="g1035"
         style="fill:#d8d6d4">
        <path
           id="path1023"
           d="M 56.40625,72.722656 H 23.636719 c -8.863281,0 -16.046875,-7.183594 -16.046875,-16.046875 0,-8.859375 7.183594,-16.042969 16.046875,-16.042969 H 56.40625 c 8.863281,0 16.046875,7.183594 16.046875,16.042969 0,8.863281 -7.183594,16.046875 -16.046875,16.046875 z m 0,0"
           inkscape:connector-curvature="0" />
        <path
           id="path1025"
           d="M 56.40625,152.44922 H 23.636719 c -8.863281,0 -16.046875,-7.1836 -16.046875,-16.04297 0,-8.85937 7.183594,-16.04297 16.046875,-16.04297 H 56.40625 c 8.863281,0 16.046875,7.1836 16.046875,16.04297 0,8.85937 -7.183594,16.04297 -16.046875,16.04297 z m 0,0"
           inkscape:connector-curvature="0" />
        <path
           id="path1027"
           d="M 56.40625,232.17969 H 23.636719 c -8.863281,0 -16.046875,-7.1836 -16.046875,-16.04297 0,-8.86328 7.183594,-16.04297 16.046875,-16.04297 H 56.40625 c 8.863281,0 16.046875,7.17969 16.046875,16.04297 0,8.85937 -7.183594,16.04297 -16.046875,16.04297 z m 0,0"
           inkscape:connector-curvature="0" />
        <path
           id="path1029"
           d="M 56.40625,311.91016 H 23.636719 c -8.863281,0 -16.046875,-7.1836 -16.046875,-16.04688 0,-8.85937 7.183594,-16.04297 16.046875,-16.04297 H 56.40625 c 8.863281,0 16.046875,7.1836 16.046875,16.04297 0,8.86328 -7.183594,16.04688 -16.046875,16.04688 z m 0,0"
           inkscape:connector-curvature="0" />
        <path
           id="path1031"
           d="M 56.40625,391.63672 H 23.636719 c -8.863281,0 -16.046875,-7.1836 -16.046875,-16.04297 0,-8.85938 7.183594,-16.04297 16.046875,-16.04297 H 56.40625 c 8.863281,0 16.046875,7.1836 16.046875,16.04297 0,8.85937 -7.183594,16.04297 -16.046875,16.04297 z m 0,0"
           inkscape:connector-curvature="0" />
        <path
           id="path1033"
           d="M 56.40625,471.36719 H 23.636719 c -8.863281,0 -16.046875,-7.1836 -16.046875,-16.04297 0,-8.85938 7.183594,-16.04297 16.046875,-16.04297 H 56.40625 c 8.863281,0 16.046875,7.18359 16.046875,16.04297 0,8.85937 -7.183594,16.04297 -16.046875,16.04297 z m 0,0"
           inkscape:connector-curvature="0" />
      </g>
      <path
         id="path1037"
         d="M 409.48437,504.41016 H 50.042969 c -6.484375,0 -11.742188,-5.25782 -11.742188,-11.74219 V 19.328125 c 0,-6.480469 5.257813,-11.738281 11.742188,-11.738281 H 409.48437 c 6.48438,0 11.73829,5.257812 11.73829,11.738281 V 492.67187 c 0,6.48047 -5.25391,11.73829 -11.73829,11.73829 z m 0,0"
         inkscape:connector-curvature="0"
         style="fill:#e88c38" />
      <path
         id="path1039"
         d="M 409.48437,7.589844 H 362.86328 V 504.41016 h 46.62109 c 6.48438,0 11.73829,-5.25782 11.73829,-11.73829 V 19.328125 c 0,-6.480469 -5.25391,-11.738281 -11.73829,-11.738281 z m 0,0"
         inkscape:connector-curvature="0"
         style="fill:#d38231" />
      <path
         id="path1041"
         d="m 243.6875,118.44922 h -27.84766 l -2.78906,-26.640626 c -0.53125,-5.105469 3.47266,-9.546875 8.60547,-9.546875 h 16.21484 c 5.13282,0 9.13672,4.441406 8.60547,9.546875 z m 0,0"
         inkscape:connector-curvature="0"
         style="fill:#ffffff" />
      <path
         id="path1043"
         d="M 336.25391,227.44141 H 123.27344 v -9.04688 c 0,-58.8125 47.67968,-106.49219 106.48828,-106.49219 58.8125,0 106.49219,47.67969 106.49219,106.49219 z m 0,0"
         inkscape:connector-curvature="0"
         style="fill:#e2e2e2" />
      <path
         id="path1045"
         d="m 229.76172,111.90234 c -10.11719,0 -19.90625,1.41407 -29.17969,4.05079 44.625,12.68749 77.30859,53.74609 77.30859,102.4414 v 9.04688 h 58.36329 v -9.04688 c 0,-58.8125 -47.67969,-106.49219 -106.49219,-106.49219 z m 0,0"
         inkscape:connector-curvature="0"
         style="fill:#c9c9c9" />
      <path
         id="path1047"
         d="M 351.03125,219.71875 H 108.49609 c -2.33593,0 -4.23046,1.89062 -4.23046,4.22656 v 15.66406 c 0,2.33204 1.89453,4.22657 4.23046,4.22657 h 242.53516 c 2.33594,0 4.22656,-1.89453 4.22656,-4.22657 v -15.66406 c 0,-2.33594 -1.89062,-4.22656 -4.22656,-4.22656 z m 0,0"
         inkscape:connector-curvature="0"
         style="fill:#d8d6d4" />
      <path
         id="path1049"
         d="m 135.74609,380.71094 c -0.98828,1.79687 -2.51953,2.33593 -3.95703,2.33593 -1.4375,0 -2.875,-0.53906 -3.86328,-2.33593 l -10.33984,-19.41797 v 39.37109 c 0,2.42969 -2.96485,3.6875 -5.83985,3.6875 -2.96875,0 -5.84375,-1.25781 -5.84375,-3.6875 v -56.18359 c 0,-4.3125 2.875,-5.83985 5.84375,-5.83985 4.22266,0 6.11329,0.89844 9.07813,6.19922 l 11.05859,20.13672 11.05469,-20.13672 c 2.96875,-5.30078 4.94531,-6.19922 9.17187,-6.19922 2.96485,0 5.83985,1.52735 5.83985,5.83985 v 56.18359 c 0,2.42969 -2.96485,3.6875 -5.83985,3.6875 -2.96875,0 -5.84375,-1.25781 -5.84375,-3.6875 v -38.65234 z m 0,0"
         inkscape:connector-curvature="0" />
      <path
         id="path1051"
         d="m 190.48437,366.86328 h 13.66407 c 2.33593,0 3.68359,2.25 3.68359,4.67578 0,2.06641 -1.16797,4.4961 -3.68359,4.4961 h -13.66407 v 18.0664 h 25.4375 c 2.33985,0 3.6875,2.42578 3.6875,5.21485 0,2.42578 -1.16796,5.03515 -3.6875,5.03515 h -32 c -2.60546,0 -5.125,-1.26172 -5.125,-3.6875 v -58.33984 c 0,-2.42578 2.51563,-3.6875 5.125,-3.6875 h 32 c 2.51954,0 3.6875,2.60937 3.6875,5.03515 0,2.78907 -1.34765,5.21485 -3.6875,5.21485 h -25.4375 z m 0,0"
         inkscape:connector-curvature="0" />
      <path
         id="path1053"
         d="m 267.51953,400.66406 -19.32812,-36.13672 v 36.13672 c 0,2.42969 -2.96485,3.6875 -5.84375,3.6875 -2.96485,0 -5.84375,-1.25781 -5.84375,-3.6875 v -58.33984 c 0,-2.51563 2.8789,-3.6836 5.84375,-3.6836 4.22656,0 5.93359,0.89844 8.72265,6.19922 l 17.34766,33.53125 v -36.13672 c 0,-2.51562 2.875,-3.59765 5.84375,-3.59765 2.875,0 5.83984,1.07812 5.83984,3.59765 v 58.42969 c 0,2.42578 -2.96484,3.6875 -5.83984,3.6875 -2.78906,0 -5.21485,-0.89844 -6.74219,-3.6875 z m 0,0"
         inkscape:connector-curvature="0" />
      <path
         id="path1055"
         d="m 332.14844,342.23437 c 0,-2.51562 2.875,-3.59375 5.83984,-3.59375 2.87891,0 5.84375,1.07813 5.84375,3.59375 v 42.07032 c 0,15.01172 -9.52734,20.58593 -21.57422,20.58593 -12.13672,0 -21.57422,-5.57421 -21.57422,-20.58593 v -42.07032 c 0,-2.51562 2.875,-3.59375 5.84375,-3.59375 2.875,0 5.83985,1.07813 5.83985,3.59375 v 42.07032 c 0,7.01172 3.6875,10.33984 9.89062,10.33984 6.20313,0 9.88672,-3.32812 9.88672,-10.33984 v -42.07032 z m 0,0"
         inkscape:connector-curvature="0" />
      <path
         id="path1057"
         d="m 355.25781,422.14844 h -42.73047 c -4.19531,0 -7.59375,3.39843 -7.59375,7.58984 0,4.19531 3.39844,7.58984 7.59375,7.58984 h 42.73047 c 4.19531,0 7.58985,-3.39453 7.58985,-7.58984 0,-4.19141 -3.39454,-7.58984 -7.58985,-7.58984 z m 0,0"
         inkscape:connector-curvature="0" />
      <path
         id="path1059"
         d="M 277.20703,422.14844 H 104.26562 c -4.1914,0 -7.589839,3.39843 -7.589839,7.58984 0,4.19531 3.398439,7.58984 7.589839,7.58984 h 172.94141 c 4.19531,0 7.58984,-3.39453 7.58984,-7.58984 0,-4.19141 -3.39453,-7.58984 -7.58984,-7.58984 z m 0,0"
         inkscape:connector-curvature="0" />
      <path
         id="path1061"
         d="M 355.25781,306.24219 H 104.26563 c -4.19141,0 -7.589849,3.39843 -7.589849,7.58984 0,4.19141 3.398439,7.58984 7.589849,7.58984 h 250.99218 c 4.19531,0 7.58985,-3.39843 7.58985,-7.58984 0,-4.19141 -3.39453,-7.58984 -7.58985,-7.58984 z m 0,0"
         inkscape:connector-curvature="0" />
      <path
         id="path1063"
         d="m 351.03516,212.12891 h -7.36719 c -2.84375,-52.30079 -41.07422,-95.33985 -91.10938,-105.52735 l 1.46485,-14.003904 c 0.48047,-4.570312 -1.01172,-9.148437 -4.08594,-12.558594 -3.07422,-3.414062 -7.47266,-5.371093 -12.06641,-5.371093 h -16.21484 c -4.59766,0 -8.99219,1.960937 -12.07031,5.371093 -3.07422,3.414063 -4.5625,7.992188 -4.08203,12.558594 l 1.46484,14.003904 c -50.03516,10.1875 -88.26563,53.22266 -91.10938,105.52344 h -7.36718 c -6.51563,0 -11.816409,5.30078 -11.816409,11.81641 v 15.66406 c 0,6.51562 5.300779,11.8164 11.816409,11.8164 h 242.53906 c 6.51562,0 11.81641,-5.30078 11.81641,-11.8164 v -15.66406 c 0,-6.51172 -5.29688,-11.8125 -11.8125,-11.8125 z M 220.86719,90.199219 c 0.21093,-0.230469 0.47265,-0.347657 0.78906,-0.347657 h 16.21484 c 0.3125,0 0.57813,0.117188 0.78907,0.347657 0.21093,0.234375 0.30078,0.511719 0.26562,0.820312 l -1.41797,13.562499 c -2.55859,-0.17187 -5.14062,-0.26953 -7.74219,-0.26953 -2.60546,0 -5.18359,0.0977 -7.74218,0.26953 l -1.42188,-13.562499 c -0.0312,-0.308593 0.0586,-0.585937 0.26563,-0.820312 z M 347.66797,236.24219 h -235.8086 v -8.9336 h 31.98829 c 4.19531,0 7.59375,-3.39843 7.59375,-7.58984 0,-4.19141 -3.39844,-7.58984 -7.59375,-7.58984 h -12.77735 c 3.24219,-51.625 46.26563,-92.63282 98.69141,-92.63282 52.42969,0 95.45312,41.00782 98.69531,92.63282 H 179.16797 c -4.19531,0 -7.58985,3.39843 -7.58985,7.58984 0,4.19141 3.39454,7.58984 7.58985,7.58984 h 168.5 z m 0,0"
         inkscape:connector-curvature="0" />
      <path
         id="path1065"
         d="M 409.48437,0 H 50.042969 C 39.386719,0 30.714844,8.671875 30.714844,19.328125 V 33.039062 H 23.632812 C 10.601562,33.039062 0,43.644531 0,56.675781 0,69.707031 10.601562,80.3125 23.632812,80.3125 h 7.082032 v 32.45703 H 23.632812 C 10.601562,112.76953 0,123.37109 0,136.40625 c 0,13.03125 10.601562,23.63281 23.632812,23.63281 h 7.082032 V 192.5 H 23.632812 C 10.601562,192.5 0,203.10156 0,216.13672 c 0,13.03125 10.601562,23.63281 23.632812,23.63281 h 7.082032 v 32.46094 H 23.632812 C 10.601562,272.23047 0,282.83203 0,295.86328 0,308.89844 10.601562,319.5 23.632812,319.5 h 7.082032 v 32.46094 H 23.632812 C 10.601562,351.96094 0,362.5625 0,375.59375 c 0,13.03516 10.601562,23.63672 23.632812,23.63672 h 7.082032 v 32.46094 H 23.632812 C 10.601562,431.69141 0,442.29297 0,455.32422 c 0,13.03125 10.601562,23.63672 23.632812,23.63672 h 7.082032 v 13.71093 C 30.714844,503.32812 39.386719,512 50.042969,512 H 409.48437 c 10.65625,0 19.33204,-8.67188 19.33204,-19.32813 V 19.328125 C 428.81641,8.671875 420.14062,0 409.48437,0 Z M 30.710938,65.132812 h -7.078126 c -4.660156,0 -8.453124,-3.792968 -8.453124,-8.457031 0,-4.660156 3.792968,-8.453125 8.453124,-8.453125 h 7.078126 z m 0,79.726558 h -7.078126 c -4.660156,0 -8.453124,-3.79296 -8.453124,-8.45312 0,-4.66406 3.792968,-8.45312 8.453124,-8.45312 h 7.078126 z m 0,79.73047 h -7.078126 c -4.660156,0 -8.453124,-3.79297 -8.453124,-8.45312 0,-4.66406 3.792968,-8.45703 8.453124,-8.45703 h 7.078126 z m 0,79.73047 h -7.078126 c -4.660156,0 -8.453124,-3.79297 -8.453124,-8.45703 0,-4.66015 3.792968,-8.45312 8.453124,-8.45312 h 7.078126 z m 0,79.72656 h -7.078126 c -4.660156,0 -8.453124,-3.78906 -8.453124,-8.45312 0,-4.66016 3.792968,-8.45313 8.453124,-8.45313 h 7.078126 z m 0,79.73047 h -7.078126 c -4.660156,0 -8.453124,-3.79297 -8.453124,-8.45312 0,-4.66406 3.792968,-8.45313 8.453124,-8.45313 h 7.078126 z m 382.921872,28.89063 c 0,2.28906 -1.85937,4.15234 -4.14844,4.15234 H 50.042969 c -2.289063,0 -4.148438,-1.86328 -4.148438,-4.15234 V 19.328125 c 0,-2.285156 1.859375,-4.148437 4.148438,-4.148437 H 409.48437 c 2.28907,0 4.14844,1.863281 4.14844,4.148437 z m 0,0"
         inkscape:connector-curvature="0" />
    </g>
    <text
       xml:space="preserve"
       style="font-style:normal;font-variant:normal;font-weight:normal;font-stretch:normal;font-size:21.46269035px;line-height:1.25;font-family:'Aller Display';-inkscape-font-specification:'Aller Display';letter-spacing:0px;word-spacing:0px;opacity:0.303;fill:#ffd42a;fill-opacity:1;stroke:none;stroke-width:0.53656721;filter:url(#filter1117)"
       x="35.441837"
       y="289.94626"
       id="text817-3"
       transform="matrix(0.87904139,0,0,0.87904139,-2.072699,34.718175)"
       inkscape:export-filename="/home/psk/text817-3.png"
       inkscape:export-xdpi="136"
       inkscape:export-ydpi="136"><tspan
         sodipodi:role="line"
         id="tspan815-6"
         x="35.441837"
         y="289.94626"
         style="fill:#ffd42a;stroke-width:0.53656721">Menu</tspan></text>
  </g>
</svg>
