<?xml version="1.0" encoding="UTF-8" standalone="no"?>
<!-- Generator: Adobe Illustrator 19.0.0, SVG Export Plug-In . SVG Version: 6.00 Build 0)  -->

<svg
   xmlns:dc="http://purl.org/dc/elements/1.1/"
   xmlns:cc="http://creativecommons.org/ns#"
   xmlns:rdf="http://www.w3.org/1999/02/22-rdf-syntax-ns#"
   xmlns:svg="http://www.w3.org/2000/svg"
   xmlns="http://www.w3.org/2000/svg"
   xmlns:sodipodi="http://sodipodi.sourceforge.net/DTD/sodipodi-0.dtd"
   xmlns:inkscape="http://www.inkscape.org/namespaces/inkscape"
   version="1.1"
   id="Capa_1"
   x="0px"
   y="0px"
   viewBox="0 0 48 48"
   xml:space="preserve"
   inkscape:version="0.91 r13725"
   sodipodi:docname="photo-camera.svg"
   inkscape:export-filename="/mnt/Data/Seafile/Development/TRYTON/TRYTON-4.0/FRONTENDS/presik_pos/neo/share/photo-camera.svg.png"
   inkscape:export-xdpi="266"
   inkscape:export-ydpi="266"
   width="48"
   height="48"><metadata
     id="metadata59"><rdf:RDF><cc:Work
         rdf:about=""><dc:format>image/svg+xml</dc:format><dc:type
           rdf:resource="http://purl.org/dc/dcmitype/StillImage" /><dc:title></dc:title></cc:Work></rdf:RDF></metadata><defs
     id="defs57" /><sodipodi:namedview
     pagecolor="#ffffff"
     bordercolor="#666666"
     borderopacity="1"
     objecttolerance="10"
     gridtolerance="10"
     guidetolerance="10"
     inkscape:pageopacity="0"
     inkscape:pageshadow="2"
     inkscape:window-width="1855"
     inkscape:window-height="1056"
     id="namedview55"
     showgrid="false"
     inkscape:zoom="4.0689655"
     inkscape:cx="39.322034"
     inkscape:cy="23.5"
     inkscape:window-x="65"
     inkscape:window-y="24"
     inkscape:window-maximized="1"
     inkscape:current-layer="Capa_1" /><path
     style="fill:#556080"
     d="m 37.37275,13.819329 -3.322022,-7.7515323 -19.932134,0 -3.322022,7.7515323 -7.6414814,0 C 1.4126899,13.819329 0,15.137865 0,16.764137 L 0,39.528838 C 0,41.169837 1.4251475,42.5 3.1833278,42.5 l 41.8018362,0 c 1.75818,0 3.183327,-1.330163 3.183327,-2.971162 l 0,-22.764701 c 0,-1.626272 -1.412689,-2.944808 -3.15509,-2.944808 l -7.640651,0 z"
     id="path3"
     inkscape:connector-curvature="0" /><ellipse
     style="fill:#424a60;stroke:#2b313d;stroke-width:1.6047045;stroke-linecap:round;stroke-miterlimit:10"
     cx="24.084661"
     cy="26.221781"
     id="circle5"
     rx="14.118594"
     ry="13.177606" /><ellipse
     style="fill:#7383bf"
     cx="24.084661"
     cy="26.221781"
     id="circle7"
     rx="9.135561"
     ry="8.5266857" /><rect
     x="4.9830332"
     y="9.9435625"
     style="fill:#38454f"
     width="3.3220222"
     height="3.8757663"
     id="rect9" /><ellipse
     style="fill:#cccccc"
     cx="42.355782"
     cy="19.245401"
     id="circle11"
     rx="2.4915166"
     ry="2.3254597" /><path
     style="fill:#879ad8"
     d="m 26.576178,26.221781 c 0,2.786676 1.177657,5.253989 2.98982,6.809722 2.214958,-1.555733 3.654224,-4.023046 3.654224,-6.809722 0,-2.786675 -1.439266,-5.253988 -3.654224,-6.809721 -1.812163,1.555733 -2.98982,4.023046 -2.98982,6.809721 z"
     id="path13"
     inkscape:connector-curvature="0" /><path
     style="fill:#879ad8"
     d="m 14.9491,26.221781 c 0,2.786676 1.439266,5.253989 3.654224,6.809722 1.812163,-1.555733 2.98982,-4.023046 2.98982,-6.809722 0,-2.786675 -1.177657,-5.253988 -2.98982,-6.809721 -2.214958,1.555733 -3.654224,4.023046 -3.654224,6.809721 z"
     id="path15"
     inkscape:connector-curvature="0" /><path
     style="fill:#556080"
     d="m 24.084661,35.523621 c -5.495455,0 -9.966067,-4.17265 -9.966067,-9.30184 0,-5.129189 4.470612,-9.301839 9.966067,-9.301839 5.495455,0 9.966067,4.17265 9.966067,9.301839 0,5.12919 -4.470612,9.30184 -9.966067,9.30184 z m 0,-17.053372 c -4.579408,0 -8.305056,3.477337 -8.305056,7.751532 0,4.274196 3.725648,7.751533 8.305056,7.751533 4.579408,0 8.305056,-3.477337 8.305056,-7.751533 0,-4.274195 -3.725648,-7.751532 -8.305056,-7.751532 z"
     id="path17"
     inkscape:connector-curvature="0" /><ellipse
     style="fill:#bccef7"
     cx="21.885229"
     cy="24.168938"
     id="circle23"
     rx="2.783601"
     ry="2.5980771" /><g
     id="g25"
     transform="translate(0,-10)" /><g
     id="g27"
     transform="translate(0,-10)" /><g
     id="g29"
     transform="translate(0,-10)" /><g
     id="g31"
     transform="translate(0,-10)" /><g
     id="g33"
     transform="translate(0,-10)" /><g
     id="g35"
     transform="translate(0,-10)" /><g
     id="g37"
     transform="translate(0,-10)" /><g
     id="g39"
     transform="translate(0,-10)" /><g
     id="g41"
     transform="translate(0,-10)" /><g
     id="g43"
     transform="translate(0,-10)" /><g
     id="g45"
     transform="translate(0,-10)" /><g
     id="g47"
     transform="translate(0,-10)" /><g
     id="g49"
     transform="translate(0,-10)" /><g
     id="g51"
     transform="translate(0,-10)" /><g
     id="g53"
     transform="translate(0,-10)" /></svg>